<?xml version="1.0" standalone="no"?>
<!DOCTYPE svg PUBLIC "-//W3C//DTD SVG 20010904//EN"
 "http://www.w3.org/TR/2001/REC-SVG-20010904/DTD/svg10.dtd">
<svg version="1.0" xmlns="http://www.w3.org/2000/svg"
 width="1024.000000pt" height="1024.000000pt" viewBox="0 0 1024.000000 1024.000000"
 preserveAspectRatio="xMidYMid meet">
<metadata>
Created by potrace 1.11, written by Peter Selinger 2001-2013
</metadata>
<g transform="translate(0.000000,1024.000000) scale(0.100000,-0.100000)"
fill="#000000" stroke="none">
<path d="M4785 10234 c-22 -2 -92 -9 -155 -14 -1453 -131 -2814 -915 -3676
-2120 -480 -670 -787 -1430 -903 -2235 -41 -281 -46 -364 -46 -745 0 -381 5
-464 46 -745 278 -1921 1645 -3535 3499 -4133 332 -107 682 -180 1080 -224
155 -17 825 -17 980 0 687 76 1269 246 1843 539 88 45 105 57 93 67 -8 6 -383
509 -833 1117 l-818 1105 -1025 1517 c-564 834 -1028 1516 -1032 1516 -4 1 -8
-673 -10 -1496 -3 -1441 -4 -1499 -22 -1533 -26 -49 -46 -69 -88 -91 -32 -16
-60 -19 -211 -19 l-173 0 -46 29 c-30 19 -52 44 -67 73 l-21 45 2 2005 3 2006
31 39 c16 21 50 48 74 61 41 20 57 22 230 22 204 0 238 -8 291 -66 15 -16 570
-852 1234 -1859 664 -1007 1572 -2382 2018 -3057 l810 -1227 41 27 c363 236
747 572 1051 922 647 743 1064 1649 1204 2615 41 281 46 364 46 745 0 381 -5
464 -46 745 -278 1921 -1645 3535 -3499 4133 -327 106 -675 179 -1065 223 -96
10 -757 21 -840 13z m2094 -3094 c48 -24 87 -70 101 -118 8 -26 10 -582 8
-1835 l-3 -1798 -317 486 -318 486 0 1307 c0 845 4 1320 10 1343 16 56 51 100
99 126 41 21 56 23 213 23 148 0 174 -2 207 -20z"/>
<path d="M7843 789 c-35 -22 -46 -37 -15 -20 22 13 58 40 52 41 -3 0 -20 -10
-37 -21z"/>
<path d="M7774 744 c-18 -14 -18 -15 4 -4 12 6 22 13 22 15 0 8 -5 6 -26 -11z"/>
<path d="M7724 714 c-18 -14 -18 -15 4 -4 12 6 22 13 22 15 0 8 -5 6 -26 -11z"/>
<path d="M7674 684 c-18 -14 -18 -15 4 -4 12 6 22 13 22 15 0 8 -5 6 -26 -11z"/>
<path d="M7598 644 c-38 -20 -36 -28 2 -9 17 9 30 18 30 20 0 7 -1 6 -32 -11z"/>
</g>
</svg>
