<svg xmlns="http://www.w3.org/2000/svg" class="ionicon" viewBox="0 0 512 512"><path d="M407.72 224c-3.4 0-14.79.1-18 .3l-64.9 1.7a1.83 1.83 0 01-1.69-.9L193.55 67.56a9 9 0 00-6.66-3.56H160l73 161a2.35 2.35 0 01-2.26 3.35l-121.69 1.8a8.06 8.06 0 01-6.6-3.1l-37-45c-3-3.9-8.62-6-13.51-6H33.08c-1.29 0-1.1 1.21-.75 2.43l19.84 71.42a16.3 16.3 0 010 11.9L32.31 333c-.59 1.95-.52 3 1.77 3H52c8.14 0 9.25-1.06 13.41-6.3l37.7-45.7a8.19 8.19 0 016.6-3.1l120.68 2.7a2.7 2.7 0 012.43 3.74L160 448h26.64a9 9 0 006.65-3.55L323.14 287c.39-.6 2-.9 2.69-.9l63.9 1.7c3.3.2 14.59.3 18 .3C452 288.1 480 275.93 480 256s-27.88-32-72.28-32z" stroke-linecap="round" stroke-linejoin="round" class="ionicon-fill-none ionicon-stroke-width"/></svg>