<svg xmlns="http://www.w3.org/2000/svg" class="ionicon" viewBox="0 0 512 512"><path d="M186.62 464H160a16 16 0 01-14.57-22.6l64.46-142.25L113.1 297l-35.3 42.77C71.07 348.23 65.7 352 52 352H34.08a17.66 17.66 0 01-14.7-7.06c-2.38-3.21-4.72-8.65-2.44-16.41l19.82-71c.15-.53.33-1.06.53-1.58a.38.38 0 000-.15 14.82 14.82 0 01-.53-1.59l-19.84-71.45c-2.15-7.61.2-12.93 2.56-16.06a16.83 16.83 0 0113.6-6.7H52c10.23 0 20.16 4.59 26 12l34.57 42.05 97.32-1.44-64.44-142A16 16 0 01160 48h26.91a25 25 0 0119.35 9.8l125.05 152 57.77-1.52c4.23-.23 15.95-.31 18.66-.31C463 208 496 225.94 496 256c0 9.46-3.78 27-29.07 38.16-14.93 6.6-34.85 9.94-59.21 9.94-2.68 0-14.37-.08-18.66-.31l-57.76-1.54-125.36 152a25 25 0 01-19.32 9.75z"/></svg>