<svg xmlns="http://www.w3.org/2000/svg" class="ionicon" viewBox="0 0 512 512"><path d="M153.59 110.46A21.41 21.41 0 00152.48 79 62.67 62.67 0 00112 64l-3.27.09h-.48C74.4 66.15 48 95.55 48.07 131c0 19 8 29.06 14.32 37.11a20.61 20.61 0 0014.7 7.8c.26 0 .7.05 2 .05a19.06 19.06 0 0013.75-5.89zM403.79 64.11l-3.27-.1H400a62.67 62.67 0 00-40.52 15 21.41 21.41 0 00-1.11 31.44l60.77 59.65a19.06 19.06 0 0013.79 5.9c1.28 0 1.72 0 2-.05a20.61 20.61 0 0014.69-7.8c6.36-8.05 14.28-18.08 14.32-37.11.06-35.49-26.34-64.89-60.15-66.93z"/><path d="M256.07 96c-97 0-176 78.95-176 176a175.23 175.23 0 0040.81 112.56l-36.12 36.13a16 16 0 1022.63 22.62l36.12-36.12a175.63 175.63 0 00225.12 0l36.13 36.12a16 16 0 1022.63-22.62l-36.13-36.13A175.17 175.17 0 00432.07 272c0-97-78.95-176-176-176zm16 176a16 16 0 01-16 16h-80a16 16 0 010-32h64v-96a16 16 0 0132 0z"/></svg>