<svg xmlns="http://www.w3.org/2000/svg" class="ionicon" viewBox="0 0 512 512"><path d="M416.07 272a160 160 0 10-160 160 160 160 0 00160-160zM142.12 91.21A46.67 46.67 0 00112 80l-2.79.08C83.66 81.62 64 104 64.07 131c0 13.21 4.66 19.37 10.88 27.23a4.55 4.55 0 003.24 1.77h.88a3.23 3.23 0 002.54-1.31L142.38 99a5.38 5.38 0 001.55-4 5.26 5.26 0 00-1.81-3.79zM369.88 91.21A46.67 46.67 0 01400 80l2.79.08C428.34 81.62 448 104 447.93 131c0 13.21-4.66 19.37-10.88 27.23a4.55 4.55 0 01-3.24 1.76h-.88a3.23 3.23 0 01-2.54-1.31L369.62 99a5.38 5.38 0 01-1.55-4 5.26 5.26 0 011.81-3.79z" stroke-miterlimit="10" class="ionicon-fill-none ionicon-stroke-width"/><path stroke-linecap="round" stroke-linejoin="round" d="M256.07 160v112h-80M416.07 432l-40-40M96.07 432l40-40" class="ionicon-fill-none ionicon-stroke-width"/></svg>