<svg xmlns="http://www.w3.org/2000/svg" class="ionicon" viewBox="0 0 512 512"><path d="M122.06 122.06c-44.37 44.37-66.71 100.61-78 145.28l200.6 200.56c44.67-11.25 100.91-33.59 145.28-78s66.71-100.61 78-145.28L267.34 44.1c-44.67 11.25-100.91 33.59-145.28 77.96zm256.73 256.72zM300.65 189L323 166.71A15.78 15.78 0 01345.29 189L323 211.35l11.16 11.17a15.78 15.78 0 01-22.32 22.32l-11.16-11.16L278.32 256l11.16 11.16a15.78 15.78 0 11-22.32 22.32L256 278.32l-22.32 22.33 11.16 11.16a15.78 15.78 0 11-22.32 22.32L211.35 323 189 345.29A15.78 15.78 0 01166.71 323L189 300.65l-11.16-11.17a15.78 15.78 0 0122.32-22.32l11.16 11.16L233.68 256l-11.16-11.16a15.78 15.78 0 1122.32-22.32L256 233.68l22.32-22.33-11.16-11.16a15.78 15.78 0 0122.32-22.32zM476.57 199.63c7.31-54.53 4-120.26-20-144.21s-89.68-27.3-144.21-20c-2.51.34-5.16.72-7.91 1.15l171 171c.4-2.78.78-5.43 1.12-7.94zM35.43 312.37c-7.31 54.53-4 120.26 20 144.21C72.17 473.33 109.34 480 148.84 480a387 387 0 0050.79-3.43c2.51-.34 5.16-.72 7.91-1.15l-171-171c-.39 2.79-.77 5.44-1.11 7.95z"/></svg>