<svg xmlns="http://www.w3.org/2000/svg" class="ionicon" viewBox="0 0 512 512"><path d="M250.54 129.17l-67.8-67.8A209.65 209.65 0 0086.32 136h161.4a4 4 0 002.82-6.83zM167.72 168H67.63a207.34 207.34 0 00-16.15 125.9l119.06-119.07a4 4 0 00-2.82-6.83zM344 167.72V67.56a207.82 207.82 0 00-125.89-16.08l119.06 119.06a4 4 0 006.83-2.82zM460.52 218.1L341.46 337.17a4 4 0 002.82 6.83h100.09a207.34 207.34 0 0016.15-125.9zM382.83 250.54l67.83-67.82A209.08 209.08 0 00376 86.2v161.52a4 4 0 006.83 2.82zM221.68 341.77a8 8 0 005.54 2.23h59.66a8 8 0 005.7-2.39l49.18-50a8 8 0 002.3-5.62l-.06-60.81a8 8 0 00-2.38-5.69l-50-49.25a8 8 0 00-5.63-2.3l-60.84.06a8 8 0 00-5.69 2.38l-49.25 50a8 8 0 00-2.3 5.63l.06 60.78a8 8 0 002.45 5.76zM261.46 382.83l67.8 67.8A209.65 209.65 0 00425.68 376h-161.4a4 4 0 00-2.82 6.83zM168 344.28v100.16a207.82 207.82 0 00125.89 16.08L174.83 341.46a4 4 0 00-6.83 2.82zM129.17 261.46l-67.83 67.83A209.1 209.1 0 00136 425.8V264.28a4 4 0 00-6.83-2.82z"/></svg>