<svg xmlns="http://www.w3.org/2000/svg" class="ionicon" viewBox="0 0 512 512"><path d="M384 240H96V136a40.12 40.12 0 0140-40h240a40.12 40.12 0 0140 40v104zM48 416V304a64.19 64.19 0 0164-64h288a64.19 64.19 0 0164 64v112" stroke-linecap="round" stroke-linejoin="round" class="ionicon-fill-none ionicon-stroke-width"/><path d="M48 416v-8a24.07 24.07 0 0124-24h368a24.07 24.07 0 0124 24v8M112 240v-16a32.09 32.09 0 0132-32h80a32.09 32.09 0 0132 32v16M256 240v-16a32.09 32.09 0 0132-32h80a32.09 32.09 0 0132 32v16" stroke-linecap="round" stroke-linejoin="round" class="ionicon-fill-none ionicon-stroke-width"/></svg>