<svg xmlns="http://www.w3.org/2000/svg" class="ionicon" viewBox="0 0 512 512"><path d="M388 448a92 92 0 1192-92 92.1 92.1 0 01-92 92zm0-152a60 60 0 1060 60 60.07 60.07 0 00-60-60zM124 448a92 92 0 1192-92 92.1 92.1 0 01-92 92zm0-152a60 60 0 1060 60 60.07 60.07 0 00-60-60zM320 128a31.89 31.89 0 0032-32.1A31.55 31.55 0 00320.2 64a32 32 0 10-.2 64z"/><path d="M367.55 192h-43.76a4 4 0 01-3.51-2.08l-31.74-58.17a31 31 0 00-49.38-7.75l-69.86 70.4a32.56 32.56 0 00-9.3 22.4c0 17.4 12.6 23.6 18.5 27.1 28.5 16.42 48.57 28.43 59.58 35.1a4 4 0 011.92 3.41v69.12c0 8.61 6.62 16 15.23 16.43A16 16 0 00272 352v-86a16 16 0 00-6.66-13l-37-26.61a4 4 0 01-.58-6l42-44.79a4 4 0 016.42.79L298 215.77a16 16 0 0014 8.23h56a16 16 0 0016-16.77c-.42-8.61-7.84-15.23-16.45-15.23z"/></svg>