<svg xmlns="http://www.w3.org/2000/svg" class="ionicon" viewBox="0 0 512 512"><path d="M273.38 368.37c-.81-9.23-8.86-16.44-18.55-16.44a18.63 18.63 0 00-18.2 14.07l-18.2 88.36a35.59 35.59 0 00-.93 7.87c0 19.93 16.68 33.77 37.33 33.77s37.34-13.84 37.34-33.77a36.16 36.16 0 00-1.29-9.45zM411.05 407.89a42.66 42.66 0 00-5.95-4.36L335.57 355c-6.77-4.24-14-4.13-19.25 1a13.52 13.52 0 00-2 17.19l52.5 69a38 38 0 004 4.69c9.1 10.16 29.28 10.72 40.37 0 10.94-10.96 10.81-30.39-.14-38.99zM463.3 335.93h-70.42c-4.55 0-8.88 3.35-8.88 8.15s2.95 7.85 6.92 9.16l66.43 20.55C467 376 480 367.44 480 356.71c0-13.63-7.6-20.78-16.7-20.78zM128.22 344.08c0-4.95-4.55-8.15-9.45-8.15H48.35c-8.87 0-16.35 9.58-16.35 20.31S44.62 376 54.3 373.79l67.43-20.55c4.39-1.31 6.49-4.24 6.49-9.16zM176.55 355.05L107 403.41a32.29 32.29 0 00-6 4.34 26.33 26.33 0 000 38.56 29.41 29.41 0 0040.36 0 30.75 30.75 0 004-4.68L197.9 373c3.5-5.57 2.92-12.48-2-17a15 15 0 00-19.35-.95zM293.46 242.39c10-5.42 19.45-10.54 28.31-16.16 42.46-26.92 62.23-59 62.23-101 0-64.66-56.07-104.4-108.82-109-6.49-.57-15-.42-19.91 3.88s-5.88 12.56-6.15 19.1c-1.38 33.61-28.38 59-57 85.86-28 26.3-56.93 53.49-62.71 91-8.41 54.68 21.74 86.71 40.46 100.93a31.88 31.88 0 0019.3 6.51 32.32 32.32 0 007.41-.87 31.75 31.75 0 0021.27-16.95c14.91-30.39 45.77-47.12 75.61-63.3z"/><path d="M139.82 156.57c12.22-15.76 27-29.68 41.37-43.15 19.92-18.72 37.81-35.58 46.5-53.86-12.24-7.37-27.36-11.36-46.51-11.36-17.79 0-20.39 5.18-20.39 19.06 0 12.56-6.53 20.54-14.34 30.65C137.8 109.1 128 121.77 128 140.84c0 10.23 1.29 18.77 4.2 26.37q3.5-5.32 7.62-10.64zM330.34 239.74c-9.33 5.92-19 11.16-29.25 16.71-28.91 15.68-56.21 30.48-68.88 56.28a62.6 62.6 0 01-1.88 3.61 8 8 0 003.89 11.3c12.31 5.1 25.13 8.27 38.91 8.27a111.42 111.42 0 0078.24-31.37A107.45 107.45 0 00384 226.85a86.56 86.56 0 00-1.33-15 8 8 0 00-13.8-4c-10.18 11.47-22.93 22-38.53 31.89z"/></svg>