<svg xmlns="http://www.w3.org/2000/svg" class="ionicon" viewBox="0 0 512 512"><path d="M273.38 368.33c-.81-9.23-8.86-16.44-18.55-16.44a18.63 18.63 0 00-18.2 14.11l-18.2 88.38a35.75 35.75 0 00-.93 7.88c0 19.93 16.68 33.78 37.33 33.78s37.34-13.85 37.34-33.78a36.16 36.16 0 00-1.29-9.45zM411.05 407.86a41.78 41.78 0 00-5.95-4.35l-69.53-48.59c-6.77-4.25-14-4.13-19.25 1a13.53 13.53 0 00-2 17.2l52.5 69a36.57 36.57 0 004 4.69c9.1 10.17 29.28 10.73 40.37 0 10.94-10.91 10.81-30.35-.14-38.95zM463.3 335.88h-70.42c-4.55 0-8.88 3.35-8.88 8.16s2.95 7.85 6.92 9.16l66.43 20.55C467 376 480 367.4 480 356.66c0-13.66-7.6-20.78-16.7-20.78zM128.22 344c0-5-4.55-8.16-9.45-8.16H48.35c-8.87 0-16.35 9.58-16.35 20.32S44.62 376 54.3 373.75l67.43-20.55c4.39-1.31 6.49-4.2 6.49-9.2zM176.55 355L107 403.38a32.34 32.34 0 00-6 4.35 26.33 26.33 0 000 38.56 29.39 29.39 0 0040.36 0 30.75 30.75 0 004-4.68L197.9 373c3.5-5.58 2.92-12.49-2-17.06a15 15 0 00-19.35-.94z"/><path d="M368 125.09c0-55.7-49.22-89.16-94.2-93.06a8 8 0 00-8.69 7.71c-3.12 76-109.38 110.69-119.87 178.68-7 45.4 16.65 72.37 34.31 85.78a15.94 15.94 0 0023.93-5.62c22.5-45.86 74.33-63.49 109.72-85.94 42.88-27.2 54.8-56.44 54.8-87.55z" stroke-linecap="round" stroke-miterlimit="10" class="ionicon-fill-none ionicon-stroke-width"/><path d="M240 95.7c-12.82-23-30.51-31-59.16-31.63a3.86 3.86 0 00-4.06 3.51c-.95 34.22-32.78 44.85-32.78 73.15 0 19.37 5.39 29 17.16 39.28M352.45 178.76c8.6 14.31 15.55 30.08 15.55 48 0 52.52-42.47 93.1-94.86 93.1a94.42 94.42 0 01-65.14-26" stroke-linecap="round" stroke-miterlimit="10" class="ionicon-fill-none ionicon-stroke-width"/></svg>