<svg xmlns="http://www.w3.org/2000/svg" class="ionicon" viewBox="0 0 512 512"><path d="M199.89 336l-15.25-5.62a100.35 100.35 0 01-32-23.08c-13.93-14.9-29.29-40.71-23.38-79.11 5.2-33.73 44.2-74.21 69.34-97.87 27.24-25.62 66-65.85 64.15-99.15L262 16h15.18C328.53 16 384 53.62 384 114.41c0 45.57-22 77.61-68.91 106.9-8 5-16.44 9.66-25.42 14.53-30.63 16.62-75.29 49.83-85.73 85.32zM181.19 113.59C201 95 218.91 78.15 227.62 59.79q-2.76-1.68-5.7-3.09c-11.87-5.69-26.1-8.34-44.76-8.34h-16.94l.56 16.49c.47 14.06-6.06 22.51-14.33 33.21C137.8 109.26 128 121.94 128 141c0 10.23 1.29 18.76 4.2 26.36q3.5-5.31 7.61-10.63c12.19-15.73 27.05-29.68 41.38-43.14z"/><path d="M330.34 239.85c-9.31 5.9-19 11.14-29.25 16.71-32.65 17.69-63.48 34.44-73.23 67.44l-.6 2a110.5 110.5 0 0045.87 10c29.66 0 57.45-11.13 78.24-31.36A107.38 107.38 0 00384 227a92.39 92.39 0 00-5.59-31c-11.35 16.18-27.14 30.58-48.07 43.85zM268.72 360h-25.44a4 4 0 00-3.92 3.22l-25.36 128a4 4 0 003.92 4.78h76.26a4 4 0 003.92-4.78l-25.41-128a4 4 0 00-3.97-3.22zM325.68 354.32l-11.36 11.36a4 4 0 00-.5 5.05l59.47 89.21a4 4 0 006.16.61l41.1-41.1a4 4 0 00-.61-6.16l-89.21-59.47a4 4 0 00-5.05.5zM388 336a4 4 0 00-4 4v8.61a4 4 0 003.34 3.95l88 14.66a4 4 0 004.66-3.94V340a4 4 0 00-4-4zM186.32 354.32l11.36 11.36a4 4 0 01.5 5.05l-59.47 89.21a4 4 0 01-6.16.61l-41.1-41.1a4 4 0 01.61-6.16l89.21-59.47a4 4 0 015.05.5zM124 336H36a4 4 0 00-4 4v23.28a4 4 0 004.66 3.94l88-14.66a4 4 0 003.34-3.95V340a4 4 0 00-4-4z"/></svg>