<svg xmlns="http://www.w3.org/2000/svg" class="ionicon" viewBox="0 0 512 512"><rect x="80" y="112" width="352" height="192" rx="32" ry="32" stroke-linecap="round" stroke-linejoin="round" class="ionicon-fill-none ionicon-stroke-width"/><rect x="80" y="304" width="352" height="128" rx="32" ry="32" stroke-linecap="round" stroke-linejoin="round" class="ionicon-fill-none ionicon-stroke-width"/><path d="M400 112H112a32.09 32.09 0 01-32-32h0a32.09 32.09 0 0132-32h288a32.09 32.09 0 0132 32h0a32.09 32.09 0 01-32 32zM144 432v22a10 10 0 01-10 10h-28a10 10 0 01-10-10v-22zM416 432v22a10 10 0 01-10 10h-28a10 10 0 01-10-10v-22z" stroke-linecap="round" stroke-linejoin="round" class="ionicon-fill-none ionicon-stroke-width"/><circle cx="368" cy="368" r="16" stroke-linejoin="round" class="ionicon-fill-none ionicon-stroke-width"/><circle cx="144" cy="368" r="16" stroke-linejoin="round" class="ionicon-fill-none ionicon-stroke-width"/><path stroke-linecap="round" stroke-linejoin="round" d="M256 112v192M80 80v288M432 80v288" class="ionicon-fill-none ionicon-stroke-width"/></svg>