<svg xmlns="http://www.w3.org/2000/svg" class="ionicon" viewBox="0 0 512 512"><path d="M432 144h-59c-3 0-6.72-1.94-9.62-5l-25.94-40.94a15.52 15.52 0 00-1.37-1.85C327.11 85.76 315 80 302 80h-92c-13 0-25.11 5.76-34.07 16.21a15.52 15.52 0 00-1.37 1.85l-25.94 41c-2.22 2.42-5.34 5-8.62 5v-8a16 16 0 00-16-16h-24a16 16 0 00-16 16v8h-4a48.05 48.05 0 00-48 48V384a48.05 48.05 0 0048 48h352a48.05 48.05 0 0048-48V192a48.05 48.05 0 00-48-48zM316.84 346.3a96.06 96.06 0 01-155.66-59.18 16 16 0 01-16.49-26.43l20-20a16 16 0 0122.62 0l20 20A16 16 0 01196 288a17.31 17.31 0 01-2-.14 64.07 64.07 0 00102.66 33.63 16 16 0 1120.21 24.81zm50.47-63l-20 20a16 16 0 01-22.62 0l-20-20a16 16 0 0113.09-27.2A64 64 0 00215 222.64 16 16 0 11194.61 198a96 96 0 01156 59 16 16 0 0116.72 26.35z"/></svg>