<svg xmlns="http://www.w3.org/2000/svg" class="ionicon" viewBox="0 0 512 512"><path d="M488 224c-3-5-32.61-17.79-32.61-17.79 5.15-2.66 8.67-3.21 8.67-14.21 0-12-.06-16-8.06-16h-27.14c-.11-.24-.23-.49-.34-.74-17.52-38.26-19.87-47.93-46-60.95C347.47 96.88 281.76 96 256 96s-91.47.88-126.49 18.31c-26.16 13-25.51 19.69-46 60.95 0 .11-.21.4-.4.74H55.94c-7.94 0-8 4-8 16 0 11 3.52 11.55 8.67 14.21C56.61 206.21 28 220 24 224s-8 32-8 80 4 96 4 96h11.94c0 14 2.06 16 8.06 16h80c6 0 8-2 8-16h256c0 14 2 16 8 16h82c4 0 6-3 6-16h12s4-49 4-96-5-75-8-80zm-362.74 44.94A516.94 516.94 0 0170.42 272c-20.42 0-21.12 1.31-22.56-11.44a72.16 72.16 0 01.51-17.51L49 240h3c12 0 23.27.51 44.55 6.78a98 98 0 0130.09 15.06C131 265 132 268 132 268zm247.16 72L368 352H144s.39-.61-5-11.18c-4-7.82 1-12.82 8.91-15.66C163.23 319.64 208 304 256 304s93.66 13.48 108.5 21.16C370 328 376.83 330 372.42 341zm-257-136.53a96.23 96.23 0 01-9.7.07c2.61-4.64 4.06-9.81 6.61-15.21 8-17 17.15-36.24 33.44-44.35 23.54-11.72 72.33-17 110.23-17s86.69 5.24 110.23 17c16.29 8.11 25.4 27.36 33.44 44.35 2.57 5.45 4 10.66 6.68 15.33-2 .11-4.3 0-9.79-.19zm347.72 56.11C461 273 463 272 441.58 272a516.94 516.94 0 01-54.84-3.06c-2.85-.51-3.66-5.32-1.38-7.1a93.84 93.84 0 0130.09-15.06c21.28-6.27 33.26-7.11 45.09-6.69a3.22 3.22 0 013.09 3 70.18 70.18 0 01-.49 17.47z"/></svg>