<svg xmlns="http://www.w3.org/2000/svg" class="ionicon" viewBox="0 0 512 512"><path d="M447.68 220.78a16 16 0 00-1-3.08l-37.78-88.16C400.19 109.17 379 96 354.89 96H157.11c-24.09 0-45.3 13.17-54 33.54L65.29 217.7A15.72 15.72 0 0064 224v176a16 16 0 0016 16h32a16 16 0 0016-16v-16h256v16a16 16 0 0016 16h32a16 16 0 0016-16V224a16.15 16.15 0 00-.32-3.22zM144 320a32 32 0 1132-32 32 32 0 01-32 32zm224 0a32 32 0 1132-32 32 32 0 01-32 32zM104.26 208l28.23-65.85C136.11 133.69 146 128 157.11 128h197.78c11.1 0 21 5.69 24.62 14.15L407.74 208z"/></svg>