<svg xmlns="http://www.w3.org/2000/svg" class="ionicon" viewBox="0 0 512 512"><path d="M398 81.84A227.4 227.4 0 00255.82 32C194.9 32 138 55.47 95.46 98.09 54.35 139.33 31.82 193.78 32 251.37a215.66 215.66 0 0035.65 118.76l.19.27c.28.41.57.82.86 1.22s.65.92.73 1.05l.22.4c1.13 2 2 4.44 1.23 6.9l-18.42 66.66a29.13 29.13 0 00-1.2 7.63A25.69 25.69 0 0076.83 480a29.44 29.44 0 0010.45-2.29l67.49-24.36.85-.33a14.75 14.75 0 015.8-1.15 15.12 15.12 0 015.37 1c1.62.63 16.33 6.26 31.85 10.6 12.9 3.6 39.74 9 60.77 9 59.65 0 115.35-23.1 156.83-65.06C457.36 365.77 480 310.42 480 251.49a213.5 213.5 0 00-4.78-45c-10.34-48.62-37.76-92.9-77.22-124.65zM87.48 380zM160 288a32 32 0 1132-32 32 32 0 01-32 32zm96 0a32 32 0 1132-32 32 32 0 01-32 32zm96 0a32 32 0 1132-32 32 32 0 01-32 32z"/></svg>