<svg xmlns="http://www.w3.org/2000/svg" class="ionicon" viewBox="0 0 512 512"><path d="M473.66 210c-14-10.38-31.2-18-49.36-22.11a16.11 16.11 0 01-12.19-12.22c-7.8-34.75-24.59-64.55-49.27-87.13C334.15 62.25 296.21 47.79 256 47.79c-35.35 0-68 11.08-94.37 32.05a150.07 150.07 0 00-42.06 53 16 16 0 01-11.31 8.87c-26.75 5.4-50.9 16.87-69.34 33.12C13.46 197.33 0 227.24 0 261.39c0 34.52 14.49 66 40.79 88.76 25.12 21.69 58.94 33.64 95.21 33.64h104V230.42l-36.69 36.69a16 16 0 01-23.16-.56c-5.8-6.37-5.24-16.3.85-22.39l63.69-63.68a16 16 0 0122.62 0L331 244.14c6.28 6.29 6.64 16.6.39 22.91a16 16 0 01-22.68.06L272 230.42v153.37h124c31.34 0 59.91-8.8 80.45-24.77 23.26-18.1 35.55-44 35.55-74.83 0-29.94-13.26-55.61-38.34-74.19zM240 448.21a16 16 0 1032 0v-64.42h-32z"/></svg>