<svg xmlns="http://www.w3.org/2000/svg" class="ionicon" viewBox="0 0 512 512"><path d="M416 480c-35.29 0-64-29.11-64-64.88 0-33.29 28.67-65.4 44.08-82.64 1.87-2.1 3.49-3.91 4.68-5.31a19.94 19.94 0 0130.55 0c1.13 1.31 2.63 3 4.36 4.93 15.5 17.3 44.33 49.51 44.33 83.05 0 35.74-28.71 64.85-64 64.85zM398.23 276.64L166.89 47.22a52.1 52.1 0 00-73.6 0l-4.51 4.51a53.2 53.2 0 00-15.89 37.33A51.66 51.66 0 0088.14 126l41.51 41.5L45 252a44.52 44.52 0 00-13 32 42.81 42.81 0 0013.5 30.84l131.24 126a44 44 0 0061.08-.18l124.11-120.28a15.6 15.6 0 018.23-4.29 69.21 69.21 0 0111.93-.86h.3a22.53 22.53 0 0015.84-38.59zM152.29 144.85l-41.53-41.52a20 20 0 010-28.34l5.16-5.15a20.07 20.07 0 0128.39 0L186 111.21z"/></svg>