<svg xmlns="http://www.w3.org/2000/svg" class="ionicon" viewBox="0 0 512 512"><path d="M497.14 111.38l-81.09 80.84-48.58-48.41L448.56 63c-45.22-22-108.65-22.09-146.2 15.35-35.32 35.2-39.73 90.61-22.54 134.2L99.57 391.37a12 12 0 000 17l52.27 52.11a12 12 0 0017 0l180-180.5c43.16 16.21 98 11.64 132.74-23 37.5-37.45 37.42-100.34 15.56-145.6z"/><path d="M365.45 308.62l-71.83 72 75.53 79.92a10.88 10.88 0 0015.65.21l60-60.46a11 11 0 00-.24-15.69zM119 212c0-4.87-4-9.33-7.45-12.78l-.25-.24-1.54-1.47a1.06 1.06 0 01-.26-.8 16.16 16.16 0 019.52-2c1.27.13 5.91.9 12.4 4.91 3.38 2.09 32.63 30.23 43.93 40.7a11 11 0 00.14 15.35l7.43 7.86 65.66-65.17-8.25-7.84a10.87 10.87 0 00-15.31-.06c-23-24.68-29-35.45-31-42.45-4.42-15.47 4.14-28 14-36 5.84-4.62 17.88-8.08 29-9a52.72 52.72 0 0111.61.6c3.47.5 6.3 1.14 7.39 1.4a68.51 68.51 0 0111 4l12-19a88.38 88.38 0 00-13.4-17.7 115.05 115.05 0 00-5.19-5.1c-7.78-7.15-28-19.2-54.59-19.2a117.38 117.38 0 00-44.77 8.82c-37.44 15.34-61.88 36.25-73.11 47.35l-.07.07A219.55 219.55 0 0067 128.56c-5.35 7.53-4.77 15.84-4.38 21.34 0 .32 0 .67.07 1a18.41 18.41 0 00-10.78-3.5A18 18 0 0039 152.73L2 189.62a6.79 6.79 0 000 9.6L65 262a6.72 6.72 0 009.5 0l37.06-37c3.44-3.44 7.44-8.14 7.44-13z"/></svg>