<svg xmlns="http://www.w3.org/2000/svg" viewBox="0 0 512 512" class="ionicon"><path stroke-linecap="round" stroke-linejoin="round" d="M448 341.37V170.61A32 32 0 00432.11 143l-152-88.46a47.94 47.94 0 00-48.24 0L79.89 143A32 32 0 0064 170.61v170.76A32 32 0 0079.89 369l152 88.46a48 48 0 0048.24 0l152-88.46A32 32 0 00448 341.37z" class="ionicon-fill-none ionicon-stroke-width"/><path stroke-linecap="round" stroke-linejoin="round" d="M69 153.99l187 110 187-110M256 463.99v-200" class="ionicon-fill-none ionicon-stroke-width"/><ellipse cx="256" cy="152" rx="24" ry="16"/><ellipse cx="208" cy="296" rx="16" ry="24"/><ellipse cx="112" cy="328" rx="16" ry="24"/><ellipse cx="304" cy="296" rx="16" ry="24"/><ellipse cx="400" cy="240" rx="16" ry="24"/><ellipse cx="304" cy="384" rx="16" ry="24"/><ellipse cx="400" cy="328" rx="16" ry="24"/></svg>