<svg xmlns="http://www.w3.org/2000/svg" viewBox="0 0 512 512" class="ionicon"><path d="M440.88 129.37L288.16 40.62a64.14 64.14 0 00-64.33 0L71.12 129.37a4 4 0 000 6.9L254 243.85a4 4 0 004.06 0L440.9 136.27a4 4 0 00-.02-6.9zM256 152c-13.25 0-24-7.16-24-16s10.75-16 24-16 24 7.16 24 16-10.75 16-24 16zM238 270.81L54 163.48a4 4 0 00-6 3.46v173.92a48 48 0 0023.84 41.39L234 479.48a4 4 0 006-3.46V274.27a4 4 0 00-2-3.46zM96 368c-8.84 0-16-10.75-16-24s7.16-24 16-24 16 10.75 16 24-7.16 24-16 24zm96-32c-8.84 0-16-10.75-16-24s7.16-24 16-24 16 10.75 16 24-7.16 24-16 24zM458 163.51L274 271.56a4 4 0 00-2 3.45V476a4 4 0 006 3.46l162.15-97.23A48 48 0 00464 340.86V167a4 4 0 00-6-3.49zM320 424c-8.84 0-16-10.75-16-24s7.16-24 16-24 16 10.75 16 24-7.16 24-16 24zm0-88c-8.84 0-16-10.75-16-24s7.16-24 16-24 16 10.75 16 24-7.16 24-16 24zm96 32c-8.84 0-16-10.75-16-24s7.16-24 16-24 16 10.75 16 24-7.16 24-16 24zm0-88c-8.84 0-16-10.75-16-24s7.16-24 16-24 16 10.75 16 24-7.16 24-16 24z"/></svg>