<svg xmlns="http://www.w3.org/2000/svg" class="ionicon" viewBox="0 0 512 512"><path d="M298.39 248a4 4 0 002.86-6.8l-78.4-79.72a4 4 0 00-6.85 2.81V236a12 12 0 0012 12z"/><path d="M197 267a43.67 43.67 0 01-13-31v-92h-72a64.19 64.19 0 00-64 64v224a64 64 0 0064 64h144a64 64 0 0064-64V280h-92a43.61 43.61 0 01-31-13zM372 120h70.39a4 4 0 002.86-6.8l-78.4-79.72a4 4 0 00-6.85 2.81V108a12 12 0 0012 12z"/><path d="M372 152a44.34 44.34 0 01-44-44V16H220a60.07 60.07 0 00-60 60v36h42.12A40.81 40.81 0 01231 124.14l109.16 111a41.11 41.11 0 0111.83 29V400h53.05c32.51 0 58.95-26.92 58.95-60V152z"/></svg>