<svg xmlns="http://www.w3.org/2000/svg" class="ionicon" viewBox="0 0 512 512"><path d="M208 64h66.75a32 32 0 0122.62 9.37l141.26 141.26a32 32 0 019.37 22.62V432a48 48 0 01-48 48H192a48 48 0 01-48-48V304" stroke-linecap="round" stroke-linejoin="round" class="ionicon-fill-none ionicon-stroke-width"/><path d="M288 72v120a32 32 0 0032 32h120" stroke-linecap="round" stroke-linejoin="round" class="ionicon-fill-none ionicon-stroke-width"/><path d="M160 80v152a23.69 23.69 0 01-24 24c-12 0-24-9.1-24-24V88c0-30.59 16.57-56 48-56s48 24.8 48 55.38v138.75c0 43-27.82 77.87-72 77.87s-72-34.86-72-77.87V144" stroke-linecap="round" stroke-miterlimit="10" class="ionicon-fill-none ionicon-stroke-width"/></svg>