<svg xmlns="http://www.w3.org/2000/svg" viewBox="0 0 512 512" class="ionicon"><path d="M345.14 480H274a18 18 0 01-18-18v-27.71a31.32 31.32 0 00-9.71-22.77c-7.78-7.59-19.08-11.8-30.89-11.51-21.36.5-39.4 19.3-39.4 41.06V462a18 18 0 01-18 18H87.62A55.62 55.62 0 0132 424.38V354a18 18 0 0118-18h27.71c9.16 0 18.07-3.92 25.09-11a42.06 42.06 0 0012.2-29.92C114.7 273.89 97.26 256 76.91 256H50a18 18 0 01-18-18v-70.38A55.62 55.62 0 0187.62 112h55.24a8 8 0 008-8v-6.48A65.53 65.53 0 01217.54 32c35.49.62 64.36 30.38 64.36 66.33V104a8 8 0 008 8h55.24A54.86 54.86 0 01400 166.86v55.24a8 8 0 008 8h5.66c36.58 0 66.34 29 66.34 64.64 0 36.61-29.39 66.4-65.52 66.4H408a8 8 0 00-8 8v56A54.86 54.86 0 01345.14 480z"/></svg>