<svg xmlns="http://www.w3.org/2000/svg" class="ionicon" viewBox="0 0 512 512"><path d="M479.66 268.7l-32-151.81C441.48 83.77 417.68 64 384 64H128c-16.8 0-31 4.69-42.1 13.94s-18.37 22.31-21.58 38.89l-32 151.87A16.65 16.65 0 0032 272v112a64 64 0 0064 64h320a64 64 0 0064-64V272a16.65 16.65 0 00-.34-3.3zm-384-145.4v-.28c3.55-18.43 13.81-27 32.29-27H384c18.61 0 28.87 8.55 32.27 26.91 0 .13.05.26.07.39l26.93 127.88a4 4 0 01-3.92 4.82H320a15.92 15.92 0 00-16 15.82 48 48 0 11-96 0A15.92 15.92 0 00192 256H72.65a4 4 0 01-3.92-4.82z"/><path d="M368 160H144a16 16 0 010-32h224a16 16 0 010 32zM384 224H128a16 16 0 010-32h256a16 16 0 010 32z"/></svg>