<svg xmlns="http://www.w3.org/2000/svg" class="ionicon" viewBox="0 0 512 512"><path d="M48 336v96a48.14 48.14 0 0048 48h320a48.14 48.14 0 0048-48v-96" stroke-linejoin="round" class="ionicon-fill-none ionicon-stroke-width"/><path stroke-linecap="round" stroke-linejoin="round" d="M48 336h144M320 336h144M192 336a64 64 0 00128 0" class="ionicon-fill-none ionicon-stroke-width"/><path d="M384 32H128c-26 0-43 14-48 40L48 192v96a48.14 48.14 0 0048 48h320a48.14 48.14 0 0048-48v-96L432 72c-5-27-23-40-48-40z" stroke-linejoin="round" class="ionicon-fill-none ionicon-stroke-width"/><path stroke-linecap="round" stroke-linejoin="round" d="M48 192h144M320 192h144M192 192a64 64 0 00128 0" class="ionicon-fill-none ionicon-stroke-width"/></svg>