<svg xmlns="http://www.w3.org/2000/svg" class="ionicon" viewBox="0 0 512 512"><path d="M436 80H76a44.05 44.05 0 00-44 44v264a44.05 44.05 0 0044 44h360a44.05 44.05 0 0044-44V124a44.05 44.05 0 00-44-44zM112 388a12 12 0 01-12 12H76a12 12 0 01-12-12v-24a12 12 0 0112-12h24a12 12 0 0112 12zm0-80a12 12 0 01-12 12H76a12 12 0 01-12-12v-24a12 12 0 0112-12h24a12 12 0 0112 12zm0-80a12 12 0 01-12 12H76a12 12 0 01-12-12v-24a12 12 0 0112-12h24a12 12 0 0112 12zm0-80a12 12 0 01-12 12H76a12 12 0 01-12-12v-24a12 12 0 0112-12h24a12 12 0 0112 12zm241.68 124H158.32a16 16 0 010-32h195.36a16 16 0 110 32zM448 388a12 12 0 01-12 12h-24a12 12 0 01-12-12v-24a12 12 0 0112-12h24a12 12 0 0112 12zm0-80a12 12 0 01-12 12h-24a12 12 0 01-12-12v-24a12 12 0 0112-12h24a12 12 0 0112 12zm0-80a12 12 0 01-12 12h-24a12 12 0 01-12-12v-24a12 12 0 0112-12h24a12 12 0 0112 12zm0-80a12 12 0 01-12 12h-24a12 12 0 01-12-12v-24a12 12 0 0112-12h24a12 12 0 0112 12z"/></svg>