<svg xmlns="http://www.w3.org/2000/svg" class="ionicon" viewBox="0 0 512 512"><path d="M432 448a15.92 15.92 0 01-11.31-4.69l-352-352a16 16 0 0122.62-22.62l352 352A16 16 0 01432 448zM431.5 204a16 16 0 00-15.5-12H307.19L335.4 37.63c.05-.3.1-.59.13-.89A18.45 18.45 0 00302.73 23l-92.58 114.46a4 4 0 00.29 5.35l151 151a4 4 0 005.94-.31l60.8-75.16A16.37 16.37 0 00431.5 204zM301.57 369.19l-151-151a4 4 0 00-5.93.31L83.8 293.64A16.37 16.37 0 0080.5 308 16 16 0 0096 320h108.83l-28.09 154.36v.11a18.37 18.37 0 0032.5 14.53l92.61-114.46a4 4 0 00-.28-5.35z"/></svg>