<svg xmlns="http://www.w3.org/2000/svg" class="ionicon" viewBox="0 0 512 512"><path d="M432 448a15.92 15.92 0 01-11.31-4.69l-352-352a16 16 0 0122.62-22.62l352 352A16 16 0 01432 448zM294.34 84.28l-22.08 120.84a16 16 0 006.17 15.71 16.49 16.49 0 009.93 3.17h94.12l-38.37 47.42a4 4 0 00.28 5.34l17.07 17.07a4 4 0 005.94-.31l60.8-75.16a16.37 16.37 0 003.3-14.36 16 16 0 00-15.5-12H307.19L335.4 37.63c.05-.3.1-.59.13-.89A18.45 18.45 0 00302.73 23l-92.58 114.46a4 4 0 00.28 5.35l17.07 17.06a4 4 0 005.94-.31zM217.78 427.57l22-120.71a16 16 0 00-6.19-15.7 16.54 16.54 0 00-9.92-3.16h-94.1l38.36-47.42a4 4 0 00-.28-5.34l-17.07-17.07a4 4 0 00-5.93.31L83.8 293.64A16.37 16.37 0 0080.5 308 16 16 0 0096 320h108.83l-28.09 154.36v.11a18.37 18.37 0 0032.5 14.53l92.61-114.46a4 4 0 00-.28-5.35l-17.07-17.06a4 4 0 00-5.94.31z"/></svg>