<svg xmlns="http://www.w3.org/2000/svg" class="ionicon" viewBox="0 0 512 512"><path d="M215.08 156.92c-4.89-24-10.77-56.27-10.77-73.23A51.36 51.36 0 01256 32h0c28.55 0 51.69 23.69 51.69 51.69 0 16.5-5.85 48.95-10.77 73.23M215.08 355.08c-4.91 24.06-10.77 56.16-10.77 73.23A51.36 51.36 0 00256 480h0c28.55 0 51.69-23.69 51.69-51.69 0-16.54-5.85-48.93-10.77-73.23M355.08 215.08c24.06-4.91 56.16-10.77 73.23-10.77A51.36 51.36 0 01480 256h0c0 28.55-23.69 51.69-51.69 51.69-16.5 0-48.95-5.85-73.23-10.77M156.92 215.07c-24-4.89-56.25-10.76-73.23-10.76A51.36 51.36 0 0032 256h0c0 28.55 23.69 51.69 51.69 51.69 16.5 0 48.95-5.85 73.23-10.77" stroke-linecap="round" stroke-miterlimit="10" class="ionicon-fill-none ionicon-stroke-width"/><path d="M296.92 156.92c13.55-20.48 32.3-47.25 44.37-59.31a51.35 51.35 0 0173.1 0h0c20.19 20.19 19.8 53.3 0 73.1-11.66 11.67-38.67 30.67-59.31 44.37M156.92 296.92c-20.48 13.55-47.25 32.3-59.31 44.37a51.35 51.35 0 000 73.1h0c20.19 20.19 53.3 19.8 73.1 0 11.67-11.66 30.67-38.67 44.37-59.31M355.08 296.92c20.48 13.55 47.25 32.3 59.31 44.37a51.35 51.35 0 010 73.1h0c-20.19 20.19-53.3 19.8-73.1 0-11.69-11.69-30.66-38.65-44.37-59.31M215.08 156.92c-13.53-20.43-32.38-47.32-44.37-59.31a51.35 51.35 0 00-73.1 0h0c-20.19 20.19-19.8 53.3 0 73.1 11.61 11.61 38.7 30.68 59.31 44.37" stroke-linecap="round" stroke-miterlimit="10" class="ionicon-fill-none ionicon-stroke-width"/><circle cx="256" cy="256" r="64" stroke-linecap="round" stroke-miterlimit="10" class="ionicon-fill-none ionicon-stroke-width"/></svg>