<svg xmlns="http://www.w3.org/2000/svg" class="ionicon" viewBox="0 0 512 512"><circle cx="256" cy="256" r="192" stroke-linecap="round" stroke-miterlimit="10" class="ionicon-fill-none ionicon-stroke-width"/><path stroke-linecap="round" stroke-linejoin="round" d="M256 175.15l-76.09 63.83L200 320h112l20.09-81.02L256 175.15zM332.09 238.98l52.87-22.4 25.78-73.26M447 269.97l-62.04-53.39M179.91 238.98l-52.87-22.4-25.78-73.26M65 269.97l62.04-53.39M256 175.15v-57.57l64-42.64M192 74.93l64 42.65M312 320l28 48-28 71M410.74 368H342M200 320l-28 48 28.37 71.5M101.63 368H172" class="ionicon-fill-none ionicon-stroke-width"/></svg>