<svg xmlns="http://www.w3.org/2000/svg" class="ionicon" viewBox="0 0 512 512"><path d="M256 48C141.31 48 48 141.31 48 256s93.31 208 208 208 208-93.31 208-208S370.69 48 256 48zm143 304h-45.22a8 8 0 01-6.91-4l-16.14-27.68a8 8 0 01-.86-6l14.86-59.92a8 8 0 014.65-5.45l28.1-11.9a8 8 0 018.34 1.3l41.63 35.82a8 8 0 012.69 7.26 174.75 174.75 0 01-24.28 66.68A8 8 0 01399 352zM134.52 237.13l28.1 11.9a8 8 0 014.65 5.45l14.86 59.92a8 8 0 01-.86 6L165.13 348a8 8 0 01-6.91 4H113a8 8 0 01-6.82-3.81 174.75 174.75 0 01-24.28-66.68 8 8 0 012.69-7.26l41.63-35.82a8 8 0 018.3-1.3zm256.94-87.24l-18.07 51.38A8 8 0 01369 206l-29.58 12.53a8 8 0 01-8.26-1.24L274.9 170.1a8 8 0 01-2.9-6.1v-33.58a8 8 0 013.56-6.65l42.83-28.54a8 8 0 017.66-.67A176.92 176.92 0 01390 142a8 8 0 011.46 7.89zM193.6 95.23l42.84 28.54a8 8 0 013.56 6.65V164a8 8 0 01-2.86 6.13l-56.26 47.19a8 8 0 01-8.26 1.24L143 206a8 8 0 01-4.43-4.72L120.5 149.9a8 8 0 011.5-7.9 176.92 176.92 0 0164-47.48 8 8 0 017.6.71zm17.31 327.46L191.18 373a8 8 0 01.52-7l15.17-26a8 8 0 016.91-4h84.44a8 8 0 016.91 4l15.18 26a8 8 0 01.53 7l-19.59 49.67a8 8 0 01-5.69 4.87 176.58 176.58 0 01-79 0 8 8 0 01-5.65-4.85z"/></svg>