<svg xmlns="http://www.w3.org/2000/svg" class="ionicon" viewBox="0 0 512 512"><path d="M200 144h40v-40a40 40 0 10-40 40zM352 104a40 40 0 00-80 0v40h40a40 40 0 0040-40z" class="ionicon-fill-none"/><path d="M80 416a64 64 0 0064 64h92a4 4 0 004-4V292a4 4 0 00-4-4H88a8 8 0 00-8 8zM240 252V144h32v108a4 4 0 004 4h140a47.93 47.93 0 0016-2.75A48.09 48.09 0 00464 208v-16a48 48 0 00-48-48h-40.54a2 2 0 01-1.7-3A72 72 0 00256 58.82 72 72 0 00138.24 141a2 2 0 01-1.7 3H96a48 48 0 00-48 48v16a48.09 48.09 0 0032 45.25A47.93 47.93 0 0096 256h140a4 4 0 004-4zm32-148a40 40 0 1140 40h-40zm-74.86-39.9A40 40 0 01240 104v40h-40a40 40 0 01-2.86-79.89zM276 480h92a64 64 0 0064-64V296a8 8 0 00-8-8H276a4 4 0 00-4 4v184a4 4 0 004 4z"/></svg>