<svg xmlns="http://www.w3.org/2000/svg" class="ionicon" viewBox="0 0 512 512"><path d="M346 110a34 34 0 00-68 0v34h34a34 34 0 0034-34zM234 110a34 34 0 10-34 34h34z" class="ionicon-fill-none"/><path d="M234 144h44v112h164a22 22 0 0022-22v-68a22 22 0 00-22-22h-59.82A77.95 77.95 0 00256 55.79 78 78 0 00129.81 144H70a22 22 0 00-22 22v68a22 22 0 0022 22h164zm44-34a34 34 0 1134 34h-34zm-112 0a34 34 0 1168 0v34h-34a34 34 0 01-34-34zM278 480h132a22 22 0 0022-22V288H278zM80 458a22 22 0 0022 22h132V288H80z"/></svg>