<svg xmlns="http://www.w3.org/2000/svg" class="ionicon" viewBox="0 0 512 512"><path d="M464 184h-10.9a78.72 78.72 0 00-16-7.18C419.5 171 396.26 168 368 168s-51.5 3-69.06 8.82c-14.06 4.69-20.25 9.86-22.25 11.87a47.94 47.94 0 00-41.36 0c-2-2-8.19-7.18-22.25-11.87C195.5 171 172.26 168 144 168s-51.5 3-69.06 8.82a78.72 78.72 0 00-16 7.18H48a16 16 0 000 32h.17c1 45.46 6.44 72.78 18.11 92.23a66.78 66.78 0 0031.92 28c12.23 5.24 27.22 7.79 45.8 7.79 24.15 0 58.48-3.71 77.72-35.77 9.68-16.14 15.09-37.69 17.21-70.52A16 16 0 00240 232a16 16 0 0132 0 16 16 0 001.07 5.71c2.12 32.83 7.53 54.38 17.21 70.52a66.78 66.78 0 0031.92 28c12.23 5.24 27.22 7.79 45.8 7.79 24.15 0 58.48-3.71 77.72-35.77 11.67-19.45 17.13-46.77 18.11-92.23h.17a16 16 0 000-32z"/></svg>