<svg xmlns="http://www.w3.org/2000/svg" class="ionicon" viewBox="0 0 512 512"><path d="M82.42 209.08c15.06-6.62 32.38 1.31 38.5 17.62L156 312h11.27V80c0-17.6 13.3-32 29.55-32 16.26 0 29.55 14.4 29.55 32v151.75l14.78.25V32c0-17.6 13.3-32 29.55-32 16.3 0 29.55 14.4 29.55 32v199.75L315 232V64c0-17.6 13.3-32 29.55-32 16.26 0 29.55 14.4 29.55 32v183.75l14.78.25V128c0-17.6 13.3-32 29.55-32C434.7 96 448 110.4 448 128v216c0 75.8-37.13 168-169 168-40.8 0-79.42-7-100.66-21a121.41 121.41 0 01-33.72-33.31 138 138 0 01-16-31.78L66.16 250.77c-6.11-16.31 1.2-35.06 16.26-41.69z"/></svg>