<svg xmlns="http://www.w3.org/2000/svg" class="ionicon" viewBox="0 0 512 512"><path d="M432 320V144a32 32 0 00-32-32h0a32 32 0 00-32 32v112M368 256V80a32 32 0 00-32-32h0a32 32 0 00-32 32v160M240 241V96a32 32 0 00-32-32h0a32 32 0 00-32 32v224M304 240V48a32 32 0 00-32-32h0a32 32 0 00-32 32v192" stroke-linecap="round" stroke-linejoin="round" class="ionicon-fill-none ionicon-stroke-width"/><path d="M432 320c0 117.4-64 176-152 176s-123.71-39.6-144-88L83.33 264c-6.66-18.05-3.64-34.79 11.87-43.6h0c15.52-8.82 35.91-4.28 44.31 11.68L176 320" stroke-linecap="round" stroke-linejoin="round" class="ionicon-fill-none ionicon-stroke-width"/></svg>