<svg xmlns="http://www.w3.org/2000/svg" class="ionicon" viewBox="0 0 512 512"><path d="M411.16 97.45C368.43 55.85 311.88 32 256 32S143.57 55.85 100.84 97.45C56.45 140.67 32 196 32 256s26.84 118.49 45.42 152.25S121 480 144 480c32 0 96-32 96-32L128 240l-54.42 31.73a176.07 176.07 0 01-1-18.84c0-48.57 19.32-94.1 56.15-130C164.24 88.34 210 70 256 70s91.73 18.34 127.27 52.93c36.83 35.86 56.14 81.39 56.14 130a175.56 175.56 0 01-1 18.82L384 240 272 448s64 32 96 32c23 0 48-38 66.58-71.75S480 316 480 256s-24.45-115.33-68.84-158.55z"/></svg>