<svg xmlns="http://www.w3.org/2000/svg" class="ionicon" viewBox="0 0 512 512"><path d="M448 256c0-106-86-192-192-192S64 150 64 256s86 192 192 192 192-86 192-192z" stroke-miterlimit="10" class="ionicon-fill-none ionicon-stroke-width"/><path d="M333.2 297.69c18.28-23.39 27.06-47.43 26.79-73.37-.31-31.06-25.22-56.33-55.53-56.33-20.4 0-35 10.64-44.11 20.42a5.93 5.93 0 01-8.7 0c-9.11-9.78-23.71-20.42-44.11-20.42L206 168a4 4 0 00-2.75 6.84l124 123.21a3.92 3.92 0 005.95-.36zM158.84 221a4 4 0 00-6.82 2.72v.64c-.28 27.1 9.31 52.13 29.3 76.5 9.38 11.44 26.4 29.73 65.7 56.41a15.93 15.93 0 0018 0c5.15-3.49 9.9-6.84 14.31-10a4 4 0 00.46-6.07zM336 368a15.92 15.92 0 01-11.31-4.69l-176-176a16 16 0 0122.62-22.62l176 176A16 16 0 01336 368z"/></svg>