<svg xmlns="http://www.w3.org/2000/svg" class="ionicon" viewBox="0 0 512 512"><path d="M352.92 64c-48.09 0-80 29.54-96.92 51-16.88-21.49-48.83-51-96.92-51C98.46 64 48.63 114.54 48 176.65c-.54 54.21 18.63 104.27 58.61 153 18.77 22.88 52.8 59.46 131.39 112.81a31.84 31.84 0 0036 0c78.59-53.35 112.62-89.93 131.39-112.81 40-48.74 59.15-98.8 58.61-153C463.37 114.54 413.54 64 352.92 64zM256 416V207.58c0-19.63 5.23-38.76 14.21-56.22a1.19 1.19 0 01.08-.16 123 123 0 0121.77-28.51C310.19 105 330.66 96 352.92 96c43.15 0 78.62 36.32 79.07 81C433 281.61 343.63 356.51 256 416z"/></svg>