<svg xmlns="http://www.w3.org/2000/svg" class="ionicon" viewBox="0 0 512 512"><path d="M256 32C132.29 32 32 132.29 32 256s100.29 224 224 224 224-100.29 224-224S379.71 32 256 32zm-64 224a64 64 0 1164 64 64 64 0 01-64-64zm237.24-62.29L342.91 199a104.86 104.86 0 00-29.86-29.86l5.24-86.33a185 185 0 01111 111zm-303.35-67.82a183.44 183.44 0 0167.82-43.13l5.29 86.33A104.86 104.86 0 00169.09 199l-86.33-5.24a183.44 183.44 0 0143.13-67.87zm-43.13 192.4l86.33-5.24A104.86 104.86 0 00199 342.91l-5.24 86.33a185 185 0 01-111-110.95zm303.35 67.82a183.44 183.44 0 01-67.82 43.13l-5.24-86.33a104.86 104.86 0 0029.86-29.86l86.33 5.24a183.44 183.44 0 01-43.13 67.82z"/></svg>