<svg xmlns="http://www.w3.org/2000/svg" class="ionicon" viewBox="0 0 512 512"><path d="M145.61 464h220.78c19.8 0 35.55-16.29 33.42-35.06C386.06 308 304 310 304 256s83.11-51 95.8-172.94c2-18.78-13.61-35.06-33.41-35.06H145.61c-19.8 0-35.37 16.28-33.41 35.06C124.89 205 208 201 208 256s-82.06 52-95.8 172.94c-2.14 18.77 13.61 35.06 33.41 35.06z" stroke-linecap="round" stroke-linejoin="round" class="ionicon-fill-none ionicon-stroke-width"/><path d="M343.3 432H169.13c-15.6 0-20-18-9.06-29.16C186.55 376 240 356.78 240 326V224c0-19.85-38-35-61.51-67.2-3.88-5.31-3.49-12.8 6.37-12.8h142.73c8.41 0 10.23 7.43 6.4 12.75C310.82 189 272 204.05 272 224v102c0 30.53 55.71 47 80.4 76.87 9.95 12.04 6.47 29.13-9.1 29.13z"/></svg>