<svg xmlns="http://www.w3.org/2000/svg" class="ionicon" viewBox="0 0 512 512"><path d="M183 352c-21.84-.52-39-18.9-39-40.74v-34.07a8 8 0 00-6-7.74c-33.75-8.85-58-39.71-58-77.45a80.14 80.14 0 0166.27-78.82 8 8 0 006.62-6.83 104 104 0 01206.22 0 8 8 0 006.62 6.83A80 80 0 01352 272a74.33 74.33 0 01-47.45-17.41 7.93 7.93 0 00-9.92-.14A62.89 62.89 0 01256 268a80.47 80.47 0 01-21.8-3.18 8 8 0 00-10.2 7.69V312a40 40 0 01-41 40z"/><path d="M263.39 299.7a8 8 0 00-7.39 7.91V312a72.11 72.11 0 01-50.69 68.76 8 8 0 00-4.91 10.78l40.91 94.8A16 16 0 00256 496a16 16 0 0014.69-9.7l73.78-172.15a8 8 0 00-6.2-11.07 106.31 106.31 0 01-35.9-11.59 8 8 0 00-7.13-.2 95 95 0 01-31.85 8.41z"/></svg>