<svg xmlns="http://www.w3.org/2000/svg" class="ionicon" viewBox="0 0 512 512"><path d="M450.29 112H142c-34 0-62 27.51-62 61.33v245.34c0 33.82 28 61.33 62 61.33h308c34 0 62-26.18 62-60V173.33c0-33.82-27.68-61.33-61.71-61.33zm-77.15 61.34a46 46 0 11-46.28 46 46.19 46.19 0 0146.28-46.01zm-231.55 276c-17 0-29.86-13.75-29.86-30.66v-64.83l90.46-80.79a46.54 46.54 0 0163.44 1.83L328.27 337l-113 112.33zM480 418.67a30.67 30.67 0 01-30.71 30.66H259L376.08 333a46.24 46.24 0 0159.44-.16L480 370.59z"/><path d="M384 32H64A64 64 0 000 96v256a64.11 64.11 0 0048 62V152a72 72 0 0172-72h326a64.11 64.11 0 00-62-48z"/></svg>