<svg xmlns="http://www.w3.org/2000/svg" class="ionicon" viewBox="0 0 512 512"><path d="M434.8 137.65l-149.36-68.1c-16.19-7.4-42.69-7.4-58.88 0L77.3 137.65c-17.6 8-17.6 21.09 0 29.09l148 67.5c16.89 7.7 44.69 7.7 61.58 0l148-67.5c17.52-8 17.52-21.1-.08-29.09zM160 308.52l-82.7 37.11c-17.6 8-17.6 21.1 0 29.1l148 67.5c16.89 7.69 44.69 7.69 61.58 0l148-67.5c17.6-8 17.6-21.1 0-29.1l-79.94-38.47" stroke-linecap="round" stroke-linejoin="round" class="ionicon-fill-none ionicon-stroke-width"/><path d="M160 204.48l-82.8 37.16c-17.6 8-17.6 21.1 0 29.1l148 67.49c16.89 7.7 44.69 7.7 61.58 0l148-67.49c17.7-8 17.7-21.1.1-29.1L352 204.48" stroke-linecap="round" stroke-linejoin="round" class="ionicon-fill-none ionicon-stroke-width"/></svg>