<svg xmlns="http://www.w3.org/2000/svg" class="ionicon" viewBox="0 0 512 512"><path d="M399.77 203c-.8-17.1-3.3-34.5-10.8-50.1a82.45 82.45 0 00-16.5-23.2 105.59 105.59 0 00-21.3-16.3c-17.1-10.2-37.5-17-84.4-31S192 64 192 64v358.3l79.9 25.7s.1-198.8.1-299.5v-3.8c0-9.3 7.5-16.8 16.1-16.8h.5c8.5 0 15.5 7.5 15.5 16.8V278c11 5.3 29.2 9.3 41.8 9.1a47.79 47.79 0 0024-5.7 49.11 49.11 0 0018.4-17.8 78.64 78.64 0 009.9-27.3c1.87-10.8 1.97-22.1 1.57-33.3zM86.67 357.8c27.4-9.8 89.3-29.5 89.3-29.5v-47.2s-76.5 24.8-111.3 37.1c-8.6 3.1-17.3 5.9-25.7 9.5-9.8 4.1-19.4 8.7-28.1 14.8a26.29 26.29 0 00-9.2 10.1 17.36 17.36 0 00-.5 13.6c2 5.1 5.8 9.3 10.1 12.6 7.8 5.9 17.1 9.5 26.4 12.2a262.42 262.42 0 0088.4 13.3c14.5-.2 36-1.9 50-4.4v-42s-11 2.5-41.3 12.5c-4.6 1.5-9.2 3.3-14 4.3a104.87 104.87 0 01-21.6 2.2c-6.5-.3-13.2-.7-19.3-3.1-2.2-1-4.6-2.2-5.5-4.6-.8-2 .3-4 1.7-5.4 2.8-2.9 6.8-4.5 10.6-6z"/><path d="M512 345.9c-.1-6-3.7-11.2-7.9-15-7.1-6.3-15.9-10.3-24.7-13.5-5.5-1.9-9.3-3.3-14.7-5-25.2-8.2-51.9-11.2-78.3-11.3-8 .3-23.1.5-31 1.4-21.9 2.5-67.3 15.4-67.3 15.4v48.8s67.5-21.6 96.5-31.8a94.43 94.43 0 0130.3-4.6c6.5.2 13.2.7 19.4 3.1 2.2.9 4.5 2.2 5.5 4.5.9 2.6-.9 5-2.9 6.5-4.7 3.8-10.7 5.3-16.2 7.4-41 14.5-132.7 44.7-132.7 44.7v47s117.2-39.6 170.8-58.8c8.9-3.3 17.9-6.1 26.4-10.4 7.9-4 15.8-8.6 21.8-15.3a19.74 19.74 0 005-13.1z"/></svg>