<svg xmlns="http://www.w3.org/2000/svg" viewBox="0 0 512 512" class="ionicon"><path d="M242.69 340.3h26.62v-72.6h67v-25.82h-67v-72.6h-26.62v72.6h-66.15v25.82h66.15zM119.26 445.18h22.59v-64.54h59.7v-20.17h-59.7v-65.34h-22.59v65.34h-59.7v20.17h59.7zM370.15 212h22.59v-64.5h60.5v-19.37h-60.5V62.79h-22.59v65.34h-59.7v19.37h59.7zM246.72 496h19.36v-46h41.15v-16.92h-41.15v-46h-19.36v46h-40.33V450h40.33zM120.07 212h21v-65.31h60.51v-18.56H141V62.79h-21v65.34H59.56v18.56h60.51zM435.72 308.84h19.36v-45.18H496v-17.74h-40.92v-45.18h-19.36v45.18h-40.33v17.74h40.33z"/><path fill-rule="evenodd" d="M370.15 445.18h22.59v-64.54h60.5v-20.17h-60.5v-65.34h-22.59v65.34h-59.7v20.17h59.7z"/><path d="M307 74.08V60.37h-40.34V16h-14.52v44.37h-40.33v13.71h40.33v44.37h14.52V74.08zM56.11 305.61h14.52v-44.37H111v-13.71H70.63V204H56.11v43.56H16v14.52l40.11-.08z"/></svg>