<svg xmlns="http://www.w3.org/2000/svg" class="ionicon" viewBox="0 0 512 512"><path d="M505.57 234.62c-3.28-3.53-26.82-32.29-39.51-47.79-6.75-8.24-12.08-14.75-14.32-17.45l-.18-.22-.2-.21c-5.22-5.83-12.64-12.51-23.78-12.51a39.78 39.78 0 00-5.41.44c-.37.05-.75.11-1.15.15-2.45.27-10.06 1.5-28.14 4.48-14 2.29-35.11 5.77-38.31 6.07l-.71.06-.69.13c-10 1.78-16.62 6.22-19.56 13.19-1.55 3.68-3.22 11.15 2.94 19.86 1.53 2.22 6.83 9.56 15.94 22.17 6.06 8.4 12.87 17.82 18.75 26L259.9 275 150.66 96.05l-.2-.34-.23-.33-.44-.65C145.32 88.17 139.76 80 123.7 80c-1.13 0-2.31 0-3.63.11-4.6.25-21.42 1.57-40.89 3.11-21.49 1.69-50.9 4-54.72 4.1h-.73l-.79.08c-9.14.89-15.77 4.6-19.7 11-6.55 10.69-1.42 22.69.26 26.63C6.87 133 37.56 197.7 64.63 254.81c18 37.94 36.58 77.17 38.1 80.65a34.85 34.85 0 0032.94 21.59 46.62 46.62 0 009.86-1.1h.21l.2-.05c13.86-3.38 57.83-14.54 89.2-22.59 1.9 3.32 3.9 6.83 6 10.44 21.93 38.5 37.9 66.35 43.16 73.46C287 421 295 432 310.06 432c5.46 0 10.46-1.4 15.74-2.89l1.53-.43h.12c10.53-3 150.69-52.16 157.87-55.35l.22-.1c5.44-2.41 13.66-6.05 16.18-15.4 1.65-6.12.18-12.33-4.38-18.46l-.07-.09-.07-.09c-.85-1.1-4-5.21-8.27-10.9-9.13-12.07-23.88-31.57-36.84-48.54 17.37-4.5 38.8-10.11 43.38-11.55 11.47-3.43 14.94-10.69 16-14.73.79-3.15 1.82-11.2-5.9-18.85zm-320 58.19c-17.81 4.17-30.22 7.08-37.89 8.9-6.67-13.34-19.74-39.65-32.5-65.33-29.74-59.92-45.1-90.77-53.18-106.9l8.15-.7c13.34-1.15 31.61-2.72 41.78-3.57 16.76 28.26 74.32 125.3 96.3 162.3zM427.58 172zM310.06 416.4zm53.67-56.95c-24.21 8-37.33 12.37-44.42 14.74-6.3-10.34-20.16-33.52-32.47-54.19l115.7-29.48c5 6.81 14.57 19.72 33.46 44.93-18.07 6.04-48.2 16.02-72.27 24zm55.87-121.63l-23.76-31.53c13.67-2.39 21.54-3.77 26.15-4.6l12 14.88 11.94 14.82c-8.2 1.99-17.74 4.32-26.33 6.43z"/></svg>