<svg xmlns="http://www.w3.org/2000/svg" class="ionicon" viewBox="0 0 512 512"><path d="M256 32C132.33 32 32 132.33 32 256s100.33 224 224 224 224-100.22 224-224S379.67 32 256 32zm142.22 103.25a186.36 186.36 0 0144 108.38c-40.37-2.1-88.67-2.1-127.4 1.52-4.9-12.37-9.92-24.5-15.4-36.17 44.66-19.36 79.08-44.8 98.8-73.73zM256 69.33a185.81 185.81 0 01119.12 42.94c-20.3 25.66-52.15 48-91.82 64.86C261.6 137 236.63 102.47 210 75.28a187.51 187.51 0 0146-5.95zm-84.47 20.42c26.95 26.83 52.27 61 74.44 101C203.85 203.62 155.55 211 104 211c-9.8 0-19.36-.35-28.81-.94a186.78 186.78 0 0196.34-120.31zM69.68 247.13c10.62.47 21.35.7 32.2.59 58.8-.7 113.52-9.92 160.54-25q6.65 13.83 12.6 28.35a115.43 115.43 0 00-16.69 5c-64.28 27-114.91 70.51-142.33 123.13A186 186 0 0169.33 256c0-3 .12-5.95.35-8.87zM256 442.67a185.57 185.57 0 01-114.45-39.32c24.85-49.23 69.18-90 125.07-115.27 5.25-2.45 12.25-4.43 20.3-6.18q10 27.64 17.85 57.4A678 678 0 01322 430.42a185.06 185.06 0 01-66 12.25zm100.92-29.75a672.61 672.61 0 00-17.39-92.05c-4-15.17-8.51-29.87-13.41-44.22 36.63-3 80.5-2.57 115.38 0a186.5 186.5 0 01-84.58 136.27z"/></svg>