<svg xmlns="http://www.w3.org/2000/svg" class="ionicon" viewBox="0 0 512 512"><path d="M32 32v448h448V32zm240 348c0 43.61-25.76 64.87-63.05 64.87-33.68 0-53.23-17.44-63.15-38.49l34.28-20.75c6.61 11.73 11.63 21.65 26.06 21.65 12 0 21.86-5.41 21.86-26.46V240h44zm99.35 63.87c-39.09 0-64.35-17.64-76.68-42L329 382c9 14.74 20.75 24.56 41.5 24.56 17.44 0 27.57-7.72 27.57-19.75 0-14.43-10.43-19.54-29.68-28l-10.52-4.52c-30.38-12.92-50.52-29.16-50.52-63.45 0-31.57 24.05-54.63 61.64-54.63 26.77 0 46 8.32 59.85 32.68L396 290c-7.22-12.93-15-18-27.06-18-12.33 0-20.15 7.82-20.15 18 0 12.63 7.82 17.74 25.86 25.56l10.52 4.51c35.79 15.34 55.94 31 55.94 66.16.01 37.9-29.76 57.64-69.76 57.64z"/></svg>