<svg xmlns="http://www.w3.org/2000/svg" class="ionicon" viewBox="0 0 512 512"><path d="M0 80v352h512V80zm464 175.78c0 25.74-1.6 45.32-3.77 77.22s-19.2 54.34-59.09 57.86-95.77 3.85-145.14 3.74c-49 .11-105.14-.11-145.14-3.74s-56.8-26-59.09-57.86S48 281.52 48 255.78s.11-42.46 3.77-77.22 23-54.12 59.09-57.64 98.28-3.52 145.14-3.52 109 0 145.14 3.52 55.43 23 59.09 57.64 3.77 51.59 3.77 77.22z"/><path d="M367.57 282.84v.77c0 17.93-11.11 28.49-25.95 28.49s-24.84-11.88-26.27-28.49c0 0-1.31-8.69-1.31-26.29a229.5 229.5 0 011.53-28.6c2.64-18.7 11.77-28.49 26.6-28.49s26.49 12.76 26.49 32.12v.55h49.58c0-24.09-6.05-45.76-18.25-59.4S369.76 153 345.8 153a108.06 108.06 0 00-33 4.73 58.82 58.82 0 00-25.94 16.61c-7.23 7.96-12.86 18.52-16.86 31.83s-6 30-6 50.27c0 19.8 1.65 36.3 4.84 49.61s8 23.87 14.4 31.79a49.76 49.76 0 0024 16.5q14.5 4.62 34 4.62c27.47 0 47.26-7 59.13-20.57S418 305.06 418 279.1h-50.65c.22 0 .22 2.75.22 3.74zM197.3 282.84v.77c0 17.93-11.1 28.49-25.94 28.49s-24.84-11.88-26.27-28.49c0 0-1.31-8.69-1.31-26.29a229.5 229.5 0 011.53-28.6c2.64-18.7 11.77-28.49 26.6-28.49S198.4 213 198.4 232.35v.55H248c0-24.09-6-45.76-18.25-59.4S199.5 153 175.54 153a108.06 108.06 0 00-33 4.73 58.82 58.82 0 00-25.94 16.61c-7.26 7.92-12.86 18.48-16.93 31.79s-6 30-6 50.27c0 19.8 1.65 36.3 4.84 49.61s8 23.87 14.4 31.79a49.76 49.76 0 0024 16.5q14.51 4.62 34 4.62c27.48 0 47.27-7 59.14-20.57s17.81-33.33 17.81-59.29h-50.78c.22.04.22 2.79.22 3.78z"/></svg>