<svg xmlns="http://www.w3.org/2000/svg" class="ionicon" viewBox="0 0 512 512"><path d="M259 271.3L226.2 367h-.1l-25.4 73.1c1.8.5 3.5.9 5.3 1.4h.3a192.51 192.51 0 0049.5 6.5 157 157 0 0024.9-1.8 184.3 184.3 0 0032.5-7.1c2.6-.8 5.2-1.7 7.8-2.6-2.8-6-8.8-19.3-9.1-19.9zM80.8 180.5C70.8 203.1 64 230.9 64 256c0 6.3.3 12.6.9 18.8 6.9 71.2 52.9 131 116.1 157.9 2.6 1.1 5.3 2.2 8 3.2L96 180.6c-8-.3-9.5.2-15.2-.1z"/><path d="M430.2 175.4a188 188 0 00-15.1-26.6c-1.6-2.4-3.4-4.8-5.1-7.2A193 193 0 00325.1 77a189.2 189.2 0 00-69.2-13 191.51 191.51 0 00-149.4 71.7A196 196 0 0089 161.3c14.2.1 31.8.1 33.8.1 18.1 0 46-2.2 46-2.2 9.4-.6 10.4 13.1 1.1 14.2 0 0-9.4 1.1-19.8 1.6L213 362l37.8-113.3-26.8-73.6c-9.4-.5-18.1-1.6-18.1-1.6-9.4-.5-8.2-14.8 1-14.2 0 0 28.5 2.2 45.5 2.2 18.1 0 46-2.2 46-2.2 9.3-.6 10.5 13.1 1.1 14.2 0 0-9.3 1.1-19.7 1.6l62.3 185.6 17.3-57.6c8.7-22.4 13.1-40.9 13.1-55.7 0-21.3-7.7-36.1-14.3-47.6-8.7-14.3-16.9-26.3-16.9-40.4 0-15.9 12-30.7 29-30.7h2.2c26.2-.7 34.8 25.3 35.9 43v.6c.4 7.2.1 12.5.1 18.8 0 17.4-3.3 37.1-13.1 61.8l-39 112.8-22.3 65.7c1.8-.8 3.5-1.6 5.3-2.5 56.7-27.4 98-82 106.7-146.7a172.07 172.07 0 001.9-26 191.11 191.11 0 00-17.8-80.8z"/><path d="M256 48a208.06 208.06 0 0181 399.66A208.06 208.06 0 01175 64.34 206.7 206.7 0 01256 48m0-16C132.29 32 32 132.29 32 256s100.29 224 224 224 224-100.29 224-224S379.71 32 256 32z"/></svg>