<svg xmlns="http://www.w3.org/2000/svg" class="ionicon" viewBox="0 0 512 512"><path d="M256 32C132.26 32 32 132.26 32 256s100.26 224 224 224 224-100.26 224-224S379.74 32 256 32zm-85 321.89a15.48 15.48 0 01-13.46 7.65 14.91 14.91 0 01-7.86-2.16 15.48 15.48 0 01-5.6-21.21l15.29-25.42a8.73 8.73 0 017.54-4.3h2.26c11.09 0 18.85 6.67 21.11 13.13zm129.45-50l-100.13.11h-66.55a15.46 15.46 0 01-15.51-16.15c.32-8.4 7.65-14.76 16-14.76h48.24l57.19-97.35-18.52-31.55C217 137 218.85 127.52 226 123a15.57 15.57 0 0121.87 5.17l9.9 16.91h.11l9.91-16.91A15.58 15.58 0 01289.6 123c7.11 4.52 8.94 14 4.74 21.22l-18.52 31.55-18 30.69-39.09 66.66v.11h57.61c7.22 0 16.27 3.88 19.93 10.12l.32.65c3.23 5.49 5.06 9.26 5.06 14.75a13.82 13.82 0 01-1.17 5.17zm77.75.11h-27.11v.11l19.82 33.71a15.8 15.8 0 01-5.17 21.53 15.53 15.53 0 01-8.08 2.27A15.71 15.71 0 01344.2 354l-29.29-49.86-18.2-31L273.23 233a38.35 38.35 0 01-.65-38c4.64-8.19 8.19-10.34 8.19-10.34L333 273h44.91c8.4 0 15.61 6.46 16 14.75A15.65 15.65 0 01378.23 304z"/></svg>