<svg xmlns="http://www.w3.org/2000/svg" class="ionicon" viewBox="0 0 512 512"><path d="M496 128.05A64 64 0 00389.62 80a64.52 64.52 0 00-12.71 15.3v.06c-.54.9-1.05 1.82-1.55 2.74l-.24.49c-.42.79-.81 1.59-1.19 2.4-.12.25-.23.5-.34.75-.33.73-.65 1.47-.95 2.22-.13.31-.25.62-.37.93-.27.7-.53 1.4-.78 2.11l-.36 1.06c-.22.68-.43 1.37-.63 2.06-.12.39-.23.77-.33 1.16-.19.67-.35 1.35-.51 2-.1.41-.2.82-.29 1.23-.14.68-.27 1.37-.39 2-.08.42-.16.84-.23 1.26-.11.7-.2 1.41-.29 2.12-.05.41-.11.82-.16 1.24-.08.77-.13 1.54-.19 2.32 0 .36-.06.72-.08 1.08-.06 1.14-.1 2.28-.1 3.44 0 1 0 2 .08 2.94v.64q.08 1.41.21 2.82l.06.48c.09.85.19 1.69.32 2.52 0 .17 0 .35.07.52.14.91.31 1.81.49 2.71 0 .22.09.43.13.65.18.86.38 1.72.6 2.57v.19c.23.89.48 1.76.75 2.63l.21.68c.27.85.55 1.68.85 2.51.06.18.13.36.2.54.27.71.55 1.42.84 2.12.08.21.16.41.25.61.34.79.69 1.58 1.06 2.36l.33.67c.35.7.7 1.4 1.07 2.09a64.34 64.34 0 0022.14 23.81 62.22 62.22 0 007.62 4.15l.39.18q2.66 1.2 5.43 2.16l.95.32 1.5.47c.45.14.9.26 1.36.39l1.92.5 1.73.4 1.15.23 1.83.33.94.15c.9.13 1.81.25 2.72.35l.77.07c.73.06 1.47.12 2.21.16l.86.05c1 0 1.94.08 2.92.08 1.16 0 2.3 0 3.44-.1l1.08-.08c.78-.06 1.55-.11 2.32-.19l1.25-.16c.7-.09 1.41-.18 2.11-.29l1.26-.23c.68-.12 1.37-.25 2-.39l1.23-.29c.68-.16 1.36-.32 2-.51.39-.1.77-.21 1.16-.33.69-.2 1.38-.41 2.06-.63l1.06-.36c.71-.25 1.41-.51 2.11-.78l.93-.37c.75-.3 1.49-.62 2.22-.95l.75-.34c.81-.38 1.61-.77 2.4-1.19l.49-.24c.92-.5 1.84-1 2.74-1.55h.06A64.52 64.52 0 00480 170.38a63.81 63.81 0 0016-42.33z"/><path d="M371.38 202.53l-105.56 82.1a16 16 0 01-19.64 0l-144-112a16 16 0 1119.64-25.26L256 251.73l94.22-73.28A95.86 95.86 0 01348.81 80H88a56.06 56.06 0 00-56 56v240a56.06 56.06 0 0056 56h336a56.06 56.06 0 0056-56V211.19a95.85 95.85 0 01-108.62-8.66z"/></svg>