<svg xmlns="http://www.w3.org/2000/svg" class="ionicon" viewBox="0 0 512 512"><path d="M421.84 37.37a25.86 25.86 0 00-22.6-4.46L199.92 86.49A32.3 32.3 0 00176 118v226c0 6.74-4.36 12.56-11.11 14.83l-.12.05-52 18C92.88 383.53 80 402 80 423.91a55.54 55.54 0 0023.23 45.63A54.78 54.78 0 00135.34 480a55.82 55.82 0 0017.75-2.93l.38-.13 21.84-7.94A47.84 47.84 0 00208 423.91v-212c0-7.29 4.77-13.21 12.16-15.07l.21-.06L395 150.14a4 4 0 015 3.86v141.93c0 6.75-4.25 12.38-11.11 14.68l-.25.09-50.89 18.11A49.09 49.09 0 00304 375.92a55.67 55.67 0 0023.23 45.8 54.63 54.63 0 0049.88 7.35l.36-.12 21.84-7.95A47.83 47.83 0 00432 375.92V58a25.74 25.74 0 00-10.16-20.63z"/></svg>