<svg xmlns="http://www.w3.org/2000/svg" class="ionicon" viewBox="0 0 512 512"><path d="M128.51 204.59q-.37 6.15-.37 12.76C128.14 304 110 320 84.33 351.43 73.69 364.45 83 384 101.62 384H320M414.5 335.3c-18.48-23.45-30.62-47.05-30.62-118 0-79.3-40.52-107.57-73.88-121.3-4.43-1.82-8.6-6-9.95-10.55C294.21 65.54 277.82 48 256 48s-38.2 17.55-44 37.47c-1.35 4.6-5.52 8.71-10 10.53a149.57 149.57 0 00-18 8.79M320 384v16a64 64 0 01-128 0v-16" stroke-linecap="round" stroke-linejoin="round" class="ionicon-fill-none ionicon-stroke-width"/><path stroke-linecap="round" stroke-miterlimit="10" d="M448 448L64 64" class="ionicon-fill-none ionicon-stroke-width"/></svg>