<svg xmlns="http://www.w3.org/2000/svg" class="ionicon" viewBox="0 0 512 512"><path d="M288 256c52.79 0 99.43-49.71 104-110.82 2.27-30.7-7.36-59.33-27.12-80.6C345.33 43.57 318 32 288 32c-30.24 0-57.59 11.5-77 32.38-19.63 21.11-29.2 49.8-27 80.78C188.49 206.28 235.12 256 288 256zM495.38 439.76c-8.44-46.82-34.79-86.15-76.19-113.75C382.42 301.5 335.83 288 288 288s-94.42 13.5-131.19 38c-41.4 27.6-67.75 66.93-76.19 113.75-1.93 10.73.69 21.34 7.19 29.11A30.94 30.94 0 00112 480h352a30.94 30.94 0 0024.21-11.13c6.48-7.77 9.1-18.38 7.17-29.11zM104 288v-40h40a16 16 0 000-32h-40v-40a16 16 0 00-32 0v40H32a16 16 0 000 32h40v40a16 16 0 0032 0z"/></svg>