<svg xmlns="http://www.w3.org/2000/svg" class="ionicon" viewBox="0 0 512 512"><path d="M441.82 67.83C383.44 44.73 317.3 32 255.56 32 192 32 125.76 44.53 69 67.26 48.7 75.49 45.21 90 48.71 100.82L52.78 111a16 16 0 0021.31 8.69c10.8-4.76 23.93-10.54 27-11.78C145.1 89.64 198.71 80 256 80c57.47 0 108.09 9.24 154.76 28.25 4.42 1.8 14.88 6.42 26.17 11.46a16 16 0 0021.35-8.59L462 102l.34-.9c3.45-10.21.14-25.05-20.52-33.27z"/><path d="M409.18 140.86C363.67 122.53 307.68 112 255.56 112a425 425 0 00-153.74 28.89c-.53.21-2.06.88-4.29 1.88a16 16 0 00-8 21.27c4 8.71 9.42 20.58 15.5 33.89C137.94 270 199.21 404 227.26 462A31.74 31.74 0 00256 480a31.73 31.73 0 0028.76-18.06l.06-.13 137.3-297.57a15.94 15.94 0 00-8.31-21.45c-2.26-.95-3.85-1.61-4.5-1.87zm-215.1 83.07a32 32 0 1129.85-29.85 32 32 0 01-29.85 29.85zm64 128a32 32 0 1129.85-29.85 32 32 0 01-29.85 29.85zm64-112a32 32 0 1129.85-29.85 32 32 0 01-29.85 29.85z"/></svg>