<svg xmlns="http://www.w3.org/2000/svg" class="ionicon" viewBox="0 0 512 512"><path d="M404.76 123.08C358.37 104.18 309.69 96 256 96s-106.1 9-148.9 26.68c-8.08 3.3-15.26 9-10.07 19.5C101.24 150.71 203 375 241.66 455a15.94 15.94 0 0028.72 0l144.05-312.22c3.19-6.9.9-15.4-9.67-19.7z" stroke-miterlimit="10" class="ionicon-fill-none ionicon-stroke-width"/><path d="M436.38 82.68C384.31 62.08 320.17 48 256 48S128.65 60.78 75.48 82.08C70.79 84 62 88.43 64.41 95.88L74.09 120c4 8.2 8.67 8.2 15.06 8.2 1.79 0 4.29-1 7.28-2.18A442.46 442.46 0 01256 96c56.76 0 114.91 12 159.6 30 3.59 1.4 5.59 2.18 7.28 2.18 6.58 0 10.38 2.19 15-8.1L447.65 96c2.01-6-4.99-10.82-11.27-13.32z" stroke-miterlimit="10" class="ionicon-fill-none ionicon-stroke-width"/><circle cx="192" cy="192" r="32"/><circle cx="320" cy="208" r="32"/><circle cx="256" cy="320" r="32"/></svg>