<svg xmlns="http://www.w3.org/2000/svg" class="ionicon" viewBox="0 0 512 512"><path d="M114.61 162.85A16.07 16.07 0 00128 149.6C140.09 76.17 193.63 32 256 32c57.93 0 96.62 37.75 112.2 77.74a15.84 15.84 0 0012.2 9.87c50 8.15 91.6 41.54 91.6 99.59 0 59.4-48.6 100.8-108 100.8H130c-49.5 0-90-24.7-90-79.2 0-48.47 38.67-72.22 74.61-77.95z" stroke-linejoin="round" class="ionicon-fill-none ionicon-stroke-width"/><path stroke-linecap="round" stroke-linejoin="round" d="M144 384l-32 48M224 384l-64 96M304 384l-32 48M384 384l-64 96" class="ionicon-fill-none ionicon-stroke-width"/></svg>