<svg xmlns="http://www.w3.org/2000/svg" class="ionicon" viewBox="0 0 512 512"><path d="M342.7 223.94h14.87a79.48 79.48 0 0056.58-23.44L496 118l-22.22-22.4-83.58 83.58-17.37-17.37 83.58-83.59-23-22.31-83.27 83.26-17.32-17.37 83.58-83.59L394 16l-82.5 81.85a79.49 79.49 0 00-23.44 56.59v14.86l-43.13 43.13L48 16C3.72 70.87 29.87 171.71 79.72 221.57l85.5 85.5c26.55 26.55 31.82 28.92 61.94 16.8 6.49-2.61 8.85-2.32 14.9 3.72l13 12.13c2.93 3 3 3.88 3 9.62v5.54c0 21.08 13.48 33.2 22.36 42.24L384 496l72-72-156.43-156.93z"/><path d="M227.37 354.59c-29.82 6.11-48.11 11.74-83.08-23.23-.56-.56-1.14-1.1-1.7-1.66l-19.5-19.5L16 416l80 80 144-144z"/></svg>