<svg xmlns="http://www.w3.org/2000/svg" viewBox="0 0 512 512" class="ionicon"><path d="M259.92 262.91L216.4 149.77a9 9 0 00-16.8 0l-43.52 113.14a9 9 0 01-5.17 5.17L37.77 311.6a9 9 0 000 16.8l113.14 43.52a9 9 0 015.17 5.17l43.52 113.14a9 9 0 0016.8 0l43.52-113.14a9 9 0 015.17-5.17l113.14-43.52a9 9 0 000-16.8l-113.14-43.52a9 9 0 01-5.17-5.17zM108 68L88 16 68 68 16 88l52 20 20 52 20-52 52-20-52-20zM426.67 117.33L400 48l-26.67 69.33L304 144l69.33 26.67L400 240l26.67-69.33L496 144l-69.33-26.67z" stroke-linecap="round" stroke-linejoin="round" class="ionicon-fill-none ionicon-stroke-width"/></svg>