<svg xmlns="http://www.w3.org/2000/svg" viewBox="0 0 512 512" class="ionicon"><path stroke-linecap="round" stroke-linejoin="round" d="M448 448V240M64 240v208M382.47 48H129.53c-21.79 0-41.47 12-49.93 30.46L36.3 173c-14.58 31.81 9.63 67.85 47.19 69h2c31.4 0 56.85-25.18 56.85-52.23 0 27 25.46 52.23 56.86 52.23s56.8-23.38 56.8-52.23c0 27 25.45 52.23 56.85 52.23s56.86-23.38 56.86-52.23c0 28.85 25.45 52.23 56.85 52.23h1.95c37.56-1.17 61.77-37.21 47.19-69l-43.3-94.54C423.94 60 404.26 48 382.47 48zM32 464h448M136 288h80a24 24 0 0124 24v88h0-128 0v-88a24 24 0 0124-24zM288 464V312a24 24 0 0124-24h64a24 24 0 0124 24v152" class="ionicon-fill-none ionicon-stroke-width"/></svg>