<svg xmlns="http://www.w3.org/2000/svg" viewBox="0 0 512 512" class="ionicon"><path stroke-miterlimit="10" d="M366.05 146a46.7 46.7 0 01-2.42-63.42 3.87 3.87 0 00-.22-5.26l-44.13-44.18a3.89 3.89 0 00-5.5 0l-70.34 70.34a23.62 23.62 0 00-5.71 9.24h0a23.66 23.66 0 01-14.95 15h0a23.7 23.7 0 00-9.25 5.71L33.14 313.78a3.89 3.89 0 000 5.5l44.13 44.13a3.87 3.87 0 005.26.22 46.69 46.69 0 0165.84 65.84 3.87 3.87 0 00.22 5.26l44.13 44.13a3.89 3.89 0 005.5 0l180.4-180.39a23.7 23.7 0 005.71-9.25h0a23.66 23.66 0 0114.95-15h0a23.62 23.62 0 009.24-5.71l70.34-70.34a3.89 3.89 0 000-5.5l-44.13-44.13a3.87 3.87 0 00-5.26-.22 46.7 46.7 0 01-63.42-2.32z" class="ionicon-fill-none ionicon-stroke-width"/><path stroke-miterlimit="10" stroke-linecap="round" d="M250.5 140.44l-16.51-16.51M294.52 184.46l-11.01-11M338.54 228.49l-11-11.01M388.07 278.01l-16.51-16.51" class="ionicon-fill-none ionicon-stroke-width"/></svg>