<svg xmlns="http://www.w3.org/2000/svg" class="ionicon" viewBox="0 0 512 512"><path d="M296 64h-80a7.91 7.91 0 00-8 8v24h96V72a7.91 7.91 0 00-8-8z" class="ionicon-fill-none"/><path d="M292 64h-72a4 4 0 00-4 4v28h80V68a4 4 0 00-4-4z" class="ionicon-fill-none"/><path d="M447.55 96H336V48a16 16 0 00-16-16H192a16 16 0 00-16 16v48H64.45L64 136h33l20.09 314A32 32 0 00149 480h214a32 32 0 0031.93-29.95L415 136h33zM176 416l-9-256h33l9 256zm96 0h-32V160h32zm24-320h-80V68a4 4 0 014-4h72a4 4 0 014 4zm40 320h-33l9-256h33z"/></svg>