<svg xmlns="http://www.w3.org/2000/svg" viewBox="0 0 512 512" class="ionicon"><path d="M336 179.52A67.52 67.52 0 00268.48 112h-79.2a4 4 0 00-2.82 6.83l142.71 142.71a4 4 0 006.83-2.82zM16 180v152a68 68 0 0068 68h184a67.66 67.66 0 0042.84-15.24 4 4 0 00.33-6L54.41 122a4 4 0 00-4.87-.62A68 68 0 0016 180zM464 384.39a32 32 0 01-13-2.77 15.77 15.77 0 01-2.71-1.54l-82.71-58.22A32 32 0 01352 295.7v-79.4a32 32 0 0113.58-26.16l82.71-58.22a15.77 15.77 0 012.71-1.54 32 32 0 0145 29.24v192.76a32 32 0 01-32 32z"/><path stroke-linecap="round" stroke-miterlimit="10" d="M416 416L80 80" class="ionicon-fill-none ionicon-stroke-width"/></svg>