<svg xmlns="http://www.w3.org/2000/svg" class="ionicon" viewBox="0 0 512 512"><path fill-rule="evenodd" clip-rule="evenodd" d="M331.295 353.764c.131.181-.091-.13 0 0a45.63 45.63 0 00-1.039-1.365 63.784 63.784 0 00-3.618-4.17c-3.112-3.302-7.69-7.537-13.87-11.725C300.287 328.047 281.56 320 256 320c-25.56 0-44.287 8.047-56.768 16.504-6.18 4.188-10.758 8.423-13.87 11.725a63.784 63.784 0 00-3.618 4.17c.264-.361-.43.544 0 0l-1.586 2.142a16 16 0 002.135 20.463l62.586 60.5c6.202 5.995 16.039 5.995 22.241 0l62.587-60.5a16.001 16.001 0 002.136-20.463l-.548-.777z"/><path fill-rule="evenodd" clip-rule="evenodd" d="M421.086 269.862c-.135-.218-.596-.966-.812-1.3a71.882 71.882 0 00-1.81-2.639c-1.552-2.163-3.813-5.096-6.861-8.536-6.099-6.88-15.362-15.802-28.417-24.637C356.915 214.969 315.967 198 256 198c-59.967 0-100.915 16.969-127.186 34.75-13.055 8.835-22.318 17.757-28.417 24.637-3.049 3.44-5.31 6.373-6.861 8.536a70.641 70.641 0 00-1.81 2.639c-.216.334-.392.612-.527.829l-.285.471a16 16 0 002.678 19.664l35.31 34a16.001 16.001 0 0023.007-.84l.195-.209c.207-.219.565-.591 1.074-1.096a92.935 92.935 0 014.831-4.436c4.402-3.785 11.093-8.947 19.955-14.141C195.658 292.436 221.893 282 256 282s60.342 10.436 78.036 20.804c8.862 5.194 15.553 10.356 19.955 14.141a92.935 92.935 0 014.831 4.436 48.464 48.464 0 011.269 1.305l-.005-.006-.013-.015m0 0l.026.029a16.001 16.001 0 0022.999.832l35.31-34a16 16 0 002.678-19.664"/><path d="M507.974 181.264c.343.459 1.181 1.629 1.181 1.629a16.001 16.001 0 01-2.029 20.606l-36.69 35.5a16 16 0 01-23.345-1.17l-.003-.003a68.347 68.347 0 00-.567-.647 108.106 108.106 0 00-2.197-2.379c-2.009-2.116-5.095-5.229-9.229-9.01-8.275-7.569-20.69-17.764-36.997-27.981C365.499 177.384 317.58 157 256 157c-61.58 0-109.499 20.384-142.098 40.809-16.307 10.217-28.722 20.412-36.997 27.981-4.133 3.781-7.22 6.894-9.229 9.01a108.551 108.551 0 00-2.197 2.379c-.23.258-.39.442-.482.548l-.047.054-.03.034-.004.006-.004.005-.004.004a16 16 0 01-23.344 1.169l-36.69-35.5a16 16 0 01-2.03-20.606l.011-.016.013-.017.03-.043.079-.113.24-.337c.197-.274.466-.644.809-1.103.686-.92 1.667-2.199 2.949-3.786 2.563-3.174 6.335-7.585 11.367-12.818 10.057-10.46 25.185-24.241 45.783-37.973C105.437 99.146 168.48 72 256 72s150.563 27.146 191.875 54.687c20.598 13.732 35.726 27.513 45.783 37.973 5.032 5.233 8.804 9.644 11.367 12.818a124.805 124.805 0 012.949 3.786z"/></svg>