<svg xmlns="http://www.w3.org/2000/svg" width="310" height="60" fill="none" viewBox="0 0 311 60"><path fill="#f5f5f5" d="M80.923 35.67c.321 3.002 3.053 8.15 10.978 8.15 6.908 0 10.229-4.397 10.229-8.686 0-3.86-2.624-7.024-7.819-8.096l-3.749-.805c-1.445-.268-2.41-1.072-2.41-2.359 0-1.501 1.5-2.627 3.374-2.627 3 0 4.124 1.984 4.338 3.539l5.944-1.34c-.321-2.842-2.838-7.614-10.335-7.614-5.677 0-9.854 3.914-9.854 8.632 0 3.7 2.303 6.756 7.39 7.882l3.481.804c2.035.429 2.839 1.394 2.839 2.573 0 1.394-1.125 2.627-3.481 2.627-3.106 0-4.66-1.93-4.82-4.02l-6.105 1.34ZM124.891 43.016h6.801a43.452 43.452 0 0 1-.268-4.772V16.637h-7.123V31.97c0 3.056-1.82 5.2-4.98 5.2-3.32 0-4.82-2.359-4.82-5.308V16.637h-7.122V33.31c0 5.737 3.641 10.401 10.014 10.401 2.785 0 5.838-1.072 7.284-3.538 0 1.072.107 2.305.214 2.842ZM146.146 53.206v-12.76c1.285 1.77 3.963 3.217 7.605 3.217 7.443 0 12.423-5.898 12.423-13.887 0-7.828-4.444-13.725-12.155-13.725-3.963 0-6.909 1.769-8.087 3.807V16.64h-6.908v36.566h7.122Zm13.013-23.376c0 4.718-2.891 7.453-6.533 7.453-3.641 0-6.587-2.788-6.587-7.453 0-4.665 2.946-7.399 6.587-7.399 3.642 0 6.533 2.734 6.533 7.399ZM170.21 35.83c0 4.129 3.427 7.936 9.05 7.936 3.909 0 6.426-1.823 7.765-3.914 0 1.018.107 2.466.267 3.163h6.534c-.161-.911-.321-2.788-.321-4.182V25.858c0-5.308-3.106-10.026-11.46-10.026-7.069 0-10.872 4.557-11.299 8.686l6.318 1.34c.215-2.305 1.928-4.29 5.034-4.29 2.999 0 4.445 1.556 4.445 3.432 0 .912-.482 1.662-1.981 1.877l-6.48.965c-4.391.643-7.872 3.27-7.872 7.989Zm10.549 2.628c-2.302 0-3.427-1.502-3.427-3.056 0-2.038 1.446-3.056 3.267-3.325l5.944-.911v1.18c0 4.664-2.785 6.112-5.784 6.112ZM207.591 43.017V39.8c1.392 2.252 4.177 3.86 7.819 3.86 7.497 0 12.424-5.951 12.424-13.94 0-7.828-4.445-13.779-12.157-13.779-3.909 0-6.801 1.716-7.979 3.592V4.2h-7.015v38.818h6.908Zm13.12-13.243c0 4.825-2.891 7.506-6.533 7.506-3.588 0-6.587-2.734-6.587-7.506 0-4.826 2.999-7.453 6.587-7.453 3.642 0 6.533 2.627 6.533 7.453ZM231.864 35.83c0 4.129 3.427 7.936 9.051 7.936 3.908 0 6.426-1.823 7.764-3.914 0 1.018.108 2.466.268 3.163h6.533c-.16-.911-.321-2.788-.321-4.182V25.858c0-5.308-3.106-10.026-11.46-10.026-7.069 0-10.871 4.557-11.299 8.686l6.318 1.34c.215-2.305 1.929-4.29 5.034-4.29 3 0 4.445 1.556 4.445 3.432 0 .912-.481 1.662-1.981 1.877l-6.479.965c-4.392.643-7.873 3.27-7.873 7.989Zm10.55 2.628c-2.303 0-3.428-1.502-3.428-3.056 0-2.038 1.446-3.056 3.267-3.325l5.944-.911v1.18c0 4.664-2.784 6.112-5.783 6.112ZM260.087 35.67c.321 3.002 3.053 8.15 10.978 8.15 6.908 0 10.228-4.397 10.228-8.686 0-3.86-2.623-7.024-7.818-8.096l-3.749-.805c-1.446-.268-2.409-1.072-2.409-2.359 0-1.501 1.499-2.627 3.373-2.627 3 0 4.124 1.984 4.339 3.539l5.944-1.34c-.322-2.842-2.839-7.614-10.336-7.614-5.677 0-9.853 3.914-9.853 8.632 0 3.7 2.302 6.756 7.39 7.882l3.481.804c2.035.429 2.838 1.394 2.838 2.573 0 1.394-1.125 2.627-3.481 2.627-3.106 0-4.659-1.93-4.82-4.02l-6.105 1.34ZM292.112 26.823c.16-2.413 2.196-5.2 5.891-5.2 4.069 0 5.784 2.573 5.891 5.2h-11.782Zm12.478 6.863c-.857 2.359-2.678 4.021-5.998 4.021-3.535 0-6.48-2.52-6.64-6.005h18.85c0-.107.107-1.18.107-2.198 0-8.471-4.873-13.672-13.013-13.672-6.748 0-12.96 5.469-12.96 13.886 0 8.9 6.372 14.101 13.602 14.101 6.48 0 10.657-3.806 11.996-8.364l-5.944-1.769Z"/><path fill="url(#a)" d="M34.137 59.003c-1.533 1.93-4.64.873-4.678-1.592l-.54-36.049h24.24c4.39 0 6.839 5.07 4.109 8.51L34.137 59.002Z"/><path fill="url(#b)" fill-opacity=".2" d="M34.137 59.003c-1.533 1.93-4.64.873-4.678-1.592l-.54-36.049h24.24c4.39 0 6.839 5.07 4.109 8.51L34.137 59.002Z"/><path fill="#3ECF8E" d="M24.278.997c1.533-1.93 4.641-.873 4.678 1.592l.237 36.049H5.257c-4.39 0-6.84-5.07-4.11-8.51L24.279.998Z"/><defs><linearGradient id="a" x1="28.919" x2="50.462" y1="29.355" y2="38.39" gradientUnits="userSpaceOnUse"><stop stop-color="#249361"/><stop offset="1" stop-color="#3ECF8E"/></linearGradient><linearGradient id="b" x1="19.368" x2="29.193" y1="16.278" y2="34.773" gradientUnits="userSpaceOnUse"><stop/><stop offset="1" stop-opacity="0"/></linearGradient></defs></svg>