<svg width="1126" height="700" viewBox="0 0 1126 700" fill="none" xmlns="http://www.w3.org/2000/svg">
<path fill-rule="evenodd" clip-rule="evenodd" d="M3.06915 58.8968C-8.14591 30.5859 12.7549 0 43.3414 0H233.233C251.075 0 266.878 10.6166 273.505 27.047L424.654 404.189C428.732 414.3 428.732 425.675 424.654 436.039L329.58 672.89C315.052 709.037 263.564 709.037 249.036 672.89L3.06915 58.8968ZM369.861 57.6329C359.665 29.5748 380.566 0 410.643 0H576.065C594.416 0 610.729 11.3749 616.846 28.3109L754.231 405.453C757.544 414.805 757.544 425.169 754.231 434.775L671.647 661.515C657.883 699.431 603.847 699.431 590.083 661.515L369.861 57.6329ZM741.233 0C710.646 0 689.746 30.5859 700.961 58.8968L946.927 672.89C961.456 709.037 1012.94 709.037 1027.47 672.89L1122.54 436.039C1126.62 425.675 1126.62 414.3 1122.54 404.189L971.396 27.047C964.769 10.6166 948.966 0 931.124 0H741.233Z" fill="url(#paint0_linear_215_66)"/>
<defs>
<linearGradient id="paint0_linear_215_66" x1="563.567" y1="-165.278" x2="1341.59" y2="881.403" gradientUnits="userSpaceOnUse">
<stop stop-color="#F213A4"/>
<stop offset="1" stop-color="#5204BF"/>
</linearGradient>
</defs>
</svg>
