<svg width="16" height="16" viewBox="0 0 16 16" fill="none" xmlns="http://www.w3.org/2000/svg">
<g clip-path="url(#clip0_4215_311)">
<path d="M5.91893 16V14.2558C4.4392 14.2558 4.08658 13.6513 4.08658 12.3416V10.2763C4.08658 9.29398 3.69618 8.46281 1.99606 8.12279V7.88351C3.69618 7.54349 4.08658 6.70602 4.08658 5.72373V3.6584C4.08658 2.35498 4.4392 1.75049 5.91893 1.75049V0C3.40024 0 1.9205 0.635969 1.9205 3.4758V5.08146C1.9205 6.40378 1.42936 6.9453 0 6.9453V9.061C1.42936 9.061 1.9205 9.60252 1.9205 10.9248V12.5242C1.9205 15.364 3.40024 16 5.91893 16Z" fill="#647696"/>
<path d="M9.31246 7.99984H7.31246L7.30204 8.58317C7.27079 9.99984 6.82808 11.4686 6.66663 12.0623H8.27079C8.52079 11.4582 9.14058 10.0207 9.26558 8.57796L9.31246 7.99984ZM8.33329 7.32796C9.04683 7.32796 9.67704 6.7238 9.68746 5.9738C9.67704 5.23421 9.04683 4.63525 8.33329 4.63525C7.58329 4.63525 6.96871 5.23421 6.97913 5.9738C6.96871 6.7238 7.58329 7.32796 8.33329 7.32796Z" fill="#A9B6CB"/>
<path d="M10.0811 -5.17449e-07L10.0811 1.74419C11.5608 1.74419 11.9134 2.34868 11.9134 3.6584L11.9134 5.72373C11.9134 6.70602 12.3038 7.53719 14.0039 7.87721L14.0039 8.11649C12.3038 8.45651 11.9134 9.29398 11.9134 10.2763L11.9134 12.3416C11.9134 13.645 11.5608 14.2495 10.0811 14.2495L10.0811 16C12.5998 16 14.0795 15.364 14.0795 12.5242L14.0795 10.9185C14.0795 9.59622 14.5706 9.0547 16 9.0547L16 6.939C14.5706 6.939 14.0795 6.39748 14.0795 5.07517L14.0795 3.4758C14.0795 0.635971 12.5998 -2.97258e-07 10.0811 -5.17449e-07Z" fill="#647696"/>
</g>
<defs>
<clipPath id="clip0_4215_311">
<rect width="16" height="16" fill="white"/>
</clipPath>
</defs>
</svg>
