<svg width="900" height="450" viewBox="0 0 900 450" fill="none" xmlns="http://www.w3.org/2000/svg">
<rect width="900" height="450" fill="current"/>
<path d="M364.488 205.915V287.423H339.378V205.915H321.937V182.192H381.779V205.915H364.488Z" fill="#0F4F62"/>
<path d="M389.746 245.452V182.192H414.856V245.452C414.856 257.314 420.419 265.525 432.748 265.525C444.626 265.525 450.34 257.161 450.34 245.3V182.192H475.45V245.3C475.45 270.696 461.015 289.4 432.448 289.4C403.128 289.4 389.746 271.76 389.746 245.452Z" fill="#0F4F62"/>
<path d="M543.108 239.369L566.864 287.423H539.95L519.502 244.235H512.736V287.423H487.776V182.192H523.562C545.363 182.192 556.339 193.598 556.339 213.518C556.339 225.227 551.528 234.199 543.108 239.369ZM512.735 204.09V223.555H521.456C527.17 223.555 530.478 219.601 530.478 213.67C530.478 207.891 527.02 204.09 521.456 204.09H512.735Z" fill="#0F4F62"/>
<path d="M600.845 220.057L613.926 225.227C627.458 230.854 635.427 239.978 635.427 255.641C635.427 276.93 620.541 289.4 599.642 289.4C569.871 289.4 564.458 269.783 565.36 254.424H589.117C588.816 261.115 591.372 267.654 599.642 267.654C605.355 267.654 609.565 264.461 609.565 258.378C609.565 252.448 605.355 249.558 598.589 246.973C593.327 244.844 588.064 242.867 582.351 239.978C571.826 234.503 566.263 224.163 566.263 211.389C566.263 192.989 579.494 180.215 599.792 180.215C624.301 180.215 633.172 194.358 632.119 213.062H608.964C609.115 206.523 605.807 201.961 599.943 201.961C594.229 201.961 591.372 205.459 591.372 209.869C591.372 214.279 593.778 217.32 600.845 220.057Z" fill="#0F4F62"/>
<path d="M694.819 180.215C728.8 180.215 750 203.786 750 234.503C750 265.221 728.95 289.4 695.571 289.4C661.59 289.4 640.841 265.83 640.841 234.959C640.841 204.394 662.792 180.215 694.819 180.215ZM695.42 265.677C713.764 265.677 723.688 251.991 723.688 234.808C723.688 217.624 713.163 203.938 695.27 203.938C676.927 203.938 667.153 217.624 667.153 234.808C667.153 252.143 678.129 265.677 695.42 265.677Z" fill="#0F4F62"/>
<path d="M291.563 155.02L288.045 152.393L281.093 159.825L275.519 151.784L272.313 153.255L276.725 164.494L274.682 166.678L258.846 150L255.257 151.776L269.339 182.001L256.144 186.634H255.829L248.676 178.139L241.517 186.641H200.045L192.886 178.139L185.712 186.659H185.491L172.223 182.001L186.306 151.776L182.717 150L166.881 166.678L164.838 164.494L169.25 153.254L166.044 151.784L160.47 159.824L153.518 152.393L150 155.02L160.823 173.057L155.253 178.923L157.201 193.77L170.101 198.69L170.075 205.109H157.859V207.88L162.588 214.616L170.075 217.322V260.895L189.212 289.337L193.598 300L200.49 289.963L207.634 300L213.888 289.963L220.781 300L227.673 289.963L233.928 300L241.071 289.963L247.963 300L252.35 289.337L271.486 260.895V217.322L278.974 214.616L283.702 207.88V205.109H271.486L271.505 198.673L284.361 193.77L286.308 178.924L280.738 173.058L291.562 155.021L291.563 155.02ZM235.677 272.005H195.954L200.92 261.911L205.885 272.005L210.85 265.24L215.816 272.005L220.781 265.24L225.746 272.005L230.712 265.24L235.677 272.005L240.642 261.911L245.608 272.005H235.677H235.677ZM259.995 225.816L239.34 232.596L238.45 251.728L220.759 255.643L203.068 251.728L202.178 232.596L181.523 225.816V215.603L208.225 223.159L207.9 248.953H233.618L233.292 223.159L259.995 215.603V225.816H259.995Z" fill="#293945"/>
</svg>
