<?xml version="1.0" encoding="UTF-8" standalone="no"?>
<!DOCTYPE svg PUBLIC "-//W3C//DTD SVG 1.1//EN" "http://www.w3.org/Graphics/SVG/1.1/DTD/svg11.dtd">
<!-- Created with Vectornator (http://vectornator.io/) -->
<svg height="100%" stroke-miterlimit="10" style="fill-rule:nonzero;clip-rule:evenodd;stroke-linecap:round;stroke-linejoin:round;" version="1.1" viewBox="0 0 600 150" width="100%" xml:space="preserve" xmlns="http://www.w3.org/2000/svg" xmlns:xlink="http://www.w3.org/1999/xlink">
<defs/>
<g id="Untitled">
<path d="M214.488 55.9149L214.488 137.423L189.378 137.423L189.378 55.9149L171.937 55.9149L171.937 32.1923L231.779 32.1923L231.779 55.9149L214.488 55.9149Z" fill="#ffffff" fill-rule="nonzero" opacity="1" stroke="none"/>
<path d="M239.746 95.4524L239.746 32.1923L264.856 32.1923L264.856 95.4524C264.856 107.314 270.419 115.525 282.748 115.525C294.626 115.525 300.34 107.161 300.34 95.3001L300.34 32.1923L325.45 32.1923L325.45 95.3005C325.45 120.696 311.015 139.4 282.448 139.4C253.128 139.4 239.746 121.76 239.746 95.4524Z" fill="#ffffff" fill-rule="nonzero" opacity="1" stroke="none"/>
<path d="M393.108 89.3695L416.864 137.423L389.95 137.423L369.502 94.2355L362.736 94.2355L362.736 137.423L337.776 137.423L337.776 32.1923L373.562 32.1923C395.363 32.1923 406.339 43.5976 406.339 63.518C406.339 75.2274 401.528 84.1993 393.108 89.3695ZM362.735 54.0898L362.735 73.5546L371.456 73.5546C377.17 73.5546 380.478 69.6006 380.478 63.6699C380.478 57.8912 377.02 54.0898 371.456 54.0898L362.735 54.0898Z" fill="#ffffff" fill-rule="nonzero" opacity="1" stroke="none"/>
<path d="M450.845 70.0569L463.926 75.2271C477.458 80.8536 485.427 89.9777 485.427 105.641C485.427 126.93 470.541 139.4 449.642 139.4C419.871 139.4 414.458 119.783 415.36 104.424L439.117 104.424C438.816 111.115 441.372 117.654 449.642 117.654C455.355 117.654 459.565 114.461 459.565 108.378C459.565 102.448 455.355 99.5582 448.589 96.973C443.327 94.8441 438.064 92.8671 432.351 89.9781C421.826 84.5034 416.263 74.1632 416.263 61.3891C416.263 42.989 429.494 30.2153 449.792 30.2153C474.301 30.2153 483.172 44.3577 482.119 63.062L458.964 63.062C459.115 56.5231 455.807 51.9609 449.943 51.9609C444.229 51.9609 441.372 55.4585 441.372 59.8685C441.372 64.2785 443.778 67.3198 450.845 70.0569Z" fill="#ffffff" fill-rule="nonzero" opacity="1" stroke="none"/>
<path d="M544.819 30.2153C578.8 30.2153 600 53.7856 600 84.5034C600 115.221 578.95 139.4 545.571 139.4C511.59 139.4 490.841 115.83 490.841 84.9595C490.841 54.3939 512.792 30.2153 544.819 30.2153ZM545.42 115.677C563.764 115.677 573.688 101.991 573.688 84.8076C573.688 67.6239 563.163 53.9379 545.27 53.9379C526.927 53.9379 517.153 67.6239 517.153 84.8076C517.153 102.143 528.129 115.677 545.42 115.677Z" fill="#ffffff" fill-rule="nonzero" opacity="1" stroke="none"/>
<path d="M141.563 5.02041L138.045 2.39252L131.093 9.82464L125.519 1.78448L122.313 3.2547L126.725 14.4941L124.682 16.6781L108.846 0L105.257 1.77595L119.339 32.0012L106.144 36.634L105.829 36.634L98.6762 28.1389L91.517 36.6412L50.045 36.6412L42.8858 28.1389L35.7122 36.6587L35.4908 36.6587L22.223 32.0007L36.3063 1.77595L32.7169 0L16.8807 16.6777L14.8378 14.4937L19.2503 3.25427L16.0439 1.78405L10.47 9.82421L3.51774 2.39252L0 5.02041L10.8232 23.0575L5.25315 28.9234L7.20053 43.7698L20.1007 48.69L20.0751 55.1094L7.85946 55.1094L7.85946 57.8797L12.588 64.6159L20.0751 67.3223L20.0751 110.895L39.212 139.337L43.5981 150L50.4903 139.963L57.6336 150L63.8882 139.963L70.7808 150L77.6734 139.963L83.9279 150L91.0713 139.963L97.9635 150L102.35 139.337L121.486 110.895L121.486 67.3223L128.974 64.6159L133.702 57.8797L133.702 55.1094L121.486 55.1094L121.505 48.6733L134.361 43.7702L136.308 28.9239L130.738 23.0579L141.562 5.02084L141.563 5.02041ZM85.6774 122.005L45.9545 122.005L50.9197 111.911L55.885 122.005L60.8503 115.24L65.8155 122.005L70.7812 115.24L75.7465 122.005L80.7117 115.24L85.6774 122.005L90.6423 111.911L95.6075 122.005L85.6766 122.005L85.6774 122.005ZM109.995 75.8161L89.3402 82.5959L88.4501 101.728L70.759 105.643L53.068 101.728L52.1779 82.5959L31.5227 75.8161L31.5227 65.603L58.2252 73.1588L57.8998 98.9529L83.6179 98.9529L83.2925 73.1588L109.995 65.603L109.995 75.8161L109.995 75.8161Z" fill="#4ff8d2" fill-rule="nonzero" opacity="1" stroke="none"/>
</g>
</svg>
