<svg width="30" height="30" viewBox="0 0 30 30" fill="none" xmlns="http://www.w3.org/2000/svg">
<path fill-rule="evenodd" clip-rule="evenodd" d="M0 0H15C23.2843 0 30 6.71573 30 15C30 23.2843 23.2843 30 15 30H0V0Z" fill="url(#paint0_linear)"/>
<mask id="mask0" mask-type="alpha" maskUnits="userSpaceOnUse" x="0" y="0" width="30" height="30">
<path fill-rule="evenodd" clip-rule="evenodd" d="M0 0H15C23.2843 0 30 6.71573 30 15C30 23.2843 23.2843 30 15 30H0V0Z" fill="white"/>
</mask>
<g mask="url(#mask0)">
<path fill-rule="evenodd" clip-rule="evenodd" d="M0 0C8.28427 0 15 6.71573 15 15C15 23.2843 8.28427 30 0 30V0Z" transform="translate(15.1499)" fill="white"/>
</g>
<path fill-rule="evenodd" clip-rule="evenodd" d="M0 15L15 0C18.7603 0 22.1974 1.38364 24.83 3.66956C24.8294 3.675 13.5 15 13.5 15C13.5 15 24.83 26.325 24.8294 26.3309C22.1969 28.6165 18.76 30 15 30L0 15Z" fill="url(#paint1_linear)"/>
<path fill-rule="evenodd" clip-rule="evenodd" d="M11.3303 0C14.4974 2.7502 16.5 6.80631 16.5 11.3302C16.5 15.8543 14.4971 19.9106 11.3297 22.6608C11.3303 22.6552 0 11.3302 0 11.3302L11.3303 0Z" transform="translate(13.5 3.66983)" fill="url(#paint2_linear)"/>
<mask id="mask1" mask-type="alpha" maskUnits="userSpaceOnUse" x="13" y="3" width="17" height="24">
<path fill-rule="evenodd" clip-rule="evenodd" d="M11.3303 0C14.4974 2.7502 16.5 6.80631 16.5 11.3302C16.5 15.8543 14.4971 19.9106 11.3297 22.6608C11.3303 22.6552 0 11.3302 0 11.3302L11.3303 0Z" transform="translate(13.5 3.66983)" fill="white"/>
</mask>
<g mask="url(#mask1)">
</g>
<defs>
<linearGradient id="paint0_linear" x2="1" gradientUnits="userSpaceOnUse" gradientTransform="scale(43.0633) rotate(44.7178)">
<stop stop-color="#5334F5"/>
<stop offset="1" stop-color="#7B42F6"/>
</linearGradient>
<linearGradient id="paint1_linear" x2="1" gradientUnits="userSpaceOnUse" gradientTransform="translate(0 15) scale(30.0674 36.3279)">
<stop stop-color="#4899F7"/>
<stop offset="1" stop-color="#2457F5"/>
</linearGradient>
<linearGradient id="paint2_linear" x2="1" gradientUnits="userSpaceOnUse" gradientTransform="scale(21.6163 29.6874) rotate(35.5674)">
<stop stop-color="#9DE1E5"/>
<stop offset="1" stop-color="#B8DFB2"/>
</linearGradient>
</defs>
</svg>
