<svg xmlns="http://www.w3.org/2000/svg" xmlns:xlink="http://www.w3.org/1999/xlink" width="150" height="150" viewBox="0 0 150 150"><defs><path id="1f36ad63c" d="M.529 11h50.606v57H.529z"/><path id="1f36ad63d" d="M12.594 0c.223 0 .406.155.406.344V.5C13 3.525 10.075 6 6.5 6S0 3.525 0 .5V.344C0 .154.183 0 .406 0h12.188"/><path id="1f36ad63h" d="M22.495 50.247V44a1 1 0 011.707-.707l14.103 14.102a1 1 0 010 1.415L24.202 72.912a1 1 0 01-1.707-.707v-5.529H1a1 1 0 01-1-1V51.247a1 1 0 011-1h21.495z"/><linearGradient id="1f36ad63f" x1="50%" x2="50%" y1="0%" y2="100%"><stop offset="0%" stop-color="#EB3B46"/><stop offset="100%" stop-color="#FAA719"/></linearGradient><filter id="1f36ad63g" width="110.4%" height="113.2%" x="-7.8%" y="-9.9%" filterUnits="objectBoundingBox"><feOffset dx="-2" dy="-2" in="SourceAlpha" result="shadowOffsetOuter1"/><feColorMatrix in="shadowOffsetOuter1" values="0 0 0 0 0 0 0 0 0 0 0 0 0 0 0 0 0 0 0.1 0"/></filter><rect id="1f36ad63a" width="50.606" height="84.638" x=".529" rx="5"/></defs><g fill="none" fill-rule="evenodd" transform="translate(19 27)"><rect width="62" height="10" x="26" y="86" fill="#DDDFEA" rx="5"/><g transform="translate(31 5.31)"><mask id="1f36ad63b" fill="#fff"><use xlink:href="#1f36ad63a"/></mask><rect width="52.606" height="86.638" x="-.471" y="-1" stroke="#6F7592" stroke-width="2" rx="5"/><rect width="10" height="2" x="21" y="6" fill="#6F7592" mask="url(#1f36ad63b)" rx="1"/><circle cx="26" cy="3" r="1" fill="#6F7592" mask="url(#1f36ad63b)"/><ellipse cx="25.947" cy="75.884" fill="#6F7592" mask="url(#1f36ad63b)" rx="4.277" ry="4.186"/><use fill="#E7F5FC" xlink:href="#1f36ad63c"/></g><path d="M72 40.5a3.5 3.5 0 11-7 0 3.5 3.5 0 017 0zm-4 .5a1 1 0 100-2 1 1 0 000 2zm-20-.5a3.5 3.5 0 11-7 0 3.5 3.5 0 017 0zm-4 .5a1 1 0 100-2 1 1 0 000 2z" fill="#6F7592"/><g fill="#FFA7A6" opacity=".1" transform="translate(36 50)"><ellipse cx="3.5" cy="1" rx="3.5" ry="1"/><ellipse cx="38.5" cy="1" rx="3.5" ry="1"/></g><g transform="translate(51 53)"><path fill="#B92815" stroke="#6F7592" stroke-width="4" d="M12.594 0c.223 0 .406.155.406.344V.5C13 3.525 10.075 6 6.5 6S0 3.525 0 .5V.344C0 .154.183 0 .406 0h12.188"/><mask id="1f36ad63e" fill="#fff"><use xlink:href="#1f36ad63d"/></mask><use fill="#FC6563" xlink:href="#1f36ad63d"/><ellipse cx="6.5" cy="6" fill="#D52C34" mask="url(#1f36ad63e)" rx="3.792" ry="3"/></g><path fill="url(#1f36ad63f)" stroke="#FFF" stroke-width="2" d="M1.788 26.711c.431.028.857.043 1.273.043 2.006 0 3.394-.349 3.986-.904a1.891 1.891 0 012.138-.311 12.456 12.456 0 005.643 1.334c7.02 0 12.74-5.801 12.74-12.936C27.568 6.8 21.85 1 14.828 1c-7.02 0-12.74 5.801-12.74 12.937 0 1.883.388 3.692 1.153 5.384.057.127.1.259.13.405.126.613.17 1.561-.014 2.747-.217 1.405-.721 2.833-1.569 4.238zm-.374-6.576z" transform="translate(74)"/><path stroke="#6F7592" stroke-width="2" d="M82.34 26.339a.89.89 0 01.397.094 13.456 13.456 0 006.091 1.44c7.576 0 13.74-6.252 13.74-13.936C102.568 6.252 96.404 0 88.828 0c-7.576 0-13.74 6.252-13.74 13.937 0 2.024.418 3.973 1.241 5.796a.946.946 0 01.063.192c.033.163.703 3.686-2.392 7.613.84.111 1.935.216 3.061.216 2.236 0 3.85-.405 4.669-1.173a.892.892 0 01.61-.242"/><path fill="#FFF" d="M91.286 9.151c.558-1.564.03-1.912-1.174-.782l-5.437 5.102c-.737.708-.5 1.282.527 1.282h1.944l-1.278 3.582c-.559 1.564-.03 1.912 1.173.783l5.438-5.102c.736-.709.5-1.283-.528-1.283h-1.943l1.278-3.582z"/><use filter="url(#1f36ad63g)" xlink:href="#1f36ad63h" fill="#000"/><path fill="#54C3F9" stroke="#6F7592" stroke-linecap="round" stroke-linejoin="round" stroke-width="2" d="M22.495 50.247V44a1 1 0 011.707-.707l14.103 14.102a1 1 0 010 1.415L24.202 72.912a1 1 0 01-1.707-.707v-5.529H1a1 1 0 01-1-1V51.247a1 1 0 011-1h21.495z"/></g></svg>