<svg xmlns="http://www.w3.org/2000/svg" version="1.1" xmlns:xlink="http://www.w3.org/1999/xlink" xmlns:svgjs="http://svgjs.dev/svgjs" width="1028" height="1028" viewBox="0 0 1028 1028">
    <defs>
        <style>.cls-1{fill:#0083fc;fill-rule:evenodd;}</style>
    </defs>
    <g>
        <path class="cls-1" d="M0,140.18C0,62.76,62.76,0,140.18,0h233.64c16.44,0,32.22,2.83,46.88,8.03,70.49,25.01,135.33,85.42,210.12,85.42h0c74.79,0,139.63-60.42,210.12-85.42,14.66-5.2,30.44-8.03,46.88-8.03,77.42,0,140.18,62.76,140.18,140.18s-62.76,140.18-140.18,140.18c-16.44,0-32.22-2.83-46.88-8.03-70.49-25.01-135.33-85.42-210.12-85.42h0c-74.79,0-139.63,60.42-210.12,85.42-14.66,5.2-30.44,8.03-46.88,8.03h-233.64C62.76,280.36,0,217.6,0,140.18ZM0,514C0,436.58,62.76,373.82,140.18,373.82c20.57,0,40.11,4.43,57.71,12.39,61.77,27.94,119.82,81.06,187.6,81.06h0c67.79,0,125.84-53.12,187.6-81.06,17.6-7.96,37.14-12.39,57.71-12.39,77.42,0,140.18,62.76,140.18,140.18s-62.76,140.18-140.18,140.18c-20.57,0-40.11-4.43-57.71-12.4-61.77-27.94-119.82-81.06-187.6-81.06h0c-67.79,0-125.84,53.12-187.6,81.06-17.6,7.96-37.14,12.39-57.71,12.39C62.76,654.18,0,591.42,0,514ZM140.18,747.64C62.76,747.64,0,810.4,0,887.82s62.76,140.18,140.18,140.18,140.18-62.76,140.18-140.18-62.76-140.18-140.18-140.18Z"/>
    </g>
</svg>