<svg xmlns="http://www.w3.org/2000/svg" viewBox="0 0 247.19 63.55"><defs><style>.cls-1{fill:#717171;}.cls-1,.cls-2{fill-rule:evenodd;}.cls-2{fill:#ffcb28;}</style></defs><title>Asset 1</title><g id="Layer_2" data-name="Layer 2"><g id="Layer_1-2" data-name="Layer 1"><g id="Layer_1-2-2" data-name="Layer 1-2"><path class="cls-1" d="M99.51,48.14a21.07,21.07,0,0,0,6.91-1.08V40.51A17.66,17.66,0,0,0,98.94,39c-3.71,0-6.34,1.2-6.34,4.27,0,2.91,2.28,4.84,6.91,4.84M110.93,34.3V49.63a27.11,27.11,0,0,1-11.47,2.62c-8.23,0-11.6-3.76-11.6-8.72,0-5.47,4.8-8.54,11.08-8.54a19.91,19.91,0,0,1,7.48,1.36V34.3c0-4-2.62-6.2-7.36-6.2a13,13,0,0,0-7.66,2.45,4.25,4.25,0,0,1-2.34-3.08c1.71-1.71,5.65-3.65,10.22-3.65,6.46,0,11.65,3,11.65,10.48m28.38,10.48v-15A10.07,10.07,0,0,0,133.25,28c-5.71,0-9.65,3.93-9.65,9.57s3.94,9.17,9.65,9.17a9.17,9.17,0,0,0,6.06-2m4.62-17.48v23.5c0,6.72-5.19,11.85-12.85,11.85-4.74,0-9-1.48-11.76-4.67a5.41,5.41,0,0,1,3-3.13,11.06,11.06,0,0,0,8.79,3.7c5.71,0,8.23-3.42,8.23-7.75V49.23a14.25,14.25,0,0,1-6.46,1.59c-7.65,0-14-5-14-13.21,0-8,6-13.79,14.39-13.79A17.84,17.84,0,0,1,144,27.3m9.9,24.51V24.93a11.46,11.46,0,0,1,2.34-.23,10.35,10.35,0,0,1,2.29.23V51.82a12.43,12.43,0,0,1-4.63,0m-1-34.75a3.26,3.26,0,1,1,3.31,3.25,3.26,3.26,0,0,1-3.31-3.25v0m16,34.4V14.05a11.64,11.64,0,0,1,4.63,0V51.48a11.55,11.55,0,0,1-2.35.22,10.88,10.88,0,0,1-2.28-.22m15,.34V24.93a11.46,11.46,0,0,1,2.34-.23,10.35,10.35,0,0,1,2.29.23V51.82a12.43,12.43,0,0,1-4.63,0m-1-34.75a3.26,3.26,0,1,1,3.31,3.25,3.26,3.26,0,0,1-3.31-3.25v0m34.76,32.71a11.62,11.62,0,0,1-7.54,2.85c-5.42,0-9.37-2.57-9.37-9V29h-4.62a7,7,0,0,1-.23-1.88,6.66,6.66,0,0,1,.23-1.83h4.62V18.05a10.35,10.35,0,0,1,2.29-.23,9.82,9.82,0,0,1,2.23.23v7.24H215.9a6.58,6.58,0,0,1,.22,1.82A7,7,0,0,1,215.9,29H205.23V42.71c0,4.84,2.28,5.87,5.19,5.87a8.81,8.81,0,0,0,5.14-2,5.16,5.16,0,0,1,2.06,3.25m29.57-24.39c-4.45,17-9.54,27.23-19.53,38.11a4.55,4.55,0,0,1-3.26-2.79,63,63,0,0,0,7.26-9.4,98.66,98.66,0,0,1-10.8-26.09,9.55,9.55,0,0,1,2.86-.4,12.79,12.79,0,0,1,2.05.17A103.05,103.05,0,0,0,234,46.58l.45.86c.12-.29.29-.52.4-.8A91.25,91.25,0,0,0,242.51,25a11.84,11.84,0,0,1,1.88-.17,7.91,7.91,0,0,1,2.8.57"/><path class="cls-2" d="M42.92,53.29H17.28L36.61,19.9,55.94,53.29l5.64,9.94H73.22L36.61,0,0,63.23H47.42Z"/></g></g></g></svg>