<?xml version="1.0" encoding="UTF-8"?><svg id="Logos" xmlns="http://www.w3.org/2000/svg" viewBox="0 0 512 512"><defs><style>.cls-1{fill:#fff;}.cls-2{fill:#2c2929;}</style></defs><rect class="cls-1" x="83.36134" y="192" width="345.27731" height="128"/><g><path class="cls-2" d="m156.16153,303.13595c-4.52441,0-8.57617-.42773-12.16016-1.28027-3.58398-.85156-7.42383-2.13184-11.51953-3.83984l-1.15234-2.04785c.85156-2.56055,1.55566-4.90625,2.1123-7.04004.55371-2.13184,1.10742-4.45801,1.66406-6.97656.55371-2.51562,1.00195-4.96973,1.34375-7.35938l12.92773-1.02441c-.3418,3.75586-.25586,6.80664.25586,9.15234.5127,2.34766,1.60059,4.07617,3.26465,5.18359,1.66406,1.11035,3.94531,1.66406,6.84766,1.66406,3.41211,0,6.20801-.80957,8.38379-2.43164,2.17578-1.62012,3.26465-3.71191,3.26465-6.27246,0-2.64355-1.30273-4.8418-3.9043-6.5918-2.60449-1.74805-5.69629-3.51953-9.28027-5.31152-2.98828-1.53613-6.01562-3.28418-9.08789-5.24805-3.07227-1.96191-5.6123-4.33008-7.61621-7.10449-2.00586-2.77148-3.00781-6.20801-3.00781-10.30371,0-5.71582,1.57812-10.70801,4.73633-14.97656,3.15527-4.26562,7.57129-7.61523,13.24805-10.04785,5.67383-2.43164,12.22363-3.64746,19.64746-3.64746,4.35254,0,8.25586.2998,11.71191.89551,3.45605.59863,7.27441,1.45215,11.45605,2.56055l1.02441,2.17578c-1.28027,4.0957-2.36816,7.83008-3.26465,11.2002-.89551,3.37207-1.72754,7.01953-2.49512,10.94336l-12.03223.76855-1.15234-.89648c.25586-1.2793.42578-2.36816.51172-3.26367.08398-.89648.12891-1.59961.12891-2.1123,0-2.72949-.79004-4.73535-2.36816-6.01562-1.58008-1.28027-3.99023-1.91992-7.23242-1.91992-3.07227,0-5.63184.81152-7.67969,2.43164-2.04785,1.62207-3.07227,3.62793-3.07227,6.0166,0,2.04785.83203,3.83984,2.49609,5.37598,1.66406,1.53516,3.77637,2.9873,6.33594,4.35156,2.47363,1.28027,5.12012,2.64648,7.93555,4.0957,2.81641,1.45215,5.46094,3.07227,7.93652,4.86426,2.47363,1.79199,4.5,3.96777,6.08008,6.52832,1.57812,2.55957,2.36816,5.58984,2.36816,9.08789,0,5.71777-1.58008,10.70996-4.73633,14.97559-3.1582,4.26855-7.61621,7.57422-13.37598,9.91992-5.75977,2.34668-12.6084,3.52051-20.54395,3.52051Z"/><path class="cls-2" d="m219.90567,277.02365l1.02344-2.17578c.85254-.51172,1.96191-1.12988,3.32812-1.85645,1.36426-.72363,2.70801-1.61914,4.03223-2.6875,1.32227-1.06641,2.43164-2.28223,3.32812-3.64844.89551-1.36328,1.34375-2.85742,1.34375-4.47949,0-1.19434-.25586-2.06836-.76758-2.62402-.5127-.55371-1.23828-.83203-2.17676-.83203-1.19531,0-2.7959,1.28027-4.7998,3.83984-2.00586,2.55957-4.16016,6.08008-6.46387,10.55957-2.30371,4.48047-4.6084,9.62207-6.91211,15.4248l-1.02344,8.44727c-.17285.94043-1.02441,1.83594-2.56055,2.68848-1.53613.85352-3.47754,1.55762-5.82422,2.1123-2.34766.55371-4.75781.83203-7.23145.83203l-2.17578-2.43262c.85156-5.37598,1.66406-10.28223,2.43164-14.71973.76758-4.43652,1.57812-9.34375,2.43164-14.71973.85254-5.37598,1.70605-10.81641,2.56055-16.32031.85156-5.50391,1.66406-10.62402,2.43164-15.36035.76855-4.73535,1.36426-8.68164,1.79199-11.83984.42578-3.15625.63965-5.03418.63965-5.63184,0-2.98633-1.53516-4.48047-4.60742-4.48047h-4.0957l1.2793-8.83105c2.64453,0,5.48242-.08496,8.5127-.25684,3.02734-.16992,5.92969-.31934,8.7041-.44727,2.77148-.12793,5.90723-.32031,9.40723-.57617l1.79199,2.30371c-1.02344,4.52441-1.96387,8.76855-2.81543,12.73633-.85449,3.96777-1.75,8.42773-2.68848,13.37598-.93945,4.9502-1.91992,10.11133-2.94336,15.4873-1.02441,5.37695-1.9209,10.66895-2.68848,15.87207h.76758c3.15625-6.8252,6.29199-12.5,9.4082-17.02344,3.11426-4.52246,6.08008-7.67969,8.89648-9.47168,5.29004,0,9.47168,1.2373,12.54395,3.71191,3.07227,2.47559,4.60742,5.75977,4.60742,9.85547,0,3.92578-1.36523,7.83008-4.0957,11.71191-2.73145,3.88379-6.7002,7.61621-11.9043,11.2002,1.28027,2.38965,2.62402,4.84375,4.03223,7.36035,1.4082,2.51758,2.70801,4.84375,3.9043,6.97559,1.19434,2.13379,2.55957,4.48047,4.0957,7.04004l-.25586,2.30371-16.89551,3.2002-1.66406-.89551-8.7041-25.72852Z"/><path class="cls-2" d="m293.63418,253.59982c0,3.75586-1.06738,7.08398-3.2002,9.98438-2.13379,2.90137-5.4834,5.54785-10.04785,7.93555-4.56543,2.38965-10.64551,4.78027-18.23926,7.16797.16992,2.98828.89551,5.35645,2.17578,7.10449,1.2793,1.75,3.11328,2.62402,5.50391,2.62402,2.30371,0,4.5-.81055,6.5918-2.43262,2.08984-1.62012,3.98828-4.00977,5.69629-7.16797l2.55957.25586,5.24805,6.14453c-1.53613,3.32812-3.71191,6.35742-6.52832,9.08789-2.81543,2.73145-5.97363,4.88574-9.47168,6.46387-3.5,1.57812-6.99805,2.36816-10.49609,2.36816-5.80371,0-10.4541-2.06836-13.95215-6.20801-3.5-4.1377-5.24805-9.70605-5.24805-16.7041,0-5.29004.89648-10.32422,2.68848-15.10449,1.79199-4.77734,4.28809-9.02344,7.48828-12.73535,3.19922-3.71191,6.8252-6.6123,10.87988-8.7041,4.05176-2.08984,8.38379-3.13574,12.99219-3.13574,4.77734,0,8.53125,1.15137,11.26367,3.45605,2.72949,2.30371,4.0957,5.50391,4.0957,9.59961Zm-19.96777-.12793c-1.70801,0-3.30762.66211-4.7998,1.98438-1.49414,1.32324-2.7959,3.19922-3.9043,5.63184-1.11035,2.43164-1.91992,5.26953-2.43164,8.51172,5.03418-1.70605,8.78809-3.58398,11.26367-5.63184,2.47363-2.04785,3.71191-4.2666,3.71191-6.65625,0-2.55957-1.28027-3.83984-3.83984-3.83984Z"/><path class="cls-2" d="m340.48086,253.59982c0,3.75586-1.06738,7.08398-3.2002,9.98438-2.13379,2.90137-5.4834,5.54785-10.04785,7.93555-4.56543,2.38965-10.64551,4.78027-18.23926,7.16797.16992,2.98828.89551,5.35645,2.17578,7.10449,1.2793,1.75,3.11328,2.62402,5.50391,2.62402,2.30371,0,4.5-.81055,6.5918-2.43262,2.08984-1.62012,3.98828-4.00977,5.69629-7.16797l2.55957.25586,5.24805,6.14453c-1.53613,3.32812-3.71191,6.35742-6.52832,9.08789-2.81543,2.73145-5.97363,4.88574-9.47168,6.46387-3.5,1.57812-6.99805,2.36816-10.49609,2.36816-5.80371,0-10.4541-2.06836-13.95215-6.20801-3.5-4.1377-5.24805-9.70605-5.24805-16.7041,0-5.29004.89648-10.32422,2.68848-15.10449,1.79199-4.77734,4.28809-9.02344,7.48828-12.73535,3.19922-3.71191,6.8252-6.6123,10.87988-8.7041,4.05176-2.08984,8.38379-3.13574,12.99219-3.13574,4.77734,0,8.53125,1.15137,11.26367,3.45605,2.72949,2.30371,4.0957,5.50391,4.0957,9.59961Zm-19.96777-.12793c-1.70801,0-3.30762.66211-4.7998,1.98438-1.49414,1.32324-2.7959,3.19922-3.9043,5.63184-1.11035,2.43164-1.91992,5.26953-2.43164,8.51172,5.03418-1.70605,8.78809-3.58398,11.26367-5.63184,2.47363-2.04785,3.71191-4.2666,3.71191-6.65625,0-2.55957-1.28027-3.83984-3.83984-3.83984Z"/><path class="cls-2" d="m373.24746,279.58419l2.30469,5.37598c-2.64648,3.58398-5.27051,6.74121-7.87207,9.47168-2.60449,2.73242-4.9502,4.86426-7.04004,6.40039-2.0918,1.53516-3.77637,2.30371-5.05664,2.30371-4.94922,0-8.66211-1.30176-11.13574-3.9043-2.47559-2.60156-3.45605-6.20801-2.94434-10.81543l6.0166-35.32812-.89648-.89648-7.55176-.12793-.38379-.63965.89551-7.04004,9.47266-1.4082c.33984-2.30371.66016-4.56445.95996-6.78418.29785-2.21777.61816-4.81934.95996-7.80762l18.55957-4.48047,1.4082,1.53613c-.85352,3.32812-1.62207,6.33594-2.30371,9.02441-.68457,2.6875-1.32422,5.56738-1.91992,8.63965l13.18359-.12793.76758.76758-1.40723,8.32031-12.92871-.12793-1.66406.89648-5.37598,28.92773c-.3418,2.73145.46875,4.0957,2.43262,4.0957.9375,0,2.08984-.49023,3.45605-1.47168,1.36426-.98047,3.2002-2.70801,5.50391-5.18457l2.55957.38477Z"/></g></svg>