<?xml version="1.0" encoding="UTF-8"?><svg id="Logos" xmlns="http://www.w3.org/2000/svg" viewBox="0 0 336 128"><defs><style>.cls-1{fill:#fff;}.cls-2{fill:#2c2929;}</style></defs><rect class="cls-2" x="-4.64" width="345.28" height="128"/><g><path class="cls-1" d="m68.02809,111.40637c-4.52,0-8.58-.43-12.16-1.28s-7.42-2.13-11.52-3.84l-1.15-2.05c.85-2.56,1.56-4.91,2.11-7.04s1.11-4.46,1.66-6.98c.55-2.52,1-4.97,1.34-7.36l12.93-1.02c-.34,3.76-.26,6.81.26,9.15.51,2.35,1.6,4.08,3.26,5.18,1.66,1.11,3.95,1.66,6.85,1.66,3.41,0,6.21-.81,8.38-2.43,2.18-1.62,3.26-3.71,3.26-6.27s-1.3-4.84-3.9-6.59-5.7-3.52-9.28-5.31c-2.99-1.54-6.02-3.28-9.09-5.25-3.07-1.96-5.61-4.33-7.62-7.1-2.01-2.77-3.01-6.21-3.01-10.3,0-5.72,1.58-10.71,4.74-14.98,3.16-4.27,7.57-7.62,13.25-10.05,5.67-2.43,12.22-3.65,19.65-3.65,4.35,0,8.26.3,11.71.9,3.46.6,7.27,1.45,11.46,2.56l1.02,2.18c-1.28,4.1-2.37,7.83-3.26,11.2-.9,3.37-1.73,7.02-2.5,10.94l-12.03.77-1.15-.9c.26-1.28.43-2.37.51-3.26.08-.9.13-1.6.13-2.11,0-2.73-.79-4.74-2.37-6.02s-3.99-1.92-7.23-1.92c-3.07,0-5.63.81-7.68,2.43s-3.07,3.63-3.07,6.02c0,2.05.83,3.84,2.5,5.38,1.66,1.54,3.78,2.99,6.34,4.35,2.47,1.28,5.12,2.65,7.94,4.1,2.82,1.45,5.46,3.07,7.94,4.86,2.47,1.79,4.5,3.97,6.08,6.53s2.37,5.59,2.37,9.09c0,5.72-1.58,10.71-4.74,14.98-3.16,4.27-7.62,7.57-13.38,9.92-5.76,2.35-12.61,3.52-20.54,3.52l-.00999-.01Z"/><path class="cls-1" d="m131.76808,85.28636l1.02-2.18c.85001-.51,1.96001-1.13,3.33-1.86,1.36-.72,2.71001-1.62,4.03-2.69,1.32001-1.07,2.42999-2.28,3.33-3.65.89999-1.36,1.34-2.86,1.34-4.48,0-1.19-.25999-2.07-.77-2.62-.50999-.55-1.24001-.83-2.17999-.83-1.2,0-2.8,1.28-4.8,3.84-2.00999,2.56-4.16,6.08-6.46001,10.56-2.3,4.48-4.61,9.62-6.91,15.42l-1.02,8.45c-.17.94-1.02,1.84-2.56,2.69-1.54.85-3.48,1.56-5.82,2.11-2.35.55-4.76.83-7.23.83l-2.18-2.43c.85-5.38,1.66-10.28,2.43-14.72s1.58-9.34,2.43-14.72c.85-5.38,1.71-10.82,2.56-16.32s1.66-10.62,2.43-15.36c.77-4.74,1.36-8.68,1.79-11.84s.64-5.03.64-5.63c0-2.99-1.54-4.48-4.61-4.48h-4.1l1.28-8.83c2.64,0,5.48-.08,8.51-.26,3.03-.17,5.92999-.32,8.7-.45s5.91-.32,9.41-.58l1.78999,2.3c-1.02,4.52-1.96001,8.77-2.82001,12.74-.85001,3.97-1.75,8.43-2.69,13.38-.94,4.95-1.92,10.11-2.94,15.49s-1.92,10.67-2.69,15.87h.77c3.16-6.83,6.28999-12.5,9.41-17.02,3.11-4.52,6.08-7.68,8.89999-9.47,5.28999,0,9.47,1.24,12.53999,3.71,3.07001,2.48,4.61,5.76,4.61,9.86s-1.37,7.83-4.10001,11.71c-2.73,3.88-6.7,7.62-11.89999,11.2,1.28,2.39,2.62,4.84,4.03,7.36s2.71001,4.84,3.89999,6.98c1.19,2.13,2.56,4.48,4.10001,7.04l-.25999,2.3-16.89999,3.2-1.66-.9-8.7-25.73.02002.01002Z"/><path class="cls-1" d="m205.49809,61.86637c0,3.76-1.07001,7.08-3.2,9.98-2.13,2.9-5.48,5.55-10.05,7.94s-10.64999,4.78-18.24001,7.17c.17,2.99.89999,5.36,2.17999,7.1,1.28,1.75,3.11,2.62,5.5,2.62s4.5-.81,6.59-2.43,3.99001-4.01,5.7-7.17l2.56.26,5.25,6.14c-1.53999,3.33-3.71001,6.36-6.53,9.09-2.82001,2.73-5.97,4.89-9.47,6.46-3.5,1.58-7,2.37-10.5,2.37-5.8,0-10.45-2.07-13.95-6.21s-5.25-9.71-5.25-16.7c0-5.29.89999-10.32,2.69-15.1,1.78999-4.78,4.28999-9.02,7.49001-12.74,3.2-3.71,6.83-6.61,10.88-8.7s8.38-3.14,12.99001-3.14,8.53,1.15,11.25999,3.46c2.73,2.3,4.10001,5.5,4.10001,9.59999Zm-19.97-.13c-1.71001,0-3.31.66-4.8,1.98s-2.8,3.2-3.89999,5.63c-1.11,2.43-1.92,5.27-2.42999,8.51,5.03-1.71,8.78999-3.58,11.25999-5.63,2.47-2.05,3.71001-4.27,3.71001-6.66,0-2.56-1.28-3.84-3.84-3.84l-.00002.00999Z"/><path class="cls-1" d="m252.34808,61.86637c0,3.76-1.07001,7.08-3.2,9.98-2.13,2.9-5.48,5.55-10.05,7.94s-10.64999,4.78-18.24001,7.17c.17,2.99.89999,5.36,2.17999,7.1,1.28,1.75,3.11,2.62,5.5,2.62s4.5-.81,6.59-2.43,3.99001-4.01,5.7-7.17l2.56.26,5.25,6.14c-1.53999,3.33-3.71001,6.36-6.53,9.09-2.82001,2.73-5.97,4.89-9.47,6.46-3.5,1.58-7,2.37-10.5,2.37-5.8,0-10.45-2.07-13.95-6.21s-5.25-9.71-5.25-16.7c0-5.29.89999-10.32,2.69-15.1,1.78999-4.78,4.28999-9.02,7.49001-12.74,3.2-3.71,6.83-6.61,10.88-8.7s8.38-3.14,12.99001-3.14,8.53,1.15,11.25999,3.46c2.73,2.3,4.10001,5.5,4.10001,9.59999Zm-19.97-.13c-1.71001,0-3.31.66-4.8,1.98s-2.8,3.2-3.89999,5.63c-1.11,2.43-1.92,5.27-2.42999,8.51,5.03-1.71,8.78999-3.58,11.25999-5.63,2.47-2.05,3.71001-4.27,3.71001-6.66,0-2.56-1.28-3.84-3.84-3.84l-.00002.00999Z"/><path class="cls-1" d="m285.1181,87.84637l2.29999,5.38c-2.64999,3.58-5.26999,6.74-7.87,9.47s-4.95001,4.86-7.04001,6.4-3.78,2.3-5.06,2.3c-4.95001,0-8.66-1.3-11.14001-3.9s-3.45999-6.21-2.94-10.82l6.01999-35.33-.89999-.9-7.55-.13-.38-.64.90001-7.04,9.47-1.41c.34-2.3.66-4.56.95999-6.78.29999-2.22.62-4.82.95999-7.81l18.56-4.48,1.41,1.54c-.85001,3.33-1.62,6.34-2.29999,9.02-.67999,2.69-1.32001,5.57-1.92001,8.64l13.17999-.13.76999.77-1.41,8.32-12.92999-.13-1.66.9-5.38,28.93c-.34,2.73.47,4.1,2.42999,4.1.94,0,2.09-.49,3.45999-1.47,1.35999-.98,3.20001-2.71,5.5-5.18l2.56.38h.00009Z"/></g></svg>