<?xml version="1.0" encoding="UTF-8"?>
<svg enable-background="new 0 0 204 64" version="1.1" viewBox="0 0 204 64" xml:space="preserve" xmlns="http://www.w3.org/2000/svg">
<style type="text/css">
	.st0{fill:#03020D;}
	.st1{fill:url(#a);}
	.st2{fill:url(#SVGID_00000031166151110981865790000012490412721004567735_);}
</style>
<path class="st0" d="m125.8 50v-41.8h7.5v15.1c2.6-2.4 5.8-3.8 9.3-3.8 8.2 0 15.4 6.2 15.4 15.6s-7.2 15.6-15.4 15.6c-3.7 0-7.1-1.5-9.7-4.1v3.4h-7.1zm24.8-14.9c0-5.2-3.7-8.9-8.6-8.9-4.7 0-8.4 3.5-8.6 8.5v0.4c0 5.2 3.7 8.9 8.6 8.9s8.6-3.7 8.6-8.9zm11 14.9v-41.8h7.5v41.8h-7.5zm18.1 10.8 4.4-10.5-11.9-30h8.2l7.6 21 7.7-21h8.3l-16.2 40.6-8.1-0.1zm-65.8-40.5v3.7c-2.6-2.9-6.3-4.5-10-4.5-8.2 0-15.4 6.2-15.4 15.6s7.2 15.6 15.4 15.6c3.9 0 7.6-1.7 10.3-4.7v4h6.6v-29.7h-6.9zm-0.8 14.8c0 5.2-3.7 8.9-8.6 8.9s-8.6-3.7-8.6-8.9 3.7-8.9 8.6-8.9c4.7 0 8.4 3.5 8.6 8.5v0.4z"/>
<linearGradient id="a" x1="10.947" x2="64.92" y1="-8.8433" y2="51.1" gradientTransform="matrix(1 0 0 -1 0 66)" gradientUnits="userSpaceOnUse">
	<stop stop-color="#FF5416" offset="0"/>
	<stop stop-color="#FF5115" offset=".2535"/>
	<stop stop-color="#FF4712" offset=".461"/>
	<stop stop-color="#FF350E" offset=".6523"/>
	<stop stop-color="#FF1E08" offset=".8327"/>
	<stop stop-color="#f00" offset="1"/>
</linearGradient>
<path class="st1" d="M38.6,0L6.3,59.1L0,54.7L29.9,0H38.6z M39,0l32.3,59.1l6.3-4.4L47.7,0H39z"/>
<linearGradient id="b" x1="21.419" x2="53.319" y1="-12.721" y2="22.708" gradientTransform="matrix(1 0 0 -1 0 66)" gradientUnits="userSpaceOnUse">
	<stop stop-color="#FF5416" offset="0"/>
	<stop stop-color="#FF5115" offset=".2535"/>
	<stop stop-color="#FF4712" offset=".461"/>
	<stop stop-color="#FF350E" offset=".6523"/>
	<stop stop-color="#FF1E08" offset=".8327"/>
	<stop stop-color="#f00" offset="1"/>
</linearGradient>
<path d="m70.8 59.4-32-25.1-32.1 25.1 6.5 4.6 25.5-20 25.5 20 6.6-4.6z" fill="url(#b)"/>
</svg>
