<svg fill="none" height="40" viewBox="0 0 40 40" width="40" xmlns="http://www.w3.org/2000/svg"><circle cx="20" cy="20" fill="#19ccda" r="20"/><path d="m12.9092 11.3252c.944 0 1.8066.1302 2.5879.3906.7812.2604 1.4404.5615 1.9775.9033v3.3448c-.5859-.3581-1.2126-.6918-1.8799-1.001-.6673-.3093-1.4241-.4639-2.2705-.4639-.4232 0-.8463.0651-1.2695.1953-.4069.1302-.7487.3256-1.0254.586-.2604.2604-.3906.594-.3906 1.0009 0 .5372.236.9441.708 1.2208.472.2766 1.0498.5533 1.7334.83l2.0019.8301c1.1394.4883 1.9776 1.0824 2.5147 1.7822.5371.6999.8056 1.4974.8056 2.3926 0 .9766-.2848 1.8392-.8544 2.5879-.5534.7324-1.3021 1.3102-2.2461 1.7334-.9278.4232-1.9613.6348-3.1006.6348-.9603 0-1.8799-.1628-2.75882-.4883-.8789-.3255-1.64388-.7243-2.29492-1.1963v-3.3447c.71615.5208 1.50553.9603 2.36816 1.3183.86268.3581 1.78228.5371 2.75878.5371.6836 0 1.2695-.1302 1.7578-.3906.4883-.2767.7324-.6836.7324-1.2207 0-.4232-.2034-.765-.6103-1.0254-.3906-.2767-.8219-.5045-1.2939-.6836l-2.5147-.9765c-1.26953-.4883-2.13216-1.1231-2.58789-1.9043-.43945-.7976-.65918-1.6765-.65918-2.6368 0-.9928.26856-1.8554.80567-2.5878.55338-.7487 1.26953-1.3265 2.1484-1.7334.8789-.4232 1.8311-.6348 2.8565-.6348zm17.7002 13.623v3.0518h-8.9112v-3.0518h2.7588v-10.2539h-2.7588v-3.0517h8.9112v3.0517h-2.7588v10.2539z" fill="#fff"/></svg>