<svg width="70" height="70" viewBox="0 0 70 70" fill="none" xmlns="http://www.w3.org/2000/svg">
<path d="M0 0V70H70V0H0ZM65.8984 65.8984H4.10156V4.10156H65.8984V65.8984Z" fill="#EB4552"/>
<path d="M29.135 24.8281H19.2584V48.125H23.7865V40.3156H29.299C33.3365 40.3156 36.5506 36.8002 36.5506 32.5719C36.5506 28.9844 33.6555 24.8281 29.135 24.8281ZM29.0365 36.3453H23.7865V28.7984H28.8397C30.7615 28.7984 31.9569 30.6031 31.9569 32.5719C31.9569 34.8633 30.6249 36.3453 29.0365 36.3453Z" fill="#EB4552"/>
<path d="M46.0659 37.8219C45.4312 37.6691 42.6862 37.2217 42.6862 35.6563C42.6862 34.4019 43.7158 33.7203 45.3112 33.7203C47.4756 33.7203 49.4236 34.9672 50.2987 35.6235L52.0706 32.9656C51.1298 32.1345 49.1162 30.6031 45.344 30.6031C41.7505 30.6031 38.5846 32.6416 38.5846 36.2797C38.5846 40.0586 43.605 40.7642 44.7206 41.0703C46.0545 41.4426 48.494 41.9214 48.494 43.4C48.494 44.6045 47.3389 45.3031 45.6721 45.3031C43.1006 45.3031 40.6846 43.783 39.6346 43.0391L37.994 45.7953C38.9784 46.6485 41.8018 48.4531 45.7706 48.4531C47.9142 48.4531 52.7268 47.7832 52.7268 43.0063C52.7268 38.9649 47.2471 38.1284 46.0659 37.8219Z" fill="#EB4552"/>
</svg>
