<svg width="70" height="70" viewBox="0 0 70 70" fill="none" xmlns="http://www.w3.org/2000/svg">
<path d="M53.9495 4.0332H16.0505L0 25.9204V27.5038L33.9378 65.9668H36.062L70 27.504V25.9205L53.9495 4.0332ZM50.8594 8.13477V24.541H50.8219L39.1188 8.13477H50.8594ZM45.7837 24.541H24.2163L35 9.42375L45.7837 24.541ZM19.1406 8.13477H30.8813L19.1781 24.541H19.1406V8.13477ZM15.0391 12.3484V24.541H6.09793L15.0391 12.3484ZM6.47473 28.6426H15.7994L26.9161 51.8094L6.47473 28.6426ZM35 59.1757L20.3485 28.6426H49.6515L35 59.1757ZM43.084 51.8094L54.2006 28.6426H63.5253L43.084 51.8094ZM54.9609 24.541V12.3484L63.9021 24.541H54.9609Z" fill="#EB4552"/>
</svg>
