<svg width="498" height="498" viewBox="0 0 498 498" fill="none" xmlns="http://www.w3.org/2000/svg">
<g clip-path="url(#clip0)">
<path d="M191.661 385.201H207.633V401.173H191.661V385.201Z" fill="#EB4552"/>
<path d="M223.605 385.201H239.577V401.173H223.605V385.201Z" fill="#EB4552"/>
<path d="M255.548 385.201H271.52V401.173H255.548V385.201Z" fill="#EB4552"/>
<path d="M287.492 385.201H303.464V401.173H287.492V385.201Z" fill="#EB4552"/>
<path d="M469.284 267.296C485.221 259.326 495.125 243.299 495.125 225.483C495.125 207.667 485.221 191.637 469.284 183.666L462.253 180.153L497.999 65.7652H443.903L371.079 138.578C324.54 122.263 275.24 113.681 225.96 113.681C181.192 113.681 136.836 120.516 94.1383 134.004L58.8881 145.137C23.6613 156.254 0 188.548 0 225.483C0 262.418 23.6613 294.712 58.8881 305.837L94.1383 316.97C121.648 325.658 149.848 331.542 178.396 334.665L170.425 353.257H142.685L148.297 398.135C150.788 418.076 167.825 433.116 187.914 433.116H307.211C327.308 433.116 344.345 418.076 346.829 398.135L352.44 353.257H324.7L313.926 328.106C333.306 324.125 352.416 318.923 371.086 312.384L443.903 385.201H497.999L462.253 270.809L469.284 267.296ZM116.33 198.538C157.994 189.952 202.077 185.554 247.563 185.554C359.821 185.554 437.122 212.408 468.126 225.491C437.181 238.577 360.043 265.412 247.563 265.412C202.077 265.412 157.994 261.01 116.33 252.428C118.525 243.673 119.788 234.65 119.788 225.483C119.788 216.316 118.525 207.289 116.33 198.538V198.538ZM450.516 81.737H476.279L447.783 172.92L421.743 159.892C410.571 154.312 399.088 149.383 387.475 144.778L450.516 81.737ZM98.954 149.223C140.096 136.238 182.829 129.652 225.96 129.652C291.103 129.652 356.331 145.047 414.596 174.179L462.144 197.953C468.067 200.917 472.661 205.604 475.593 211.204C444.001 197.548 364.988 169.582 247.563 169.582C200.341 169.582 154.559 174.222 111.299 183.268C106.566 171.746 99.9679 160.995 91.5999 151.547L98.954 149.223ZM15.9718 225.483C15.9718 195.544 35.1527 169.371 63.7038 160.356L74.587 156.924C93.1479 174.955 103.817 199.646 103.817 225.483C103.817 251.316 93.1479 276.007 74.587 294.049L63.7038 290.614C35.1527 281.591 15.9718 255.422 15.9718 225.483ZM91.6077 299.415C99.9679 289.959 106.573 279.22 111.307 267.694C154.559 276.744 200.341 281.384 247.563 281.384C364.988 281.384 444.001 253.418 475.593 239.759C472.661 245.358 468.06 250.045 462.144 253.009L414.596 276.783C356.331 305.915 291.103 321.314 225.96 321.314C182.829 321.314 140.096 314.724 98.9463 301.739L91.6077 299.415ZM330.982 396.154C329.488 408.117 319.268 417.144 307.211 417.144H187.914C175.857 417.144 165.637 408.117 164.144 396.154L160.778 369.229H334.347L330.982 396.154ZM307.328 353.257H187.797L195.128 336.158C205.371 336.876 215.658 337.285 225.96 337.285C250.031 337.285 274.102 335.168 297.864 331.191L307.328 353.257ZM476.279 369.229H450.516L387.468 306.18C399.088 301.579 410.571 296.65 421.735 291.062L447.775 278.039L476.279 369.229Z" fill="#EB4552"/>
</g>
<defs>
<clipPath id="clip0">
<rect width="498" height="498" fill="white"/>
</clipPath>
</defs>
</svg>
