<svg xmlns="http://www.w3.org/2000/svg" width="299" height="186" fill="none"><g clip-path="url(#a)"><rect width="299" height="186" fill="#EAEAEA" rx="3"/><g stroke="#C9C9C9" opacity=".5"><path d="m71.594 205.646 224-224M95.173 205.646l224-224M118.752 205.646l224-224M142.331 205.646l224-224M165.91 205.646l224-224M189.489 205.646l224-224M213.067 205.646l224-224M236.646 205.646l224-224M260.226 205.646l224-224M283.804 205.646l224-224M-211.354 205.646l224-224M-187.774 205.646l223.999-224M-164.196 205.646l224-224M-140.617 205.646l224-224M-117.038 205.646l224-224M-93.459 205.646l224-224M-69.88 205.646l224-224M-46.301 205.646l224-224M-22.722 205.646l224-224M.857 205.646l224-224M24.436 205.646l224-224M48.015 205.646l224-224M272.723 205.646l-224-224M249.144 205.646l-224-224M225.564 205.646l-224-224M201.985 205.646l-224-224M178.407 205.646l-224-224M154.828 205.646l-224-224M131.249 205.646l-224-224M107.67 205.646l-224-224M84.09 205.646l-224-224M60.511 205.646l-224-224M36.933 205.646l-224-224M13.354 205.646l-224-224M508.512 205.646l-224-224M484.933 205.646l-224-224M461.354 205.646l-224-224M437.775 205.646l-224-224M414.196 205.646l-224-224M390.617 205.646l-224-224M367.038 205.646l-224-224M343.459 205.646l-224-224M319.88 205.646l-224-224M296.3 205.646l-224-224"/></g><g stroke="#C9C9C9" opacity=".5"><path d="m83.594 205.646 224-224M107.173 205.646l224-224M130.752 205.646l224-224M154.331 205.646l224-224M177.91 205.646l224-224M201.489 205.646l224-224M225.067 205.646l224-224M248.646 205.646l224-224M272.226 205.646l224-224M295.804 205.646l224-224M-199.354 205.646l224-224M-175.774 205.646l223.999-224M-152.196 205.646l224-224M-128.617 205.646l224-224M-105.038 205.646l224-224M-81.459 205.646l224-224M-57.88 205.646l224-224M-34.301 205.646l224-224M-10.722 205.646l224-224M12.857 205.646l224-224M36.436 205.646l224-224M60.015 205.646l224-224M284.723 205.646l-224-224M261.144 205.646l-224-224M237.564 205.646l-224-224M213.985 205.646l-224-224M190.407 205.646l-224-224M166.828 205.646l-224-224M143.249 205.646l-224-224M119.67 205.646l-224-224M96.09 205.646l-224-224M72.511 205.646l-224-224M48.933 205.646l-224-224M25.354 205.646l-224-224M520.512 205.646l-224-224M496.933 205.646l-224-224M473.354 205.646l-224-224M449.775 205.646l-224-224M426.196 205.646l-224-224M402.617 205.646l-224-224M379.038 205.646l-224-224M355.459 205.646l-224-224M331.88 205.646l-224-224M308.3 205.646l-224-224"/></g></g><defs><clipPath id="a"><rect width="299" height="186" fill="#fff" rx="3"/></clipPath></defs></svg>