<svg xmlns="http://www.w3.org/2000/svg" width="120" height="60"><path d="M20.07 24.484l8.767-5.06a.71.71 0 0 1 .709 0l8.767 5.06a.71.71 0 0 1 .355.614V35.22a.71.71 0 0 1-.355.614l-8.767 5.06a.71.71 0 0 1-.709 0l-8.767-5.06a.71.71 0 0 1-.355-.614V25.098a.71.71 0 0 1 .355-.614" fill="#8080f2"/><path d="M51.984 29.094L41.5 10.872c-.38-.66-1.083-1.145-1.844-1.145h-20.95c-.76 0-1.464.486-1.845 1.145L6.397 29.054a2.17 2.17 0 0 0 0 2.15L16.87 49.278c.38.66 1.084.996 1.845.996h20.95c.76 0 1.464-.327 1.844-.986l10.475-18.103c.38-.66.38-1.43 0-2.1M43.3 37.848c0 .268-.16.516-.394.65l-13.342 7.698a.76.76 0 0 1-.755 0l-13.353-7.698a.77.77 0 0 1-.394-.65V22.46c0-.268.16-.516.392-.65l13.342-7.698a.76.76 0 0 1 .754 0L42.914 21.8a.77.77 0 0 1 .396.65z" fill="#4b32c3"/><path d="M57.536 37.44V23.084h8.273v1.532h-6.456v4.5h5.45v1.554h-5.45v5.2h6.675v1.554zm15.524.264q-1.5 0-2.8-.57-1.3-.57-2.232-1.554l1.094-1.27q.766.8 1.795 1.313 1.05.48 2.167.48 1.423 0 2.2-.635.788-.657.788-1.707 0-.547-.197-.92-.175-.394-.503-.657-.306-.285-.744-.503-.438-.22-.94-.46l-2.057-.897q-.503-.22-1.03-.525-.525-.306-.94-.744-.416-.438-.678-1.03-.263-.613-.263-1.4 0-.8.328-1.5.35-.7.94-1.204.613-.525 1.423-.8.832-.285 1.817-.285 1.3 0 2.386.503 1.094.48 1.86 1.27L76.5 25.8q-.657-.635-1.466-.985-.788-.372-1.795-.372-1.204 0-1.948.57-.722.547-.722 1.532 0 .525.197.897.22.35.57.635.35.263.766.48.416.197.854.372l2.035.875q.613.263 1.16.613.547.328.94.788.394.438.613 1.05.24.6.24 1.38 0 .854-.35 1.598-.328.744-.963 1.313-.635.547-1.532.875-.897.306-2.035.306zm7.687-.264V23.084h1.817v12.803h6.28v1.554zm10.47 0V26.805h1.795V37.44zm.92-12.825q-.525 0-.897-.328-.35-.328-.35-.832 0-.525.35-.832.372-.328.897-.328.525 0 .875.328.372.306.372.832 0 .503-.372.832-.35.328-.875.328zm4.465 12.825V26.805H98.1l.153 1.532h.066q.766-.766 1.598-1.27.854-.525 1.97-.525 1.685 0 2.45 1.05.788 1.05.788 3.108v6.74h-1.795v-6.5q0-1.5-.48-2.167-.48-.678-1.532-.678-.832 0-1.466.416-.635.416-1.444 1.226v7.704zm15.318.264q-.854 0-1.444-.263-.57-.263-.94-.722-.35-.46-.503-1.116-.153-.657-.153-1.444v-5.9h-1.576v-1.357l1.663-.1.22-2.977h1.5v2.977h2.867v1.466h-2.867v5.9q0 .985.35 1.532.372.525 1.3.525.285 0 .613-.088.328-.088.6-.197l.35 1.357q-.438.153-.963.263-.503.13-1.007.13z" fill="#4d4d4d"/></svg>