<?xml version="1.0" encoding="UTF-8"?><svg id="Layer_1" xmlns="http://www.w3.org/2000/svg" viewBox="0 0 168 64"><path d="m85.89926,20.62403c0,.55749-.33947.9699-.92181.9699-.48495,0-.84887-.41241-.84887-.9699,0-.53385.38796-.97031.89736-.97031.53385,0,.87332.43646.87332.97031Zm-1.34238,29.15205v-22.29958h.91407v22.29958h-.91407Zm31.31681-15.88845c0,11.2427-6.24119,16.35343-13.07288,16.35343-6.97881,0-12.63031-5.52803-12.63031-15.88845,0-10.63795,5.84834-16.35262,13.12178-16.35262,7.12592-.00082,12.58141,5.62054,12.58141,15.88763h0Zm-24.7769.23229c0,8.52453,4.13145,15.14676,11.74721,15.14676,7.66874,0,12.06712-6.82598,12.06712-15.24375,0-7.80607-3.52425-14.92996-11.56627-14.92996s-12.24806,6.7074-12.24806,15.02695h0Zm28.13161,13.23996c1.5335,1.02207,4.18036,2.00908,6.45677,2.00908,4.32054,0,8.16306-3.02259,8.16306-7.4715,0-4.1286-2.55964-6.28276-6.90545-8.13331-3.88938-1.65617-7.38633-3.45375-7.38633-7.8672,0-4.59888,3.62327-7.85172,8.54776-7.85172,2.64808,0,4.64574.74332,5.5749,1.39372l-.36921.802c-.78978-.55708-2.92438-1.26698-5.24643-1.26698-5.20446,0-7.4715,3.93258-7.4715,6.82761,0,3.9986,3.09961,5.33568,7.09495,7.24043,4.64534,2.27601,7.10718,4.28305,7.10718,8.65046,0,4.6922-3.34453,8.5009-9.29108,8.5009-2.46265,0-5.29615-.83583-6.68987-1.90476l.41526-.92874h0s0,0,0,0Z"/><path d="m56.87648,33.19366c.05365,5.77709,5.06797,7.69953,5.12352,7.724-.0424.13551-.80121,2.7396-2.64179,5.42945-1.59116,2.32557-3.24245,4.64248-5.84382,4.69047-2.5561.0471-3.37803-1.51571-6.30038-1.51571-2.92146,0-3.83467,1.46779-6.2543,1.56288-2.51098.09509-4.42313-2.51466-6.02738-4.83171-3.27824-4.73949-5.78349-13.39264-2.41957-19.23366,1.67112-2.90068,4.65755-4.73751,7.89905-4.78461,2.46572-.04703,4.79299,1.65885,6.30038,1.65885,1.50644,0,4.33459-2.05148,7.30779-1.75019,1.24469.0518,4.7386.50278,6.98203,3.78668-.18077.11206-4.16888,2.43375-4.12553,7.26355m-4.8039-14.18579c1.33309-1.61366,2.23034-3.86002,1.98557-6.09514-1.92156.07723-4.24515,1.28047-5.62344,2.89325-1.23521,1.42818-2.31698,3.71408-2.0251,5.90496,2.1418.16571,4.32981-1.08838,5.66298-2.70307"/></svg>