<svg xmlns="http://www.w3.org/2000/svg" width="120" height="60" fill-rule="evenodd"><g transform="matrix(.06928 0 0 .06928 7.367398 13.505331)" fill="none"><circle r="50.167" cy="237.628" cx="269.529" fill="#00d8ff"/><g stroke="#00d8ff" stroke-width="24"><path d="M269.53 135.628c67.356 0 129.928 9.665 177.107 25.907 56.844 19.57 91.794 49.233 91.794 76.093 0 27.99-37.04 59.503-98.083 79.728-46.15 15.29-106.88 23.272-170.818 23.272-65.554 0-127.63-7.492-174.3-23.44-59.046-20.182-94.61-52.103-94.61-79.56 0-26.642 33.37-56.076 89.415-75.616 47.355-16.51 111.472-26.384 179.486-26.384z"/><path d="M180.736 186.922c33.65-58.348 73.28-107.724 110.92-140.48C337.006 6.976 380.163-8.48 403.43 4.937c24.248 13.983 33.042 61.814 20.067 124.796-9.8 47.618-33.234 104.212-65.176 159.6-32.75 56.788-70.25 106.82-107.377 139.272-46.98 41.068-92.4 55.93-116.185 42.213-23.08-13.3-31.906-56.92-20.834-115.233 9.355-49.27 32.832-109.745 66.8-168.664z"/><path d="M180.82 289.482C147.075 231.2 124.1 172.195 114.51 123.227c-11.544-59-3.382-104.11 19.864-117.566 24.224-14.024 70.055 2.244 118.14 44.94 36.356 32.28 73.688 80.837 105.723 136.173 32.844 56.733 57.46 114.21 67.036 162.582 12.117 61.213 2.31 107.984-21.453 121.74-23.057 13.348-65.25-.784-110.24-39.5-38.013-32.71-78.682-83.253-112.76-142.115z"/></g></g><path d="M64.62 38.848l-4.26-6.436c2.153-.19 4.093-1.75 4.093-4.6 0-2.9-2.058-4.756-4.945-4.756h-6.34v15.78h1.964v-6.27h3.147l4.022 6.27zm-5.347-7.997h-4.14v-6.033h4.14c1.87 0 3.147 1.23 3.147 3.005s-1.278 3.03-3.147 3.03zm12.658 8.28c1.87 0 3.407-.615 4.543-1.75l-.852-1.16c-.9.923-2.224 1.443-3.525 1.443-2.46 0-3.975-1.798-4.117-3.95h9.25v-.45c0-3.43-2.035-6.128-5.49-6.128-3.265 0-5.63 2.674-5.63 5.986 0 3.573 2.437 6 5.82 6zm3.55-6.72h-7.5c.095-1.75 1.3-3.81 3.738-3.81 2.603 0 3.738 2.106 3.762 3.81zm13.534 6.436v-7.855c0-2.768-2.01-3.857-4.424-3.857-1.87 0-3.336.615-4.566 1.893l.828 1.23c1.017-1.088 2.13-1.585 3.502-1.585 1.656 0 2.887.875 2.887 2.413v2.058c-.923-1.065-2.224-1.562-3.786-1.562-1.94 0-4 1.207-4 3.762 0 2.484 2.058 3.786 4 3.786 1.538 0 2.84-.544 3.786-1.585v1.3zm-4.92-.994c-1.656 0-2.816-1.04-2.816-2.484 0-1.467 1.16-2.508 2.816-2.508 1.254 0 2.46.473 3.147 1.42v2.153c-.686.946-1.893 1.42-3.147 1.42zm13.5 1.278c2.082 0 3.312-.852 4.188-1.987l-1.183-1.088c-.757 1.017-1.727 1.49-2.9 1.49-2.437 0-3.95-1.893-3.95-4.424s1.514-4.4 3.95-4.4c1.183 0 2.153.45 2.9 1.49l1.183-1.088c-.875-1.136-2.106-1.987-4.188-1.987-3.407 0-5.702 2.603-5.702 5.986 0 3.407 2.295 6 5.702 6zm9.56 0c1.04 0 1.68-.308 2.13-.733l-.52-1.325c-.237.26-.7.473-1.207.473-.78 0-1.16-.615-1.16-1.467v-7.098h2.32V27.42h-2.32v-3.123h-1.775v3.123h-1.893v1.562h1.893v7.477c0 1.704.852 2.674 2.532 2.674z" fill="#00d8ff"/></svg>