<svg xmlns="http://www.w3.org/2000/svg" width="120" height="60" viewBox="0 0 60 30" preserveAspectRatio="xMidYMid" fill="#f26b00"><path d="M17.76 17.545H9.7a1.38 1.38 0 0 1-1.376-1.376A1.38 1.38 0 0 1 9.7 14.792h4.403c1.285 0 2.33-1.045 2.33-2.33s-1.045-2.33-2.33-2.33H6.136a1.74 1.74 0 1 0 .023.954h7.943a1.38 1.38 0 0 1 1.376 1.376 1.38 1.38 0 0 1-1.376 1.376H9.7c-1.285 0-2.33 1.045-2.33 2.33S8.414 18.5 9.7 18.5h8.062a1.74 1.74 0 1 0 0-.954zm11.913 1.143l-2.195-3.592h-2.323v3.592h-1.98v-9.46H27.9q.886 0 1.544.2.665.195 1.108.564.443.363.658.886.222.517.222 1.168 0 .53-.16.974-.154.436-.436.78-.275.342-.658.577-.383.228-.833.336l2.558 3.975h-2.23zm-.235-6.56q0-.692-.457-1.027-.45-.336-1.3-.336h-2.538v2.793h2.592q.443 0 .76-.1.322-.107.524-.295.208-.195.3-.457.1-.262.1-.577zm6.382 6.694q-.786 0-1.417-.228-.624-.235-1.068-.705-.443-.477-.678-1.188-.235-.718-.235-1.678 0-1.04.275-1.752.282-.712.752-1.148.477-.443 1.094-.638.618-.195 1.302-.195.86 0 1.464.302.6.295 1 .833.4.537.57 1.3.18.745.18 1.652v.054H34.4q0 .457.08.853.08.4.262.678.18.282.47.45.3.16.698.16.497 0 .812-.208.316-.215.45-.658l1.78.154q-.12.3-.342.658-.215.35-.577.645-.363.3-.906.483-.537.188-1.3.188zm0-6.345q-.3 0-.544.1-.248.094-.436.3-.18.208-.295.544-.114.336-.128.806h2.82q-.054-.88-.423-1.316-.37-.443-.994-.443zm4.375 6.2V8.724h1.887v9.963h-1.887zm5.187.145q-.524 0-.94-.14-.4-.148-.698-.423-.3-.282-.443-.692-.154-.4-.154-.933 0-.645.222-1.08.228-.443.618-.712.4-.275.913-.396.524-.128 1.115-.134l1.564-.027v-.37q0-.396-.074-.658-.067-.27-.2-.436-.134-.168-.336-.235-.195-.074-.45-.074-.235 0-.423.047-.18.047-.316.168-.134.114-.222.316-.08.195-.114.497l-1.967-.094q.08-.477.295-.866.215-.396.6-.685.383-.3.933-.443.557-.16 1.302-.16.678 0 1.208.168.53.168.9.504.37.33.564.812.195.483.195 1.12v2.645q0 .255.02.457.027.2.087.342.067.134.18.208.12.067.3.067.215 0 .416-.04v1.02q-.168.04-.302.074-.134.034-.27.054-.134.02-.3.034-.148.013-.35.013-.712 0-1.054-.35-.336-.35-.403-1.027h-.04q-.376.678-.967 1.054-.584.376-1.423.376zm2.195-3.498l-.967.013q-.302.013-.577.054-.27.034-.477.154-.2.114-.322.336-.12.222-.12.604 0 .517.235.772.242.248.638.248.363 0 .658-.154.295-.154.497-.403.208-.255.322-.584.114-.33.114-.67v-.37zm6.436 1.746l1.678-5.646h1.974L54.8 19.07q-.544 1.323-1.128 1.873-.638.598-1.672.598-.678 0-1.188-.087V20.1q.356.054.638.054.3 0 .504-.06.215-.06.4-.2.342-.282.618-.967l.12-.322-2.874-7.2h1.994l1.82 5.646z"/></svg>