<?xml version="1.0" encoding="UTF-8"?><svg id="a" xmlns="http://www.w3.org/2000/svg" xmlns:xlink="http://www.w3.org/1999/xlink" viewBox="0 0 944 657"><defs><style>.g{fill:url(#e);}.h{fill:url(#d);}.i{fill:url(#f);}.j{fill:url(#c);}.k{fill:url(#b);}.l{fill:#edb61e;}</style><linearGradient id="b" x1="-242.31" y1="1031.9" x2="130.67" y2="972.5" gradientTransform="translate(564 1316) scale(1 -1)" gradientUnits="userSpaceOnUse"><stop offset=".09" stop-color="#57c0a6"/><stop offset=".65" stop-color="#94d3c7"/></linearGradient><linearGradient id="c" x1="-326.21" y1="1078.65" x2="545.43" y2="711.97" xlink:href="#b"/><linearGradient id="d" x1="-87.97" y1="1048.93" x2="132.06" y2="1017.84" xlink:href="#b"/><linearGradient id="e" x1="-384.48" y1="1051.97" x2="-124.55" y2="1011.31" xlink:href="#b"/><linearGradient id="f" x1="39.02" y1="1050.09" x2="347.66" y2="991.98" xlink:href="#b"/></defs><path class="k" d="M451.78,234.54v-10.98h27.78v108.14c.14,9.48-1.93,18.87-6.06,27.42-3.95,8.03-10.24,14.68-18.05,19.09-8.91,4.84-18.96,7.23-29.11,6.92-13.75,.65-27.32-3.32-38.53-11.28-9.75-7.56-16.11-18.65-17.69-30.86h27.34c1.41,5.29,4.69,9.9,9.25,12.96,5.27,3.34,11.45,4.97,17.69,4.67,3.63,.16,7.25-.4,10.66-1.64,3.41-1.24,6.54-3.14,9.21-5.59,2.72-2.95,4.8-6.44,6.1-10.23,1.3-3.79,1.8-7.82,1.46-11.81v-21.47c-2.7,7.23-7.64,13.4-14.11,17.63-7.1,4.54-15.41,6.85-23.84,6.61-8.79,.12-17.45-2.2-24.99-6.7-7.59-4.68-13.63-11.47-17.39-19.53-4.14-9.46-6.28-19.66-6.28-29.98s2.14-20.52,6.28-29.98c3.75-8.05,9.8-14.83,17.39-19.49,7.54-4.52,16.2-6.84,24.99-6.7,9.25,.44,30.52,.44,37.91,12.79Zm-50.25,20.5c-5.16,6.68-7.96,14.87-7.96,23.3s2.8,16.62,7.96,23.3c5.64,5.43,13.19,8.45,21.04,8.41,7.84-.04,15.36-3.14,20.94-8.63,5.35-6.53,8.28-14.71,8.28-23.14s-2.92-16.61-8.28-23.14c-2.68-2.82-5.93-5.05-9.54-6.53-3.6-1.48-7.49-2.19-11.38-2.07-3.92-.17-7.82,.5-11.46,1.97-3.63,1.47-6.91,3.7-9.6,6.54h0Z"/><path class="j" d="M429.66,435.39c-6.65,0-13.28-.47-19.86-1.41-46.54-6.74-82.9-35.57-92.68-73.44-2.3-12.92-3.14-26.05-2.52-39.15v-51.98h27.87v52.2c-.48,10.7,.07,21.41,1.64,32,6.94,27.02,34.33,47.79,69.67,52.9,27.12,3.92,61.93-1.81,78.92-29.49l4.42-8.6c13.93-28.3,44.5-28.57,60.87-28.74h10.17c2.95-.43,5.82-1.32,8.49-2.64,4.97-2.42,9.16-6.19,12.1-10.86,2.94-4.67,4.51-10.07,4.53-15.59v-41h27.87v41c-.02,13.92-5.12,27.36-14.35,37.81-9.23,10.45-21.96,17.19-35.82,18.97h-12.74c-22.12,.22-31.36,3.53-36.14,13.22l-5.09,10.14c-17.21,28.26-49.59,44.66-87.37,44.66Z"/><path class="h" d="M530.16,237.32v-14.28h-28v104.26c0,.41,.1,.81,.29,1.17,.19,.36,.48,.66,.83,.88,.35,.22,.74,.34,1.15,.36,.41,.02,.82-.06,1.18-.25,7.21-3.36,14.8-5.86,22.61-7.45,.54-.11,1.03-.4,1.39-.83,.35-.42,.55-.96,.56-1.51v-39.68c0-19.01,10.32-28.52,30.97-28.52h8.14v-29.84c-8.58-.18-31.01,1.41-39.11,15.69Z"/><path class="l" d="M329.06,257.46l-2.88-6.3c-1.65-3.56-4.54-6.4-8.14-7.98l-6.37-2.69,6.28-2.87c3.59-1.63,6.45-4.54,8.01-8.16l2.74-6.35,2.88,6.26c1.62,3.59,4.54,6.44,8.18,7.98l6.33,2.73-6.28,2.87c-3.59,1.63-6.45,4.54-8.01,8.16l-2.74,6.35Z"/><path class="g" d="M261.65,275.14v-28.83h27.34v-23.54h-79.63v23.54h23.84v28.7c0,29.36,12.47,63.61,55.78,63.61v-22.79c-22.12,.13-27.34-16.88-27.34-40.69Z"/><path class="l" d="M607.22,257.46l-2.88-6.3c-1.65-3.57-4.56-6.41-8.18-7.98l-6.37-2.69,6.32-2.87c3.58-1.65,6.43-4.55,8.01-8.16l2.74-6.35,2.83,6.26c1.62,3.59,4.55,6.44,8.18,7.98l6.37,2.73-6.28,2.87c-3.59,1.63-6.45,4.54-8.01,8.16l-2.74,6.35Z"/><path class="i" d="M728.48,285.5c-4.11-4.32-9.25-7.52-14.95-9.3-7.24-2.16-14.63-3.78-22.12-4.85-6.83-.98-13.55-2.65-20.04-4.98-1.88-.59-3.53-1.76-4.69-3.35-1.16-1.59-1.78-3.51-1.77-5.47,.04-1.94,.63-3.83,1.69-5.46,1.06-1.63,2.56-2.93,4.32-3.75,5.51-2.62,11.6-3.82,17.69-3.48,11.39-.16,22.62,2.76,32.47,8.46l10.18-20.06c-5.95-3.36-12.4-5.76-19.11-7.1-7.65-1.75-15.47-2.63-23.31-2.64-12.85-.67-25.58,2.69-36.41,9.61-4.2,2.83-7.61,6.67-9.93,11.16-2.32,4.49-3.47,9.49-3.34,14.54-.54,6.9,1.61,13.74,6.02,19.09,4.14,4.5,9.41,7.82,15.26,9.61,7.47,2.2,15.1,3.82,22.83,4.85,6.6,.86,13.1,2.34,19.42,4.41,1.78,.52,3.33,1.61,4.42,3.1,1.09,1.49,1.65,3.3,1.6,5.14,0,8.35-7.92,12.51-23.76,12.48-14.39,.32-28.7-2.18-42.11-7.36v22.04c12.92,4.82,26.65,7.11,40.43,6.74,15.84,0,28.36-3.16,37.56-9.48,4.28-2.71,7.79-6.46,10.2-10.91,2.41-4.45,3.63-9.43,3.55-14.48,.46-6.74-1.73-13.4-6.1-18.56h0Z"/></svg>