<svg width="21" height="20" viewBox="0 0 21 20" fill="none" xmlns="http://www.w3.org/2000/svg">
<path fill-rule="evenodd" clip-rule="evenodd" d="M10.2721 3.125C6.47477 3.125 3.39709 6.20268 3.39709 10C3.39709 13.7973 6.47477 16.875 10.2721 16.875C14.0694 16.875 17.1471 13.7973 17.1471 10C17.1471 6.20268 14.0694 3.125 10.2721 3.125ZM2.14709 10C2.14709 5.51232 5.78442 1.875 10.2721 1.875C14.7598 1.875 18.3971 5.51232 18.3971 10C18.3971 14.4877 14.7598 18.125 10.2721 18.125C5.78442 18.125 2.14709 14.4877 2.14709 10Z" fill="#878787"/>
<path fill-rule="evenodd" clip-rule="evenodd" d="M14.0474 7.89139C14.2914 8.13546 14.2914 8.53119 14.0474 8.77527L9.88069 12.9419C9.63662 13.186 9.24089 13.186 8.99681 12.9419L6.49681 10.4419C6.25273 10.1979 6.25273 9.80213 6.49681 9.55805C6.74089 9.31398 7.13662 9.31398 7.38069 9.55805L9.43875 11.6161L13.1635 7.89139C13.4076 7.64731 13.8033 7.64731 14.0474 7.89139Z" fill="#878787"/>
</svg>
