<svg xmlns="http://www.w3.org/2000/svg" width="23" height="24" fill="red" viewBox="0 0 23 24"><path fill="#878787" fill-rule="evenodd" d="M14.7517 8.30088C15.0307 8.58229 15.0307 9.03855 14.7517 9.31995L9.359 14.758C9.07994 15.0394 8.6275 15.0394 8.34844 14.758C8.06938 14.4766 8.06938 14.0204 8.34844 13.7389L13.7411 8.30088C14.0202 8.01948 14.4726 8.01948 14.7517 8.30088Z" clip-rule="evenodd"/><path fill="#878787" fill-rule="evenodd" d="M8.34844 8.30088C8.6275 8.01948 9.07994 8.01948 9.359 8.30088L14.7517 13.7389C15.0307 14.0204 15.0307 14.4766 14.7517 14.758C14.4726 15.0394 14.0202 15.0394 13.7411 14.758L8.34844 9.31995C8.06938 9.03855 8.06938 8.58229 8.34844 8.30088Z" clip-rule="evenodd"/><path fill="#878787" fill-rule="evenodd" d="M11.5501 3.60296C7.20849 3.60296 3.68971 7.15135 3.68971 11.5295C3.68971 15.9076 7.20849 19.456 11.5501 19.456C15.8916 19.456 19.4104 15.9076 19.4104 11.5295C19.4104 7.15135 15.8916 3.60296 11.5501 3.60296ZM2.26055 11.5295C2.26055 6.35541 6.41919 2.16177 11.5501 2.16177C16.6809 2.16177 20.8396 6.35541 20.8396 11.5295C20.8396 16.7035 16.6809 20.8971 11.5501 20.8971C6.41919 20.8971 2.26055 16.7035 2.26055 11.5295Z" clip-rule="evenodd"/></svg>