<svg width="383" height="156" viewBox="0 0 383 156" fill="none" xmlns="http://www.w3.org/2000/svg">
<path d="M176.73 9.54529V1.54207H196.983V80.3785C197.087 87.2934 195.574 94.1365 192.564 100.368C189.683 106.22 185.098 111.07 179.407 114.284C172.908 117.814 165.584 119.555 158.186 119.329C148.162 119.804 138.268 116.906 130.096 111.102C122.985 105.593 118.348 97.5063 117.196 88.6046H137.127C138.154 92.4622 140.549 95.82 143.867 98.0547C147.711 100.49 152.217 101.679 156.767 101.46C159.41 101.576 162.05 101.172 164.535 100.267C167.02 99.3628 169.302 97.9772 171.247 96.1904C173.233 94.0383 174.748 91.4978 175.697 88.7317C176.647 85.9656 177.009 83.0342 176.762 80.1212V64.4694C174.794 69.7371 171.19 74.241 166.474 77.3248C161.299 80.6378 155.24 82.3179 149.091 82.1455C142.68 82.2324 136.372 80.541 130.87 77.2604C125.339 73.8519 120.932 68.9013 118.196 63.0225C115.177 56.1294 113.619 48.69 113.619 41.169C113.619 33.648 115.177 26.2086 118.196 19.3155C120.933 13.4454 125.34 8.50454 130.87 5.10899C136.366 1.81416 142.679 0.121629 149.091 0.223887C155.831 0.545271 171.344 0.546527 176.73 9.54529ZM140.093 24.4894C136.33 29.3573 134.29 35.33 134.29 41.475C134.29 47.62 136.33 53.5911 140.093 58.4591C144.205 62.4207 149.71 64.6218 155.429 64.5918C161.149 64.5618 166.629 62.3036 170.698 58.2991C174.602 53.5362 176.734 47.5757 176.734 41.4264C176.734 35.277 174.602 29.3166 170.698 24.5537C168.742 22.4975 166.373 20.8757 163.744 19.7957C161.115 18.7157 158.286 18.2013 155.444 18.2861C152.589 18.1626 149.741 18.6533 147.092 19.7235C144.443 20.7937 142.056 22.419 140.093 24.4894Z" fill="url(#paint0_linear_1413_753)"/>
<path d="M160.604 155.969C155.759 155.971 150.92 155.626 146.124 154.939C112.197 150.022 85.6881 129.004 78.5608 101.398C76.8849 91.9823 76.2681 82.4089 76.7224 72.8574C76.7224 71.4755 76.7224 70.1901 76.7224 69.0331V34.9661H97.04V69.0331C97.04 70.2544 97.04 71.5728 97.04 73.019C96.6886 80.8167 97.0878 88.6292 98.2328 96.3508C103.296 116.052 123.259 131.189 149.026 134.917C168.796 137.777 194.177 133.599 206.561 113.417L209.786 107.149C219.944 86.516 242.229 86.3231 254.161 86.1946H261.579C263.732 85.8805 265.822 85.231 267.771 84.2675C271.395 82.4996 274.451 79.7565 276.594 76.349C278.737 72.9416 279.881 69.0056 279.897 64.9844V35.0947H300.214V64.9844C300.204 75.1336 296.486 84.931 289.756 92.5485C283.026 100.166 273.744 105.082 263.643 106.378H263.062H254.355C238.23 106.539 231.489 108.949 228.006 116.02L224.298 123.411C211.753 144.012 188.146 155.969 160.604 155.969Z" fill="url(#paint1_linear_1413_753)"/>
<path d="M233.876 11.5694V1.15577H213.462V77.1644C213.459 77.4615 213.532 77.7541 213.675 78.015C213.817 78.2758 214.024 78.4956 214.277 78.6537C214.529 78.8117 214.819 78.9024 215.116 78.9173C215.414 78.9322 215.711 78.8705 215.978 78.7384C221.237 76.2878 226.769 74.465 232.458 73.3072C232.853 73.2267 233.21 73.0143 233.468 72.7046C233.726 72.3949 233.87 72.007 233.876 71.6045V42.68C233.876 28.8176 241.401 21.8857 256.451 21.8857H262.386V0.127902C256.129 -0.000651479 239.778 1.15652 233.876 11.5694Z" fill="url(#paint2_linear_1413_753)"/>
<path d="M87.2685 26.2567L85.1718 21.6619C83.9707 19.0674 81.8612 16.9988 79.2383 15.8446L74.5945 13.8831L79.1737 11.7944C81.7936 10.6047 83.8749 8.48465 85.0111 5.84845L87.0102 1.2207L89.1069 5.78568C90.2903 8.4038 92.4203 10.4796 95.0727 11.6014L99.6842 13.5943L95.105 15.683C92.4851 16.8727 90.4038 18.9927 89.2676 21.6289L87.2685 26.2567Z" fill="#EFB700"/>
<path d="M38.1196 39.145V18.1263H37.7968H58.0498V0.964905H0V18.1263H17.3831V37.9555C17.3831 38.2126 17.3831 38.4053 17.3831 38.6303V39.0477C17.3831 60.4519 26.4772 85.424 58.0498 85.424V68.8087C41.9249 68.9051 38.1196 56.4998 38.1196 39.145Z" fill="url(#paint3_linear_1413_753)"/>
<path d="M290.056 26.2567L287.96 21.6619C286.756 19.0582 284.631 16.9873 281.993 15.8446L277.349 13.8831L281.961 11.7944C284.573 10.5946 286.652 8.47774 287.798 5.84845L289.798 1.2207L291.862 5.78568C293.045 8.4038 295.176 10.4796 297.828 11.6014L302.472 13.5943L297.893 15.683C295.273 16.8727 293.192 18.9927 292.055 21.6289L290.056 26.2567Z" fill="#EFB700"/>
<path d="M378.453 46.6978C375.459 43.5486 371.706 41.2132 367.552 39.9155C362.273 38.3397 356.883 37.1577 351.427 36.3799C346.447 35.6663 341.551 34.4499 336.818 32.7486C335.446 32.3216 334.247 31.4673 333.399 30.31C332.552 29.1527 332.1 27.7537 332.11 26.321C332.142 24.9058 332.57 23.5278 333.345 22.3413C334.12 21.1549 335.211 20.2074 336.496 19.6045C340.515 17.6947 344.95 16.8215 349.396 17.0655C357.702 16.9464 365.883 19.079 373.067 23.2358L380.484 8.61343C376.145 6.16326 371.442 4.41554 366.552 3.43801C360.977 2.1646 355.277 1.51905 349.557 1.51096C340.193 1.02227 330.909 3.47164 323.015 8.51614C319.955 10.5799 317.465 13.3785 315.774 16.6527C314.084 19.927 313.246 23.5719 313.34 27.2531C312.945 32.282 314.517 37.2687 317.726 41.1693C320.744 44.4485 324.585 46.8675 328.852 48.176C334.299 49.7822 339.863 50.9629 345.494 51.71C350.304 52.3368 355.043 53.4128 359.651 54.9239C360.947 55.3004 362.08 56.0959 362.874 57.1836C363.668 58.2712 364.077 59.5898 364.037 60.9341C364.037 67.019 358.264 70.051 346.719 70.0295C336.231 70.2661 325.798 68.4426 316.017 64.6627V80.7319C325.434 84.2448 335.442 85.9137 345.494 85.6484C357.039 85.6484 366.166 83.3454 372.874 78.7389C375.995 76.7658 378.555 74.0285 380.311 70.7875C382.067 67.5465 382.96 63.9108 382.903 60.228C383.24 55.313 381.644 50.4605 378.453 46.6978V46.6978Z" fill="url(#paint4_linear_1413_753)"/>
<defs>
<linearGradient id="paint0_linear_1413_753" x1="94.9076" y1="-36.0466" x2="366.823" y2="7.2553" gradientUnits="userSpaceOnUse">
<stop offset="0.0885417" stop-color="#4EC8AB"/>
<stop offset="0.645833" stop-color="#81F4D8"/>
</linearGradient>
<linearGradient id="paint1_linear_1413_753" x1="26.3855" y1="-1.86078" x2="661.838" y2="265.459" gradientUnits="userSpaceOnUse">
<stop offset="0.0885417" stop-color="#4EC8AB"/>
<stop offset="0.645833" stop-color="#81F4D8"/>
</linearGradient>
<linearGradient id="paint2_linear_1413_753" x1="202.482" y1="-23.8636" x2="362.894" y2="-1.19487" gradientUnits="userSpaceOnUse">
<stop offset="0.0885417" stop-color="#4EC8AB"/>
<stop offset="0.645833" stop-color="#81F4D8"/>
</linearGradient>
<linearGradient id="paint3_linear_1413_753" x1="-13.0285" y1="-24.74" x2="176.47" y2="4.90543" gradientUnits="userSpaceOnUse">
<stop offset="0.0885417" stop-color="#4EC8AB"/>
<stop offset="0.645833" stop-color="#81F4D8"/>
</linearGradient>
<linearGradient id="paint4_linear_1413_753" x1="297.644" y1="-24.1842" x2="522.657" y2="18.1791" gradientUnits="userSpaceOnUse">
<stop offset="0.0885417" stop-color="#4EC8AB"/>
<stop offset="0.645833" stop-color="#81F4D8"/>
</linearGradient>
</defs>
</svg>
