<?xml version="1.0" encoding="UTF-8"?>
<svg xmlns="http://www.w3.org/2000/svg" width="48" height="49" viewBox="0 0 48 49" fill="none">
  <g clip-path="url(#clip0_2447_4927)">
    <path d="M15.255 3.68348L2.745 16.1935C0.99 17.9485 0 20.3335 0 22.8235V45.1885C0 47.2585 1.68 48.9385 3.75 48.9385H26.115C28.605 48.9385 30.9825 47.9485 32.745 46.1935L45.255 33.6835C47.01 31.9285 48 29.5435 48 27.0535V4.68848C48 2.61848 46.32 0.938477 44.25 0.938477H21.885C19.395 0.938477 17.0175 1.92848 15.255 3.68348Z" fill="url(#paint0_linear_2447_4927)"></path>
    <path d="M36 12.9385H6V42.9385H36V12.9385Z" fill="black"></path>
    <path d="M22.5 36.1885H9.75V39.1885H22.5V36.1885Z" fill="white"></path>
  </g>
  <defs>
    <linearGradient id="paint0_linear_2447_4927" x1="0.6375" y1="47.9785" x2="46.965" y2="2.29598" gradientUnits="userSpaceOnUse">
      <stop stop-color="#F7AABE"></stop>
      <stop offset="0.43" stop-color="#B57CEC"></stop>
      <stop offset="0.99" stop-color="#E472D1"></stop>
    </linearGradient>
    <clipPath id="clip0_2447_4927">
      <rect width="48" height="48" fill="white" transform="translate(0 0.938477)"></rect>
    </clipPath>
  </defs>
</svg>