<svg width="24" height="24" viewBox="0 0 24 24" fill="none" xmlns="http://www.w3.org/2000/svg">
<g clip-path="url(#clip0_3307_956)">
<path d="M6.43875 23.3137L0.75 0.689941L23.25 7.00869" fill="white"/>
<path d="M9.21753 13.5901L10.6388 19.2488" stroke="black" stroke-width="0.48" stroke-miterlimit="10"/>
<path d="M14.8313 15.1801L9.21753 13.5901" stroke="black" stroke-width="0.48" stroke-miterlimit="10"/>
<path d="M10.6387 19.2487L14.8312 15.1799" stroke="black" stroke-width="0.48" stroke-miterlimit="10"/>
<path d="M10.6387 19.2487L5.0249 17.6587" stroke="black" stroke-width="0.48" stroke-miterlimit="10"/>
<path d="M5.0249 17.6587L6.44615 23.3212L10.6387 19.2487" stroke="black" stroke-width="0.48" stroke-miterlimit="10"/>
<path d="M5.0249 17.6588L9.2174 13.5901" stroke="black" stroke-width="0.48" stroke-miterlimit="10"/>
<path d="M9.21753 13.5901L13.4138 9.51758" stroke="black" stroke-width="0.48" stroke-miterlimit="10"/>
<path d="M13.4138 9.51748L17.6063 5.44873" stroke="black" stroke-width="0.48" stroke-miterlimit="10"/>
<path d="M11.9924 3.85864L13.4137 9.51739" stroke="black" stroke-width="0.48" stroke-miterlimit="10"/>
<path d="M13.4136 9.5174L7.79614 7.93115" stroke="black" stroke-width="0.48" stroke-miterlimit="10"/>
<path d="M7.79614 7.93115L9.21739 13.5899" stroke="black" stroke-width="0.48" stroke-miterlimit="10"/>
<path d="M9.21751 13.59L3.60376 12" stroke="black" stroke-width="0.48" stroke-miterlimit="10"/>
<path d="M3.60376 12L5.02501 17.6587" stroke="black" stroke-width="0.48" stroke-miterlimit="10"/>
<path d="M2.18262 6.34131L3.60387 12.0001" stroke="black" stroke-width="0.48" stroke-miterlimit="10"/>
<path d="M7.79637 7.93131L2.18262 6.34131" stroke="black" stroke-width="0.48" stroke-miterlimit="10"/>
<path d="M3.60376 11.9999L7.79626 7.93115" stroke="black" stroke-width="0.48" stroke-miterlimit="10"/>
<path d="M7.79614 7.92739L11.9924 3.85864" stroke="black" stroke-width="0.48" stroke-miterlimit="10"/>
<path d="M11.9925 3.8588L6.375 2.2688" stroke="black" stroke-width="0.48" stroke-miterlimit="10"/>
<path d="M6.375 2.2688L7.79625 7.92755" stroke="black" stroke-width="0.48" stroke-miterlimit="10"/>
<path d="M2.18248 6.34121L0.76123 0.678711L6.37498 2.26871" stroke="black" stroke-width="0.48" stroke-miterlimit="10"/>
<path d="M2.18262 6.3413L6.37512 2.2688" stroke="black" stroke-width="0.48" stroke-miterlimit="10"/>
<path d="M19.0275 11.1075L23.22 7.03873L17.6062 5.44873" stroke="black" stroke-width="0.48" stroke-miterlimit="10"/>
<path d="M17.6062 5.44873L19.0275 11.1075" stroke="black" stroke-width="0.48" stroke-miterlimit="10"/>
<path d="M19.0276 11.1076L13.4138 9.51758" stroke="black" stroke-width="0.48" stroke-miterlimit="10"/>
<path d="M13.4138 9.51758L14.8313 15.1801" stroke="black" stroke-width="0.48" stroke-miterlimit="10"/>
<path d="M14.8313 15.1799L19.0275 11.1074" stroke="black" stroke-width="0.48" stroke-miterlimit="10"/>
<path d="M17.6062 5.44864L11.9924 3.85864" stroke="black" stroke-width="0.48" stroke-miterlimit="10"/>
</g>
<defs>
<clipPath id="clip0_3307_956">
<rect width="24" height="24" fill="white"/>
</clipPath>
</defs>
</svg>
