<?xml version="1.0" encoding="iso-8859-1"?>
<!-- Generator: Adobe Illustrator 19.0.0, SVG Export Plug-In . SVG Version: 6.00 Build 0)  -->
<svg version="1.1" id="Capa_1" xmlns="http://www.w3.org/2000/svg" xmlns:xlink="http://www.w3.org/1999/xlink" x="0px" y="0px"
	 viewBox="0 0 368 368" style="enable-background:new 0 0 368 368;" xml:space="preserve">
<path style="fill:#CCE4FF;" d="M328,104v240c0,8.8-7.2,16-16,16H56c-8.8,0-16-7.2-16-16V24c0-8.8,7.2-16,16-16h176v48H88v48h144H328
	z"/>
<g>
	<path style="fill:#007AFF;" d="M248,0H56C42.768,0,32,10.768,32,24v320c0,13.232,10.768,24,24,24h256c13.232,0,24-10.768,24-24V104
		V88c0-2.12-0.84-4.16-2.344-5.656l-80-80C252.16,0.84,250.12,0,248,0z M96,96V64h128v32H96z M312,352H56c-4.408,0-8-3.592-8-8V24
		c0-4.408,3.592-8,8-8h168v32H88c-4.416,0-8,3.584-8,8v48c0,4.416,3.584,8,8,8h144h88v232C320,348.408,316.408,352,312,352z M320,96
		h-80V16h4.688L320,91.312V96z"/>
	<path style="fill:#007AFF;" d="M88,160h96c4.416,0,8-3.584,8-8s-3.584-8-8-8H88c-4.416,0-8,3.584-8,8S83.584,160,88,160z"/>
	<path style="fill:#007AFF;" d="M88,256h96c4.416,0,8-3.584,8-8s-3.584-8-8-8H88c-4.416,0-8,3.584-8,8S83.584,256,88,256z"/>
	<path style="fill:#007AFF;" d="M280,192H88c-4.416,0-8,3.584-8,8s3.584,8,8,8h192c4.416,0,8-3.584,8-8S284.416,192,280,192z"/>
	<path style="fill:#007AFF;" d="M280,288H88c-4.416,0-8,3.584-8,8s3.584,8,8,8h192c4.416,0,8-3.584,8-8S284.416,288,280,288z"/>
</g>
<g>
</g>
<g>
</g>
<g>
</g>
<g>
</g>
<g>
</g>
<g>
</g>
<g>
</g>
<g>
</g>
<g>
</g>
<g>
</g>
<g>
</g>
<g>
</g>
<g>
</g>
<g>
</g>
<g>
</g>
</svg>
