<?xml version="1.0" encoding="iso-8859-1"?>
<!-- Generator: Adobe Illustrator 19.0.0, SVG Export Plug-In . SVG Version: 6.00 Build 0)  -->
<svg version="1.1" id="Capa_1" xmlns="http://www.w3.org/2000/svg" xmlns:xlink="http://www.w3.org/1999/xlink" x="0px" y="0px"
	 viewBox="0 0 368 368" style="enable-background:new 0 0 368 368;" xml:space="preserve">
<path style="fill:#CCE4FF;" d="M232,56v48h96v240c0,8.8-7.2,16-16,16H56c-8.88,0-16-7.2-16-16V24c0-8.8,7.12-16,16-16h176V56z"/>
<g>
	<path style="fill:#007AFF;" d="M32,24v320c0,13.232,10.768,24,24,24h256c13.232,0,24-10.768,24-24V88c0-2.12-0.84-4.16-2.344-5.656
		l-80-80C252.16,0.84,250.128,0,248,0H56C42.768,0,32,10.768,32,24z M240,16h4.688L320,91.312V96h-80V16z M224,48H88
		c-4.424,0-8,3.584-8,8v48c0,4.416,3.576,8,8,8s8-3.584,8-8V64h128v40c0,4.416,3.576,8,8,8h88v232c0,4.408-3.584,8-8,8H56
		c-4.416,0-8-3.592-8-8V24c0-4.408,3.584-8,8-8h168V48z"/>
	<path style="fill:#007AFF;" d="M141.656,189.656L176,155.312V296c0,4.416,3.576,8,8,8c4.424,0,8-3.584,8-8V155.312l34.344,34.344
		c1.56,1.56,3.608,2.344,5.656,2.344s4.096-0.784,5.656-2.344c3.128-3.128,3.128-8.184,0-11.312l-47.992-47.992
		c-0.736-0.744-1.624-1.328-2.608-1.736c-1.952-0.808-4.16-0.808-6.112,0c-0.984,0.408-1.864,0.992-2.608,1.736l-47.992,47.992
		c-3.128,3.128-3.128,8.184,0,11.312S138.528,192.784,141.656,189.656z"/>
</g>
<g>
</g>
<g>
</g>
<g>
</g>
<g>
</g>
<g>
</g>
<g>
</g>
<g>
</g>
<g>
</g>
<g>
</g>
<g>
</g>
<g>
</g>
<g>
</g>
<g>
</g>
<g>
</g>
<g>
</g>
</svg>
