<svg height="156" viewBox="0 0 240 156" width="240" xmlns="http://www.w3.org/2000/svg"><g fill="none" fill-rule="evenodd" transform="translate(0 1)"><rect fill="#fff" height="154" opacity=".8" rx="4" width="240"/><path d="m99 0v154" opacity=".068034" stroke="#000" stroke-linecap="square"/><text style="opacity:.836844;font-family:-apple-system, BlinkMacSystemFont, 'Segoe UI', Roboto, sans-serif;font-size:18;font-weight:500;letter-spacing:-.45;fill:#8f6ed5"><tspan x="14" y="48">$29.90</tspan></text><path d="m18 17h23c1.1045695 0 2 .8954305 2 2s-.8954305 2-2 2h-23c-1.1045695 0-2-.8954305-2-2s.8954305-2 2-2z" fill="#8f6ed5"/><g transform="translate(112 109)"><path d="m3.58943928 0h109.02112172c1.248126 0 1.700727.12995586 2.157023.37398579s.8144.60213393 1.05843 1.05843023c.24403.45629629.373986.90889702.373986 2.15702326v12.42112142c0 1.2481263-.129956 1.700727-.373986 2.1570233s-.602134.8144003-1.05843 1.0584302-.908897.3739858-2.157023.3739858h-109.02112172c-1.24812624 0-1.70072697-.1299559-2.15702326-.3739858-.4562963-.2440299-.8144003-.6021339-1.05843023-1.0584302s-.37398579-.908897-.37398579-2.1570233v-12.42112142c0-1.24812624.12995586-1.70072697.37398579-2.15702326.24402993-.4562963.60213393-.8144003 1.05843023-1.05843023.45629629-.24402993.90889702-.37398579 2.15702326-.37398579z" fill="#8f6ed5"/><text style="opacity:.7;font-family:-apple-system, BlinkMacSystemFont, 'Segoe UI', Roboto, sans-serif;font-size:10;font-weight:500;letter-spacing:.12;fill:#f7fafc"><tspan x="29" y="14">Pay $29.90</tspan></text></g><g transform="translate(112 83)"><path d="m3.58943928.35c-1.08510563 0-1.53103464.08611287-1.99196366.33262041-.39530234.21141-.70344521.51955287-.91485521.91485521-.24650754.46092902-.33262041.90685803-.33262041 1.99196366v12.42112142c0 1.0851056.08611287 1.5310347.33262041 1.9919637.21141.3953023.51955287.7034452.91485521.9148552.46092902.2465075.90685803.3326204 1.99196366.3326204h109.02112172c1.085105 0 1.531034-.0861129 1.991963-.3326204.395303-.21141.703446-.5195529.914856-.9148552.246507-.460929.33262-.9068581.33262-1.9919637v-12.42112142c0-1.08510563-.086113-1.53103464-.33262-1.99196366-.21141-.39530234-.519553-.70344521-.914856-.91485521-.460929-.24650754-.906858-.33262041-1.991963-.33262041z" fill="#fff" opacity=".8" stroke="#8f6ed5" stroke-opacity=".266253" stroke-width=".7"/><g fill-rule="nonzero" opacity=".5" transform="translate(95.2 4.2)"><rect fill="#ebf1f8" height="10.7" rx="1.4" stroke="#a450b5" stroke-width=".5" width="16.3" x=".25" y=".25"/><path d="m2.30141283 4.14010612c-.36619921-.20085195-.7841356-.36238968-1.25141283-.47449094l.01960035-.08729771h1.91588511c.25968832.00910242.47040833.08723662.53897699.36318047l.41637443 1.98511543.12755149.59789495 1.1661881-2.94619085h1.2591758l-1.87173549 4.31595242h-1.25924092zm5.11856981 3.75874553h-1.1908025l.7448132-4.32053418h1.19073738zm4.31676486-4.21490945-.1619471.93296757-.1077042-.04587865c-.2154736-.0873588-.4999065-.17465651-.8870297-.16543191-.4701478 0-.68099808.18834069-.68588189.3722218 0 .20226923.25506499.33556776.67155609.53325523.6860773.30795505 1.0043062.6848197.9995526 1.17665586-.0096374.89631352-.8230844 1.47550848-2.07255766 1.47550848-.53422342-.00464284-1.04878137-.11057303-1.32807004-.22994303l.16663551-.96986596.15680278.06903178c.38712314.16103343.64186253.22982085 1.11728491.22982085.34284328 0 .7104312-.13342072.7151196-.42286548 0-.18846286-.1566074-.32646533-.61731322-.53789807-.45074287-.20691207-1.05340471-.55158225-1.04363709-1.17213519.00507916-.8410881.83317755-1.42938548 2.00913331-1.42938548.4606407 0 .8331775.09652231 1.0680561.1839422zm1.5826792 2.68429772h.989785c-.0489683-.21601449-.27447-1.2502083-.27447-1.2502083l-.0832201-.37228289c-.058801.16085015-.1616214.42286547-.1566725.41364087 0 0-.3773555.96064136-.4754224 1.20885032zm1.4698958-2.78992245.9606775 4.32047309h-1.1025684s-.1078996-.49641792-.1420862-.64810457h-1.5288922c-.0442148.11484934-.2499207.64810457-.2499207.64810457h-1.2494733l1.7687848-3.96199655c.122551-.28040343.3383502-.35847654.6223924-.35847654z" fill="#8f6ed5"/></g><g fill="#1a1f36" font-family="-apple-system, BlinkMacSystemFont, 'Segoe UI', Roboto, sans-serif" font-size="8.4" font-weight="500"><text opacity=".67"><tspan x="5.6" y="12.9">4242</tspan></text><text opacity=".67"><tspan x="33.6" y="12.9">11/26</tspan></text><text opacity=".67"><tspan x="61.6" y="12.9">934</tspan></text></g></g><g transform="translate(112 57)"><path d="m3.58943928.35c-1.08510563 0-1.53103464.08611287-1.99196366.33262041-.39530234.21141-.70344521.51955287-.91485521.91485521-.24650754.46092902-.33262041.90685803-.33262041 1.99196366v12.42112142c0 1.0851056.08611287 1.5310347.33262041 1.9919637.21141.3953023.51955287.7034452.91485521.9148552.46092902.2465075.90685803.3326204 1.99196366.3326204h109.02112172c1.085105 0 1.531034-.0861129 1.991963-.3326204.395303-.21141.703446-.5195529.914856-.9148552.246507-.460929.33262-.9068581.33262-1.9919637v-12.42112142c0-1.08510563-.086113-1.53103464-.33262-1.99196366-.21141-.39530234-.519553-.70344521-.914856-.91485521-.460929-.24650754-.906858-.33262041-1.991963-.33262041z" fill="#fff" opacity=".8" stroke="#8f6ed5" stroke-opacity=".266253" stroke-width=".7"/><text fill="#1a1f36" font-family="-apple-system, BlinkMacSystemFont, 'Segoe UI', Roboto, sans-serif" font-size="8.4" font-weight="500" opacity=".67"><tspan x="5.6" y="13.6">Jenny Rosen</tspan></text></g><g transform="translate(112 31)"><path d="m3.58943928.35c-1.08510563 0-1.53103464.08611287-1.99196366.33262041-.39530234.21141-.70344521.51955287-.91485521.91485521-.24650754.46092902-.33262041.90685803-.33262041 1.99196366v12.42112142c0 1.0851056.08611287 1.5310347.33262041 1.9919637.21141.3953023.51955287.7034452.91485521.9148552.46092902.2465075.90685803.3326204 1.99196366.3326204h109.02112172c1.085105 0 1.531034-.0861129 1.991963-.3326204.395303-.21141.703446-.5195529.914856-.9148552.246507-.460929.33262-.9068581.33262-1.9919637v-12.42112142c0-1.08510563-.086113-1.53103464-.33262-1.99196366-.21141-.39530234-.519553-.70344521-.914856-.91485521-.460929-.24650754-.906858-.33262041-1.991963-.33262041z" fill="#fff" opacity=".8" stroke="#8f6ed5" stroke-opacity=".266253" stroke-width=".7"/><text fill="#1a1f36" font-family="-apple-system, BlinkMacSystemFont, 'Segoe UI', Roboto, sans-serif" font-size="8.4" font-weight="500" opacity=".67"><tspan x="5.6" y="13.6">jenny@rosen.com</tspan></text></g></g></svg>