<svg xmlns="http://www.w3.org/2000/svg" width="202" height="64" viewBox="0 0 202 64"><g fill="none" fill-rule="evenodd"><rect width="202" height="28" fill="#fff" opacity=".8" rx="4"/><g transform="translate(0 36)"><rect width="202" height="28" fill="#4e5663" rx="4"/><text style="opacity:.7;font-family:-apple-system,BlinkMacSystemFont,'Segoe UI',Roboto,sans-serif;font-size:14;font-weight:500;letter-spacing:-.154;fill:#fff"><tspan x="63" y="19">Pay $29.90</tspan></text></g><text fill="#1a1f36" font-family="-apple-system, BlinkMacSystemFont, 'Segoe UI', Roboto, sans-serif" font-size="12" font-weight="500" opacity=".798"><tspan x="9" y="19">4242 4242 4242 4242</tspan></text><g fill-rule="nonzero" opacity=".5" transform="translate(171 6)"><rect width="23.5" height="15.5" x=".25" y=".25" stroke="#4f566b" stroke-width=".5" rx="2"/><path fill="#3c4257" d="m3.28773262 5.91443732c-.52314173-.28693137-1.12019372-.51769955-1.78773262-.6778442l.0280005-.12471102h2.73697872c.37098332.01300346.67201191.12462375.76996714.51882925l.59482061 2.83587917.18221641.85413565 1.66598301-4.20884407h1.79882257l-2.67390785 6.1656463h-1.79891559zm7.31224258 5.36963648h-1.70114643l1.06401886-6.1721917h1.70105337zm6.1668069-6.02129922-.2313529 1.3328108-.1538632-.06554092c-.3078194-.12479829-.7141522-.2495093-1.2671852-.2363313-.6716398 0-.9728545.26905813-.9798314.53174543 0 .28895604.3643786.47938251.9593659.76179318.9801104.43993579 1.4347231.97831385 1.4279323 1.68093694-.0137677 1.28044789-1.1758348 2.10786929-2.9607967 2.10786929-.7631763-.0066327-1.4982591-.1579615-1.8972429-.3284901l.2380507-1.38552277.224004.09861682c.5530331.23004776.9169465.32831555 1.5961213.32831555.4897761 0 1.0149017-.19060107 1.0215995-.60409358 0-.26923267-.2237249-.46637906-.8818761-.76842582-.6439184-.29558867-1.5048639-.78797464-1.4909101-1.67447884.0072559-1.20155443 1.1902536-2.04197926 2.8701904-2.04197926.6580581 0 1.1902536.13788902 1.5257944.26277458zm2.2609703 3.83471102h1.4139786c-.0699548-.30859213-.3921-1.78601186-.3921-1.78601186l-.1188858-.5318327c-.0840015.22978594-.2308878.60409353-.2238179.59091553 0 0-.5390794 1.3723448-.6791749 1.72692903zm2.0998512-3.9856035 1.3723964 6.1721044h-1.5750977s-.1541422-.7091684-.2029803-.9258637h-2.1841317c-.0631639.1640705-.3570296.9258637-.3570296.9258637h-1.7849619l2.5268355-5.65999506c.1750729-.40057632.4833574-.51210934.889132-.51210934z"/></g></g></svg>