<svg version="1.1" viewBox="0 0 4387.8 3366.8" xmlns="http://www.w3.org/2000/svg">
  <g transform="matrix(1.3333 0 0 -1.3333 -472.75 4333)">
    <g transform="scale(.22181)">
      <path d="m9016.9 3402c-4022.3 0-7283.1 158.34-7283.1 353.64 0 52.12 233.18 101.71 651.55 146.44 1.34-0.45 2.73-0.77 4.15-0.95 276.15-40.85 552.29-50.63 828.43-55.68 113.35-2.3 226.69-3.15 340.04-3.15 162.79 0 325.59 1.75 488.39 3.6l414.21 2.44 414.21 0.18h9112.6l414.2-0.14 207.1-1.89 207.2-3.29c27.3-0.32 54.6-0.5 82-0.5 110.7 0 221.4 2.75 332.2 8.07 138.1 8.52 276.1 20.51 414.2 50.36 1.2 0.23 2.4 0.59 3.5 0.99 418.8-44.72 652.2-94.36 652.2-146.48 0-195.3-3260.8-353.64-7283.1-353.64" style="fill:#a3bee3"/>
    </g>
    <g transform="scale(.1107)">
      <path d="m16118 7811.3h-2538.1c-78.5 0-142.1 63.59-142.1 142.18 0 39.3 15.9 74.8 41.8 100.54 25.6 25.75 61.2 41.65 100.4 41.65h2720.1l-71.1-284.29-111-0.08" style="fill:#000072"/>
    </g>
    <path d="m1051 1543.4c-19.08 3.23-37.17-9.63-40.4-28.72l-41.287-244.18 69.117-11.69 41.29 244.19c3.23 19.09-9.63 37.17-28.72 40.4" style="fill:#4089ff"/>
    <path d="m1079.8 1503-6.8-40.22-69.13 11.69 6.8 40.22c3.22 19.08 21.3 31.93 40.38 28.71 19.12-3.24 31.98-21.32 28.75-40.4" style="fill:#ffce00"/>
    <path d="m1079.8 1503h0.05zm-58.64-16.24 39.55-6.69 4.3 25.43c0.89 5.28-0.32 10.58-3.42 14.95-3.11 4.36-7.74 7.26-13.04 8.15-5.28 0.9-10.58-0.32-14.95-3.42-4.36-3.1-7.25-7.71-8.14-12.99zm51.86-38.98c-0.83 0-1.68 0.07-2.52 0.21l-69.13 11.69c-8.173 1.38-13.675 9.12-12.294 17.29l6.8 40.22c2.226 13.18 9.454 24.7 20.344 32.44 10.9 7.74 24.16 10.79 37.33 8.55 13.19-2.23 24.73-9.45 32.48-20.34 7.75-10.9 10.79-24.15 8.56-37.34l-6.8-40.22c-1.24-7.33-7.59-12.5-14.77-12.5" style="fill:#000072"/>
    <path d="m986.63 1282.8 39.556-6.69 29.49 174.42-39.55 6.69-29.496-174.42m51.846-38.98c-0.83 0-1.67 0.07-2.5 0.22l-69.136 11.69c-3.923 0.66-7.422 2.85-9.726 6.09-2.305 3.25-3.228 7.27-2.563 11.19l34.491 204c0.664 3.92 2.856 7.42 6.102 9.73 3.239 2.3 7.282 3.21 11.192 2.56l69.13-11.69c8.17-1.38 13.67-9.12 12.29-17.29l-34.49-204c-0.66-3.92-2.86-7.42-6.1-9.72-2.56-1.82-5.6-2.78-8.69-2.78" style="fill:#000072"/>
    <path d="m1119.4 1339.7c-0.83 0-1.67 0.07-2.52 0.21-8.17 1.38-13.67 9.12-12.29 17.29l7.62 45.05c3.51 20.74-10.52 40.47-31.26 43.98l-23.51 3.98c-8.17 1.38-13.67 9.12-12.29 17.29s9.15 13.65 17.29 12.29l23.51-3.98c37.06-6.27 62.1-41.51 55.84-78.56l-7.62-45.05c-1.24-7.33-7.59-12.5-14.77-12.5" style="fill:#000072"/>
    <path d="m769.01 1174 114.67 24.3-74.332 350.77-114.67-24.3 74.331-350.77" style="fill:#d2e4ff"/>
    <path d="m796.2 1530.9c-0.141 0-0.286-0.01-0.43-0.04l-81.279-17.23c-1.113-0.23-1.83-1.33-1.594-2.45l67.683-319.4 85.327 18.09-67.685 319.39c-0.206 0.97-1.065 1.64-2.022 1.64m-27.185-371.9c-2.881 0-5.725 0.83-8.176 2.43-3.338 2.17-5.674 5.57-6.499 9.46l-70.794 334.07c-3.662 17.29 7.427 34.35 24.72 38.02l81.289 17.22c17.304 3.67 34.35-7.42 38.014-24.71l70.796-334.08c1.717-8.1-3.461-16.07-11.564-17.78l-114.68-24.3c-1.03-0.22-2.073-0.33-3.11-0.33" style="fill:#000072"/>
    <path d="m736.17 1542.4-43.283-9.18c-4.67-0.99-7.654-5.57-6.664-10.24 0.989-4.67 5.578-7.66 10.248-6.67l43.284 9.17c4.67 0.99 7.654 5.58 6.664 10.25s-5.578 7.66-10.249 6.67" style="fill:#000072"/>
    <path d="m751.04 1472.2-43.284-9.17c-4.67-0.99-7.654-5.58-6.664-10.25s5.578-7.65 10.248-6.66l43.284 9.17c4.67 0.99 7.654 5.58 6.664 10.25s-5.578 7.65-10.248 6.66" style="fill:#000072"/>
    <path d="m765.91 1402-43.284-9.17c-4.67-0.99-7.654-5.58-6.664-10.25s5.578-7.65 10.248-6.66l43.284 9.17c4.67 0.99 7.654 5.58 6.664 10.25-0.989 4.67-5.578 7.65-10.248 6.66" style="fill:#000072"/>
    <path d="m780.77 1331.9-43.283-9.17c-4.671-0.99-7.654-5.58-6.665-10.25 0.99-4.67 5.578-7.66 10.249-6.67l43.283 9.17c4.671 0.99 7.654 5.58 6.665 10.25-0.99 4.67-5.578 7.66-10.249 6.67" style="fill:#000072"/>
    <path d="m795.64 1261.8-43.284-9.18c-4.669-0.99-7.653-5.58-6.664-10.25 0.991-4.67 5.579-7.65 10.249-6.66l43.283 9.17c4.67 0.99 7.654 5.58 6.665 10.25-0.99 4.67-5.579 7.65-10.249 6.67" style="fill:#000072"/>
    <path d="m810.5 1191.6-43.282-9.17c-4.671-0.99-7.655-5.58-6.665-10.25s5.578-7.65 10.248-6.66l43.284 9.17c4.67 0.99 7.653 5.58 6.664 10.25s-5.578 7.65-10.249 6.66" style="fill:#000072"/>
    <path d="m729.96 886.24h338.33v332.32h-338.33z" style="fill:#f91228"/>
    <path d="m747.25 903.53h303.75v297.74h-303.75v-297.74m321.04-34.58h-338.33c-9.548 0-17.287 7.74-17.287 17.29v332.32c0 9.55 7.739 17.29 17.287 17.29h338.33c9.55 0 17.29-7.74 17.29-17.29v-332.32c0-9.55-7.74-17.29-17.29-17.29" style="fill:#000072"/>
    <path d="m712.67 1153.3c-3.621 5.66-5.721 12.38-5.721 19.6v27.96c0 6.72 1.819 13.01 4.992 18.41v-3.15c0-2.49 0.251-4.93 0.729-7.28v-55.54" style="fill:#8ea6d4"/>
    <path d="m1051 903.53h-303.75v34.86h182.27c54.698 0 99.044 44.34 99.044 99.04 0 54.69-44.346 99.04-99.044 99.04h-182.27v43.24c0.362-0.01 0.724-0.02 1.088-0.02h301.58c0.36 0 0.72 0.01 1.08 0.02v-276.18" style="fill:#ae0d3e"/>
    <path d="m1063.3 888.62-73.935 0.03-91.875 0.55c-36.139 0.4-72.268 0.8-108.41 0.8-21.368 0-42.75-0.14-64.119-0.5v48.89h22.274v-34.86h303.75v276.18c12.94 0.38 24.18 7.51 30.33 17.99v-24.84c0-13.4-7.22-25.07-18.02-31.38v-252.86m-316.06 247.85h-3.905c-12.884 0-24.204 6.69-30.67 16.79v55.54c3.303-16.27 17.456-28.59 34.575-29.09v-43.24" style="fill:#000072"/>
    <path d="m1049.9 1280.4h-301.58c-20.099 0-36.392-16.3-36.392-36.39v-27.95c0-20.1 16.293-36.39 36.392-36.39h301.58c20.1 0 36.39 16.29 36.39 36.39v27.95c0 20.09-16.29 36.39-36.39 36.39" style="fill:#f91228"/>
    <path d="m1086.3 1224.8v19.21c0 17.59-12.49 32.27-29.09 35.65l1.64 9.65c15.78-3.97 27.47-18.27 27.47-35.29v-27.96c0-0.42-0.01-0.84-0.02-1.26m-374.36 19.97v9.25c0 13.43 7.27 25.16 18.09 31.46l1.902-8.97c-11.649-5.89-19.704-17.86-19.992-31.74m243.86 35.63h-74.199l-2.123 10.02h78.016l-1.694-10.02" style="fill:#e6f7ff"/>
    <path d="m1026.9 1280.4h-26.35l-13.936 2.35 1.296 7.67h40.69l-1.7-10.02" style="fill:#a0c4ff"/>
    <path d="m1057.2 1279.7c-2.36 0.48-4.8 0.74-7.3 0.74h-23l1.7 10.02h21.32c3.07 0 6.06-0.39 8.92-1.11l-1.64-9.65m-56.65 0.74h-44.759l1.694 10.02h30.425l-1.296-7.67 13.936-2.35" style="fill:#8080b9"/>
    <path d="m850.94 1280.4h-89.159l-2.123 10.02h89.159l2.123-10.02" style="fill:#e9f2ff"/>
    <path d="m731.94 1276.5-1.902 8.97c5.376 3.14 11.629 4.94 18.301 4.94h11.321l2.123-10.02h-13.451c-5.897 0-11.465-1.4-16.392-3.89m149.67 3.89h-30.667l-2.123 10.02h30.667l2.123-10.02" style="fill:#8080b9"/>
    <path d="m1085.5 1218.4c-3.5 16.42-18.11 28.74-35.57 28.74h-301.6c-17.461 0-32.07-12.32-35.57-28.74-0.562 2.46-0.821 5.05-0.821 7.69v18.71c0.288 13.88 8.343 25.85 19.992 31.74 4.927 2.49 10.495 3.89 16.392 3.89h301.58c2.5 0 4.94-0.26 7.3-0.74 16.6-3.38 29.09-18.06 29.09-35.65v-19.21c-0.07-2.2-0.33-4.36-0.8-6.43" style="fill:#fc8994"/>
    <path d="m748.33 1263.1c-10.534 0-19.104-8.57-19.104-19.11v-27.94c0-10.53 8.57-19.1 19.104-19.1h301.59c10.53 0 19.1 8.57 19.1 19.1v27.94c0 10.54-8.57 19.11-19.1 19.11zm301.59-100.73h-301.59c-29.599 0-53.679 24.08-53.679 53.68v27.94c0 29.6 24.08 53.69 53.679 53.69h301.59c29.6 0 53.68-24.09 53.68-53.69v-27.94c0-29.6-24.08-53.68-53.68-53.68" style="fill:#000072"/>
    <path d="m909.46 1563.1c-19.358 0-35.051-15.69-35.051-35.05v-247.65h70.102v247.65c0 19.36-15.693 35.05-35.051 35.05" style="fill:#ffce00"/>
    <path d="m944.53 1528.1v-40.79h-70.115v40.79c0 19.35 15.687 35.03 35.032 35.03 19.396 0 35.083-15.68 35.083-35.03" style="fill:#f91228"/>
    <path d="m889.41 1502.3h40.117v25.79c0 11.05-9.008 20.04-20.083 20.04-11.047 0-20.034-8.99-20.034-20.04zm55.117-30h-70.117c-8.284 0-15 6.71-15 15v40.79c0 27.59 22.446 50.04 50.034 50.04 27.615 0 50.083-22.45 50.083-50.04v-40.79c0-8.29-6.716-15-15-15" style="fill:#000072"/>
    <path d="m889.41 1295.4h40.117v176.89h-40.117zm55.117-30h-70.117c-8.284 0-15 6.71-15 15v206.89c0 8.28 6.716 15 15 15h70.117c8.284 0 15-6.72 15-15v-206.89c0-8.29-6.716-15-15-15" style="fill:#000072"/>
    <g transform="scale(.1757)">
      <path d="m13613 5011.1h1599c444.5 0 844.2 270.4 1009.5 683.02 52.3 130.11 78.1 267.5 78.1 404.55 0 167.62-38.6 334.6-115.4 487.65l-886.5 1767.3c-341.1 679.79-993.1 1139.8-1733.2 1242.3l-1563.5 21.69h-38.4l-1563.5-21.69c-740.1-102.44-1392.1-562.48-1733.1-1242.3l-886.56-1781.6v-1558.8h2042.8l3790.8-2.1" style="fill:#4089ff"/>
    </g>
    <g transform="scale(.16148)">
      <path d="m15957 6644.5h-85.8l29.7 258.6h398.7c-42.4-149.24-179.7-258.6-342.6-258.6" style="fill:#83b2ff"/>
    </g>
    <g transform="scale(.17474)">
      <path d="m15296 5128.8h-639c9.2 26.96 14.2 55.8 14.2 85.84 0 88.19-43.2 166.48-109.5 214.9 15.7 16.82 26.6 38.17 30.8 62.03 0.4 2.35 0.8 4.64 1 6.99l9.7 84.58h692.8c432.8 0 823.3 255.01 998.7 647.94 3.2-32.79 4.9-65.75 4.9-98.72 0-128.53-24.3-254.15-72-373.3-153.5-382.86-519.1-630.26-931.6-630.26m-6049.8 2.18h-534.46c119.44 72.73 200.82 215.63 200.82 379.65 0 25.47-1.95 50.48-5.73 74.74h393.62l9.9-86.76c0.06-0.51 0.18-1.03 0.23-1.54 3.27-26.1 14.71-49.39 31.54-67.53-66.28-48.42-109.43-126.71-109.43-214.9 0-29.24 4.75-57.34 13.51-83.66" style="fill:#2d60d4"/>
    </g>
    <g transform="scale(.17458)">
      <path d="m16300 6309.8c-3.6 7.68-7.3 15.3-11.1 22.91l-892.3 1778.8c-85.8 171.04-191.2 328.28-312.6 469.48-426.7 496.34-1053.7 775.41-1708.1 784.52l-741.7 10.31c25.6 64.38 42.4 133.35 48.5 205.24l962.7-13.35c720-101.5 1344.3-550.01 1670.7-1200.7l892.3-1778.6c43.9-87.64 74.8-181.87 91.6-278.56m-8372 205.58c-2.64 0.58-5.27 1.15-7.91 1.72v76.07l882.65 1773.8c81.34 162.11 182.38 313.9 300.44 451.15 403.95 469.87 1002.2 744.42 1641.4 753.3l494.3 6.82c6.4-71.89 23.4-140.86 49.3-205.24l-545.3-7.56c-654.5-9.11-1281.4-288.18-1708.1-784.52-121.43-141.2-226.77-298.44-312.58-469.48l-794.2-1596.1" style="fill:#a0c4ff"/>
    </g>
    <g transform="scale(.17667)">
      <path d="m15129 4894.6h-1590.4c-49.1 0-89 39.85-89 89.1 0 49.18 39.9 89.03 89 89.03h1590.4c407.9 0 769.6 244.7 921.3 623.38 47.3 117.84 71.3 242.09 71.3 369.22 0 153.79-36.5 307.7-105.4 445.07l-881.7 1757.6c-322.5 642.96-939.4 1086.2-1650.9 1186.5l-1549.3 21.51-37-0.05-1280.2-17.72c-631.56-8.77-1222.8-280.07-1621.9-744.39-116.66-135.62-216.51-285.62-296.89-445.81l-872.2-1752.8v-1440.3h1942.5c49.14 0 89.04-39.91 89.04-89.1s-39.9-89.09-89.04-89.09h-2120.6v1660.3l890.99 1790.6c87 173.43 195 335.66 321.11 482.32 432.45 502.98 1072 796.86 1754.6 806.31l1320.9 17.83 1561.7-21.68 5.4-0.73c771.9-106.87 1441.5-586.81 1791.1-1283.8l881.8-1757.6c81.2-162.06 124.2-343.58 124.2-524.94 0-149.94-28.3-296.49-84.1-435.51-178.9-446.6-605.5-735.22-1086.6-735.22" style="fill:#000072"/>
    </g>
    <g transform="scale(.1349)">
      <path d="m15479 11659h-0.1c-453.6 0-821.2 367.7-821.2 821.2v925.4h1642.6v-925.4c0-453.5-367.7-821.2-821.3-821.2" style="fill:#ffcfae"/>
    </g>
    <g transform="scale(.13586)">
      <path d="m14669 13194v-802.8c0-385.8 313.8-699.6 699.6-699.6 385.7 0 699.6 313.8 699.6 699.6v802.8h-1399.2m699.6-1734.1c-513.5 0-931.3 417.8-931.3 931.3v1034.4h1862.5v-1034.4c0-513.5-417.8-931.3-931.2-931.3" style="fill:#000072"/>
    </g>
    <g transform="scale(.13505)">
      <path d="m13878 15423c0-484.3-392.5-876.9-876.8-876.9s-876.8 392.6-876.8 876.9 392.5 876.9 876.8 876.9 876.8-392.6 876.8-876.9" style="fill:#ffcfae"/>
    </g>
    <g transform="scale(.12814)">
      <path d="m13581 15462c-384.7 58.5-680.5 391.5-680.5 792.3 0 15.3 0.4 30.4 1.2 45.5 143.9-248.3 400-423.3 698.9-455.8-14.5-124.4-21.6-218.5-21.6-285.1 0-32.6 0.7-64.9 2-96.9" style="fill:#b2909c"/>
    </g>
    <g transform="scale(.13601)">
      <path d="m12909 16069c-416.3 0-755-338.7-755-755s338.7-754.9 755-754.9c416.2 0 755 338.6 755 754.9s-338.8 755-755 755m0-1741.3c-543.9 0-986.3 442.5-986.3 986.3 0 543.9 442.4 986.4 986.3 986.4s986.3-442.5 986.3-986.4c0-543.8-442.4-986.3-986.3-986.3" style="fill:#000072"/>
    </g>
    <g transform="scale(.17393)">
      <path d="m14131 13254c-363.2-112.3-761.6 39.6-1051.2 191.5-241.9 126.9-408 253.8-414 226.6-25-112.2 115-244.3 206.4-301.3 26.6-16.5 34.2-46.4 26.3-71.3-6.4-21-23.5-38.4-49.3-42.5-402-62.5-1211.7-1012.7-1316.6-1440.8h-1402.9s-707.48 1603.1-449.2 2614.8c77.56 303.7 324.4 524.1 778.9 366.9 0 0 192.1 285.9 515.3 572 525.6 465 1397.2 930.2 2350.1 164.2 1018.4-818.6 1382.7-793.7 1382.7-793.7s291-1218.1-576.5-1486.4" style="fill:#94452f"/>
    </g>
    <g transform="scale(.15675)">
      <path d="m16300 15090c0 0.1-0.1 0.4-0.1 0.5 0.1 0.2 0.3 0.5 0.4 0.7-0.1-0.5-0.3-0.9-0.3-1.2" style="fill:#def4ff"/>
    </g>
    <g transform="scale(.15737)">
      <path d="m16236 14916c0.3 38 0.1 76.1-0.7 114.2 0 0.4 0.1 0.8 0.3 1.2 24.4 44.8 45.9 91.2 64.6 138.7-13.8-84.8-34.4-170.8-64.2-254.1" style="fill:#859bce"/>
    </g>
    <g transform="scale(.147)">
      <path d="m12053 15025c-37.7 569.6 36.3 1057.7 77.8 1275.1 79.3-68.9 163.2-131.8 250.7-189.4-124.5-234.1-214.7-489.6-266-756-19.6-101.1-40.7-212.7-62.5-329.7" style="fill:#673043"/>
    </g>
    <g transform="scale(.16004)">
      <path d="m16300 13014c0-408.7-331.3-740-739.9-740-408.7 0-740 331.3-740 740 0 408.6 331.3 739.9 740 739.9 408.6 0 739.9-331.3 739.9-739.9" style="fill:#ffcfae"/>
    </g>
    <g transform="scale(.15908)">
      <path d="m15752 12455c1 25.8 1.6 51.7 1.6 78 0 53.7-5.7 129.5-17.3 229.6 240.7 26.2 447 167.3 562.9 367.2 0.7-12 1-24.3 1-36.6 0-322.9-238.3-591.1-548.2-638.2" style="fill:#b2909c"/>
    </g>
    <g transform="scale(.16101)">
      <path d="m15467 13574c-351.7 0-637.8-286.1-637.8-637.7 0-351.7 286.1-637.8 637.8-637.8s637.7 286.1 637.7 637.8c0 351.6-286 637.7-637.7 637.7m0-1470.9c-459.5 0-833.3 373.7-833.3 833.2 0 459.4 373.8 833.2 833.3 833.2 459.4 0 833.2-373.8 833.2-833.2 0-459.5-373.8-833.2-833.2-833.2" style="fill:#000072"/>
    </g>
    <g transform="scale(.1579)">
      <path d="m15704 13016s583.5 1455.1 298.9 2569.5c-85.5 334.7-335.1 603.1-661.9 714.9l363-3284.4" style="fill:#94452f"/>
    </g>
    <g transform="scale(.15898)">
      <path d="m15597 12828c-12.3 0-24.7 2.2-36.8 7.1-50.7 20.3-75.4 77.9-55.1 128.7 5.7 14.1 564 1428.7 292.8 2490.6-76.7 300.4-298.5 540-593.5 640.9-51.7 17.6-79.3 73.9-61.6 125.6 17.6 51.7 73.9 79.3 125.6 61.6 358.4-122.5 628-413.8 721.3-779.1 287.4-1125.1-276.7-2553.1-300.8-2613.3-15.6-38.7-52.7-62.1-91.9-62.1" style="fill:#000072"/>
    </g>
    <g transform="scale(.13393)">
      <path d="m15851 12617c-341.6 0-668.7 28.9-970.5 89.1v251.9c297.7-57.8 623.3-86.9 970.5-86.9 154.1 0 303.9 5.7 448.9 17.1v-253.7c-146-11.8-296-17.5-448.9-17.5" style="fill:#b2909c"/>
    </g>
    <g transform="scale(.1349)">
      <path d="m16183 12544v251.9c39.3 3.1 78.2 6.6 116.7 10.6v-251.8c-38.6-4-77.5-7.6-116.7-10.7m-1409.2 71.1c-39.3 7.8-78.2 16.2-116.6 25.1v249.3c38.3-8.7 77.3-16.8 116.6-24.4v-250" style="fill:#000072"/>
    </g>
    <g transform="scale(.1526)">
      <path d="m16300 13066c0-1166.5-1077.6-1665.5-2406.7-1665.5-1329.2 0-2406.7 499-2406.7 1665.5 0 275.8 165 1176.3 267.1 1706.8 33.3 172.8 84.2 341.3 152.2 502.5 85.4 202.5 198 393.4 336.4 565.9 194.9 242.7 444.5 458.4 716.8 458.4h1868.4c272.3 0 521.9-215.7 716.8-458.4 248.6-309.9 413.5-678.4 488.7-1068.4 3.1-16.6 6.3-33.3 9.7-50.7 102.3-535.2 257.3-1388.9 257.3-1656.1" style="fill:#ffcfae"/>
    </g>
    <g transform="scale(.14079)">
      <path d="m13447 15804c-74-38.6-150.9 46.8-104.5 116.2 100.1 149.5 262.4 308.8 507.2 334.9 418.4 44.5 588.6-156.6 509.6-289.1-32.2-54-144.9-46.1-275.8-38.1-81.8 5-170.7 9.9-251.4-0.3-150.1-18.9-281.8-69.9-385.1-123.6" style="fill:#000072"/>
    </g>
    <g transform="scale(.14525)">
      <path d="m16160 15296c68.4-35.6 139.5 43.3 96.5 107.5-92.5 138.2-242.5 285.5-468.8 309.6-386.7 41.1-544.1-144.8-471-267.3 29.7-49.8 133.9-42.5 254.8-35.2 75.7 4.6 157.9 9.2 232.4-0.3 138.8-17.4 260.6-64.6 356.1-114.3" style="fill:#000072"/>
    </g>
    <g transform="scale(.15131)">
      <path d="m14030 11601c-344.4 0-662.6 33.6-945.8 100h-0.1c-527.9 123.4-1141 408-1323.4 1061.5 347.9-680.6 1232.7-981.5 2269.3-981.5 1036.9 0 1921.8 301 2269.5 981.8-182.3-653.7-795.6-938.4-1323.6-1061.8-283.2-66.4-601.4-100-945.9-100" style="fill:#b2909c"/>
    </g>
    <g transform="scale(.15374)">
      <path d="m12882 16075c-245.4 0-478.9-226.5-631.6-416.5-231.2-288.2-391.8-639.5-464.3-1015.9s-170.2-905.6-224.4-1289.8c-25.8-182.6-38.9-312.2-38.9-384.9 0-938.5 737.2-1307.7 1355.5-1452.2h0.1c278.7-65.4 591.9-98.5 930.9-98.5s652.2 33.1 930.9 98.5c618.4 144.5 1355.5 513.7 1355.5 1452.2 0 72.8-13.1 202.3-38.9 384.8-54.1 384.2-151.9 913.5-224.3 1289.9-72.6 376.4-233.1 727.7-464.4 1016-152.6 189.9-386.2 416.4-631.6 416.4h-1854.5m927.3-4862.6c-354.7 0-683.6 35-977.6 104-976 228-1513.6 814.5-1513.6 1651.5 0 83.4 13.4 218.7 40.9 413.5 54.8 388.3 153.2 921.2 226.1 1299.9 78.8 409 253.7 791.3 505.7 1105.4 262.9 327.2 529.1 493 791.2 493h1854.5c262.2 0 528.3-165.8 791.2-492.9 252.1-314.2 426.9-696.5 505.8-1105.5 72.9-378.7 171.3-911.6 226-1299.9 27.5-194.7 40.9-330 40.9-413.5 0-837-537.5-1423.5-1513.6-1651.5-293.9-69-622.8-104-977.5-104" style="fill:#000072"/>
    </g>
    <g transform="scale(.14942)">
      <path d="m16137 15002c-135.1 0-270.2 22.7-400.3 58.8-90.1 103.5-216.9 195.4-389.3 213.7-36.3 3.9-70.6 5.7-102.7 5.7-12.8 0-25.3-0.2-37.5-0.8-53.8 28.6-104.3 57.1-150.7 84.2 31.5 25.1 53.8 60.9 62.4 102.8 10 49-0.6 97.8-27.7 136.6 273.5-151.3 659.1-325.7 1048.9-325.7 32.7 0 65.3 1.3 97.9 3.8 20.3-70.6 37.5-142.4 51.5-215 3.3-17.2 6.7-34.7 10.1-52.5-54-8-108.3-11.6-162.6-11.6m-1724.4 14.7c-251.7 0-553.2 18-867.5 70 18.1 107.5-111.5 235.2-388.4 235.2-33.8 0-69.7-1.9-107.8-5.9-72.3-7.7-136.9-27.7-194.5-56-205.3 72.1-404.3 163.7-586.9 279.5 28.5 68.9 59.9 136.1 94.3 201.6 657-359.1 1465-451 2036.8-451 168.8 0 317 8 434.7 19.5 36.6-40.9 79.1-77.4 117.8-105.1-66-47.5-90.4-109.8-73.1-164.3-116.8-13.5-277.2-23.5-465.4-23.5" style="fill:#b2909c"/>
    </g>
    <g transform="scale(.14046)">
      <path d="m14410 16050c-242.9 40.3-492.9 99.6-734.8 184.4 61.3 30.1 130 51.4 206.9 59.6 40.5 4.3 78.8 6.3 114.7 6.3 294.6 0 432.5-135.8 413.2-250.3" style="fill:#000072"/>
    </g>
    <g transform="scale(.14426)">
      <path d="m15411 15578c-17.9 56.5 7.3 121 75.7 170.2 11.5-8.2 22.7-15.7 33.3-22.4 58.7-36.4 40.6-126.4-27.7-137-24.2-3.8-51.4-7.4-81.3-10.8m889.4 21.3c-192.5 53.4-374.3 135.1-530.1 216.8l-18.3 9.6c12.6 0.6 25.5 0.9 38.8 0.9 33.2 0 68.8-1.9 106.4-5.9 178.5-19 309.9-114.2 403.2-221.4" style="fill:#000072"/>
    </g>
    <g transform="scale(.15037)">
      <path d="m16198 14919c-3.4 17.7-6.8 35.1-10.1 52.2-13.9 72.2-31 143.5-51.1 213.7 35.1 2.7 70.1 7.1 105.1 13.1 19.1-68.2 35.3-137.3 48.8-207 3.2-16.8 6.4-33.8 9.8-51.4-34-8.7-68.2-15.5-102.5-20.6m-4006.7 522.6c-30.1 19.1-59.8 38.9-88.9 59.4 27.7 65.6 58.2 130 91.5 193.1 30-18 60.3-35.3 91.1-52.1-34.2-65.1-65.5-131.9-93.7-200.4" style="fill:#000072"/>
    </g>
    <g transform="scale(.17895)">
      <path d="m10166 14382s1289.7 1917.7 2785 715.6c989.8-795.7 1344-771.5 1344-771.5s282.7-1183.8-560.4-1444.6c-353-109.2-740.1 38.4-1021.6 186.1-235.2 123.4-396.6 246.7-402.4 220.3-24.3-109.2 111.7-237.6 200.5-293 47.3-29.5 32.7-101.9-22.3-110.5-390.7-60.8-1752.7-86.6-2502.3 604.4l179.5 893.2" style="fill:#94452f"/>
    </g>
    <g transform="scale(.17163)">
      <path d="m14052 13301c-339.4 0-675.1 151.8-913.2 283.5 23.6-33.8 32.9-76.3 24.1-118.9-13-63.8-63-111.5-127.3-121.6-438.7-68.3-1873.5-94.9-2685.3 653.4-37.2 34.3-39.6 92.3-5.3 129.5 34.4 37.2 92.3 39.7 129.6 5.3 724.8-668.2 2024-663.2 2459.6-616.4-103.7 81.8-219.6 217.6-188 359.3 6.7 30.3 27.7 55.6 56.2 67.8 55.4 23.4 94.4-0.4 223.6-79.3 259.7-158.7 800-489.1 1267.3-344.4 680.5 210.4 577.2 1091 534.6 1334.7-165 30.3-580.9 173-1381.9 816.9-389.9 313.4-799.3 440.2-1216.9 376.6-894-135.8-1546.9-1092.9-1553.4-1102.5-28.2-42-85.2-53.2-127.3-25-42 28.3-53.1 85.2-24.8 127.3s705.1 1033.7 1677.9 1181.5c470.6 71.5 927.9-68.1 1359.4-415 966.1-776.8 1334.1-784.3 1340.2-784.3h0.1l77.3 5.3 15.4-75.5c108.9-455.9 113.9-1380.1-646.4-1615.2-97.2-30.1-196.6-43-295.5-43" style="fill:#000072"/>
    </g>
    <g transform="scale(.16258)">
      <path d="m16203 6856.4h-1253.6c-53.5 0-96.8 43.36-96.8 96.82 0 53.45 43.3 96.81 96.8 96.81h1253.6c53.5 0 96.8-43.36 96.8-96.81 0-53.46-43.3-96.82-96.8-96.82" style="fill:#000072"/>
    </g>
    <g transform="scale(.15878)">
      <path d="m10542 15284c-0.6 195.3 17.8 383.9 61.9 556.8 65.6 256.7 241.5 459 547.1 459 68.7 0 144-10.3 226.1-32.4-1-1.5-1.8-2.7-2.3-3.5-5.7-8.4-9.9-17.4-12.7-26.6-76.3 19.4-146.6 28.5-211.1 28.5-305.6 0-481.5-202.4-547.1-459.1-41.5-162.8-60.2-339.5-61.9-522.7" style="fill:#e6f7ff"/>
    </g>
    <g transform="scale(.15845)">
      <path d="m10568 15163c-2.5 51.5-3.9 102.6-4 153.4 1.7 183.5 20.4 360.6 62.1 523.8 65.7 257.2 242 460 548.2 460 64.7 0 135.1-9.1 211.6-28.6-12.3-40.6 2.6-86.2 39.6-111.1 11.2-7.5 23.4-12.5 35.9-15l-32.9-163.8c-93.1 27.7-177.7 40.4-254.2 40.4-306.2 0-482.5-202.8-548.2-460-32.1-125.8-50.5-260-58.1-399.1" style="fill:#caa297"/>
    </g>
    <g transform="scale(.16913)">
      <path d="m15069 14903c-137.6 24-545.2 150.5-1366.6 810.8-150.9 121.4-300.1 212.8-446 278.6 22.4-29.5 34.6-61.3 34.6-94.2 0-159.6-286.1-288.9-639-288.9-353 0-639.1 129.3-639.1 288.9 0 51.7 30 100.4 82.6 142.4-315.8-109.8-591.7-302.8-809.8-495.7-332.3-294.1-529.9-588.1-529.9-588.1-16.7 5.7-33.1 11-49.2 15.8l30.8 153.4c6-1.2 12.1-1.8 18.2-1.8 30 0 59.4 14.4 77.3 41.1 6.6 9.8 669.2 981 1576.3 1118.9 70.9 10.7 141.5 16.1 211.7 16.1 350.4 0 693.7-133.5 1023.1-398.4 812.8-653.4 1234.9-798.2 1402.3-828.9 7.2-40.9 16-99.6 22.7-170" style="fill:#caa297"/>
    </g>
    <g transform="scale(.17043)">
      <path d="m15052 14475c-12.5 182.2-42.9 309.3-42.9 309.3s-1.2-0.1-3.7-0.1c-6.9 0-23.6 0.6-51.1 5.4-6.6 69.9-15.4 128.1-22.5 168.7-166.1 30.5-585 174.2-1391.6 822.6-326.9 262.9-667.6 395.3-1015.3 395.3-69.7 0-139.8-5.3-210.1-16-900.2-136.8-1557.7-1100.6-1564.3-1110.3-17.8-26.5-47-40.8-76.7-40.8-6 0-12.1 0.6-18.1 1.8-11.6 2.3-22.9 6.9-33.4 13.9-34.4 23.2-48.2 65.6-36.8 103.3 2.6 8.7 6.5 17 11.8 24.9 0.5 0.7 1.2 1.8 2.2 3.2 24.2-6.5 49-14.2 74.5-23 0 0 196.1 291.8 525.8 583.7 329.7 291.7 792.9 583.5 1326.6 583.5 334.7 0 697-114.6 1071.7-415.9 979.5-787.3 1366.1-810 1407.3-810 2.6 0 3.7 0.1 3.7 0.1s66.4-277.7 42.9-599.6" style="fill:#8080b9"/>
    </g>
    <g transform="scale(.17163)">
      <path d="m10266 11882c-35.3 0-68.8 20.4-84 54.7-29.8 67.5-726.67 1665.6-460.11 2709.5 50.29 196.8 156.51 343.8 307.21 424.9 148.5 80 328.2 90.5 534.7 31.7 161.4 219.5 786.3 995.7 1638 1125.2 470.6 71.5 927.9-68.1 1359.4-415 966.2-776.8 1334.2-784.3 1340.2-784.3h0.1l77.3 5.3 15.4-75.5c108.9-455.9 113.9-1380.1-646.4-1615.2-430.7-133.2-901.2 70.4-1208.7 240.5 23.6-33.8 32.9-76.3 24.1-118.9-13-63.8-63-111.5-127.3-121.6-438.7-68.3-1873.5-94.9-2685.3 653.4-37.3 34.3-39.6 92.3-5.3 129.5 34.4 37.2 92.3 39.6 129.6 5.3 724.8-668.2 2024-663.2 2459.6-616.4-103.7 81.8-219.6 217.6-188 359.3 6.7 30.3 27.7 55.6 56.2 67.8 55.4 23.4 94.4-0.4 223.6-79.3 259.7-158.7 800-489.1 1267.3-344.4 680.5 210.4 577.2 1091 534.6 1334.7-165 30.3-580.9 173-1381.9 816.9-389.6 313.1-798.8 440-1216.1 376.8-892.7-135.2-1547.7-1093.1-1554.2-1102.8l-39.5-58.4-66.6 23c-184 63.7-336.7 64-453.9 0.9-131.8-70.9-190.47-207-216.4-308.8-250.89-982.3 443.2-2574.1 450.2-2590 20.4-46.4-0.6-100.6-46.9-120.9-12-5.4-24.6-7.9-36.9-7.9" style="fill:#000072"/>
    </g>
    <g transform="scale(.15632)">
      <path d="m16103 5632.5h-5484.8c-108.6 0-196.6 88.02-196.6 196.59 0 108.62 88 196.65 196.6 196.65h5484.8c108.7 0 196.7-88.03 196.7-196.65 0-108.57-88-196.59-196.7-196.59" style="fill:#adb9c4"/>
    </g>
    <g transform="scale(.15535)">
      <path d="m16203 5768.8h-5518.9c-53.3 0-96.6 43.32-96.6 96.62 0 8.11 1.1 15.97 2.9 23.5 27.9-15.07 59.8-23.56 93.7-23.56h5518.9c34 0 65.9 8.49 93.8 23.49 1.8-7.46 2.8-15.38 2.8-23.43 0-53.3-43.3-96.62-96.6-96.62" style="fill:#7981ab"/>
    </g>
    <g transform="scale(.15728)">
      <path d="m10553 5888.8c-52.7 0-95.5-42.79-95.5-95.37 0-52.64 42.8-95.43 95.5-95.43h5451.1c52.6 0 95.4 42.79 95.4 95.43 0 52.58-42.8 95.37-95.4 95.37h-5451.1m5451.1-390.89h-5451.1c-163 0-295.5 132.57-295.5 295.52 0 162.9 132.5 295.46 295.5 295.46h5451.1c163 0 295.5-132.56 295.5-295.46 0-162.95-132.5-295.52-295.5-295.52" style="fill:#000072"/>
    </g>
    <g transform="scale(.15994)">
      <path d="m15812 5889.2h-5507.2c-67.8 0-124.7 50.83-132.5 118.11l-342.84 2990.9c-12.95 113.04 75.4 212.08 189.14 212.08h6079.5c113.8 0 202.1-99.04 189.2-212.08l-343-2990.9c-7.7-67.28-64.6-118.11-132.3-118.11" style="fill:#adb9c4"/>
    </g>
    <g transform="scale(.13268)">
      <path d="m15832 8512.6c-258.7 0-468.5 209.83-468.5 468.58 0 258.74 209.8 468.49 468.5 468.49 258.8 0 468.5-209.75 468.5-468.49 0-258.75-209.7-468.58-468.5-468.58" style="fill:#d6dce2"/>
    </g>
    <g transform="scale(.10015)">
      <path d="m16300 9473c-29.4 31.65-49.3 72.29-55 117.82 5.8-45.53 25.7-86.17 55-117.82" style="fill:#1f43b6"/>
    </g>
    <g transform="scale(.1571)">
      <path d="m16243 6209.8 57.3 500.05-57.3-500.05" style="fill:#2d60d4"/>
    </g>
    <g transform="scale(.15655)">
      <path d="m16288 6129.5c0.4 2.62 0.8 5.24 1 7.86l10.9 94.34-10.9-94.41c-0.2-2.62-0.6-5.17-1-7.79" style="fill:#1f43b6"/>
    </g>
    <g transform="scale(.10018)">
      <path d="m16300 9465.1c-1.6 1.69-3.3 3.39-4.9 5.09 1.6-1.7 3.3-3.4 4.9-5.09" style="fill:#000072"/>
    </g>
    <g transform="scale(.15994)">
      <path d="m15812 5889.3h-5507.4c-36.7 0-70.3 14.94-94.6 39.39-1 1.06-2 2.13-3 3.19-18.3 19.82-30.9 45.26-34.5 73.78 0 0.56-0.2 1.12-0.2 1.62l-11.8 103.23-22.9 198.95h5475.2c67.8 0 124.8 50.83 132.3 118.04l287.1 2502.4h43.8c74.5 0 138.1-42.45 169.3-103.42l19.8 171.95c12.9 112.85-75.4 211.89-189.1 211.89h-11.6 33.7c113.7 0 202-99.04 189.1-211.89l-276-2407.5-56.3-491.19-10.6-92.35c-0.3-2.56-0.6-5.12-1.1-7.69-11.1-63.33-66.2-110.35-131.2-110.35" style="fill:#7981ab"/>
    </g>
    <path d="m1571.7 1411.7-3.16 27.5c-2.07 18.05 12.05 33.89 30.23 33.89h2.58c-17.72-0.55-31.32-16.15-29.28-33.91l2.61-22.79c-1.13-1.46-2.13-3.03-2.98-4.69" style="fill:#a0c4ff"/>
    <g transform="scale(.15763)">
      <path d="m9990 8985.7-16.56 144.58c-12.94 112.67 73.32 211.64 185.72 215.13h6140.8l-32.7-284.53h-6124.4c-62.7 0-117.8-29.7-152.86-75.18" style="fill:#d6dce2"/>
    </g>
    <g transform="scale(.15972)">
      <path d="m16267 8838.4c-31.2 61.05-94.9 103.56-169.5 103.56h-43.8l32.2 280.8h11.6c113.8 0 202.3-99.18 189.3-212.18l-19.8-172.18" style="fill:#bcc0d5"/>
    </g>
    <g transform="scale(.16086)">
      <path d="m9960.8 9059.6c-26.42 0-50.67-10.82-68.26-30.52-17.59-19.77-25.61-45.07-22.63-71.31l340.94-2973.8c2-17.46 16.8-30.7 34.5-30.7h5475.5c17.6 0 32.5 13.24 34.5 30.7l341 2973.8c2.9 26.24-5.1 51.54-22.7 71.31-17.6 19.7-41.8 30.52-68.2 30.52zm5760-3302h-5475.5c-117.1 0-215.5 87.72-228.9 204.09l-340.86 2973.8c-9.33 81.25 16.53 162.81 70.93 223.79 54.39 61.05 132.53 96.04 214.28 96.04h6044.6c81.7 0 159.8-34.99 214.2-96.04 54.4-60.98 80.3-142.54 71-223.79l-340.9-2973.8c-13.4-116.37-111.7-204.09-228.9-204.09" style="fill:#000072"/>
    </g>
    <path d="m1541.7 962.91c0-32.88-22.71-59.53-50.73-59.53-28.03 0-50.74 26.65-50.74 59.53s22.71 59.54 50.74 59.54c28.02 0 50.73-26.66 50.73-59.54" style="fill:#ffcfae"/>
    <path d="m1491 1006.7c-19.3 0-35.01-19.65-35.01-43.8s15.71-43.79 35.01-43.79 35 19.64 35 43.79-15.7 43.8-35 43.8m0-119.07c-36.66 0-66.48 33.77-66.48 75.27 0 41.51 29.82 75.28 66.48 75.28 36.65 0 66.47-33.77 66.47-75.28 0-41.5-29.82-75.27-66.47-75.27" style="fill:#000072"/>
    <path d="m1448.1 880.83h-216.02c-12.1 0-21.92 9.81-21.92 21.92 0 71.75 58.17 129.92 129.93 129.92 71.75 0 129.92-58.17 129.92-129.92 0-12.11-9.81-21.92-21.91-21.92" style="fill:#adb9c4"/>
    <path d="m1340.1 1016.9c-62.97 0-114.19-51.22-114.19-114.18 0-3.41 2.77-6.18 6.18-6.18h216.02c3.41 0 6.18 2.77 6.18 6.18 0 62.96-51.23 114.18-114.19 114.18m108.01-151.84h-216.02c-20.76 0-37.65 16.89-37.65 37.66 0 80.31 65.34 145.65 145.66 145.65s145.66-65.34 145.66-145.65c0-20.77-16.89-37.66-37.65-37.66" style="fill:#000072"/>
    <path d="m1149.7 942.13c10.7-11.53 42.08-36.23 107.86-1.87 65.78 34.35 143.9 42.13 169.3 44.05 40.2 3.04 72.14 22.2 61.88 69.49-10.17 46.9-71.71 90.54-159.12 88.78-177.25-3.59-219.55-157.74-179.92-200.45" style="fill:#ffcfae"/>
    <path d="m1186 923.48c-17.75 2.59-28.85 11.13-34.89 17.22 6.04-6.09 17.14-14.63 34.89-17.22" style="fill:#a3bee3"/>
    <path d="m1490.7 1038.2c-0.09 4.79-0.7 9.95-1.9 15.49-0.01 0.04-0.02 0.08-0.03 0.13 1.22-5.59 1.84-10.79 1.93-15.62m-1.96 15.76v0.03-0.03m-0.03 0.14c0 0.01 0 0.02-0.01 0.03 0.01-0.01 0.01-0.02 0.01-0.03m-0.03 0.15v0.01-0.01" style="fill:#336ee3"/>
    <path d="m1197 922.71c-3.89 0-7.54 0.28-10.94 0.77-17.75 2.59-28.85 11.13-34.89 17.22-0.49 0.49-0.95 0.97-1.38 1.43 0.55-0.59 1.16-1.22 1.82-1.87-1.41 13.53 0.17 29.15 5.08 45.28 5.82-1.73 12.57-2.83 20.32-2.83 15.78 0 35.75 4.54 60.64 17.55 65.78 34.35 143.9 42.13 169.29 44.05 25.87 1.95 48.3 10.59 58.28 29.09 9.82-7.31 18.01-15.47 24.38-24.14-0.24 1.47-0.42 2.89-0.74 4.41 1.2-5.54 1.81-10.7 1.9-15.49 0-0.27 0.01-0.55 0.01-0.82 0.21-35.38-28.65-50.39-63.83-53.05-25.39-1.92-103.51-9.7-169.29-44.05-24.9-13.01-44.86-17.55-60.65-17.55m-47.33 19.55c-0.01 0.02-0.02 0.03-0.03 0.04 0.01-0.01 0.02-0.03 0.03-0.04m-0.12 0.14-0.03 0.03 0.03-0.03m-0.13 0.13c0 0.01-0.01 0.02-0.02 0.03 0.01-0.01 0.02-0.02 0.02-0.03m-0.12 0.14c0 0.01-0.01 0.02-0.02 0.02l0.02-0.02m-0.13 0.14v0.01-0.01" style="fill:#cca6a2"/>
    <path d="m1351.2 1142.1c-5.36 0.36-10.84 0.55-16.42 0.55-1.59 0-3.17-0.02-4.77-0.05 1.6 0.03 3.19 0.05 4.77 0.05 5.58 0 11.06-0.19 16.42-0.55" style="fill:#e6f7ff"/>
    <path d="m1488.8 1053.8c-0.01 0.04-0.02 0.09-0.03 0.14 0.01-0.05 0.02-0.1 0.03-0.14m-0.03 0.17c-0.01 0.04-0.02 0.07-0.03 0.11 0.01-0.04 0.02-0.07 0.03-0.11m-0.04 0.14c0 0.04-0.01 0.08-0.02 0.12 0.01-0.04 0.02-0.08 0.02-0.12m-0.02 0.13c-0.1 0.45-0.21 0.89-0.32 1.34-8.77 35.77-47.34 69.32-104.32 81.86 57.69-12.69 96.51-46.93 104.64-83.2" style="fill:#a0c4ff"/>
    <path d="m1384 1137.4c-0.46 0.1-0.92 0.2-1.38 0.3 0.46-0.1 0.92-0.2 1.38-0.3" style="fill:#d0e2ff"/>
    <path d="m1382.7 1137.7c-9.96 2.12-20.47 3.6-31.47 4.34 11-0.74 21.51-2.22 31.47-4.34" style="fill:#8080b9"/>
    <path d="m1149.7 942.13c-0.04 0.05-0.08 0.09-0.12 0.13 0.04-0.04 0.08-0.08 0.12-0.13m-0.15 0.17c-0.03 0.03-0.06 0.06-0.09 0.1 0.03-0.03 0.06-0.07 0.09-0.1m-0.12 0.13c-0.03 0.04-0.06 0.07-0.1 0.1 0.03-0.03 0.07-0.06 0.1-0.1m-0.12 0.13c-0.03 0.04-0.07 0.07-0.1 0.11 0.03-0.04 0.07-0.07 0.1-0.11m-0.12 0.13c-0.03 0.04-0.07 0.08-0.11 0.12 0.04-0.04 0.08-0.08 0.11-0.12m-0.11 0.13c-38.56 43.65 4.23 196.19 180.54 199.76h0.35c1.6 0.03 3.18 0.05 4.77 0.05 5.58 0 11.06-0.19 16.42-0.55 11-0.74 21.51-2.22 31.47-4.34 0.46-0.1 0.92-0.2 1.38-0.3 56.98-12.54 95.55-46.09 104.32-81.86-2.9 11.84-9.1 23.42-18.12 34.1-0.77-6.11-2.51-11.52-5.08-16.28-27.34 20.39-67.26 34.23-115.4 34.23-1.69 0-3.4-0.02-5.11-0.06-112.68-2.27-170.8-65.38-188.02-122.03-8.56 2.54-15.13 6.45-19.99 10.25-2.2-22.1 2.24-41.38 12.47-52.97" style="fill:#ffe7d7"/>
    <path d="m1488.8 1053.7c-0.01 0.04-0.02 0.08-0.03 0.13-0.12 0.59-0.26 1.18-0.41 1.78 0.11-0.45 0.22-0.89 0.32-1.34v-0.01c0.01-0.04 0.02-0.08 0.02-0.12 0.01-0.01 0.01-0.02 0.01-0.03 0.01-0.04 0.02-0.07 0.03-0.11v-0.03c0.01-0.05 0.02-0.1 0.03-0.14 0.01-0.05 0.02-0.09 0.03-0.13" style="fill:#99b7f1"/>
    <path d="m1151.6 940.26c-0.66 0.65-1.27 1.28-1.82 1.87-0.04 0.05-0.08 0.09-0.12 0.13-0.01 0.01-0.02 0.03-0.03 0.04-0.03 0.03-0.06 0.07-0.09 0.1l-0.03 0.03c-0.03 0.04-0.07 0.07-0.1 0.1 0 0.01-0.01 0.02-0.02 0.03-0.03 0.04-0.07 0.07-0.1 0.11l-0.02 0.02c-0.03 0.04-0.07 0.08-0.11 0.12v0.01c-10.23 11.59-14.67 30.87-12.47 52.97 4.86-3.8 11.43-7.71 19.99-10.25-4.91-16.13-6.49-31.75-5.08-45.28m337.99 109c-6.37 8.67-14.56 16.83-24.38 24.14 2.57 4.76 4.31 10.17 5.08 16.28 9.02-10.68 15.22-22.26 18.12-34.1 0.15-0.6 0.29-1.19 0.41-1.78 0.01-0.05 0.02-0.09 0.03-0.13 0.32-1.52 0.5-2.94 0.74-4.41" style="fill:#e6d3d1"/>
    <path d="m1161.3 952.84c18.2-19.61 49.82-19.13 89.05 1.37 63.38 33.1 137.09 42.9 175.39 45.79 20.79 1.57 36.26 7.82 43.56 17.6 5.79 7.77 7.18 18.83 4.14 32.86-8.31 38.27-61.35 78.03-143.43 76.38-118.9-2.4-159.1-75.53-168.58-97.89-14.58-34.35-11.1-64.29-0.13-76.11zm35.86-45.74c-31.57 0-50.43 15.18-58.92 24.33-21.5 23.17-23.82 67.3-5.78 109.82 30.3 71.42 103.91 115.18 196.91 117.06 99.88 2.01 163.58-49.37 174.82-101.18 5.06-23.33 1.81-42.95-9.67-58.34-13-17.44-35.96-27.87-66.41-30.17-28.89-2.19-102.63-10.68-163.19-42.31-27.11-14.16-49.55-19.21-67.76-19.21" style="fill:#000072"/>
    <path d="m1353.8 1157.6c20.2 1.33 40.34 1.03 60.53 0.36 22.25-0.95 44.27-6.5 63.95-16.26 10.01-4.52 19.09-10.79 27.88-17.08 4.17-3.5 8.54-6.67 12.32-10.56l5.78-5.62 5.4-5.97c6.98-8.1 13.23-16.76 18.23-26.04l3.72-6.93 3.17-7.18c1.09-2.36 2.05-4.78 2.83-7.27l1.24-3.69 0.62-1.83 0.31-0.92 0.15-0.45 0.08-0.23 0.04-0.12 0.01-0.05c-0.9-0.44 2.06 0.9-2.02-1-4.09-1.86-1.15-0.49-2.08-0.89l-0.03 0.05-0.07 0.09-0.13 0.2-0.27 0.39-0.55 0.77-1.08 1.54-2.15 3.07c-1.42 2.04-2.81 4.08-4.42 5.99l-4.57 5.8-4.88 5.5c-3.13 3.72-6.84 6.94-10.15 10.4-3.68 3.14-7.14 6.45-11 9.29-7.32 6.11-15.6 10.86-23.63 15.58-8.35 4.25-16.79 8.15-25.59 10.94-17.45 6.05-35.75 8.08-53.72 8.35-20.11 0-40.28 0.32-60.39 2.3h-0.03c-8.68 0.86-15.02 8.58-14.17 17.26 0.77 7.8 7.09 13.72 14.67 14.21" style="fill:#000072"/>
    <path d="m1379.3 1091.4c7.78-6.75 14.23-14.53 20.21-22.83 5.84-8.35 11.01-17.3 15.25-26.89 4.1-9.63 7.51-19.91 8.93-30.83 1.21-10.94 0.61-22.58-3.22-33.54-2.77-7.95-11.47-12.15-19.42-9.37-6.25 2.18-10.18 8.02-10.23 14.28l-0.01 1.69c-0.05 8 0.25 15.75-0.02 24.07-0.54 8.28-1.01 16.97-2.29 25.87-2.73 17.79-7.46 36.18-12.81 55.14l-0.03 0.1c-0.34 1.2 0.36 2.44 1.55 2.78 0.75 0.21 1.53 0.01 2.09-0.47" style="fill:#000072"/>
    <path d="m1299.6 1074.9c6.44-7.52 12-15.45 17.38-23.5 5.28-8.09 10.26-16.34 14.87-24.79 4.58-8.46 9.07-17.01 12.58-25.99 3.49-8.98 6.45-18.25 7.75-28.06 1.11-8.42-4.81-16.15-13.23-17.26-6.69-0.88-12.94 2.67-15.79 8.39l-0.13 0.29c-4.09 8.25-7.05 16.89-9.76 25.71-2.77 8.81-4.83 17.94-6.99 27.09-4.27 18.32-8.3 36.91-10.66 56.37-0.15 1.24 0.73 2.38 1.98 2.53 0.77 0.09 1.52-0.23 2-0.78" style="fill:#000072"/>
    <path d="m1221.8 1029.2c6.7-5.5 12.57-11.52 18.27-17.7 5.6-6.24 10.94-12.68 15.92-19.38 4.95-6.72 9.84-13.55 13.77-20.96 3.92-7.41 7.34-15.2 9.11-23.77 1.72-8.34-3.65-16.5-11.99-18.22-6.34-1.31-12.58 1.48-15.96 6.55l-0.29 0.44c-4.29 6.48-7.56 13.47-10.63 20.69-3.12 7.21-5.62 14.82-8.22 22.45-5.16 15.31-10.19 30.92-13.68 47.64-0.27 1.24 0.52 2.47 1.77 2.73 0.7 0.15 1.41-0.05 1.93-0.47" style="fill:#000072"/>
    <g transform="scale(.13307)">
      <path d="m16211 15513c-48.9 0-88.6 39.7-88.6 88.6 0 15.8-4 36.4-35.2 56.2-29.7 18.9-73.4 29.7-119.9 29.7-60 0-155.1-23.3-155.1-85.9 0-48.9-39.7-88.6-88.6-88.6-49 0-88.6 39.7-88.6 88.6 0 152.6 139.7 263.2 332.3 263.2 192.5 0 332.3-110.6 332.3-263.2 0-48.9-39.7-88.6-88.6-88.6" style="fill:#000072"/>
    </g>
    <g transform="scale(.13647)">
      <path d="m14333 16127c-503.7 0-913.4-409.8-913.4-913.4s409.7-913.4 913.4-913.4 913.4 409.8 913.4 913.4-409.7 913.4-913.4 913.4zm0-1999.6c-598.9 0-1086.2 487.2-1086.2 1086.2s487.3 1086.2 1086.2 1086.2 1086.2-487.2 1086.2-1086.2-487.3-1086.2-1086.2-1086.2" style="fill:#000072"/>
    </g>
    <g transform="scale(.1493)">
      <path d="m15338 14715c-445.8 0-808.5-362.6-808.5-808.5 0-445.8 362.7-808.5 808.5-808.5s808.5 362.7 808.5 808.5c0 445.9-362.7 808.5-808.5 808.5zm0-1770c-530.2 0-961.6 431.4-961.6 961.5 0 530.2 431.4 961.5 961.6 961.5 530.1 0 961.5-431.3 961.5-961.5 0-530.1-431.4-961.5-961.5-961.5" style="fill:#000072"/>
    </g>
    <g transform="scale(.12924)">
      <path d="m14099 16133h-593.4c-46.2 0-83.6 37.5-83.6 83.7s37.4 83.6 83.6 83.6h593.4c46.2 0 83.7-37.4 83.7-83.6s-37.5-83.7-83.7-83.7" style="fill:#000072"/>
    </g>
    <g transform="scale(.15367)">
      <path d="m16230 13568h-467.9c-38.9 0-70.4 31.5-70.4 70.4 0 38.8 31.5 70.3 70.4 70.3h467.9c38.8 0 70.3-31.5 70.3-70.3 0-38.9-31.5-70.4-70.3-70.4" style="fill:#000072"/>
    </g>
    <path d="m1335.6 865.09c-8.69 0-15.73 7.05-15.73 15.74v82.08c0 8.69 7.04 15.74 15.73 15.74s15.74-7.05 15.74-15.74v-82.08c0-8.69-7.05-15.74-15.74-15.74" style="fill:#000072"/>
    <g transform="scale(.13353)">
      <path d="m15225 15369c-53.8-377.7-337.1-612.5-632.9-524.6-295.6 88-491.7 465.5-437.9 843.2 53.8 377.6 337.1 612.4 632.9 524.5 295.6-88 491.8-465.5 437.9-843.1" style="fill:#000072"/>
    </g>
    <g transform="scale(.13051)">
      <path d="m15356 16054c11-136.4-46.8-248.4-129.3-250-82.4-1.6-158.1 107.7-169.2 244.3-11 136.4 46.8 248.4 129.2 250 82.5 1.6 158.2-107.8 169.3-244.3" style="fill:#ffffff"/>
    </g>
    <g transform="scale(.12646)">
      <path d="m15335 16170c2-70.7-30.7-127.5-73.2-126.9-42.4 0.6-78.5 58.5-80.5 129.2-2.1 70.7 30.6 127.5 73.1 126.9 42.5-0.7 78.5-58.5 80.6-129.2" style="fill:#ffffff"/>
    </g>
    <g transform="scale(.14539)">
      <path d="m15267 14115c49.4-346.8 309.6-562.4 581.2-481.7 271.6 80.8 451.7 427.5 402.2 774.3-49.4 346.9-309.6 562.5-581.2 481.8-271.6-80.9-451.7-427.5-402.2-774.4" style="fill:#000072"/>
    </g>
    <g transform="scale(.14042)">
      <path d="m16012 14921c-10.3-126.8 43.5-230.9 120.1-232.3 76.6-1.5 147 100.1 157.3 227 10.3 126.8-43.5 230.8-120.1 232.3s-147-100.2-157.3-227" style="fill:#ffffff"/>
    </g>
    <g transform="scale(.14314)">
      <path d="m16162 14285c-1.8-62.5 27.1-112.7 64.6-112.2 37.5 0.6 69.4 51.7 71.2 114.2 1.8 62.4-27.1 112.6-64.6 112.1-37.6-0.6-69.4-51.7-71.2-114.1" style="fill:#ffffff"/>
    </g>
    <g transform="scale(.13533)">
      <path d="m15002 14204c0-145.9 45.9-301.2 138.7-426.3 107.5-146.2 277.5-250.7 510-250.7 192.5 0 368.7 103.9 488.9 252.3 99.3 122.2 159.9 274.9 159.9 424.7 0 162.5-70 164.8-183.7 124.8-42-14.4-90.2-35.2-143-55.4-94.7-36.5-204.5-72.3-322.1-72.3-123.4 0-238.7 38.4-336.7 75.9-54.4 20.8-103.9 41-145.9 54.4-103.6 32.2-166.1 22.4-166.1-127.4" style="fill:#000072"/>
    </g>
    <g transform="scale(.13419)">
      <path d="m15280 14370c0-125.4 116-249.4 284.3-265.3 168.2-15.9 253.2-15.9 421.4 0 190.7 18 314.3 174.7 278.2 315.1-2.6 10.2-6 20.6-10.3 30.4-42.5-14.6-91-35.6-144.2-55.8-95.7-36.9-206.4-72.9-324.9-72.9-124.6 0-240.9 38.6-339.6 76.4-55 21-104.7 41.6-147.2 55-4.8-10.8-8.2-21.5-11.2-33.1-4.3-16.4-6.5-33-6.5-49.8" style="fill:#ffffff"/>
    </g>
    <g transform="scale(.13394)">
      <path d="m15308 14397c0-125.6 116.2-249.9 284.8-265.8 84.3-7.9 147.6-11.9 211.1-11.9s126.8 4 211.1 11.9c168.7 16 285 140.3 285 266 0 16.6-2.1 33.3-6.3 49.7-2.6 10.4-6 20.7-10.3 30.5-42.6-14.6-91.2-35.7-144.5-55.9-95.9-37-206.8-73.1-325.5-73.1-124.8 0-241.3 38.8-340.2 76.5-55.1 21.2-104.9 41.8-147.5 55.1-4.8-10.7-8.2-21.5-11.2-33.1-4.3-16.4-6.5-33.1-6.5-49.9 0 16.8 2.2 33.5 6.5 49.9 3 11.6 6.4 22.4 11.2 33.1 42.6-13.3 92.4-33.9 147.5-55.1 98.9-37.7 215.4-76.5 340.2-76.5 118.7 0 229.6 36.1 325.5 73.1 53.3 20.2 101.9 41.3 144.5 55.9 4.3-9.8 7.7-20.2 10.3-30.5 4.2-16.4 6.3-33.1 6.3-49.7 0-125.7-116.3-250-285-266-84.3-7.9-147.6-11.9-211.1-11.9s-126.8 4-211.1 11.9c-168.6 15.9-284.8 140.2-284.8 265.8" style="fill:#000072"/>
    </g>
    <g transform="scale(.13401)">
      <path d="m15291 13914c108.6-147.7 280.2-253.2 515.1-253.2 194.4 0 372.3 104.9 493.7 254.8-85.5 54.6-341.8 127-457.8 29.6-36.2-30.6-45.1-88.8-45.1-88.8s-8.9 58.2-45.4 88.8c-117.4 98.4-377.6 23.7-460.5-31.2" style="fill:#ff4aa1"/>
    </g>
    <g transform="scale(.13412)">
      <path d="m15298 13899c85-110.4 238.3-236.2 495.4-236.2 174.1 0 345.8 86.6 473.3 238-90.5 49.6-323.8 111.3-429 23-31.7-26.8-40.3-80-40.4-80.6-2-12.9-24.1-12.9-26.1 0-0.1 0.5-8.6 53.8-40.8 80.6-104 87.2-339.8 28.3-432.4-24.8zm495.4-262.5c-277.1 0-438.5 140.5-525.3 258.4-2 2.9-2.9 6.6-2.3 10.1 0.6 3.6 2.7 6.7 5.7 8.7 83 55 352.5 133.7 475.8 30.4 17.6-14.7 29.3-34.8 36.9-52.8 7.6 18 19.1 38 36.5 52.7 122.3 102.4 387.1 26.4 473.1-28.6 3.2-2 5.3-5.2 5.9-9 0.6-3.6-0.4-7.4-2.8-10.3-133.4-165-316.9-259.6-503.5-259.6" style="fill:#390075"/>
    </g>
    <g transform="scale(.13592)">
      <path d="m15017 14213c0.5-0.5-9.1-15.8-9.1-70.3 0-292.6 201.5-603.5 575.1-603.5 323.9 0 575 324.4 575 603.5 0 61.6-11.5 75.6-11.6 75.7-0.3-0.6-16.5 2.8-76.7-18.3-24.4-8.4-50.3-18.8-78-29.9-20.1-8-41-16.4-62.8-24.7-98.1-37.8-216.2-76.6-345.9-76.6-133.2 0-257 40.5-360.5 80.1l-42 16.3c-36.3 14.2-70.6 27.5-99.2 36.5-47.5 14.9-61.9 11.9-64.3 11.2zm566-815.3c-465.5 0-716.6 383.8-716.6 745 0 57.9 7 140.3 67.9 185.1 57.8 42.4 131.5 27.1 189.3 9.1 33.3-10.4 69.7-24.7 108.3-39.8l41.2-15.9c96-36.8 200.1-70.8 309.9-70.8 106.5 0 209 34 295.3 67.3 21.4 8.1 41.5 16.2 60.9 24 30 11.9 58.1 23.1 84 32 67.5 23.8 145.1 42.5 205.8-0.5 63.3-44.8 70.6-130.2 70.6-190.5 0-351.7-306.4-745-716.6-745" style="fill:#000072"/>
    </g>
    <g transform="scale(.13202)">
      <path d="m16300 9108.1c0-260.04-210.8-470.85-470.8-470.85-260.1 0-470.9 210.81-470.9 470.85 0 260.05 210.8 470.85 470.9 470.85 260 0 470.8-210.8 470.8-470.85" style="fill:#000072"/>
    </g>
    <path d="m1491 919.12c-2.11 0-4.16 0.23-6.16 0.68-1.54 13.13-4.84 25.73-9.64 37.57 4.97-1.56 9.33-2.26 13.17-2.26 22.33 0 26.8 23.64 27.37 38.75 6.34-7.93 10.26-18.88 10.26-30.95 0-24.15-15.7-43.79-35-43.79" style="fill:#cca6a2"/>
    <path d="m1485.8 904.63c-0.07 5.12-0.4 10.18-0.98 15.17 2-0.45 4.05-0.68 6.16-0.68 19.3 0 35 19.64 35 43.79 0 12.07-3.92 23.02-10.26 30.95 0.27 7.11-0.32 12.33-0.32 12.33l20.4-15.39 5.08-17.05-7.93-44.28-23.14-18.29-24.01-6.55" style="fill:#000072"/>
    <path d="m1481.2 903.38-11.15 29.41-8.11 30.12c4.82-2.46 9.21-4.28 13.22-5.54 4.8-11.84 8.1-24.44 9.64-37.57 0.58-4.99 0.91-10.05 0.98-15.17l-4.58-1.25" style="fill:#000072"/>
    <g transform="scale(.21321)">
      <path d="m2485.8 4113.1c287.28 42.5 574.56 52.68 861.84 57.88 287.28 5.91 574.56 2.77 861.84-0.42l430.92-2.58 430.92-0.14h9480.2l430.9 0.14 215.5 1.97 215.4 3.42c143.7 1.74 287.3-0.98 430.9-7.87 143.7-8.87 287.3-21.35 431-52.4 15.1-3.23 24.7-18.15 21.4-33.25-2.4-11.07-11-19.18-21.4-21.43-143.7-31.05-287.3-43.53-431-52.39-143.6-6.9-287.2-9.67-430.9-7.89l-215.4 3.43-215.5 1.97-430.9 0.14h-9480.2l-430.92-0.19-430.92-2.53c-287.28-3.24-574.56-6.33-861.84-0.47-287.28 5.25-574.56 15.43-861.84 57.93-15.11 2.2-25.55 16.27-23.32 31.37 1.83 12.34 11.58 21.58 23.32 23.31" style="fill:#000072"/>
    </g>
    <g transform="scale(.19836)">
      <path d="m16208 5729.8c-28.5 0-56.2 15.23-70.8 42.05l-401.9 736.3c-21.4 39.12-7 88.08 32.1 109.45 39.1 21.33 88.1 6.96 109.5-32.16l401.9-736.31c21.3-39.12 6.9-88.07-32.2-109.45-12.3-6.7-25.5-9.88-38.6-9.88" style="fill:#000072"/>
    </g>
    <g transform="scale(.2027)">
      <path d="m16300 6333.6-14.2-184.72-141.7-1834.1h-1143.7l-141.7 1834.1-14.2 184.72h1455.5" style="fill:#ffffff"/>
    </g>
    <g transform="scale(.20286)">
      <path d="m15000 4323.5h1119.9l153.9 1992.5h-1427.7l153.9-1992.5m1142.8-24.65h-1165.7l-157.6 2041.8h1480.9l-157.6-2041.8" style="fill:#000072"/>
    </g>
    <g transform="scale(.20237)">
      <path d="m16159 4334.1h-1122.7l-24.3 314.39h630.1c201.2 0 373.3 133.12 429.1 318.78h136.7l-48.9-633.17m122.8 1590.5h-126.4l18.1 234.28h126.4l-18.1-234.28" style="fill:#b2b2d4"/>
    </g>
    <g transform="scale(.20252)">
      <path d="m16158 4318.5h-1144.6l-141.8 1835.7h11.5l18.1-234.1h-11.5l73.9-956.6h11.5l24.6-318.54h0.8l24.3-314.14h1121.8l48.9 632.68h12.3l31.7 409.79-81.5-1054.8m123.7 1601.6h-12.4l18.1 234.1h12.4l-18.1-234.1" style="fill:#000072"/>
    </g>
    <g transform="scale(.20096)">
      <path d="m16287 6201.9h-1287l-13.5 173.86h1313.9l-13.4-173.86" style="fill:#b2b2d4"/>
    </g>
    <g transform="scale(.20268)">
      <path d="m16287 6149.2h-0.1l13.3 172.38-13.2-172.38m-1414.7 0h-0.9l-13.3 172.38h0.8l13.4-172.38m-12.4 0h-0.1l-13.2 172.38 13.3-172.38" style="fill:#000072"/>
    </g>
    <g transform="scale(.20253)">
      <path d="m16287 6153.9h-126.3l13.3 172.52h126.3l-13.3-172.52" style="fill:#7c7cb6"/>
    </g>
    <g transform="scale(.20268)">
      <path d="m16287 6149.2h-12.4l13.4 172.38h12.3l-13.3-172.38m-1415.5 0h-11.5l-13.3 172.38h11.5l13.3-172.38" style="fill:#000072"/>
    </g>
    <g transform="scale(.2053)">
      <path d="m16188 6253.2h-1626.6c-61.9 0-112 50.17-112 112.03v134.88c0 61.91 50.1 112.08 112 112.08h1626.6c61.8 0 112-50.17 112-112.08v-134.88c0-61.86-50.2-112.03-112-112.03" style="fill:#26ba02"/>
    </g>
    <g transform="scale(.20546)">
      <path d="m14551 6595.1c-55.1 0-99.9-44.77-99.9-99.82v-134.78c0-55.05 44.8-99.78 99.9-99.78h1625.3c55 0 99.8 44.73 99.8 99.78v134.78c0 55.05-44.8 99.82-99.8 99.82h-1625.3m1625.3-358.71h-1625.3c-68.5 0-124.2 55.68-124.2 124.11v134.78c0 68.48 55.7 124.16 124.2 124.16h1625.3c68.4 0 124.1-55.68 124.1-124.16v-134.78c0-68.43-55.7-124.11-124.1-124.11" style="fill:#000072"/>
    </g>
    <g transform="scale(.20515)">
      <path d="m16300 6458.4c-13.6 21.01-37.1 34.95-64 34.95h-1699.7c-26.8 0-50.4-13.9-64-34.91v46.51c0 36.9 20.1 69.17 50 86.47 4.5 0.88 9.2 1.32 14 1.32h1699.7c4.9 0 9.6-0.44 14.1-1.32 29.9-17.3 49.9-49.57 49.9-86.47v-46.55" style="fill:#93dd81"/>
    </g>
    <g transform="scale(.2053)">
      <path d="m14450 6412.3v99.31c0 37.26 26.7 68.29 62 74.87-29.9-17.29-49.9-49.54-49.9-86.41v-46.47c-2.6-3.95-4.7-8.14-6.5-12.52-3.7 8.91-5.6 18.61-5.6 28.84v-57.62m1844.9 28.78c-1.8 4.38-4 8.53-6.5 12.47v46.52c0 36.87-20 69.12-49.9 86.41 35.3-6.63 62-37.61 62-74.87v-41.69c0-10.23-2-19.93-5.6-28.84" style="fill:#8080b9"/>
    </g>
    <g transform="scale(.20524)">
      <path d="m14503 6260c-20.4 7.65-36.6 23.83-44.3 44.24 10.7-18.27 26-33.52 44.3-44.24m1752.6 0c18.2 10.72 33.5 25.92 44.2 44.1-7.7-20.27-23.9-36.4-44.2-44.1" style="fill:#8ea6d4"/>
    </g>
    <g transform="scale(.20515)">
      <path d="m16200 6270h-1627.8c-55.1 0-100 44.79-100 99.92v63.47c13.6-21.01 37.2-34.9 64-34.9h1699.7c26.9 0 50.4 13.89 64 34.95v-63.52c0-55.13-44.8-99.92-99.9-99.92" style="fill:#1b8224"/>
    </g>
    <g transform="scale(.2053)">
      <path d="m16224 6253.2h-1698.5c-9.4 0-18.5 1.71-26.8 4.87-18.3 10.72-33.5 25.97-44.3 44.23-3.2 8.38-4.9 17.54-4.9 27.08v82.96c0 10.17 1.9 19.92 5.6 28.78 1.8-4.38 3.9-8.57 6.5-12.47v-63.42c0-55.09 44.8-99.85 99.9-99.85h1626.5c55.1 0 99.9 44.76 99.9 99.85v63.47c2.5 3.9 4.7 8.09 6.5 12.42 3.6-8.86 5.6-18.61 5.6-28.78v57.62-140.58c0-9.59-1.8-18.8-5-27.22-10.7-18.17-26-33.37-44.2-44.09-8.3-3.16-17.4-4.87-26.8-4.87" style="fill:#000072"/>
    </g>
    <g transform="scale(.2053)">
      <path d="m16300 6412.3c0 10.17-2 19.92-5.6 28.78 3.6 8.91 5.6 18.61 5.6 28.84v-57.62m-1850.5 0v57.62c0-10.23 1.9-19.93 5.6-28.84-3.7-8.86-5.6-18.61-5.6-28.78" style="fill:#5959a4"/>
    </g>
    <g transform="scale(.20278)">
      <path d="m16300 6694.5h-1467.8v36.69c0 136.95 111 248 248 248h971.8c137 0 248-111.05 248-248v-36.69" style="fill:#26ba02"/>
    </g>
    <g transform="scale(.20293)">
      <path d="m14833 6701.8h1442.1v24.34c0 129.85-105.7 235.5-235.5 235.5h-971.1c-129.9 0-235.5-105.65-235.5-235.5v-24.34m1466.7-24.64h-1491.3v48.98c0 143.45 116.6 260.14 260.1 260.14h971.1c143.4 0 260.1-116.69 260.1-260.14v-48.98" style="fill:#000072"/>
    </g>
    <g transform="scale(.20277)">
      <path d="m14833 6811.3c5.3 89.95 77.3 162 167.2 167.57-79.1-25.79-141.6-88.47-167.2-167.57m1467.3 0.1c-25.6 79.1-88.2 141.68-167.2 167.47 89.8-5.62 161.8-77.57 167.2-167.47" style="fill:#e6f7ff"/>
    </g>
    <g transform="scale(.20262)">
      <path d="m16300 6751.7c-26.4 65.94-90.9 112.43-166.1 112.43h-1111.2c-75.2 0-139.6-46.45-166.1-112.33 7.9 122.94 110.5 220.56 235.5 220.56h972.5c124.9 0 227.5-97.67 235.4-220.66" style="fill:#93dd81"/>
    </g>
    <g transform="scale(.20278)">
      <path d="m16300 6694.5h-0.7c-1.5 18.19-5.7 35.6-12.1 51.88-7.9 122.89-110.4 220.48-235.3 220.48h-971.7c-124.9 0-227.3-97.54-235.2-220.38-6.5-16.28-10.7-33.74-12.2-51.98h-0.7v105.98c0 3.6 0.1 7.19 0.3 10.75 25.6 79.1 88.2 141.78 167.3 167.57 3.7 0.2 7.4 0.34 11.2 0.34h1110.3c3.8 0 7.5-0.14 11.3-0.34 79-25.79 141.6-88.37 167.2-167.48 0.2-3.6 0.3-7.2 0.3-10.84v-105.98" style="fill:#8080b9"/>
    </g>
    <g transform="scale(.20622)">
      <path d="m14496 6509.9c-21.5 0-38.9-17.45-38.9-38.84v-134.27c0-21.39 17.4-38.79 38.9-38.79h1619.2c21.4 0 38.8 17.4 38.8 38.79v134.27c0 21.39-17.4 38.84-38.8 38.84zm1619.2-357.38h-1619.2c-101.7 0-184.4 82.68-184.4 184.27v134.27c0 101.64 82.7 184.32 184.4 184.32h1619.2c101.6 0 184.3-82.68 184.3-184.32v-134.27c0-101.59-82.7-184.27-184.3-184.27" style="fill:#000072"/>
    </g>
    <g transform="scale(.2037)">
      <path d="m14843 6737.9h1305.9c-17 77.76-86.4 136.13-169.2 136.13h-967.4c-82.8 0-152.2-58.37-169.3-136.13zm1457.2-147.27h-1608.5v110.16c0 176.73 143.8 320.52 320.6 320.52h967.4c176.7 0 320.5-143.79 320.5-320.52v-110.16" style="fill:#000072"/>
    </g>
    <g transform="scale(.2023)">
      <path d="m16300 5926.7-74-957.66h-1245.6l-74 957.66h1393.6" style="fill:#26ba02"/>
    </g>
    <g transform="scale(.19552)">
      <path d="m15995 5492c7.1-6.55 15-11.82 23.6-16.06 74.7-36.21 180.7 28.33 236.8 144.02 41.8 86.08 44.2 176.35 12.1 231.79-27.4-9.25-97.6-41.22-105.1-129.96-4.9-57.43-19.6-229.23-167.4-229.79" style="fill:#ffffff"/>
    </g>
    <g transform="scale(.19454)">
      <path d="m16043 5569.7c5.6 7.14 14.7 11.56 24.7 10.94 49.4-2.26 102 16.3 115.5 174.98 7.8 91.96 65.6 145.06 116.5 170.96-74.8 32.29-178.6-32.28-234-146.65-36.7-75.66-43.3-154.36-22.7-210.23" style="fill:#ffffff"/>
    </g>
    <g transform="scale(.2023)">
      <path d="m16226 4969h-1245.6l-13 168.27h665c226.5 0 414.9 174.4 432.4 400.3l30.1 389.09h205.1l-74-957.66" style="fill:#1b8224"/>
    </g>
    <g transform="scale(.20312)">
      <path d="m14976 5010.3h1126.6l64.1 830.67h-1254.9zm1240.5-123.08h-1354.4l-83.2 1076.8h1520.8l-83.2-1076.8" style="fill:#000072"/>
    </g>
    <g transform="scale(.20376)">
      <path d="m14995 4370.8h992.2l143.1 1851.1h-1278.4zm1137.6-157.04h-1283l-167.3 2165.2h1617.7l-167.4-2165.2" style="fill:#000072"/>
    </g>
    <g transform="scale(.20655)">
      <path d="m15121 7457.9h-0.4c-7.9 0.2-14.3 6.68-14.5 14.53l-2.5 84.63c-0.5 30.6 5.6 61.68 18.2 90 25.1 56.74 75.7 102.45 136.5 120.17 30.2 9.68 63.7 9.83 90.2 10.26l84.5 1.84 169 3.29 338 4.6 84.5 1.12c26.2 0.34 47.7 3.77 70 12.29 43.5 16.47 79.9 50.7 99.1 92.53 19.4 41.58 22.2 90.87 7.2 134.01-14.7 43.24-47.1 80.08-87.7 100.37-20.3 10.21-42.4 16.41-65.1 18.2l-17.3 0.63-21.1-0.1-42.3-0.34-168.9-0.38-676-0.39-675.9 2.32-42.2 0.24-21.1 0.1-10.8 0.15-12.9 0.63c-34.4 2.22-68.6 12.39-98.1 30.06-59.9 34.52-101.7 97.95-109.2 166.5-8.6 68.12 17.7 139.34 67 186.06 24.7 23.39 54.6 41.11 87 51.32 24.4 8.33 52.1 9.93 75.2 9.93 7.1 0 13.8-0.15 19.8-0.29l675.9-8.04c225.3-4.4 450.6-7.26 675.9-13.36 8.3-0.2 14.8-7.07 14.6-15.35-0.3-7.99-6.7-14.33-14.6-14.52-225.3-6.1-450.6-8.96-675.9-13.37l-675.9-8.03c-30.6-0.1-50.3-0.29-72.2-7.94-21.2-7.27-40.6-19.37-56.5-35.06-31.6-31.66-47.4-77.66-40.9-121.57 5.6-43.62 32.6-83.76 70.9-105.2 18.9-11.09 40.4-17.1 62.1-18.21l8.2-0.39h10.4l21.1 0.15 42.2 0.24 675.9 2.28 676-0.39 168.9-0.39 42.3-0.29 21.1-0.14 24.8-1.31c33.5-3.15 66.5-12.83 96.3-28.42 59.8-30.99 106.3-85.69 127.1-149.51 20.9-63.66 16.3-134.98-13.6-194.82-29.5-59.74-82.7-106.76-145.1-128.45-28.3-10.36-60.6-14.62-89.1-14.62-2.2 0-4.5 0.05-6.6 0.1l-84.5 1.11-338 4.6-169 3.29-84.5 1.84c-10.1 0.29-19.6 0.59-28.6 0.59-17.3 0-32.9-1.07-48.8-5.28-48.3-11.62-90.8-46.24-113.3-91.6-11.4-22.57-18.2-47.64-19.2-73.4l-2.7-84.29c-0.2-8.14-6.8-14.53-14.9-14.53" style="fill:#7a8fc7"/>
    </g>
    <g transform="scale(.20657)">
      <path d="m16154 8518.9c-16.8 0-33.6 1.17-50.3 3.92-20.7 3.73-41.4 8.86-62.1 19.95-6.6 3.53-9.1 11.76-5.6 18.39 1.3 2.42 3.3 4.31 5.6 5.57 20.7 11.04 41.4 16.22 62.1 19.95 16.7 2.76 33.5 3.92 50.2 3.92 4 0 7.9-0.05 11.9-0.2 20.7-0.58 41.4-2.32 62.1-6 20.7-3.97 41.4-8.62 62.1-17.67 6.6-2.9 9.6-10.65 6.7-17.23-1.4-3.1-3.8-5.42-6.7-6.73-20.7-9.1-41.4-13.7-62.1-17.67-20.7-3.68-41.4-5.42-62.1-6-3.9-0.15-7.9-0.2-11.8-0.2" style="fill:#7a8fc7"/>
    </g>
    <g transform="scale(.21091)">
      <path d="m15756 8702.1c-63.7 0-127.3 1.85-191 4.74-80.1 4.65-160.3 10.76-240.5 24.42-8.1 1.38-13.6 9.06-12.2 17.12 1.1 6.4 6.1 11.09 12.2 12.13 80.2 13.66 160.4 19.77 240.5 24.42 63.6 2.89 127.2 4.74 190.8 4.74 16.6 0 33.2-0.09 49.8-0.38 40.1-0.33 80.1-0.66 120.2-2.22 40.1-1 80.2-2.75 120.3-5.03 80.2-4.55 160.4-10.43 240.6-21.53 8.1-1.09 13.7-8.53 12.6-16.64-0.9-6.68-6.2-11.76-12.6-12.61-80.2-11.09-160.4-16.97-240.6-21.53-40.1-2.27-80.2-4.03-120.3-4.97-40.1-1.57-80.1-1.95-120.2-2.28-16.5-0.24-33.1-0.38-49.6-0.38" style="fill:#7a8fc7"/>
    </g>
    <g transform="scale(.18959)">
      <path d="m16042 15346h-717.7c-103.6 0-189.6 75.6-205.8 174.6 13.6-83.1 76.4-149.5 157.6-168.7-32.6 36.8-52.5 85-52.5 138v236.7c0 115.2 93.3 208.6 208.5 208.6h759.5c35.6-37.4 57.5-88 57.5-143.8v-236.8c0-114.7-92.6-207.8-207.1-208.6m-923.6 174.8v0.2-0.2m140.2 468.6c20.6 6.9 42.7 10.6 65.7 10.6h910.4 0.8-0.8-910.4c-23 0-45.1-3.7-65.7-10.6m1041.8 0c-19.3 6.4-39.9 10.1-61.3 10.5h-0.6-0.1c21.7-0.3 42.5-4 62-10.5m-62 10.5h-0.1-0.6 0.7m-0.8 0h-0.5-0.1 0.6m-0.7 0h-0.1c-0.1 0-0.3 0.1-0.4 0.1h-0.1c0.2 0 0.4 0 0.6-0.1m-0.7 0.1h-0.6 0.6" style="fill:#e0bbb6"/>
    </g>
    <g transform="scale(.19301)">
      <path d="m15947 14926h-894.4c-194.8 0-353.2 158.4-353.2 353.2v232.5c0 86.2 31 165.2 82.4 226.6h450.2c108.6 0 206 49.3 270.8 126.7h15.2c64.8-77.4 162.1-126.7 270.8-126.7h429c51.4-61.4 82.4-140.4 82.4-226.6v-232.5c0-194.8-158.4-353.2-353.2-353.2m-189.4 148.3h-1.4 190.8c113.1 0 204.9 91.7 204.9 204.9v232.6c0 90.6-58.9 167.4-140.4 194.5-19.2 6.3-39.7 9.9-60.9 10.3h-0.1-0.6-0.1-0.6-0.1-0.6-0.1-0.6-0.1-0.7-894.4c-22.5 0-44.2-3.6-64.5-10.3-81.5-27.1-140.4-103.9-140.4-194.5v-232.6c0-11.2 0.9-22.3 2.7-33v-0.3s0.1-0.1 0.1-0.2c15.9-97.2 100.4-171.4 202.1-171.4h705" style="fill:#7a8fc7"/>
    </g>
    <g transform="scale(.18888)">
      <path d="m15333 15410c-81.4 19.3-144.5 86-158.2 169.3v0.3c0 0.1 0 0.1-0.1 0.2-1.7 11-2.7 22.3-2.7 33.7v237.7c0 92.6 60.2 171.1 143.5 198.8 20.7 6.8 42.9 10.5 65.9 10.5h913.9-194.9c59.6 0 113.5-24.9 151.6-64.9h-762.3c-115.7 0-209.4-93.8-209.4-209.4v-237.7c0-53.1 20-101.6 52.7-138.5m966.7 650.5h-0.1 0.1m-0.6 0h-0.2 0.1 0.1m-0.8 0h-0.1 0.1m-0.7 0h-0.2 0.1 0.1m-0.7 0h-0.2 0.2m-0.7 0h-0.2 0.2" style="fill:#e0d8db"/>
    </g>
    <g transform="scale(.18887)">
      <path d="m15176 15580c0 0.1-0.1 0.2-0.1 0.2s0.1-0.1 0.1-0.2m-0.1 0.5c-1.8 10.9-2.7 22.2-2.7 33.7v237.7c0 92.6 60.1 171.1 143.4 198.7-83.3-27.6-143.4-106.1-143.4-198.8v-237.6c0-11.5 0.9-22.8 2.7-33.7m1124.3 480.7h-0.1 0.1m-0.7 0h-0.1 0.1m-0.7 0h-0.1 0.1m-0.7 0h-0.2 0.2m-0.8 0h-0.1 0.1" style="fill:#aec2e3"/>
    </g>
    <g transform="scale(.19126)">
      <path d="m16093 15213h-191c113.5 0.8 205.3 93.1 205.3 206.8v234.7c0 55.3-21.7 105.5-57.1 142.6h149.8c16.5 0 32.4-2.1 47.8-5.8-37 41.8-90.5 68.7-150.5 69.9 21.2-0.4 41.7-4 60.8-10.4 82.3-27.3 141.7-104.9 141.7-196.3v-234.7c0-114.2-92.6-206.8-206.8-206.8m4.3 648.2h-0.6 0.6m-0.7 0h-0.6 0.6m-0.8 0c-0.1 0-0.3 0-0.5 0.1 0.2-0.1 0.4-0.1 0.5-0.1m-0.7 0.1h-0.5 0.5m-0.7 0h-0.5 0.5m-0.7 0h-0.7 0.7" style="fill:#c2aebb"/>
    </g>
    <g transform="scale(.19126)">
      <path d="m16093 15213h-192.5 1.5 191c114.2 0 206.8 92.6 206.8 206.8v234.7c0 91.4-59.4 169-141.7 196.3 82.3-27.3 141.7-104.8 141.7-196.3v-234.7c0-114.2-92.6-206.8-206.8-206.8" style="fill:#7a8fc7"/>
    </g>
    <g transform="scale(.19065)">
      <path d="m16300 15842c-15.4 3.6-31.4 5.8-47.9 5.8h-150.3c-37.7 39.6-91.1 64.4-150.2 64.4h193.1 0.8 0.1c0.2 0 0.4 0 0.6-0.1h0.2 0.4 0.2 0.6 0.1 0.6 0.2 0.5 0.1c60.1-1.2 113.8-28.2 150.9-70.1" style="fill:#c2c2d5"/>
    </g>
    <g transform="scale(.19508)">
      <path d="m14882 15718h-696.1c-112 0-202.7 90.7-202.7 202.7v230.1c0 58.8 25.1 111.8 65 148.8-39.9-37-65-90-65-148.8v-230.1c0-97.8 69.2-179.4 161.4-198.5-22.4 32.6-35.6 72.1-35.6 114.6v230.1c0 112 90.8 202.7 202.7 202.7h734.6c24.2-33.4 38.5-74.4 38.5-118.8v-230.1c0-112-90.8-202.7-202.8-202.7m390.7 451c-1.4 15.4-4.5 30.4-9.2 44.7 4.7-14.3 7.8-29.3 9.2-44.7" style="fill:#e0bbb6"/>
    </g>
    <g transform="scale(.19577)">
      <path d="m15017 15517h-881.7c-192.1 0-348.4 156.3-348.4 348.3v229.3c0 76.9 25.1 148.1 67.6 205.8h1430.7c-39.1-53.1-63.4-117.7-67-187.7-1.4 15.4-4.5 30.3-9.2 44.5-25.5 78.5-97.8 135.8-183.9 139.2h-0.1c-0.8 0-1.5 0.1-2.3 0.1h-0.1-0.7-0.2-0.6-0.1-1.5-0.3c-0.1 0.1-0.3 0.1-0.5 0.1h-0.2-0.5-0.3-0.7-881.7c-53 0-101.2-20.4-137.2-53.7-39.9-36.9-64.9-89.7-64.9-148.3v-229.3c0-111.6 90.4-202 202.1-202h881.7c105.4 0 192 80.8 201.2 183.9 3.8-73.7 30.5-141.4 73.3-196-2.5-3.1-5-6.2-7.5-9.2-63.9-76.4-159.9-125-267-125" style="fill:#7a8fc7"/>
    </g>
    <g transform="scale(.19573)">
      <path d="m14098 15671c-91.9 19-160.9 100.4-160.9 197.8v229.4c0 58.6 25 111.4 64.9 148.3 36 33.3 84.2 53.7 137.2 53.7h695.2c66.8-0.5 125.9-33.3 162.3-83.6h-732.1c-111.6 0-202.1-90.5-202.1-202v-229.4c0-42.4 13.1-81.7 35.5-114.2" style="fill:#e0d8db"/>
    </g>
    <g transform="scale(.19573)">
      <path d="m14001 16246c36.1 33.3 84.3 53.7 137.3 53.7h881.9-188.1 1.4-695.2c-53 0-101.2-20.4-137.3-53.7m1027.3 53.5h-0.1 0.1m-2.4 0.1h-0.1 0.1m-0.7 0h-0.2 0.2m-0.8 0.1h-0.2 0.2m-1.7 0h-0.2 0.2m-0.7 0h-0.3 0.3m-0.8 0h-0.3 0.3" style="fill:#aec2e3"/>
    </g>
    <g transform="scale(.1983)">
      <path d="m16238 15463c21.7 0 42.5 3.5 62 9.8-19.5-6.3-40.3-9.8-62-9.8m-185.7 0h-684.8c-97.3 0-178.3 69.7-195.9 161.8 12.9-67.2 59.6-122.5 121.8-147.4-26.7 33.9-42.8 76.6-42.8 123.1v226.4c0 110.1 89.3 199.4 199.4 199.4h746.7c34.1-35.8 55-84.2 55-137.5v-226.4c0-110.1-89.2-199.4-199.4-199.4m-880.7 162.2c-0.1 0.1-0.1 0.2-0.1 0.3 0-0.1 0-0.2 0.1-0.3" style="fill:#e0bbb6"/>
    </g>
    <g transform="scale(.20173)">
      <path d="m15962 15058h-855.7c-104 0-197.1 47.2-259.1 121.3-2.5 2.9-4.9 5.9-7.3 8.9-41.5 53-67.4 118.7-71.1 190.2 0.5 5.8 0.7 11.7 0.7 17.6v222.5c0 5.9-0.2 11.8-0.7 17.6 3.5 67.9 27.1 130.6 65 182.2h1400.7c41.2-56 65.5-125.1 65.5-199.8v-222.5c0-186.4-151.6-338-338-338m0 142c21.3 0 41.8 3.4 60.9 9.6 78.5 25.7 135.1 99.4 135.1 186.4v222.5c0 107.1-85.7 194-192.3 196h-0.1-0.6-0.1-0.6-0.2-0.5-0.2-0.5-0.2-0.7-855.7c-108.3 0-196-87.7-196-196v-222.5c0-12.4 1.1-24.5 3.4-36.3v-0.3c0-0.1 0.1-0.2 0.1-0.3 17.3-90.6 96.9-159.1 192.5-159.1h855.7" style="fill:#7a8fc7"/>
    </g>
    <g transform="scale(.19705)">
      <path d="m15391 15576c-62.6 25.1-109.6 80.7-122.5 148.4 0 0.1-0.1 0.2-0.1 0.3v0.3c-2.3 12.1-3.5 24.5-3.5 37.2v227.8c0 110.8 89.8 200.7 200.7 200.7h690.6c56.6-0.4 107.7-24.2 143.9-62.3h-751.4c-110.9 0-200.8-89.9-200.8-200.7v-227.8c0-46.8 16.2-89.8 43.1-123.9" style="fill:#e0d8db"/>
    </g>
    <g transform="scale(.19759)">
      <path d="m15226 15681v0.3-0.3m-0.1 0.6c-2.2 12.1-3.4 24.4-3.4 37.1v227.2c0 110.5 89.6 200.1 200.1 200.1h873.7-186.4 1.4-688.7c-110.5 0-200.1-89.6-200.1-200.1v-227.2c0-12.7 1.2-25 3.4-37.1m1074.1 464.4h-0.1 0.1m-0.7 0h-0.2 0.2m-0.7 0h-0.2 0.2m-0.7 0h-0.2 0.2m-0.7 0h-0.2 0.2" style="fill:#aec2e3"/>
    </g>
    <g transform="scale(.19568)">
      <path d="m15024 15670h-188.2c111.6 0 202.1 90.5 202.1 202.1v229.4c0 44.2-14.2 85.2-38.4 118.4h149.9c14.1 0 27.9-1.4 41.2-4.2-29 42.3-73.6 72.9-125.5 83.7 71.3-14.8 128.8-67 151-135.2 4.7-14.2 7.8-29.2 9.2-44.6-0.3-6-0.5-12-0.5-18.1v-229.4c0-6.1 0.2-12.1 0.5-18.1-9.2-103.2-95.8-184-201.3-184m40.9 629.4c-0.1 0.1-0.3 0.1-0.4 0.1 0.1 0 0.3 0 0.4-0.1" style="fill:#c2aebb"/>
    </g>
    <g transform="scale(.19573)">
      <path d="m15021 15667h-188.1 188.1c105.5 0 192.1 80.8 201.3 183.9-9.2-103.1-95.8-183.9-201.3-183.9m192.1 494c-22.2 68.2-79.7 120.5-151 135.2-0.1 0-0.2 0-0.2 0.1h-0.4c-10.5 2.2-21.3 3.5-32.4 3.9 86.2-3.4 158.5-60.7 184-139.2m-184.1 139.2c-0.7 0.1-1.5 0.1-2.3 0.1 0.8 0 1.6 0 2.3-0.1m-2.4 0.1h-0.6 0.6m-0.8 0c-0.2 0-0.4 0.1-0.6 0.1 0.2 0 0.4-0.1 0.6-0.1m-0.8 0.1h-1.5 1.5m-1.7 0h-0.5 0.5m-0.8 0h-0.5 0.5m-0.8 0h-0.7 0.7" style="fill:#7a8fc7"/>
    </g>
    <g transform="scale(.19573)">
      <path d="m15187 16212c-13.3 2.7-27 4.2-41.2 4.2h-149.8c-36.4 50.3-95.5 83.1-162.3 83.6h186.7c13.9 0 27.5-1.4 40.5-4.1h0.4c0-0.1 0.2-0.1 0.2-0.1 51.9-10.7 96.5-41.4 125.5-83.6" style="fill:#c2c2d5"/>
    </g>
    <g transform="scale(.19573)">
      <path d="m15062 16296c-0.1 0-0.2 0-0.2 0.1 0-0.1 0.1-0.1 0.2-0.1m-0.6 0.1c-13 2.7-26.6 4.1-40.5 4.1h-186.7-1.4 188.1 0.7 0.3 0.5 0.3 0.5 0.2 1.5 0.2c0.2 0 0.4-0.1 0.6-0.1h0.2 0.6 0.1c0.8 0 1.6 0 2.3-0.1h0.1c11.1-0.4 21.9-1.7 32.4-3.9" style="fill:#9eb2db"/>
    </g>
    <g transform="scale(.19352)">
      <path d="m15396 16031c-0.3 6.1-0.5 12.2-0.5 18.3v232c0 6.1 0.2 12.2 0.5 18.3 0.5-6 0.8-12.2 0.8-18.3v-232c0-6.2-0.3-12.3-0.8-18.3" style="fill:#7a8fc7"/>
    </g>
    <g transform="scale(.19997)">
      <path d="m16102 15334h-184.2c109.3 0 197.8 88.6 197.8 197.8v224.4c0 52.9-20.8 100.9-54.6 136.4h122.8c26 0 50.7-5.1 73.5-14.2-31.8 40.4-79 68.2-132.7 74.3 98.5-11.2 175.1-94.9 175.1-196.5v-224.4c0-87.8-57.2-162.2-136.3-188-19.3-6.3-40-9.8-61.4-9.8m22.4 618.7c-0.2 0.1-0.3 0.1-0.4 0.1 0.1 0 0.2 0 0.4-0.1" style="fill:#c2aebb"/>
    </g>
    <g transform="scale(.19997)">
      <path d="m16102 15334h-184.2 184.2m61.4 9.8c79.1 25.8 136.3 100.2 136.3 188v224.4c0 101.6-76.6 185.3-175.1 196.5h-0.2c-0.2 0.1-0.3 0.1-0.4 0.1-6 0.7-12.2 1.1-18.3 1.2 107.5-2 194-89.8 194-197.8v-224.4c0-87.8-57.2-162.2-136.3-188m-57.8 610.2h-0.6 0.6m-0.8 0h-0.5 0.5m-0.7 0h-0.5 0.5m-0.7 0h-0.5 0.5m-0.7 0h-0.7 0.7" style="fill:#7a8fc7"/>
    </g>
    <g transform="scale(.19945)">
      <path d="m16300 15920c-22.8 9.1-47.6 14.3-73.7 14.3h-123.1c-35.8 37.6-86.2 61.1-142.1 61.5h183.2c7.4 0 14.8-0.4 22-1.2 0.2 0 0.3 0 0.4-0.1h0.2c53.9-6.1 101.2-34 133.1-74.5" style="fill:#c2c2d5"/>
    </g>
    <g transform="scale(.19783)">
      <path d="m16300 16126h-0.2 0.2m-0.6 0c-7.3 0.8-14.7 1.3-22.2 1.3h-184.8-1.4 186.2 0.7 0.2 0.5 0.2 0.5c0-0.1 0.1-0.1 0.2-0.1h0.5 0.2 0.6 0.1c6.2-0.1 12.4-0.5 18.5-1.2" style="fill:#9eb2db"/>
    </g>
    <g transform="scale(.20562)">
      <path d="m16230 15519h-3382.2c-38.4 0-69.7 31.2-69.7 69.6 0 38.5 31.3 69.6 69.7 69.6h3382.2c38.4 0 69.6-31.1 69.6-69.6 0-38.4-31.2-69.6-69.6-69.6" style="fill:#7a8fc7"/>
    </g>
    <g transform="scale(.21064)">
      <path d="m16232 15150h-174.7c-37.6 0-68 30.4-68 68 0 37.5 30.4 67.9 68 67.9h174.7c37.6 0 68-30.4 68-67.9 0-37.6-30.4-68-68-68" style="fill:#7a8fc7"/>
    </g>
    <g transform="scale(.17207)">
      <path d="m5391.3 15554h-819.11c-128.4 0-233.04 101.8-237.66 229.1 4.02-110.9 83.85-202.3 189.17-224.1-26.27 38.3-41.72 84.5-41.72 134.5v269.9c0 131.3 106.48 237.8 237.82 237.8h861.83c28.39-39.2 45.13-87.3 45.13-139.4v-270c0-130.5-105.2-236.5-235.46-237.8m396.76 79.8c37.42 42 60.14 97.4 60.14 158v270c0 128.2-101.4 232.6-228.34 237.6h-0.02c-0.92 0.1-1.86 0.1-2.78 0.1h-0.14-0.74-0.08c128.69-3 232.1-108.3 232.1-237.7v-270c0-60.6-22.72-116-60.14-158m-1453.5 149.4c-0.01 0.2-0.01 0.3-0.02 0.5 0.01-0.2 0.01-0.3 0.02-0.5m-0.02 0.7c-0.01 0.2-0.01 0.3-0.02 0.5 0.01-0.2 0.01-0.3 0.02-0.5m-0.03 0.7c0 0.2-0.01 0.3-0.01 0.5 0-0.2 0.01-0.3 0.01-0.5m-0.01 0.7c-0.01 0.2-0.02 0.3-0.02 0.5 0-0.2 0.01-0.3 0.02-0.5m-0.02 0.6c-0.01 0.5-0.03 1.2-0.04 1.8 0.01-0.6 0.03-1.3 0.04-1.8m-0.04 1.9c0 0.2-0.01 0.3-0.01 0.5 0-0.2 0.01-0.3 0.01-0.5m-0.01 0.8c0 0.2 0 0.3-0.01 0.4 0.01-0.1 0.01-0.3 0.01-0.4m-0.01 0.7c0 0.2-0.01 0.3-0.01 0.4 0-0.1 0.01-0.2 0.01-0.4m-0.01 0.7v0.4-0.4m0 0.8v0.3-0.3m0 1v270c0 2.7 0.04 5.4 0.13 8-0.09-2.6-0.13-5.3-0.13-8v-270m0.27 281.5c0.01 0.3 0.02 0.6 0.04 0.9-0.02-0.3-0.03-0.6-0.04-0.9m0.29 5.1c0.1 1.3 0.19 2.6 0.31 3.9-0.12-1.3-0.21-2.6-0.31-3.9m0.31 4c10.43 121.7 112.53 217.2 236.95 217.2h1038.2 0.89-0.02-0.88-1038.2c-124.42 0-226.52-95.5-236.95-217.2m1280.8 217.1h-0.06c-0.25 0-0.49 0.1-0.74 0.1h-0.11c0.3 0 0.61-0.1 0.91-0.1m-0.92 0.1h-0.04-1.77-0.03 1.84m-2.03 0h-0.04-0.64-0.02 0.7m-0.93 0h-0.03-0.64-0.02 0.69" style="fill:#e0bbb6"/>
    </g>
    <g transform="scale(.17238)">
      <path d="m5071.1 15360h-507.07c-222.5 0-403.51 181-403.51 403.5v269.5c0 102 38.07 195.4 100.74 266.5h1641.9c62.65-71.1 100.71-164.5 100.71-266.5v-269.5c0-91.5-30.57-175.9-82.09-243.7h-529.24c-131.03 0-247.66-62.7-321.42-159.8m310.57 166.1h-2.36 221.03c70.55 0 133.9 30.8 177.39 79.6 37.35 42 60.03 97.3 60.03 157.8v269.5c0 129.2-103.23 234.3-231.68 237.3h-0.07c-0.3 0-0.61 0.1-0.91 0.1h-0.01-1.84-0.19-0.7-0.23-0.69-0.21-0.89-1036.3c-124.19 0-226.12-95.3-236.52-216.9-0.12-1.3-0.22-2.6-0.31-4-0.1-1.4-0.18-2.8-0.25-4.1-0.02-0.3-0.03-0.6-0.05-0.9-0.05-1.2-0.1-2.3-0.14-3.5-0.09-2.6-0.13-5.3-0.13-8v-269.5-0.7-0.3-0.4c0-0.1 0.01-0.3 0.01-0.4v-0.3c0-0.1 0.01-0.3 0.01-0.4v-0.3-0.4c0.01-0.1 0.01-0.2 0.01-0.3v-0.5l0.01-0.1c0.01-0.6 0.02-1.3 0.03-1.8v-0.1c0.01-0.2 0.01-0.4 0.02-0.5 0-0.1 0-0.1 0.01-0.2 0-0.2 0-0.3 0.01-0.5v-0.2c0.01-0.2 0.02-0.3 0.02-0.5 0-0.1 0.01-0.1 0.01-0.2 0-0.2 0.01-0.3 0.01-0.5 0-0.1 0.01-0.1 0.01-0.1 4.62-127.1 109.08-228.7 237.24-228.7h817.64" style="fill:#7a8fc7"/>
    </g>
    <g transform="scale(.17207)">
      <path d="m4523.7 15559c-105.32 21.8-185.15 113.2-189.17 224.1 0 0-0.01 0-0.01 0.1-0.01 0.2-0.01 0.3-0.02 0.5v0.2c-0.01 0.2-0.01 0.3-0.02 0.5 0 0.1 0 0.1-0.01 0.2 0 0.2-0.01 0.3-0.01 0.5v0.2c-0.01 0.2-0.02 0.3-0.02 0.5v0.1c-0.01 0.5-0.03 1.2-0.04 1.8v0.1c0 0.2-0.01 0.3-0.01 0.5v0.3c0 0.1 0 0.3-0.01 0.4v0.3c0 0.2-0.01 0.3-0.01 0.4v0.3 0.4 0.4 0.3 0.7 270c0 2.7 0.04 5.4 0.13 8 0.04 1.2 0.08 2.3 0.14 3.5 0.01 0.3 0.02 0.6 0.04 0.9 0.07 1.4 0.16 2.8 0.25 4.2 0.1 1.3 0.19 2.6 0.31 3.9v0.1c10.43 121.7 112.53 217.2 236.95 217.2h1038.2-221.42c79.27 0 149.49-38.8 192.7-98.4h-861.83c-131.34 0-237.82-106.5-237.82-237.8v-269.9c0-50 15.45-96.2 41.72-134.5m1096.2 740.4h-0.02 0.02m-2.8 0.1h-0.14 0.14m-0.88 0h-0.21 0.06 0.07 0.08m-0.95 0.1h-0.16 0.04 0.01 0.11m-1.93 0h-0.26 0.04 0.19 0.03m-0.9 0h-0.28 0.03 0.23 0.02m-0.92 0h-0.25 0.02 0.21 0.02" style="fill:#e0d8db"/>
    </g>
    <g transform="scale(.17207)">
      <path d="m4334.6 15784s-0.01 0-0.01 0.1c0-0.1 0.01-0.1 0.01-0.1m-0.03 0.6v0.2-0.2m-0.02 0.7c0 0.1 0 0.1-0.01 0.2 0.01-0.1 0.01-0.1 0.01-0.2m-0.02 0.7v0.2-0.2m-0.02 0.7v0.1-0.1m-0.04 1.9v0.1-0.1m-0.01 0.6v0.3-0.3m-0.01 0.7v0.3-0.3m-0.01 0.7v0.3-0.3m0 0.7v0.4-0.4m0 0.7v0.7-0.7m0.13 278.7c0.04 1.2 0.08 2.3 0.14 3.5-0.06-1.2-0.1-2.3-0.14-3.5m0.18 4.4c0.07 1.4 0.16 2.8 0.25 4.2-0.09-1.4-0.18-2.8-0.25-4.2m0.56 8.1v0.1-0.1m1280.9 217.2h-0.07 0.07m-0.98 0.1h-0.01 0.01m-1.85 0h-0.19 0.19m-0.89 0h-0.23 0.23m-0.92 0h-0.21 0.21" style="fill:#aec2e3"/>
    </g>
    <g transform="scale(.17207)">
      <path d="m5610.4 15554h-219.06c130.26 1.3 235.46 107.3 235.46 237.8v270c0 52.1-16.74 100.2-45.13 139.4h176.34c16.62 0 32.83-1.7 48.49-5-41.18 60-109.1 100.2-186.6 103.2 126.94-5 228.34-109.4 228.34-237.6v-270c0-60.6-22.72-116-60.14-158-43.57-49-107.03-79.8-177.7-79.8m9.48 745.4c-0.92 0.1-1.85 0.1-2.78 0.1 0.92 0 1.86 0 2.78-0.1m-2.92 0.1h-0.74 0.74m-0.95 0c-0.25 0-0.5 0.1-0.74 0.1 0.25 0 0.49-0.1 0.74-0.1m-0.9 0.1h-1.77 1.77m-2.03 0h-0.64 0.64m-0.92 0h-0.64 0.64m-0.89 0h-0.88 0.88" style="fill:#c2aebb"/>
    </g>
    <g transform="scale(.16504)">
      <path d="m5849.3 16217h-230.85 2.46 228.39c73.68 0 139.85 32.1 185.27 83.1-45.42-51-111.59-83.1-185.27-83.1" style="fill:#7a8fc7"/>
    </g>
    <g transform="scale(.17207)">
      <path d="m5806.5 16197c-15.66 3.3-31.87 5-48.49 5h-176.34c-43.21 59.6-113.43 98.4-192.7 98.4h221.42 0.88 0.25 0.64 0.28 0.64 0.26 1.77 0.16c0.24 0 0.49-0.1 0.74-0.1h0.21 0.74 0.14c0.93 0 1.86 0 2.78-0.1h0.02c77.5-3 145.42-43.2 186.6-103.2" style="fill:#c2c2d5"/>
    </g>
    <g transform="scale(.16164)">
      <path d="m6620.2 15580h-869.4c-109.71 0-203.12 69.8-238.26 167.4 32.2-89.3 113.28-155.4 210.98-165.8-42.52 45.3-68.76 106-68.76 173v287.4c0 139.9 113.36 253.2 253.17 253.2h895.64c43.24-45.5 69.84-106.9 69.84-174.6v-287.4c0-139.8-113.4-253.2-253.21-253.2m303.51 9.2m0.13 0.1c85.25 23.7 152.37 90.8 176.07 176-23.7-85.2-90.82-152.3-176.07-176m-1411.3 158.2c-0.05 0.1-0.1 0.3-0.16 0.4 0.05-0.1 0.11-0.3 0.16-0.4m-0.28 0.8c-0.03 0-0.06 0.1-0.09 0.2 0.03-0.1 0.06-0.2 0.09-0.2m-0.28 0.8h-0.02 0.02m1588 16.3c0 0.1 0 0.1 0.06 0.1-0.06 0-0.06 0-0.06-0.1m-2.97 433c-12.5 38.6-33.97 73.2-61.99 101.2 28.02-28 49.49-62.6 61.99-101.2" style="fill:#e0bbb6"/>
    </g>
    <g transform="scale(.16413)">
      <path d="m6751.8 15170h-1088.3c-233.68 0-423.79 190-423.79 423.7v283c0 96.1 32.14 184.8 86.22 255.9 77.47 102 199.96 167.9 337.57 167.9h1088.3c233.72 0 423.81-190.1 423.81-423.8v-283c0-233.7-190.09-423.7-423.81-423.7m-232.12 174.4h232.19c23.09 0 45.45 3.2 66.71 9 0.06 0.1 0.06 0.1 0.12 0.1 83.96 23.3 150.06 89.4 173.4 173.4 0 0.1 0 0.1 0.06 0.1 5.85 21.2 9.02 43.6 9.02 66.7v283.1c0 26.6-4.21 52.4-12.01 76.5-12.3 38.1-33.44 72.1-61.04 99.7-44.18 44.3-104.92 71.9-172.12 73h-0.73-0.12c-0.19 0-0.43 0-0.67 0.1h-0.19-0.61-0.18-0.67-0.18-0.79-1088.4c-137.7 0-249.33-111.6-249.33-249.3v-283.1c0-29 4.96-56.8 14.09-82.8 0 0 0.02-0.1 0.03-0.1 0.06-0.1 0.12-0.3 0.18-0.5 0.03-0.1 0.06-0.2 0.09-0.3 0.04-0.1 0.08-0.1 0.12-0.3 0.05-0.1 0.1-0.3 0.16-0.4 0 0 0.01 0 0.02-0.1 34.61-96.1 126.6-164.8 234.65-164.8h856.2" style="fill:#7a8fc7"/>
    </g>
    <g transform="scale(.16238)">
      <path d="m5697.6 15511c-97.26 10.4-177.97 76.1-210.03 165 0 0.1-0.01 0.1-0.02 0.2-0.06 0.1-0.11 0.2-0.16 0.4l-0.12 0.3c-0.03 0.1-0.06 0.2-0.09 0.3-0.06 0.1-0.12 0.3-0.19 0.5l-0.02 0.1c-9.23 26.2-14.24 54.4-14.24 83.7v286c0 139.3 112.82 252.1 252.03 252.1h867.25c71.13-0.5 135.24-30.4 180.75-78.2h-891.58c-139.18 0-252.02-112.8-252.02-252.1v-286c0-66.7 26.11-127.2 68.44-172.3" style="fill:#e0d8db"/>
    </g>
    <g transform="scale(.16238)">
      <path d="m5487.5 15676-0.02 0.2c0.01-0.1 0.02-0.1 0.02-0.2m-0.18 0.6-0.12 0.3 0.12-0.3m-0.21 0.6c-0.06 0.1-0.12 0.3-0.19 0.5 0.07-0.2 0.13-0.4 0.19-0.5m-0.21 0.6c-9.23 26.2-14.24 54.4-14.24 83.7v286.1c0 139.2 112.83 252 252.02 252h1100.2-234.7 1.79-867.25c-139.21 0-252.03-112.8-252.03-252.1v-286c0-29.3 5.01-57.5 14.24-83.7m1342.1 621.7m-0.74 0h-0.12 0.12m-0.8 0.1h-0.19 0.19m-0.8 0h-0.19 0.19m-0.86 0h-0.19 0.19" style="fill:#aec2e3"/>
    </g>
    <g transform="scale(.16237)">
      <path d="m6825.3 15511h-234.65c139.19 0 252.08 112.8 252.08 252v286.2c0 67.4-26.48 128.5-69.53 173.8h208.6c9.18 0 18.17-0.6 27.1-1.5-40.89 43.6-96.94 72.7-159.88 78.6 60.17-5.6 114.18-32.3 154.52-72.7 27.9-27.9 49.28-62.4 61.72-100.8 7.88-24.4 12.13-50.4 12.13-77.5v-286.1c0-23.3-3.2-45.9-9.11-67.4-0.07 0-0.07 0-0.07-0.1-23.59-84.9-90.41-151.7-175.28-175.3-0.06 0-0.06 0-0.12-0.1-21.5-5.9-44.1-9.1-67.51-9.1m23.41 789.1h-0.06 0.06" style="fill:#c2aebb"/>
    </g>
    <g transform="scale(.16238)">
      <path d="m6824.9 15510h-234.7 234.64c23.4 0 46 3.2 67.5 9.1-21.5-5.9-44.1-9.1-67.44-9.1m67.44 9.1h0.12-0.12m175.39 175.3v0.1-0.1m0.06 0.1c5.91 21.5 9.12 44.1 9.12 67.5v286c0 27.1-4.25 53.1-12.13 77.5 7.88-24.4 12.13-50.4 12.13-77.4v-286.1c0-23.4-3.21-46-9.12-67.5m-64.72 531.8c-40.34 40.4-94.35 67.1-154.52 72.7h-0.31-0.06c-6.28 0.6-12.62 0.9-19.09 1 67.93-1.1 129.33-29 173.98-73.7m-173.98 73.7h-0.74 0.74m-0.86 0c-0.19 0-0.44 0-0.68 0.1 0.24-0.1 0.49-0.1 0.68-0.1m-0.87 0.1h-0.61 0.61m-0.8 0h-0.67 0.67m-0.86 0h-0.8 0.8" style="fill:#7a8fc7"/>
    </g>
    <g transform="scale(.16238)">
      <path d="m7008.4 16220c-8.93 1-17.92 1.6-27.09 1.6h-208.59c-45.51 47.8-109.62 77.7-180.75 78.2h232.85c7.88 0 15.7-0.4 23.34-1.1h0.06 0.31c62.94-5.9 118.98-35.1 159.87-78.7" style="fill:#c2c2d5"/>
    </g>
    <g transform="scale(.16238)">
      <path d="m6848.5 16299h-0.31 0.31m-0.37 0c-7.64 0.7-15.46 1.1-23.34 1.1h-232.85-1.79 234.7 0.8 0.19 0.67 0.19 0.61 0.19c0.24-0.1 0.49-0.1 0.68-0.1h0.12 0.74c6.47-0.1 12.81-0.4 19.09-1" style="fill:#9eb2db"/>
    </g>
    <g transform="scale(.1742)">
      <path d="m6177.1 16130h-2406c-46.98 0-85.06 38.1-85.06 85 0 47 38.08 85.1 85.06 85.1h2406c46.96 0 85.02-38.1 85.02-85.1 0-46.9-38.06-85-85.02-85" style="fill:#7a8fc7"/>
    </g>
    <g transform="scale(.1742)">
      <path d="m6954.8 16130h-364.59c-46.96 0-85.02 38.1-85.02 85 0 47 38.06 85.1 85.02 85.1h364.59c46.96 0 85.02-38.1 85.02-85.1 0-46.9-38.06-85-85.02-85" style="fill:#7a8fc7"/>
    </g>
  </g>
</svg>
