<svg xmlns="http://www.w3.org/2000/svg" width="24" height="24" fill="none" viewBox="0 0 24 24"><path fill-rule="evenodd" stroke="#335BF1" stroke-linecap="round" stroke-linejoin="round" stroke-width="2" d="M2 4C2 2.89543 2.89543 2 4 2H20C21.1046 2 22 2.89543 22 4V8C22 9.10457 21.1046 10 20 10H4C2.89543 10 2 9.10457 2 8V4Z" clip-rule="evenodd"/><path fill-rule="evenodd" stroke="#335BF1" stroke-linecap="round" stroke-linejoin="round" stroke-width="2" d="M2 16C2 14.8954 2.89543 14 4 14H20C21.1046 14 22 14.8954 22 16V20C22 21.1046 21.1046 22 20 22H4C2.89543 22 2 21.1046 2 20V16Z" clip-rule="evenodd"/><circle cx="6" cy="6" r="1" fill="#335BF1"/><circle cx="6" cy="18" r="1" fill="#335BF1"/></svg>