<svg xmlns="http://www.w3.org/2000/svg" xmlns:xlink="http://www.w3.org/1999/xlink" id="Layer_1" x="0" y="0" version="1.1" viewBox="0 0 77 24" style="enable-background:new 0 0 77 24" xml:space="preserve"><g><g><path d="M47.73,0c-1.64,0-2.97,1.34-2.97,3v9c0,3.31-2.67,6-5.94,6c-3.28,0-5.94-2.69-5.94-6V3c0-1.66-1.33-3-2.97-3 c-1.64,0-2.97,1.34-2.97,3v9c0,6.62,5.33,12,11.88,12c6.55,0,11.88-5.38,11.88-12V3C50.71,1.34,49.38,0,47.73,0L47.73,0z"/><path d="M60.92,12l-6.81,6.88c-1.16,1.17-1.16,3.07,0,4.24c1.16,1.17,3.04,1.17,4.2,0l6.81-6.88l6.81,6.88 c1.16,1.17,3.04,1.17,4.2,0c1.16-1.17,1.16-3.07,0-4.24L69.32,12l6.81-6.88c1.16-1.17,1.16-3.07,0-4.24 c-1.16-1.17-3.04-1.17-4.2,0l-6.81,6.88L58.3,0.88c-1.16-1.17-3.04-1.17-4.2,0c-1.16,1.17-1.16,3.07,0,4.24L60.92,12z"/><path d="M21.93,0.23c-1.11-0.46-2.39-0.21-3.24,0.65l-6.81,6.88L5.07,0.88C4.22,0.02,2.94-0.24,1.83,0.23C0.72,0.69,0,1.79,0,3v18 c0,1.66,1.33,3,2.97,3s2.97-1.34,2.97-3V10.24l3.84,3.88c1.16,1.17,3.04,1.17,4.2,0l3.84-3.88V21c0,1.66,1.33,3,2.97,3 s2.97-1.34,2.97-3V3C23.77,1.79,23.04,0.69,21.93,0.23L21.93,0.23z"/></g></g></svg>