<svg width="111" height="110" viewBox="0 0 111 110" fill="none" xmlns="http://www.w3.org/2000/svg">
<g clip-path="url(#clip0_258_2)">
<g clip-path="url(#clip1_258_2)">
<path d="M108.131 63.27L88.8206 96.72C87.3681 99.2358 85.2794 101.325 82.7641 102.779C80.2489 104.232 77.3955 104.998 74.4906 105H35.8606C32.7787 104.999 29.7585 104.136 27.1406 102.51C86.5606 102.51 82.6506 55 82.6506 55C82.6522 53.869 82.4304 52.7488 81.9979 51.7037C81.5655 50.6586 80.9309 49.7092 80.1306 48.91L61.2606 30C59.6445 28.3867 57.4542 27.4805 55.1706 27.4805C52.887 27.4805 50.6967 28.3867 49.0806 30L30.2206 48.91C28.941 50.1788 28.0971 51.8209 27.8106 53.6C27.7506 45.49 30.3106 7.60001 83.3706 7.60001C85.6134 9.02627 87.4767 10.9753 88.8006 13.28L108.111 46.73C109.568 49.2416 110.338 52.0933 110.341 54.9973C110.345 57.9013 109.582 60.7548 108.131 63.27Z" fill="url(#paint0_linear_258_2)"/>
<path d="M27.8106 53.6C27.5882 54.9501 27.6909 56.3338 28.11 57.6364C28.5291 58.939 29.2526 60.1229 30.2206 61.09L49.0806 80C50.6967 81.6133 52.887 82.5195 55.1706 82.5195C57.4542 82.5195 59.6445 81.6133 61.2606 80L80.1306 61.09C80.9309 60.2908 81.5655 59.3414 81.9979 58.2963C82.4304 57.2512 82.6522 56.131 82.6506 55C82.6506 55 86.5606 102.51 27.1406 102.51C24.8201 101.074 22.8924 99.0847 21.5306 96.72L2.22059 63.27C0.76596 60.7566 0 57.904 0 55C0 52.096 0.76596 49.2434 2.22059 46.73L21.5306 13.28C22.9831 10.7642 25.0718 8.67481 27.587 7.22146C30.1023 5.76812 32.9556 5.002 35.8606 5L74.4906 5C77.6445 5.00041 80.7325 5.90252 83.3906 7.6C30.3106 7.6 27.7506 45.49 27.8106 53.6Z" fill="url(#paint1_linear_258_2)"/>
</g>
</g>
<defs>
<linearGradient id="paint0_linear_258_2" x1="127.091" y1="105.34" x2="11.2406" y2="24.22" gradientUnits="userSpaceOnUse">
<stop stop-color="white"/>
<stop offset="1" stop-color="#696EFF"/>
</linearGradient>
<linearGradient id="paint1_linear_258_2" x1="12.7906" y1="-16.54" x2="83.8106" y2="106.47" gradientUnits="userSpaceOnUse">
<stop stop-color="white"/>
<stop offset="1" stop-color="#696EFF"/>
</linearGradient>
<clipPath id="clip0_258_2">
<rect width="110.341" height="110" fill="white"/>
</clipPath>
<clipPath id="clip1_258_2">
<rect width="110.341" height="100" fill="white" transform="translate(0 5)"/>
</clipPath>
</defs>
</svg>
