<?xml version="1.0" standalone="no"?>
<!DOCTYPE svg PUBLIC "-//W3C//DTD SVG 20010904//EN"
 "http://www.w3.org/TR/2001/REC-SVG-20010904/DTD/svg10.dtd">
<svg version="1.0" xmlns="http://www.w3.org/2000/svg"
 width="700.000000pt" height="700.000000pt" viewBox="0 0 700.000000 700.000000"
 preserveAspectRatio="xMidYMid meet">
<metadata>
Created by potrace 1.14, written by Peter Selinger 2001-2017
</metadata>
<g transform="translate(0.000000,700.000000) scale(0.100000,-0.100000)"
fill="#000000" stroke="none">
<path d="M1140 3500 l0 -870 2360 0 2360 0 0 870 0 870 -2360 0 -2360 0 0
-870z m1940 655 c10 -12 1 -69 -44 -292 -61 -304 -97 -506 -91 -511 2 -2 20
29 41 69 48 96 114 196 164 248 36 37 45 41 87 41 97 -1 186 -69 198 -153 l7
-45 62 63 c40 40 88 74 131 96 63 31 77 34 160 34 104 0 155 -20 193 -75 28
-42 30 -136 3 -195 -36 -81 -150 -156 -332 -220 l-77 -27 8 -34 c17 -75 55
-102 126 -91 41 7 77 34 116 87 17 22 36 40 43 40 8 0 30 -20 51 -45 l37 -46
-19 -35 c-29 -54 -127 -142 -191 -172 -68 -31 -179 -41 -239 -22 -53 18 -118
81 -145 143 -19 42 -23 70 -24 147 0 52 3 114 7 136 l8 42 -33 -32 c-17 -17
-49 -45 -70 -61 l-39 -31 72 -129 c40 -72 76 -134 81 -140 5 -5 9 -19 9 -31 0
-19 -11 -23 -110 -43 -61 -12 -118 -20 -128 -17 -20 7 -138 347 -128 371 2 7
29 29 58 48 80 51 110 90 106 141 -3 36 -6 41 -30 44 -22 3 -34 -6 -69 -50
-57 -72 -177 -321 -185 -384 -14 -113 -32 -132 -155 -154 -56 -10 -64 -10 -80
7 -18 18 -17 30 45 418 107 667 109 684 91 711 -13 19 -24 24 -61 24 l-45 0 7
58 c3 31 7 58 8 59 2 3 242 18 327 22 22 0 42 -5 49 -14z m-423 -160 c40 -10
75 -25 78 -32 2 -8 -8 -58 -24 -111 -16 -53 -34 -123 -40 -154 l-12 -57 -80
-3 c-44 -2 -84 -2 -89 0 -6 2 -8 26 -5 55 7 64 -8 96 -55 119 -101 51 -234
-22 -215 -118 7 -42 62 -88 165 -139 160 -80 239 -146 269 -228 6 -16 11 -57
11 -92 0 -178 -129 -312 -348 -361 -115 -26 -312 -16 -419 21 -52 17 -84 34
-88 45 -3 9 8 70 25 136 16 65 30 129 30 142 0 27 4 29 103 37 l77 6 0 -58 c0
-35 7 -72 18 -93 32 -66 125 -88 208 -51 52 24 74 55 74 105 0 52 -36 85 -180
161 -125 66 -210 136 -242 199 -16 31 -21 60 -22 118 0 66 5 85 33 142 51 105
164 187 306 223 74 18 330 11 422 -12z m2407 -71 c3 -8 -5 -60 -19 -114 -14
-54 -25 -106 -25 -114 0 -13 15 -16 91 -16 l92 0 -7 -56 c-4 -31 -9 -61 -13
-67 -4 -6 -38 -8 -88 -4 -57 4 -87 2 -98 -6 -9 -8 -28 -86 -52 -220 -34 -190
-36 -210 -22 -224 21 -21 62 -5 108 43 18 19 41 34 51 34 17 0 48 -46 48 -72
0 -22 -141 -179 -194 -215 -60 -41 -119 -44 -186 -10 -53 27 -80 74 -80 137 0
25 18 150 40 278 22 128 40 237 40 242 0 6 -22 10 -50 10 l-50 0 0 -40 c0 -52
-28 -107 -78 -152 -56 -51 -115 -83 -233 -127 -113 -43 -123 -54 -98 -112 36
-89 152 -77 225 22 20 27 42 49 49 49 8 0 31 -21 51 -46 l38 -46 -19 -34 c-28
-53 -128 -142 -192 -172 -68 -31 -179 -41 -239 -22 -53 18 -118 82 -144 143
-15 33 -25 80 -28 128 -17 281 186 548 429 566 93 7 148 -8 194 -51 27 -26 35
-29 35 -16 0 18 36 30 86 30 36 0 51 24 59 97 12 118 2 108 138 142 67 16 125
30 128 30 4 1 10 -6 13 -15z"/>
<path d="M3684 3513 c-11 -10 -30 -31 -41 -48 -21 -31 -56 -135 -48 -143 7 -7
85 27 129 57 50 35 69 67 64 112 -3 32 -5 34 -43 37 -27 1 -47 -4 -61 -15z"/>
<path d="M4316 3505 c-42 -39 -102 -185 -75 -185 6 0 40 14 75 30 80 39 117
83 112 137 -3 37 -4 38 -44 41 -32 2 -46 -2 -68 -23z"/>
</g>
</svg>
