<svg xmlns="http://www.w3.org/2000/svg" width="71" height="25" fill="none" viewBox="0 0 71 25"><g clip-path="url(#clip0)"><path fill="url(#paint0_linear)" d="M66.7332 22.6532C67.6983 23.6231 69.215 23.6231 70.1112 22.6532C71.0763 21.6834 71.0763 20.1593 70.1112 19.2587L52.3248 1.3856C51.3597 0.415738 49.843 0.415738 48.9468 1.3856C48.0506 2.35546 47.9816 3.87952 48.9468 4.78011L66.7332 22.6532Z" opacity=".7"/><path fill="url(#paint1_linear)" d="M52.3248 22.8613C51.3597 23.8311 49.843 23.8311 48.9468 22.8613C48.0506 21.8914 47.9816 20.3673 48.9468 19.4667L66.7332 1.59361C67.6983 0.623746 69.215 0.623746 70.1112 1.59361C71.0074 2.56347 71.0763 4.08753 70.1112 4.98812L52.3248 22.8613Z"/><path fill="url(#paint2_linear)" d="M35.8484 18.566C38.8818 18.566 41.3636 16.0721 41.3636 13.0239V3.1868C41.3636 1.80128 42.3977 0.692871 43.7765 0.692871C45.1552 0.692871 46.1893 1.80128 46.1893 3.1868V12.9547C46.1893 18.7046 41.5704 23.346 35.8484 23.346C34.5386 23.346 33.4355 22.2376 33.4355 20.9214C33.5045 19.6051 34.5386 18.566 35.8484 18.566Z" opacity=".7"/><path fill="url(#paint3_linear)" d="M21.0266 0.900879C19.6479 0.900879 18.6138 2.00929 18.6138 3.3948V21.0601C18.6138 22.4456 19.6479 23.554 21.0266 23.554C22.4054 23.554 23.4395 22.4456 23.4395 21.0601V3.3948C23.4395 2.00929 22.4054 0.900879 21.0266 0.900879Z" opacity=".7"/><path fill="url(#paint4_linear)" d="M43.7767 5.54217C45.1092 5.54217 46.1895 4.45662 46.1895 3.11752C46.1895 1.77842 45.1092 0.692871 43.7767 0.692871C42.4441 0.692871 41.3638 1.77842 41.3638 3.11752C41.3638 4.45662 42.4441 5.54217 43.7767 5.54217Z"/><path fill="url(#paint5_linear)" d="M68.595 23.5539C69.9276 23.5539 71.0079 22.4683 71.0079 21.1292C71.0079 19.7901 69.9276 18.7046 68.595 18.7046C67.2624 18.7046 66.1821 19.7901 66.1821 21.1292C66.1821 22.4683 67.2624 23.5539 68.595 23.5539Z"/><path fill="url(#paint6_linear)" d="M3.10233 0.900879C1.72354 0.900879 0.689453 2.00929 0.689453 3.3948V21.0601C0.689453 22.4456 1.72354 23.554 3.10233 23.554C4.48112 23.554 5.51521 22.4456 5.51521 21.0601V3.3948C5.51521 2.00929 4.48112 0.900879 3.10233 0.900879Z"/><path fill="url(#paint7_linear)" d="M21.0266 23.5539C22.3592 23.5539 23.4395 22.4683 23.4395 21.1292C23.4395 19.7901 22.3592 18.7046 21.0266 18.7046C19.6941 18.7046 18.6138 19.7901 18.6138 21.1292C18.6138 22.4683 19.6941 23.5539 21.0266 23.5539Z"/><path fill="url(#paint8_linear)" d="M10.2721 13.786C11.2373 14.7559 12.7539 14.7559 13.6501 13.786C14.5463 12.8162 14.6153 11.2921 13.6501 10.3915L4.75695 1.45493C3.86073 0.485074 2.34407 0.485074 1.37891 1.45493C0.413763 2.42479 0.482702 3.94886 1.37891 4.84944L10.2721 13.786Z" opacity=".7"/><path fill="url(#paint9_linear)" d="M13.7882 13.786C12.823 14.7559 11.3064 14.7559 10.4102 13.786C9.51395 12.8162 9.44501 11.2921 10.4102 10.3915L19.3033 1.45493C20.2685 0.485074 21.7852 0.485074 22.6814 1.45493C23.6465 2.42479 23.6465 3.94886 22.6814 4.84944L13.7882 13.786Z"/><path fill="url(#paint10_linear)" d="M35.8487 18.566C32.8154 18.566 30.3336 16.0721 30.3336 13.0239V3.1868C30.3336 1.80128 29.2995 0.692871 27.9207 0.692871C26.5419 0.692871 25.5078 1.80128 25.5078 3.1868V12.9547C25.5078 18.7046 30.1268 23.346 35.8487 23.346C37.1586 23.346 38.2616 22.2376 38.2616 20.9214C38.1927 19.6051 37.1586 18.566 35.8487 18.566Z"/></g><defs><linearGradient id="paint0_linear" x1="0" x2="70.836" y1="12.023" y2="12.023" gradientUnits="userSpaceOnUse"><stop stop-color="#FF4E00"/><stop offset="1" stop-color="#FF1791"/></linearGradient><linearGradient id="paint1_linear" x1=".862" x2="70.836" y1="12.224" y2="12.224" gradientUnits="userSpaceOnUse"><stop stop-color="#FF4E00"/><stop offset="1" stop-color="#FF1791"/></linearGradient><linearGradient id="paint2_linear" x1="72.482" x2=".754" y1="12.023" y2="12.023" gradientUnits="userSpaceOnUse"><stop stop-color="#FF4E00"/><stop offset="1" stop-color="#FF1791"/></linearGradient><linearGradient id="paint3_linear" x1=".142" x2="71.87" y1="12.224" y2="12.224" gradientUnits="userSpaceOnUse"><stop stop-color="#FF4E00"/><stop offset="1" stop-color="#FF1791"/></linearGradient><linearGradient id="paint4_linear" x1=".632" x2="70.894" y1="3.103" y2="3.103" gradientUnits="userSpaceOnUse"><stop stop-color="#FF4E00"/><stop offset="1" stop-color="#FF1791"/></linearGradient><linearGradient id="paint5_linear" x1="-.747" x2="70.98" y1="21.143" y2="21.143" gradientUnits="userSpaceOnUse"><stop stop-color="#FF4E00"/><stop offset="1" stop-color="#FF1791"/></linearGradient><linearGradient id="paint6_linear" x1="-.03" x2="71.698" y1="12.224" y2="12.224" gradientUnits="userSpaceOnUse"><stop stop-color="#FF4E00"/><stop offset="1" stop-color="#FF1791"/></linearGradient><linearGradient id="paint7_linear" x1=".035" x2="72.18" y1="21.129" y2="21.129" gradientUnits="userSpaceOnUse"><stop stop-color="#FF4E00"/><stop offset="1" stop-color="#FF1791"/></linearGradient><linearGradient id="paint8_linear" x1="1.034" x2="71.56" y1="7.62" y2="7.62" gradientUnits="userSpaceOnUse"><stop stop-color="#FF4E00"/><stop offset="1" stop-color="#FF1791"/></linearGradient><linearGradient id="paint9_linear" x1=".862" x2="69.977" y1="7.62" y2="7.62" gradientUnits="userSpaceOnUse"><stop stop-color="#FF4E00"/><stop offset="1" stop-color="#FF1791"/></linearGradient><linearGradient id="paint10_linear" x1="-.4" x2="71.327" y1="12.023" y2="12.023" gradientUnits="userSpaceOnUse"><stop stop-color="#FF4E00"/><stop offset="1" stop-color="#FF1791"/></linearGradient><clipPath id="clip0"><rect width="71" height="24.85" fill="#fff"/></clipPath></defs></svg>