<?xml version="1.0" encoding="UTF-8"?>
<svg width="594px" height="166px" viewBox="0 0 594 166" version="1.1" 
    xmlns="http://www.w3.org/2000/svg" 
    xmlns:xlink="http://www.w3.org/1999/xlink">
    <path d="M288.22,93.26 C288.391985,100.576758 284.941854,107.506956 279,111.78 C275.926167,113.971614 272.480439,115.587752 268.83,116.55 C264.644779,117.659054 260.329483,118.200568 256,118.16 C251.728376,118.121844 247.469739,117.683258 243.28,116.85 C239.18846,116.118944 235.18605,114.955765 231.34,113.38 L234.42,98.44 C237.716175,99.7719107 241.118051,100.825589 244.59,101.59 C248.08321,102.366812 251.651465,102.755833 255.23,102.75 C258.205529,102.847128 261.168612,102.322629 263.93,101.21 C266.164196,100.303906 267.563783,98.0653715 267.4,95.66 C267.463005,93.3965863 266.104664,91.3351043 264,90.5 C261.74,89.42 258.76,88.11 255.06,86.57 C252.08,85.3366667 249.203333,84.0766667 246.43,82.79 C243.789992,81.5923909 241.326977,80.0378653 239.11,78.17 C237.028422,76.4046709 235.301137,74.2599877 234.02,71.85 C232.654895,69.0517185 231.995702,65.9617541 232.1,62.85 C232.011778,59.326511 232.776851,55.8339354 234.33,52.67 C235.782198,49.8419081 237.899552,47.4088385 240.5,45.58 C243.3072,43.6532723 246.436515,42.2444033 249.74,41.42 C253.500776,40.4596906 257.368592,39.9825143 261.25,39.9995364 C265.411007,39.9872763 269.56355,40.3757399 273.65,41.16 C277.658762,41.9652819 281.526979,43.3568964 285.13,45.29 L281.9,60.34 C278.881852,58.9931064 275.76218,57.8863417 272.57,57.03 C269.382894,56.1597051 266.093795,55.7191407 262.79,55.72 C260.360132,55.6357576 257.934091,55.9741176 255.62,56.72 C253.84147,57.3190953 252.718589,59.0741179 252.92,60.94 C252.92,62.9866667 254,64.5266667 256.16,65.56 C258.32,66.56 260.88,67.76 263.87,69.09 C266.016667,70.01 268.506667,71.06 271.34,72.24 C274.163974,73.4196796 276.830946,74.9446235 279.28,76.78 C281.754001,78.6318839 283.891715,80.8947494 285.6,83.47 C287.43559,86.3966429 288.348467,89.8077362 288.22,93.26 L288.22,93.26 Z" id="Path" fill="#111722"></path>
    <path d="M290.68,41.57 L302.86,41.57 L302.86,22.15 L324,22.15 L324,41.57 L346.5,41.57 L346.5,58.06 L324,58.06 L324,90.27 C323.853086,93.1692076 324.521707,96.0515554 325.93,98.59 C327.21,100.65 329.75,101.67 333.56,101.67 C337.423999,101.692031 341.268577,101.122089 344.96,99.98 L346.5,114.93 C343.758591,115.984381 340.917419,116.758332 338.02,117.24 C334.664115,117.848568 331.260617,118.156456 327.85,118.16 C323.92029,118.273011 320.010252,117.564572 316.37,116.08 C313.377359,114.798002 310.736568,112.815694 308.67,110.3 C306.622377,107.758525 305.124154,104.819965 304.27,101.67 C303.319951,98.1531237 302.855643,94.5227781 302.89,90.88 L302.89,58.06 L290.68,58.06 L290.68,41.57 Z" id="Path" fill="#111722"></path>
    <path d="M402.57,59.6 L399,59.6 C394.50607,59.4533375 390.034575,60.2930229 385.9,62.06 C382.524091,63.6080136 379.643921,66.0623896 377.58,69.15 L377.58,116.62 L356.49,116.62 L356.49,41.57 L376.83,41.57 L376.83,54.82 C378.026538,50.7682777 380.417319,47.171651 383.69,44.5 C386.816667,42.0266667 391.003333,40.7933333 396.25,40.8 C398.381625,40.7728221 400.507258,41.0317996 402.57,41.57 L402.57,59.6 Z" id="Path" fill="#111722"></path>
    <path d="M451,108.61 C448.054479,111.394951 444.677444,113.684581 441,115.39 C436.742589,117.311335 432.109854,118.257698 427.44,118.16 C424.383307,118.202866 421.347293,117.652716 418.5,116.54 C415.950235,115.544467 413.639724,114.021165 411.72,112.07 C409.851943,110.143652 408.383721,107.866547 407.4,105.37 C406.351507,102.667145 405.828812,99.7889289 405.86,96.89 C405.86,90.01 408.173333,84.77 412.8,81.17 C417.426667,77.57 423.76,75.5166667 431.8,75.01 C434.89,74.81 438.07,74.65 441.36,74.55 C444.65,74.45 447.62,74.34 450.3,74.24 L450.3,71.62 C450.3,66.7866667 449.116667,63.12 446.75,60.62 C444.383333,58.12 440.686667,56.8633333 435.66,56.85 C431.915957,56.8291667 428.184964,57.2930199 424.56,58.23 C421.348974,59.0491791 418.244611,60.2405834 415.31,61.78 L411,47 C415.06896,44.6768927 419.445464,42.9397572 424,41.84 C428.985607,40.6055685 434.103859,39.9876169 439.24,39.9998175 C449.24,39.9998175 457.076667,42.72 462.75,48.16 C468.423333,53.6 471.273333,61.6666667 471.3,72.36 L471.3,116.59 L451,116.59 L451,108.61 Z M435.12,103.83 C437.969797,103.856351 440.797989,103.333492 443.45,102.29 C445.881321,101.335062 448.164244,100.038712 450.23,98.44 L450.23,86.57 C448.07,86.78 445.76,86.98 443.29,87.19 C440.82,87.4 438.57,87.65 436.51,87.96 C433.898883,88.3057858 431.38306,89.1693249 429.11,90.5 C427.263333,91.68 426.34,93.6566667 426.34,96.43 C426.186448,98.5586297 427.077973,100.628908 428.73,101.98 C430.581421,103.286948 432.816331,103.938063 435.08,103.83 L435.12,103.83 Z" id="Shape" fill="#111722"></path>
    <path d="M486.86,41.57 L507.05,41.57 L507.05,51.12 C509.482289,47.7510917 512.644357,44.9753089 516.3,43 C520.499092,40.8848294 525.160546,39.8535341 529.86,40 C534.130549,39.9417681 538.354717,40.8907498 542.19,42.77 C545.89067,44.6238833 549.129759,47.2821233 551.67,50.55 C554.41915,54.142415 556.483547,58.2101912 557.76,62.55 C559.248578,67.631228 559.973171,72.9055925 559.91,78.2 C560.023258,84.073502 558.976606,89.9116424 556.83,95.38 C554.960845,100.117602 552.127622,104.415111 548.51,108 C545.017602,111.387936 540.840795,113.989491 536.26,115.63 C531.445825,117.342794 526.369687,118.202353 521.26,118.17 C518.782732,118.192202 516.307802,118.011599 513.86,117.63 C511.884948,117.313882 509.931248,116.876387 508.01,116.32 L508.01,148.38 L486.86,148.38 L486.86,41.57 Z M522.77,56.52 C519.67929,56.4478917 516.623905,57.1893226 513.91,58.67 C511.662195,59.8941042 509.653419,61.5133204 507.98,63.45 L507.98,100.59 C509.471884,101.147869 511.021536,101.536959 512.6,101.75 C514.438159,102.012775 516.293179,102.139785 518.15,102.13 C525.343333,102.13 530.583333,99.9233333 533.87,95.51 C537.156667,91.0966667 538.8,85.3933333 538.8,78.4 C538.8,72.14 537.49,66.9266667 534.87,62.76 C532.25,58.5933333 528.216667,56.5133333 522.77,56.52 Z" id="Shape" fill="#111722"></path>
    <path d="M569.47,19.68 C569.398131,16.4653299 570.619408,13.3562989 572.86,11.05 C575.151543,8.67727427 578.343537,7.39029714 581.64,7.51 C586.570142,7.46378347 591.044297,10.3871885 592.981973,14.9208236 C594.919648,19.4544586 593.940565,24.7085774 590.5,28.24 C588.194931,30.6503865 584.973457,31.9666095 581.64,31.86 C578.328488,31.9745724 575.128482,30.6552077 572.86,28.24 C570.648048,25.9436464 569.43007,22.8681619 569.47,19.68 L569.47,19.68 Z M571.16,116.62 L571.16,41.57 L592.28,41.57 L592.28,116.62 L571.16,116.62 Z" id="Shape" fill="#111722"></path>
    <path d="M85,14.16 L71.84,6.16 L5.33,44.64 L5.46,55.64 L30.62,70.16 L47.05,60.75 L50.64,43.27 C50.7983083,42.5260441 51.2630677,41.8833691 51.92,41.5 L109.8,8.17 C110.624632,7.70093925 111.635368,7.70093925 112.46,8.17 L155.65,33.17 C156.476459,33.639923 156.984966,34.5192964 156.980036,35.47 L156.9,85.47 C156.896646,86.4210959 156.385736,87.2980306 155.56,87.77 L98.3,120.65 C97.6792609,121.008302 96.9405327,121.101994 96.25,120.91 L78.87,116 L62.58,125.48 L62.58,154.35 L72.11,159.85 L138.61,121.38 L138.61,105.91 L143.91,102.45 L143.91,122.9 C143.916421,123.851087 143.412658,124.732673 142.59,125.21 L73.44,165.21 C72.6181139,165.689328 71.6018861,165.689328 70.78,165.21 L58.58,158.21 C57.7566031,157.736999 57.2492286,156.859585 57.25,155.91 L57.25,123.98 C57.2507387,123.03605 57.7535462,122.163756 58.57,121.69 L77.16,110.87 C77.782714,110.506732 78.5265535,110.412849 79.22,110.61 L96.64,115.54 L151.64,83.98 L151.72,37.07 L111.18,13.61 L55.67,45.61 L52.05,63 C51.8941184,63.7478677 51.424218,64.3926147 50.76,64.77 L32,75.56 C31.1789968,76.0292899 30.1710032,76.0292899 29.35,75.56 L1.55,59.56 C0.737307257,59.0908923 0.231906385,58.2282909 0.22,57.29 L-0.00027035983,43.17 C-0.0136587495,42.2117923 0.491073547,41.3208633 1.32,40.84 L70.54,0.84 C71.3756176,0.345349061 72.4143824,0.345349061 73.25,0.84 L90.25,11.17 L85,14.16 Z" id="Path" fill="#2E7EEA"></path>
    <path d="M114.85,73.07 C114.379413,73.0701842 113.917137,72.9459905 113.51,72.71 L103,66.56 C102.184943,66.079999 101.683281,65.2058899 101.679992,64.26 L101.679992,52.12 C101.677719,51.1673977 102.185018,50.2862998 103.01,49.81 L113.56,43.72 C114.379356,43.2445507 115.390644,43.2445507 116.21,43.72 L126.79,49.77 C127.617318,50.2452692 128.128152,51.1258864 128.130001,52.08 L128.130001,64.33 C128.130774,65.2769736 127.628038,66.1529533 126.81,66.63 L116.25,72.72 C115.825095,72.9649195 115.340172,73.0861503 114.85,73.07 L114.85,73.07 Z M107,62.73 L114.89,67.34 L122.79,62.78 L122.79,53.61 L114.88,49.08 L106.97,53.65 L107,62.73 Z" id="Shape" fill="#2E7EEA"></path>
    <path d="M32,93.65 C30.7698213,93.6808263 29.6790849,92.8638292 29.3627545,91.6746173 C29.0464241,90.4854053 29.5870868,89.2344562 30.67,88.65 L39.91,83.32 C40.7345313,82.7881418 41.7848981,82.7533792 42.6427909,83.2295566 C43.5006837,83.7057341 44.0267759,84.6155175 44.0115508,85.5965849 C43.9963256,86.5776523 43.4422557,87.4706727 42.57,87.92 L33.32,93.26 C32.9222255,93.5044316 32.4667446,93.6390055 32,93.65 L32,93.65 Z" id="Path" fill="#2E7EEA"></path>
    <path d="M30,109.75 C28.7609458,109.796226 27.6554822,108.97711 27.3389877,107.778267 C27.0224933,106.579425 27.5795897,105.321392 28.68,104.75 L46.42,94.59 C47.2467792,94.0559647 48.3008725,94.02212 49.1602069,94.5020177 C50.0195414,94.9819154 50.5436426,95.8971073 50.5226534,96.8811382 C50.5016642,97.8651692 49.9390158,98.7571809 49.06,99.2 L31.28,109.4 C30.8900917,109.623744 30.449507,109.744217 30,109.75 L30,109.75 Z" id="Path" fill="#2E7EEA"></path>
    <path d="M32.86,123 C31.6336763,123.021127 30.5518831,122.20102 30.2410307,121.01456 C29.9301782,119.8281 30.4708619,118.582904 31.55,118 L53,106 C53.8312786,105.46393 54.8913613,105.43339 55.7521224,105.920715 C56.6128836,106.40804 57.1321528,107.332739 57.1002176,108.321362 C57.0682825,109.309985 56.4904176,110.199243 55.6,110.63 L34.2,122.63 C33.7947985,122.871743 33.3318346,122.999577 32.86,123 Z" id="Path" fill="#2E7EEA"></path>
</svg>