<svg width="100" height="100" viewBox="0 0 100 100" fill="none" xmlns="http://www.w3.org/2000/svg">
<rect width="100" height="100" rx="50" fill="#d4ceff"/>
<path d="M48.4238 67.7759C49.8284 67.8038 51.2313 67.6618 52.6026 67.3518C53.5375 67.1297 54.4233 66.7323 55.2143 66.1801C55.8355 65.7487 56.3171 65.1408 56.5985 64.4321C56.8766 63.704 57.0183 62.9292 57.0164 62.1483C57.0066 61.2649 56.7763 60.3984 56.347 59.6297C55.9177 58.8609 55.3034 58.2147 54.5613 57.7518C52.9247 56.6044 50.1106 55.3576 46.119 54.0112C44.3779 53.3887 42.6367 52.6739 40.8956 51.8663C39.196 51.0915 37.6168 50.0697 36.2076 48.8338C34.8122 47.59 33.668 46.0834 32.8384 44.3979C31.9176 42.4192 31.4702 40.2485 31.5326 38.0617C31.4957 35.7438 31.9662 33.4464 32.9103 31.335C33.8209 29.3583 35.16 27.6155 36.8278 26.237C38.6496 24.7674 40.7366 23.6722 42.9719 23.0127C45.6123 22.2234 48.3549 21.8418 51.1074 21.8806C54.241 21.8229 57.3668 22.2152 60.3919 23.0458C62.622 23.6744 64.7815 24.5353 66.8363 25.6147L63.3826 35.1817C61.7909 34.3594 60.1358 33.6707 58.4335 33.1226C56.3152 32.4853 54.1128 32.1838 51.9039 32.2288C49.0354 32.2288 46.9765 32.6305 45.7273 33.4338C45.1144 33.8205 44.6162 34.3679 44.2851 35.0183C43.9541 35.6687 43.8026 36.3977 43.8468 37.1282C43.8046 38.0147 44.0375 38.8922 44.5128 39.6375C45.0362 40.3755 45.7027 40.9973 46.4716 41.4648C47.3938 42.0516 48.3689 42.5479 49.3836 42.9477C50.4849 43.3894 51.7015 43.8415 53.0335 44.305C55.7976 45.3426 58.2025 46.3661 60.2483 47.377C62.1194 48.2635 63.8373 49.4509 65.3344 50.8925C66.6819 52.2243 67.7189 53.8437 68.3705 55.633C69.0838 57.7639 69.4218 60.0046 69.3698 62.2539C69.3698 67.2856 67.6285 71.1876 64.1461 73.9593C60.6642 76.7315 55.4232 78.1197 48.4238 78.124C46.2943 78.1386 44.1666 77.9948 42.0578 77.6938C40.3617 77.4511 38.6825 77.0992 37.0303 76.6411C35.7481 76.2874 34.4916 75.845 33.2694 75.3166C32.2247 74.8469 31.3106 74.4095 30.625 73.9926L34.0007 64.3459C35.8725 65.344 37.8419 66.1401 39.877 66.7232C42.6628 67.4804 45.5402 67.8348 48.4238 67.7759Z" fill="#19303D"/>
</svg>
