<svg width="162" height="19" viewBox="0 0 162 19" fill="none" xmlns="http://www.w3.org/2000/svg">
<path d="M29.2941 9.87823V15.1389H32.3333V9.87823C33.2229 8.48408 36.8173 2.0606 37.1517 1.39513H33.6174C33.0657 2.36838 29.2941 9.87823 29.2941 9.87823ZM30.0831 5.38633L28.4113 8.39931C27.5871 6.96857 25.2349 2.86749 24.4807 1.38514H28.0252L30.0831 5.38633Z" fill="#19303D"/>
<path d="M4.97383 12.7266C5.33349 12.7336 5.69269 12.6979 6.04381 12.62C6.2832 12.5642 6.51 12.4644 6.71254 12.3256C6.8716 12.2172 6.99492 12.0644 7.06696 11.8864C7.13818 11.7034 7.17447 11.5087 7.17397 11.3125C7.17147 11.0905 7.1125 10.8728 7.00258 10.6796C6.89265 10.4864 6.73536 10.324 6.54535 10.2077C6.12628 9.9194 5.40572 9.60608 4.38367 9.26776C3.93786 9.11133 3.49202 8.93172 3.04621 8.72879C2.61102 8.53409 2.20666 8.27734 1.84583 7.96676C1.48854 7.65421 1.19557 7.27563 0.983153 6.85208C0.74739 6.35489 0.632817 5.80942 0.648797 5.25991C0.639344 4.67745 0.759831 4.10016 1.00155 3.5696C1.23471 3.07287 1.5776 2.63495 2.00465 2.28855C2.47112 1.91926 3.0055 1.64406 3.57785 1.47833C4.25393 1.28 4.95617 1.1841 5.66096 1.19384C6.46332 1.17934 7.2637 1.27793 8.03828 1.48665C8.60931 1.64461 9.16225 1.86093 9.68838 2.13217L8.80404 4.53621C8.3965 4.32957 7.97271 4.15652 7.53682 4.0188C6.99443 3.85865 6.4305 3.78289 5.86492 3.7942C5.13043 3.7942 4.60324 3.89513 4.28337 4.09698C4.12645 4.19415 3.99887 4.33172 3.91409 4.49515C3.82934 4.65858 3.79056 4.84177 3.80188 5.02534C3.79106 5.24809 3.85071 5.4686 3.97241 5.65588C4.10642 5.84132 4.27708 5.99758 4.47395 6.11504C4.71009 6.26249 4.95977 6.38721 5.21959 6.48769C5.50157 6.59868 5.81309 6.71227 6.15415 6.82875C6.86189 7.08947 7.47768 7.34668 8.00151 7.60069C8.48061 7.82344 8.92048 8.12182 9.30382 8.48408C9.64885 8.81875 9.91437 9.22568 10.0812 9.6753C10.2638 10.2108 10.3504 10.7738 10.3371 11.339C10.3371 12.6034 9.89124 13.5839 8.99954 14.2804C8.108 14.977 6.76604 15.3259 4.97383 15.3269C4.42857 15.3306 3.88376 15.2944 3.34379 15.2188C2.90949 15.1578 2.47953 15.0694 2.05648 14.9543C1.72819 14.8654 1.40645 14.7543 1.0935 14.6215C0.826003 14.5035 0.591956 14.3935 0.416405 14.2888L1.28075 11.8647C1.76003 12.1155 2.26432 12.3156 2.78539 12.4621C3.49872 12.6524 4.23547 12.7414 4.97383 12.7266Z" fill="#19303D"/>
<path d="M22.9043 1.39342V4.07364H18.7748V15.1505H15.722V4.07364H11.4137V1.39342H22.9043Z" fill="#19303D"/>
<path d="M50.3007 1.39342V4.07364H46.1796V15.1505H43.1184V4.07364H38.8101V1.39342H50.3007Z" fill="#19303D"/>
<path d="M58.1432 15.3368C55.9999 15.3368 54.3676 14.7268 53.2464 13.5068C52.1252 12.2867 51.564 10.5488 51.5629 8.29273C51.5456 7.27151 51.7196 6.25594 52.0762 5.29814C52.3879 4.46888 52.867 3.71188 53.4839 3.07378C54.0842 2.46614 54.8113 1.99703 55.6137 1.69957C56.4691 1.38175 57.3758 1.22273 58.2886 1.23042C58.7987 1.22686 59.3078 1.26917 59.81 1.35686C60.2153 1.43018 60.6155 1.52797 61.0088 1.64967C61.3046 1.74182 61.5925 1.85754 61.8698 1.99571C62.0989 2.11217 62.2626 2.20367 62.3713 2.26856L61.5153 4.72583C61.0648 4.48775 60.5902 4.29813 60.0993 4.16018C59.5005 3.99567 58.8814 3.91669 58.2603 3.9256C57.8042 3.92617 57.3516 4.00555 56.9227 4.16018C56.4833 4.3191 56.0863 4.57638 55.7626 4.91216C55.4029 5.29483 55.1278 5.74822 54.955 6.24311C54.7367 6.88562 54.6337 7.56151 54.6507 8.23952C54.6449 8.82576 54.7094 9.41047 54.843 9.98145C54.9601 10.4855 55.1804 10.9601 55.49 11.3756C55.7986 11.7746 56.2003 12.0927 56.6603 12.3023C57.2105 12.5441 57.8078 12.6606 58.409 12.6434C58.7973 12.6461 59.1851 12.6199 59.5693 12.5651C59.877 12.5211 60.1819 12.4589 60.4822 12.3788C60.7224 12.3185 60.9576 12.2399 61.186 12.1442C61.3889 12.0522 61.5727 11.9673 61.7377 11.8897L62.5636 14.322C62.01 14.6373 61.4145 14.8736 60.7947 15.0241C59.9289 15.2457 59.0372 15.3509 58.1432 15.3368Z" fill="#19303D"/>
<path d="M73.1312 1.41341H76.363V15.1755H73.1312V9.27767H67.9235V15.1755H64.8691V1.41341H67.9235V6.59578H73.1312V1.41341Z" fill="#19303D"/>
<path d="M82.64 15V1.04H91.84V3.38H85.28V6.76H91.08V9.1H85.28V12.66H91.84V15H82.64Z" fill="#4A37BE"/>
<path d="M93.3722 15L96.9322 9.7L93.4522 4.56H96.3722L98.5322 8.02H98.6122L100.752 4.56H103.472L99.9322 9.74L103.492 15H100.572L98.3722 11.4H98.2922L96.0922 15H93.3722Z" fill="#4A37BE"/>
<path d="M113.031 15C112.471 15 112.024 14.84 111.691 14.52C111.371 14.1867 111.171 13.7467 111.091 13.2H110.971C110.798 13.88 110.444 14.3933 109.911 14.74C109.378 15.0733 108.718 15.24 107.931 15.24C106.864 15.24 106.044 14.96 105.471 14.4C104.898 13.84 104.611 13.0933 104.611 12.16C104.611 11.08 104.998 10.28 105.771 9.76C106.544 9.22667 107.644 8.96 109.071 8.96H110.851V8.2C110.851 7.61333 110.698 7.16 110.391 6.84C110.084 6.52 109.591 6.36 108.911 6.36C108.311 6.36 107.824 6.49333 107.451 6.76C107.091 7.01333 106.784 7.32 106.531 7.68L105.011 6.32C105.398 5.72 105.911 5.24 106.551 4.88C107.191 4.50667 108.038 4.32 109.091 4.32C110.504 4.32 111.578 4.64 112.311 5.28C113.044 5.92 113.411 6.84 113.411 8.04V12.96H114.451V15H113.031ZM108.791 13.38C109.364 13.38 109.851 13.2533 110.251 13C110.651 12.7467 110.851 12.3733 110.851 11.88V10.5H109.211C107.878 10.5 107.211 10.9267 107.211 11.78V12.12C107.211 12.5467 107.344 12.8667 107.611 13.08C107.891 13.28 108.284 13.38 108.791 13.38Z" fill="#4A37BE"/>
<path d="M116.523 15V4.56H119.083V6.3H119.183C119.383 5.75333 119.703 5.28667 120.143 4.9C120.583 4.51333 121.196 4.32 121.983 4.32C122.703 4.32 123.323 4.49333 123.843 4.84C124.363 5.18667 124.75 5.71333 125.003 6.42H125.043C125.23 5.83333 125.596 5.34 126.143 4.94C126.703 4.52667 127.403 4.32 128.243 4.32C129.27 4.32 130.056 4.67333 130.603 5.38C131.163 6.08667 131.443 7.09333 131.443 8.4V15H128.883V8.66C128.883 7.16667 128.323 6.42 127.203 6.42C126.95 6.42 126.703 6.46 126.463 6.54C126.236 6.60667 126.03 6.71333 125.843 6.86C125.67 6.99333 125.53 7.16667 125.423 7.38C125.316 7.58 125.263 7.82 125.263 8.1V15H122.703V8.66C122.703 7.16667 122.143 6.42 121.023 6.42C120.783 6.42 120.543 6.46 120.303 6.54C120.076 6.60667 119.87 6.71333 119.683 6.86C119.51 6.99333 119.363 7.16667 119.243 7.38C119.136 7.58 119.083 7.82 119.083 8.1V15H116.523Z" fill="#4A37BE"/>
<path d="M134.277 4.56H136.837V6.28H136.917C137.104 5.68 137.457 5.20667 137.977 4.86C138.497 4.5 139.104 4.32 139.797 4.32C141.13 4.32 142.144 4.79333 142.837 5.74C143.544 6.67333 143.897 8.01333 143.897 9.76C143.897 11.52 143.544 12.8733 142.837 13.82C142.144 14.7667 141.13 15.24 139.797 15.24C139.104 15.24 138.497 15.06 137.977 14.7C137.47 14.34 137.117 13.86 136.917 13.26H136.837V19H134.277V4.56ZM138.977 13.12C139.644 13.12 140.184 12.9 140.597 12.46C141.01 12.02 141.217 11.4267 141.217 10.68V8.88C141.217 8.13333 141.01 7.54 140.597 7.1C140.184 6.64667 139.644 6.42 138.977 6.42C138.364 6.42 137.85 6.57333 137.437 6.88C137.037 7.18667 136.837 7.59333 136.837 8.1V11.42C136.837 11.9667 137.037 12.3867 137.437 12.68C137.85 12.9733 138.364 13.12 138.977 13.12Z" fill="#4A37BE"/>
<path d="M148.829 15C147.949 15 147.302 14.78 146.889 14.34C146.476 13.9 146.269 13.28 146.269 12.48V0.2H148.829V12.96H150.209V15H148.829Z" fill="#4A37BE"/>
<path d="M156.368 15.24C155.595 15.24 154.901 15.1133 154.288 14.86C153.688 14.5933 153.175 14.2267 152.748 13.76C152.335 13.28 152.015 12.7067 151.788 12.04C151.561 11.36 151.448 10.6 151.448 9.76C151.448 8.93333 151.555 8.18667 151.768 7.52C151.995 6.85333 152.315 6.28667 152.728 5.82C153.141 5.34 153.648 4.97333 154.248 4.72C154.848 4.45333 155.528 4.32 156.288 4.32C157.101 4.32 157.808 4.46 158.408 4.74C159.008 5.02 159.501 5.4 159.888 5.88C160.275 6.36 160.561 6.92 160.748 7.56C160.948 8.18667 161.048 8.86 161.048 9.58V10.42H154.108V10.68C154.108 11.44 154.321 12.0533 154.748 12.52C155.175 12.9733 155.808 13.2 156.648 13.2C157.288 13.2 157.808 13.0667 158.208 12.8C158.621 12.5333 158.988 12.1933 159.308 11.78L160.688 13.32C160.261 13.92 159.675 14.3933 158.928 14.74C158.195 15.0733 157.341 15.24 156.368 15.24ZM156.328 6.24C155.648 6.24 155.108 6.46667 154.708 6.92C154.308 7.37333 154.108 7.96 154.108 8.68V8.84H158.388V8.66C158.388 7.94 158.208 7.36 157.848 6.92C157.501 6.46667 156.995 6.24 156.328 6.24Z" fill="#4A37BE"/>
</svg>
