<svg width="471" height="45" viewBox="0 0 471 45" fill="none" xmlns="http://www.w3.org/2000/svg">
<path d="M337.196 24.9966V39.5315H345.581V24.9966C348.034 21.1446 357.95 3.39655 358.872 1.55785H349.123C347.601 4.24695 337.196 24.9966 337.196 24.9966ZM339.373 12.5854L334.761 20.9101C332.488 16.9569 325.999 5.62597 323.919 1.53027H333.696L339.373 12.5854Z" fill="#ADBCC5"/>
<path d="M270.108 32.8665C271.1 32.886 272.091 32.7872 273.06 32.5723C273.72 32.4179 274.346 32.142 274.904 31.7587C275.343 31.4591 275.683 31.0369 275.882 30.5451C276.078 30.0394 276.179 29.5016 276.177 28.9593C276.17 28.3459 276.008 27.7444 275.704 27.2106C275.401 26.6769 274.967 26.2284 274.443 25.907C273.287 25.1103 271.299 24.2445 268.48 23.3099C267.25 22.8778 266.02 22.3813 264.791 21.8205C263.59 21.2827 262.475 20.5735 261.479 19.7152C260.494 18.8517 259.685 17.8057 259.1 16.6354C258.449 15.2618 258.133 13.7546 258.177 12.2363C258.151 10.627 258.483 9.03195 259.15 7.56604C259.793 6.19357 260.739 4.98363 261.917 4.02656C263.204 3.00622 264.678 2.24583 266.257 1.78795C268.122 1.23995 270.059 0.974963 272.003 1.0019C274.217 0.961833 276.425 1.23421 278.562 1.81093C280.136 2.24735 281.662 2.84505 283.113 3.59446L280.674 10.2367C279.55 9.66582 278.38 9.18769 277.178 8.80716C275.682 8.36466 274.126 8.15534 272.566 8.1866C270.54 8.1866 269.086 8.46547 268.203 9.02321C267.77 9.29166 267.418 9.67178 267.185 10.1233C266.951 10.5749 266.844 11.081 266.875 11.5882C266.845 12.2037 267.01 12.8129 267.346 13.3304C267.715 13.8428 268.186 14.2745 268.729 14.5991C269.38 15.0063 270.069 15.3511 270.786 15.6287C271.564 15.9352 272.423 16.2493 273.364 16.5711C275.316 17.2912 277.015 18.0022 278.46 18.7039C279.782 19.3194 280.995 20.1436 282.053 21.1448C283.004 22.0693 283.737 23.1937 284.197 24.4361C284.701 25.9153 284.94 27.4712 284.903 29.0328C284.903 32.5263 283.673 35.2353 281.213 37.1598C278.754 39.0843 275.052 40.0481 270.108 40.0512C268.604 40.0612 267.101 39.9614 265.611 39.7524C264.413 39.5839 263.227 39.3398 262.06 39.0215C261.155 38.7762 260.267 38.469 259.404 38.1022C258.666 37.7758 258.02 37.4724 257.536 37.1828L259.92 30.4854C261.243 31.178 262.634 31.7311 264.071 32.1356C266.039 32.6614 268.071 32.9075 270.108 32.8665Z" fill="#ADBCC5"/>
<path d="M319.57 1.55322V8.95857H308.179V39.5637H299.758V8.95857H287.873V1.55322H319.57Z" fill="#ADBCC5"/>
<path d="M395.144 1.55322V8.95857H383.776V39.5637H375.332V8.95857H363.447V1.55322H395.144Z" fill="#ADBCC5"/>
<path d="M416.779 40.079C410.866 40.079 406.363 38.3935 403.27 35.0226C400.177 31.6517 398.629 26.8496 398.626 20.6164C398.579 17.7947 399.059 14.9888 400.042 12.3423C400.902 10.0511 402.224 7.95953 403.925 6.19646C405.581 4.51755 407.587 3.22142 409.801 2.39955C412.16 1.52142 414.661 1.08206 417.18 1.10327C418.586 1.09346 419.991 1.21039 421.377 1.45262C422.494 1.65524 423.598 1.92542 424.683 2.26165C425.499 2.51629 426.294 2.83603 427.058 3.21777C427.69 3.53954 428.142 3.79236 428.442 3.97164L426.081 10.761C424.838 10.1032 423.528 9.5793 422.174 9.19813C420.523 8.74361 418.815 8.52538 417.101 8.54999C415.843 8.55158 414.595 8.77088 413.412 9.19813C412.199 9.63722 411.104 10.3481 410.211 11.2759C409.219 12.3332 408.46 13.5859 407.984 14.9532C407.381 16.7286 407.097 18.5958 407.144 20.4693C407.128 22.0889 407.306 23.7046 407.675 25.2821C407.998 26.6747 408.605 27.986 409.46 29.1342C410.311 30.2364 411.419 31.1153 412.688 31.6946C414.205 32.3626 415.854 32.6845 417.512 32.6369C418.583 32.6444 419.652 32.5721 420.712 32.4208C421.561 32.299 422.402 32.1271 423.231 31.906C423.893 31.7391 424.542 31.5225 425.172 31.2579C425.732 31.0035 426.239 30.7691 426.694 30.5546L428.972 37.275C427.445 38.1463 425.803 38.7993 424.093 39.2148C421.704 39.8269 419.244 40.1176 416.779 40.079Z" fill="#ADBCC5"/>
<path d="M458.124 1.60889H467.038V39.6331H458.124V23.3377H443.758V39.6331H435.332V1.60889H443.758V15.9277H458.124V1.60889Z" fill="#ADBCC5"/>
<path d="M0 35.2128V2.44186H13.052C15.9942 2.44186 18.2478 3.28696 19.8128 4.97715C21.4091 6.63604 22.2072 8.92093 22.2072 11.8318C22.2072 14.7427 21.4091 17.0432 19.8128 18.7334C18.2478 20.3923 15.9942 21.2218 13.052 21.2218H3.94378V35.2128H0ZM3.94378 17.7475H13.052C14.617 17.7475 15.8221 17.3406 16.6672 16.5268C17.5436 15.713 17.9818 14.5549 17.9818 13.0525V10.6111C17.9818 9.10873 17.5436 7.95063 16.6672 7.13684C15.8221 6.32304 14.617 5.91614 13.052 5.91614H3.94378V17.7475Z" fill="#ADBCC5"/>
<path d="M36.3351 35.7762C34.7075 35.7762 33.2208 35.4789 31.8749 34.8842C30.529 34.2895 29.3709 33.4444 28.4006 32.3489C27.4616 31.2221 26.726 29.8918 26.1939 28.3581C25.6618 26.7931 25.3958 25.0404 25.3958 23.0998C25.3958 21.1905 25.6618 19.4533 26.1939 17.8883C26.726 16.3233 27.4616 14.9931 28.4006 13.8976C29.3709 12.7708 30.529 11.9101 31.8749 11.3154C33.2208 10.7207 34.7075 10.4233 36.3351 10.4233C37.9627 10.4233 39.4338 10.7207 40.7484 11.3154C42.0943 11.9101 43.2524 12.7708 44.2227 13.8976C45.193 14.9931 45.9441 16.3233 46.4762 17.8883C47.0083 19.4533 47.2744 21.1905 47.2744 23.0998C47.2744 25.0404 47.0083 26.7931 46.4762 28.3581C45.9441 29.8918 45.193 31.2221 44.2227 32.3489C43.2524 33.4444 42.0943 34.2895 40.7484 34.8842C39.4338 35.4789 37.9627 35.7762 36.3351 35.7762ZM36.3351 32.4428C38.3696 32.4428 40.0285 31.8168 41.3118 30.5648C42.5951 29.3128 43.2367 27.4035 43.2367 24.8369V21.3626C43.2367 18.796 42.5951 16.8867 41.3118 15.6347C40.0285 14.3828 38.3696 13.7568 36.3351 13.7568C34.3006 13.7568 32.6417 14.3828 31.3584 15.6347C30.0751 16.8867 29.4335 18.796 29.4335 21.3626V24.8369C29.4335 27.4035 30.0751 29.3128 31.3584 30.5648C32.6417 31.8168 34.3006 32.4428 36.3351 32.4428Z" fill="#ADBCC5"/>
<path d="M50.6871 10.9867H54.3491L56.9314 21.4565L59.5136 32.0672H59.6075L62.5653 21.4565L65.6171 10.9867H68.9505L72.0962 21.4565L75.1009 32.0672H75.1948L77.6832 21.4565L80.3124 10.9867H83.8336L77.4015 35.2128H72.7534L69.3731 23.5693L67.2603 16.1981H67.1664L65.1006 23.5693L61.7203 35.2128H57.1661L50.6871 10.9867Z" fill="#ADBCC5"/>
<path d="M98.139 35.7762C96.4801 35.7762 94.9777 35.4789 93.6318 34.8842C92.3172 34.2895 91.1748 33.4444 90.2045 32.3489C89.2655 31.2221 88.5299 29.8918 87.9978 28.3581C87.497 26.7931 87.2466 25.0404 87.2466 23.0998C87.2466 21.1905 87.497 19.4533 87.9978 17.8883C88.5299 16.3233 89.2655 14.9931 90.2045 13.8976C91.1748 12.7708 92.3172 11.9101 93.6318 11.3154C94.9777 10.7207 96.4801 10.4233 98.139 10.4233C99.7666 10.4233 101.222 10.7207 102.505 11.3154C103.789 11.9101 104.884 12.7395 105.792 13.8037C106.699 14.8366 107.388 16.0729 107.858 17.5127C108.358 18.9525 108.609 20.5332 108.609 22.2547V24.0388H91.1904V25.1656C91.1904 26.1985 91.3469 27.1687 91.6599 28.0764C92.0042 28.9528 92.4737 29.7197 93.0684 30.377C93.6944 31.0343 94.4456 31.5507 95.322 31.9263C96.2297 32.3019 97.2469 32.4897 98.3737 32.4897C99.9074 32.4897 101.238 32.1298 102.364 31.4099C103.523 30.69 104.415 29.6571 105.041 28.3112L107.717 30.2361C106.934 31.895 105.714 33.2409 104.055 34.2738C102.396 35.2754 100.424 35.7762 98.139 35.7762ZM98.139 13.569C97.1061 13.569 96.1671 13.7568 95.322 14.1324C94.4769 14.4767 93.7413 14.9775 93.1153 15.6347C92.5207 16.292 92.0512 17.0745 91.7069 17.9822C91.3626 18.8586 91.1904 19.8289 91.1904 20.8931V21.2218H104.571V20.7053C104.571 18.5456 103.976 16.8241 102.787 15.5408C101.629 14.2263 100.08 13.569 98.139 13.569Z" fill="#ADBCC5"/>
<path d="M114.798 35.2128V10.9867H118.554V15.4469H118.789C119.227 14.2889 120.01 13.256 121.136 12.3483C122.263 11.4406 123.812 10.9867 125.784 10.9867H127.24V14.7427H125.033C122.999 14.7427 121.402 15.134 120.244 15.9164C119.117 16.6676 118.554 17.6223 118.554 18.7804V35.2128H114.798Z" fill="#ADBCC5"/>
<path d="M140.916 35.7762C139.258 35.7762 137.755 35.4789 136.409 34.8842C135.095 34.2895 133.952 33.4444 132.982 32.3489C132.043 31.2221 131.307 29.8918 130.775 28.3581C130.275 26.7931 130.024 25.0404 130.024 23.0998C130.024 21.1905 130.275 19.4533 130.775 17.8883C131.307 16.3233 132.043 14.9931 132.982 13.8976C133.952 12.7708 135.095 11.9101 136.409 11.3154C137.755 10.7207 139.258 10.4233 140.916 10.4233C142.544 10.4233 143.999 10.7207 145.283 11.3154C146.566 11.9101 147.662 12.7395 148.569 13.8037C149.477 14.8366 150.166 16.0729 150.635 17.5127C151.136 18.9525 151.386 20.5332 151.386 22.2547V24.0388H133.968V25.1656C133.968 26.1985 134.124 27.1687 134.437 28.0764C134.782 28.9528 135.251 29.7197 135.846 30.377C136.472 31.0343 137.223 31.5507 138.099 31.9263C139.007 32.3019 140.024 32.4897 141.151 32.4897C142.685 32.4897 144.015 32.1298 145.142 31.4099C146.3 30.69 147.192 29.6571 147.818 28.3112L150.494 30.2361C149.712 31.895 148.491 33.2409 146.832 34.2738C145.173 35.2754 143.201 35.7762 140.916 35.7762ZM140.916 13.569C139.884 13.569 138.945 13.7568 138.099 14.1324C137.254 14.4767 136.519 14.9775 135.893 15.6347C135.298 16.292 134.829 17.0745 134.484 17.9822C134.14 18.8586 133.968 19.8289 133.968 20.8931V21.2218H147.349V20.7053C147.349 18.5456 146.754 16.8241 145.564 15.5408C144.406 14.2263 142.857 13.569 140.916 13.569Z" fill="#ADBCC5"/>
<path d="M173.069 31.269H172.881C171.41 34.2738 169.047 35.7762 165.792 35.7762C164.289 35.7762 162.928 35.4789 161.707 34.8842C160.486 34.2895 159.438 33.4444 158.562 32.3489C157.716 31.2534 157.059 29.9231 156.59 28.3581C156.151 26.7931 155.932 25.0404 155.932 23.0998C155.932 21.1592 156.151 19.4064 156.59 17.8414C157.059 16.2764 157.716 14.9462 158.562 13.8507C159.438 12.7552 160.486 11.9101 161.707 11.3154C162.928 10.7207 164.289 10.4233 165.792 10.4233C167.482 10.4233 168.922 10.7989 170.111 11.5501C171.332 12.27 172.255 13.3968 172.881 14.9305H173.069V0.469971H176.825V35.2128H173.069V31.269ZM166.825 32.3958C167.67 32.3958 168.468 32.2863 169.219 32.0672C170.002 31.8481 170.675 31.5351 171.238 31.1282C171.801 30.69 172.24 30.1735 172.553 29.5788C172.897 28.9528 173.069 28.2486 173.069 27.4661V18.4517C173.069 17.7944 172.897 17.1841 172.553 16.6207C172.24 16.026 171.801 15.5252 171.238 15.1183C170.675 14.7114 170.002 14.3984 169.219 14.1793C168.468 13.9289 167.67 13.8037 166.825 13.8037C164.696 13.8037 163.022 14.4767 161.801 15.8225C160.58 17.1371 159.97 18.8743 159.97 21.034V25.1656C159.97 27.3252 160.58 29.078 161.801 30.4239C163.022 31.7385 164.696 32.3958 166.825 32.3958Z" fill="#ADBCC5"/>
<path d="M195.906 0.469971H199.662V14.9305H199.849C200.475 13.3968 201.383 12.27 202.573 11.5501C203.793 10.7989 205.249 10.4233 206.939 10.4233C208.441 10.4233 209.803 10.7207 211.023 11.3154C212.244 11.9101 213.277 12.7552 214.122 13.8507C214.999 14.9462 215.656 16.2764 216.094 17.8414C216.564 19.4064 216.798 21.1592 216.798 23.0998C216.798 25.0404 216.564 26.7931 216.094 28.3581C215.656 29.9231 214.999 31.2534 214.122 32.3489C213.277 33.4444 212.244 34.2895 211.023 34.8842C209.803 35.4789 208.441 35.7762 206.939 35.7762C203.652 35.7762 201.289 34.2738 199.849 31.269H199.662V35.2128H195.906V0.469971ZM205.906 32.3958C208.034 32.3958 209.709 31.7385 210.93 30.4239C212.15 29.078 212.761 27.3252 212.761 25.1656V21.034C212.761 18.8743 212.15 17.1371 210.93 15.8225C209.709 14.4767 208.034 13.8037 205.906 13.8037C205.061 13.8037 204.247 13.9289 203.465 14.1793C202.713 14.3984 202.056 14.7114 201.493 15.1183C200.929 15.5252 200.475 16.026 200.131 16.6207C199.818 17.1841 199.662 17.7944 199.662 18.4517V27.4661C199.662 28.2486 199.818 28.9528 200.131 29.5788C200.475 30.1735 200.929 30.69 201.493 31.1282C202.056 31.5351 202.713 31.8481 203.465 32.0672C204.247 32.2863 205.061 32.3958 205.906 32.3958Z" fill="#ADBCC5"/>
<path d="M237.841 10.9867H241.55L230.705 40.8468C230.423 41.5667 230.141 42.1614 229.86 42.6309C229.578 43.1317 229.234 43.5229 228.827 43.8046C228.42 44.0863 227.903 44.2898 227.277 44.415C226.683 44.5402 225.947 44.6028 225.071 44.6028H223.146V41.3163H226.949L228.78 36.1518L219.718 10.9867H223.474L229.296 27.4661L230.423 31.4099H230.658L231.972 27.4661L237.841 10.9867Z" fill="#ADBCC5"/>
</svg>
