<svg width="690" height="131" viewBox="0 0 690 131" fill="none" xmlns="http://www.w3.org/2000/svg">
<path d="M263.847 79.7113V126.06H290.495V79.7113C298.294 67.4277 329.809 10.8326 332.74 4.9693H301.753C296.916 13.5443 263.847 79.7113 263.847 79.7113ZM270.765 40.1342L256.107 66.6802C248.881 54.0741 228.257 17.9418 221.646 4.88135H252.721L270.765 40.1342Z" fill="#19303D"/>
<path d="M50.6146 104.806C53.7679 104.868 56.9173 104.554 59.9959 103.868C62.0948 103.376 64.0833 102.496 65.8591 101.274C67.2538 100.318 68.3349 98.9719 68.9667 97.4039C69.591 95.7912 69.9091 94.0762 69.9048 92.3468C69.8828 90.3911 69.3659 88.4727 68.4021 86.7708C67.4384 85.0688 66.0592 83.6387 64.3933 82.6138C60.719 80.0731 54.4013 77.3124 45.4403 74.332C41.5315 72.9541 37.6226 71.371 33.7138 69.5827C29.8983 67.8678 26.3529 65.6062 23.1892 62.8693C20.0566 60.1156 17.488 56.7803 15.6256 53.0483C13.5584 48.6681 12.554 43.8619 12.694 39.0204C12.6112 33.8886 13.6675 28.8023 15.7869 24.1277C17.8311 19.7512 20.8376 15.8929 24.5818 12.841C28.6717 9.58731 33.3569 7.16254 38.3751 5.70244C44.3028 3.95497 50.4598 3.10998 56.6392 3.19589C63.674 3.06811 70.6916 3.93667 77.4831 5.77573C82.4889 7.1674 87.3372 9.07334 91.9507 11.4631L84.1965 32.6441C80.6236 30.8235 76.9076 29.2989 73.0856 28.0855C68.3307 26.6744 63.3863 26.0069 58.4275 26.1066C51.9876 26.1066 47.3654 26.9959 44.5608 28.7744C43.1851 29.6304 42.0664 30.8425 41.3232 32.2824C40.5801 33.7223 40.2401 35.3363 40.3393 36.9536C40.2445 38.9162 40.7674 40.8592 41.8344 42.5091C43.0094 44.1431 44.5058 45.5198 46.2319 46.5547C48.3023 47.8534 50.4913 48.9528 52.7694 49.8382C55.2417 50.8154 57.973 51.817 60.9633 52.8431C67.1686 55.1395 72.5677 57.4067 77.1606 59.6445C81.3612 61.6069 85.2172 64.2353 88.5793 67.428C91.6036 70.3759 93.9322 73.9614 95.3953 77.9232C96.9959 82.6401 97.755 87.6017 97.638 92.5814C97.638 103.722 93.7292 112.36 85.9115 118.497C78.0938 124.634 66.3282 127.707 50.6146 127.717C45.8339 127.749 41.0572 127.431 36.3229 126.764C32.5152 126.227 28.7453 125.448 25.0362 124.434C22.1579 123.651 19.3369 122.672 16.5931 121.502C14.2478 120.461 12.1956 119.494 10.6565 118.57L18.2348 97.2134C22.437 99.422 26.8585 101.186 31.4271 102.476C37.6813 104.152 44.141 104.937 50.6146 104.806Z" fill="#19303D"/>
<path d="M207.823 4.95435V28.5686H171.618V126.163H144.852V28.5686H107.078V4.95435H207.823Z" fill="#19303D"/>
<path d="M448.027 4.95435V28.5686H411.894V126.163H385.055V28.5686H347.281V4.95435H448.027Z" fill="#19303D"/>
<path d="M516.788 127.805C497.996 127.805 483.685 122.43 473.854 111.681C464.024 100.931 459.103 85.6183 459.094 65.7419C458.942 56.7438 460.468 47.7964 463.594 39.3572C466.327 32.0508 470.528 25.3813 475.936 19.7592C481.2 14.4055 487.574 10.2724 494.61 7.65156C502.109 4.85135 510.059 3.45031 518.063 3.51796C522.534 3.48668 526.999 3.85953 531.402 4.63198C534.955 5.2781 538.464 6.13963 541.912 7.21182C544.506 8.02383 547.031 9.04342 549.461 10.2607C551.469 11.2868 552.906 12.093 553.859 12.6647L546.354 34.3148C542.404 32.2172 538.242 30.5465 533.938 29.331C528.689 27.8816 523.26 27.1857 517.814 27.2642C513.815 27.2693 509.847 27.9686 506.088 29.331C502.234 30.7312 498.754 32.998 495.915 35.9565C492.762 39.3281 490.35 43.3227 488.835 47.683C486.921 53.3444 486.018 59.2984 486.167 65.2728C486.116 70.4374 486.682 75.5896 487.853 80.6199C488.88 85.0607 490.811 89.2421 493.526 92.9034C496.232 96.4183 499.753 99.2207 503.786 101.068C508.61 103.198 513.848 104.225 519.119 104.073C522.522 104.097 525.922 103.866 529.292 103.384C531.989 102.996 534.662 102.447 537.295 101.742C539.401 101.21 541.464 100.519 543.466 99.6755C545.245 98.8644 546.857 98.1169 548.303 97.4328L555.544 118.863C550.69 121.642 545.47 123.724 540.036 125.049C532.444 127.001 524.626 127.927 516.788 127.805Z" fill="#19303D"/>
<path d="M648.199 5.13037H676.533V126.383H648.199V74.4195H602.538V126.383H575.758V5.13037H602.538V50.7906H648.199V5.13037Z" fill="#19303D"/>
</svg>
