<svg width="495" height="74" viewBox="0 0 495 74" fill="none" xmlns="http://www.w3.org/2000/svg">
<path d="M181.842 42.5349C181.842 37.6137 184.201 34.715 188.718 34.715C192.965 34.715 194.381 37.7486 194.381 41.6585V62.6238H203.953V40.5799C203.953 32.3556 199.639 26.4907 191.145 26.4907C186.089 26.4907 182.516 28.0412 179.415 31.4792C177.393 28.3782 173.955 26.4907 169.168 26.4907C164.112 26.4907 160.607 28.5805 158.989 31.614V27.2996H150.158V62.6238H159.731V42.3326C159.731 37.6137 162.157 34.715 166.607 34.715C170.854 34.715 172.269 37.7486 172.269 41.6585V62.6238H181.842V42.5349Z" fill="white"/>
<path d="M243.245 47.7256C243.245 47.7256 243.379 46.4448 243.379 44.8943C243.379 34.4454 236.301 26.4907 225.852 26.4907C215.403 26.4907 208.123 34.4454 208.123 44.8943C208.123 55.7477 215.471 63.4327 225.92 63.4327C234.077 63.4327 240.548 58.5116 242.638 51.3659H232.998C231.852 53.9276 229.088 55.2084 226.189 55.2084C221.403 55.2084 218.302 52.5793 217.628 47.7256H243.245ZM225.785 34.1757C230.234 34.1757 233.133 36.8722 233.807 40.8495H217.763C218.572 36.8048 221.403 34.1757 225.785 34.1757Z" fill="white"/>
<path d="M244.791 35.524H249.038V62.6238H258.61V27.2996H244.791V35.524ZM253.824 22.7156C257.195 22.7156 259.622 20.3561 259.622 16.9855C259.622 13.6149 257.195 11.188 253.824 11.188C250.454 11.188 248.027 13.6149 248.027 16.9855C248.027 20.3561 250.454 22.7156 253.824 22.7156Z" fill="white"/>
<path d="M278.432 54.3995C278.163 54.3995 277.758 54.4669 277.152 54.4669C274.994 54.4669 274.725 53.4557 274.725 51.9726V12.0644H265.152V52.6467C265.152 59.6576 267.849 62.7586 275.466 62.7586C276.747 62.7586 277.96 62.6238 278.432 62.5564V54.3995Z" fill="white"/>
<path d="M279.521 35.524H283.768V62.6238H293.341V27.2996H279.521V35.524ZM288.555 22.7156C291.925 22.7156 294.352 20.3561 294.352 16.9855C294.352 13.6149 291.925 11.188 288.555 11.188C285.184 11.188 282.757 13.6149 282.757 16.9855C282.757 20.3561 285.184 22.7156 288.555 22.7156Z" fill="white"/>
<path d="M312.557 62.9937C321.86 62.9937 326.242 58.0726 326.242 52.8819C326.242 38.4556 305.007 46.4777 305.007 36.9725C305.007 33.8716 307.636 31.2425 312.962 31.2425C318.422 31.2425 320.984 34.2086 321.388 37.9163H326.175C325.77 33.2648 322.602 27.0629 313.097 27.0629C304.94 27.0629 300.356 31.9166 300.356 37.1748C300.356 51.264 321.591 43.1745 321.591 53.0167C321.591 56.4547 318.355 58.8142 312.557 58.8142C306.625 58.8142 303.659 55.848 303.322 51.4662H298.468C298.873 57.4659 302.648 62.9937 312.557 62.9937Z" fill="white"/>
<path d="M364.256 46.4103C364.256 46.4103 364.324 45.3317 364.324 44.5901C364.324 34.8827 358.054 27.0629 347.808 27.0629C337.494 27.0629 330.955 35.4894 330.955 44.9946C330.955 54.6346 337.022 62.9937 347.875 62.9937C356.032 62.9937 361.695 58.0052 363.717 51.4662H358.729C357.245 55.6458 353.201 58.6794 347.943 58.6794C340.729 58.6794 336.213 53.3538 335.741 46.4103H364.256ZM347.808 31.3773C354.549 31.3773 358.931 35.8939 359.538 42.5004H335.876C336.685 36.1636 341.134 31.3773 347.808 31.3773Z" fill="white"/>
<path d="M394.037 45.871V49.1068C394.037 54.9717 389.79 59.0164 381.634 59.0164C376.578 59.0164 373.814 56.9266 373.814 52.41C373.814 50.118 374.892 48.3652 376.578 47.4215C378.33 46.4777 380.69 45.871 394.037 45.871ZM381.094 62.9937C387.027 62.9937 391.813 61.1062 394.24 57.1963V62.1848H398.824V39.7364C398.824 32.1188 394.442 27.0629 384.532 27.0629C375.027 27.0629 370.848 31.8492 369.971 37.9837H374.623C375.566 33.13 379.274 31.1751 384.33 31.1751C390.802 31.1751 394.037 33.8716 394.037 39.669V41.8936C383.184 41.8936 378.667 42.0959 375.297 43.4441C371.387 44.9946 369.095 48.4327 369.095 52.5448C369.095 58.5445 372.937 62.9937 381.094 62.9937Z" fill="white"/>
<path d="M424.991 27.6022C424.991 27.6022 424.182 27.5348 423.845 27.5348C417.509 27.5348 414.138 30.838 412.857 33.1974V27.8718H408.273V62.1848H413.059V42.7026C413.059 35.5569 417.441 32.0514 423.306 32.0514C424.182 32.0514 424.991 32.1188 424.991 32.1188V27.6022Z" fill="white"/>
<path d="M425.809 45.062C425.809 54.4324 432.28 62.9937 442.729 62.9937C452.032 62.9937 457.425 56.7918 458.773 49.9831H453.92C452.504 55.3087 448.594 58.6794 442.729 58.6794C435.516 58.6794 430.662 52.9493 430.662 45.062C430.662 37.1073 435.516 31.3773 442.729 31.3773C448.594 31.3773 452.504 34.7479 453.92 40.0735H458.773C457.425 33.2648 452.032 27.0629 442.729 27.0629C432.28 27.0629 425.809 35.6243 425.809 45.062Z" fill="white"/>
<path d="M470.041 11.6254H465.255V62.1848H470.041V41.8936C470.041 34.8827 474.558 31.2425 480.355 31.2425C486.49 31.2425 489.389 35.0176 489.389 41.2195V62.1848H494.175V40.2757C494.175 32.6581 489.658 27.0629 481.164 27.0629C474.76 27.0629 471.255 30.5683 470.041 32.6581V11.6254Z" fill="white"/>
<path d="M0.825012 73.993L24.0688 14.5224C27.3443 6.14179 35.4223 0.625977 44.4203 0.625977H58.4336L35.1899 60.0966C31.9143 68.4772 23.8363 73.993 14.8384 73.993H0.825012Z" fill="url(#paint0_linear_0_3)"/>
<path d="M34.9246 73.9932L58.1684 14.5226C61.444 6.14197 69.5219 0.626152 78.5199 0.626152H92.5333L69.2895 60.0968C66.014 68.4774 57.936 73.9932 48.938 73.9932H34.9246Z" fill="url(#paint1_linear_0_3)"/>
<path d="M69.0262 73.9932L92.27 14.5226C95.5456 6.14197 103.624 0.626152 112.622 0.626152H126.635L103.391 60.0968C100.116 68.4774 92.0376 73.9932 83.0396 73.9932H69.0262Z" fill="url(#paint2_linear_0_3)"/>
<defs>
<linearGradient id="paint0_linear_0_3" x1="126.635" y1="-4.97799" x2="0.825008" y2="66.0978" gradientUnits="userSpaceOnUse">
<stop stop-color="#FF5CAA"/>
<stop offset="1" stop-color="#FF4E62"/>
</linearGradient>
<linearGradient id="paint1_linear_0_3" x1="126.635" y1="-4.97799" x2="0.825008" y2="66.0978" gradientUnits="userSpaceOnUse">
<stop stop-color="#FF5CAA"/>
<stop offset="1" stop-color="#FF4E62"/>
</linearGradient>
<linearGradient id="paint2_linear_0_3" x1="126.635" y1="-4.97799" x2="0.825008" y2="66.0978" gradientUnits="userSpaceOnUse">
<stop stop-color="#FF5CAA"/>
<stop offset="1" stop-color="#FF4E62"/>
</linearGradient>
</defs>
</svg>
