<svg width="602" height="172" viewBox="0 0 602 172" fill="none"
    xmlns="http://www.w3.org/2000/svg">
    <g clip-path="url(#clip0)">
        <path fill-rule="evenodd" clip-rule="evenodd" d="M3.97904 47.7401C1.51565 49.1723 0 51.8067 0 54.6562V117.701C0 120.55 1.51565 123.185 3.97904 124.617L86 172.304V172.053L168.021 124.367C170.484 122.935 172 120.3 172 117.451V57.006C172 53.9214 168.656 51.9976 165.989 53.5479L89.9789 97.7401C87.5155 99.1723 85.9999 101.807 85.9999 104.656V116.303L6.66502 70.1785L86 24.0535V7.00601C86 3.92142 82.6562 1.9976 79.9895 3.54798L3.97904 47.7401ZM111.495 105.475C110.879 105.833 110.5 106.492 110.5 107.204V112.315C110.5 113.087 111.336 113.568 112.003 113.18L152.505 89.6319C153.121 89.2738 153.5 88.6152 153.5 87.9029V82.7916C153.5 82.0205 152.664 81.5396 151.997 81.9271L111.495 105.475Z" fill="#335BF1"/>
        <path d="M57.3333 87.9895C57.3333 85.14 58.8489 82.5057 61.3123 81.0734L137.323 36.8813C139.989 35.3309 143.333 37.2547 143.333 40.3393V57.3869L57.3333 107.387V87.9895Z" fill="#335BF1"/>
        <path d="M28.6666 71.3229C28.6666 68.4734 30.1823 65.839 32.6457 64.4068L108.656 20.2147C111.323 18.6643 114.667 20.5881 114.667 23.6727V40.7202L28.6666 90.7202V71.3229Z" fill="#335BF1"/>
        <path d="M256.484 146C249.486 146 242.77 144.87 236.337 142.61C230.016 140.238 224.429 136.735 219.576 132.102C214.835 127.356 211.054 121.48 208.233 114.475C205.411 107.356 204 99.1076 204 89.7291C204 80.4635 205.467 72.2714 208.402 65.1528C211.336 57.9212 215.23 51.8759 220.084 47.0172C225.05 42.0454 230.693 38.2599 237.014 35.6611C243.448 33.0622 250.163 31.7628 257.161 31.7628C264.498 31.7628 271.044 33.2317 276.8 36.1696C282.557 38.9944 287.41 42.3844 291.36 46.3392L276.123 64.9833C273.414 62.6104 270.592 60.6895 267.658 59.2206C264.836 57.6387 261.563 56.8477 257.838 56.8477C254.565 56.8477 251.461 57.5822 248.527 59.0511C245.705 60.52 243.165 62.6104 240.908 65.3223C238.764 68.0342 237.014 71.3675 235.66 75.3223C234.418 79.2771 233.797 83.7404 233.797 88.7121C233.797 99.1076 235.942 107.074 240.231 112.61C244.633 118.147 250.389 120.916 257.5 120.916C261.789 120.916 265.57 120.012 268.843 118.204C272.229 116.283 275.107 114.023 277.477 111.424L292.715 129.729C287.974 135.153 282.5 139.221 276.292 141.932C270.197 144.644 263.595 146 256.484 146Z" fill="#335BF1"/>
        <path d="M328.258 146C323.291 146 319.115 145.266 315.729 143.797C312.456 142.215 309.804 140.012 307.772 137.187C305.74 134.362 304.273 131.029 303.37 127.187C302.58 123.232 302.185 118.882 302.185 114.136V26.0001H331.305V115.153C331.305 118.091 331.813 120.068 332.829 121.085C333.958 122.102 335.03 122.61 336.046 122.61C336.61 122.61 337.061 122.61 337.4 122.61C337.852 122.61 338.416 122.497 339.093 122.271L342.479 143.627C340.899 144.305 338.924 144.87 336.554 145.322C334.296 145.774 331.531 146 328.258 146Z" fill="#335BF1"/>
        <path d="M388.504 146C382.297 146 376.54 145.04 371.235 143.119C365.931 141.085 361.303 138.204 357.353 134.475C353.515 130.633 350.468 125.944 348.21 120.407C345.953 114.87 344.824 108.599 344.824 101.593C344.824 94.7008 345.953 88.5426 348.21 83.1189C350.581 77.5822 353.628 72.8929 357.353 69.0511C361.19 65.2093 365.536 62.2714 370.389 60.2375C375.242 58.2037 380.265 57.1867 385.457 57.1867C391.665 57.1867 397.082 58.2602 401.71 60.407C406.338 62.5539 410.175 65.4918 413.223 69.2206C416.27 72.9494 418.527 77.2997 419.995 82.2715C421.575 87.2432 422.365 92.554 422.365 98.2037C422.365 100.803 422.196 103.232 421.857 105.492C421.631 107.752 421.406 109.39 421.18 110.407H372.929C374.283 115.492 376.71 119.051 380.209 121.085C383.707 123.006 387.827 123.966 392.568 123.966C395.502 123.966 398.324 123.571 401.033 122.78C403.854 121.876 406.789 120.577 409.836 118.882L419.318 136.17C414.69 139.447 409.554 141.932 403.911 143.627C398.38 145.209 393.245 146 388.504 146ZM372.59 91.424H397.647C397.647 88.1472 396.8 85.3223 395.107 82.9494C393.527 80.4636 390.536 79.2206 386.134 79.2206C382.861 79.2206 379.983 80.1811 377.5 82.102C375.129 84.0229 373.493 87.1302 372.59 91.424Z" fill="#335BF1"/>
        <path d="M458.956 143.966C445.701 143.966 434.956 133.221 434.956 119.966V59.2206H451.696C455.687 59.2206 459.068 62.1629 459.619 66.1162L460.69 73.7969H461.367C464.527 68.0342 468.252 63.8534 472.541 61.2545C476.943 58.5427 481.232 57.1867 485.408 57.1867C488.004 57.1867 490.092 57.3562 491.672 57.6952C493.252 57.9212 494.663 58.3167 495.905 58.8816L491.164 83.9664C489.584 83.6274 488.06 83.3449 486.593 83.1189C485.238 82.7799 483.602 82.6104 481.683 82.6104C478.636 82.6104 475.419 83.6839 472.033 85.8308C468.76 87.8647 466.107 91.537 464.076 96.8477V143.966H458.956Z" fill="#335BF1"/>
        <path d="M526.333 143.966C513.078 143.966 502.333 133.221 502.333 119.966V26.0001H530.776V88.7121H531.453L547.61 68.3173C552.162 62.5711 559.091 59.2206 566.422 59.2206H586.307L556.171 94.4748L588 143.966H570.562C561.883 143.966 553.88 139.28 549.633 131.712L539.579 113.797L530.776 123.627V143.966H526.333Z" fill="#335BF1"/>
        <path fill-rule="evenodd" clip-rule="evenodd" d="M3.97904 47.7401C1.51565 49.1723 0 51.8067 0 54.6562V117.701C0 120.55 1.51565 123.185 3.97904 124.617L86 172.304V172.053L168.021 124.367C170.484 122.935 172 120.3 172 117.451V57.006C172 53.9214 168.656 51.9976 165.989 53.5479L89.9789 97.7401C87.5155 99.1723 85.9999 101.807 85.9999 104.656V116.303L6.66502 70.1785L86 24.0535V7.00601C86 3.92142 82.6562 1.9976 79.9895 3.54798L3.97904 47.7401ZM111.495 105.475C110.879 105.833 110.5 106.492 110.5 107.204V112.315C110.5 113.087 111.336 113.568 112.003 113.18L152.505 89.6319C153.121 89.2738 153.5 88.6152 153.5 87.9029V82.7916C153.5 82.0205 152.664 81.5396 151.997 81.9271L111.495 105.475Z" fill="#335BF1"/>
        <path d="M57.3333 87.9895C57.3333 85.14 58.8489 82.5057 61.3123 81.0734L137.323 36.8813C139.989 35.3309 143.333 37.2547 143.333 40.3393V57.3869L57.3333 107.387V87.9895Z" fill="#335BF1"/>
        <path d="M28.6666 71.3229C28.6666 68.4734 30.1823 65.839 32.6457 64.4068L108.656 20.2147C111.323 18.6643 114.667 20.5881 114.667 23.6727V40.7202L28.6666 90.7202V71.3229Z" fill="#335BF1"/>
        <path d="M256.484 146C249.486 146 242.77 144.87 236.337 142.61C230.016 140.238 224.429 136.735 219.576 132.102C214.835 127.356 211.054 121.48 208.233 114.475C205.411 107.356 204 99.1076 204 89.7291C204 80.4635 205.467 72.2714 208.402 65.1528C211.336 57.9212 215.23 51.8759 220.084 47.0172C225.05 42.0454 230.693 38.2599 237.014 35.6611C243.448 33.0622 250.163 31.7628 257.161 31.7628C264.498 31.7628 271.044 33.2317 276.8 36.1696C282.557 38.9944 287.41 42.3844 291.36 46.3392L276.123 64.9833C273.414 62.6104 270.592 60.6895 267.658 59.2206C264.836 57.6387 261.563 56.8477 257.838 56.8477C254.565 56.8477 251.461 57.5822 248.527 59.0511C245.705 60.52 243.165 62.6104 240.908 65.3223C238.764 68.0342 237.014 71.3675 235.66 75.3223C234.418 79.2771 233.797 83.7404 233.797 88.7121C233.797 99.1076 235.942 107.074 240.231 112.61C244.633 118.147 250.389 120.916 257.5 120.916C261.789 120.916 265.57 120.012 268.843 118.204C272.229 116.283 275.107 114.023 277.477 111.424L292.715 129.729C287.974 135.153 282.5 139.221 276.292 141.932C270.197 144.644 263.595 146 256.484 146Z" fill="#335BF1"/>
        <path d="M328.258 146C323.291 146 319.115 145.266 315.729 143.797C312.456 142.215 309.804 140.012 307.772 137.187C305.74 134.362 304.273 131.029 303.37 127.187C302.58 123.232 302.185 118.882 302.185 114.136V26.0001H331.305V115.153C331.305 118.091 331.813 120.068 332.829 121.085C333.958 122.102 335.03 122.61 336.046 122.61C336.61 122.61 337.061 122.61 337.4 122.61C337.852 122.61 338.416 122.497 339.093 122.271L342.479 143.627C340.899 144.305 338.924 144.87 336.554 145.322C334.296 145.774 331.531 146 328.258 146Z" fill="#335BF1"/>
        <path d="M388.504 146C382.297 146 376.54 145.04 371.235 143.119C365.931 141.085 361.303 138.204 357.353 134.475C353.515 130.633 350.468 125.944 348.21 120.407C345.953 114.87 344.824 108.599 344.824 101.593C344.824 94.7008 345.953 88.5426 348.21 83.1189C350.581 77.5822 353.628 72.8929 357.353 69.0511C361.19 65.2093 365.536 62.2714 370.389 60.2375C375.242 58.2037 380.265 57.1867 385.457 57.1867C391.665 57.1867 397.082 58.2602 401.71 60.407C406.338 62.5539 410.175 65.4918 413.223 69.2206C416.27 72.9494 418.527 77.2997 419.995 82.2715C421.575 87.2432 422.365 92.554 422.365 98.2037C422.365 100.803 422.196 103.232 421.857 105.492C421.631 107.752 421.406 109.39 421.18 110.407H372.929C374.283 115.492 376.71 119.051 380.209 121.085C383.707 123.006 387.827 123.966 392.568 123.966C395.502 123.966 398.324 123.571 401.033 122.78C403.854 121.876 406.789 120.577 409.836 118.882L419.318 136.17C414.69 139.447 409.554 141.932 403.911 143.627C398.38 145.209 393.245 146 388.504 146ZM372.59 91.424H397.647C397.647 88.1472 396.8 85.3223 395.107 82.9494C393.527 80.4636 390.536 79.2206 386.134 79.2206C382.861 79.2206 379.983 80.1811 377.5 82.102C375.129 84.0229 373.493 87.1302 372.59 91.424Z" fill="#335BF1"/>
        <path d="M458.956 143.966C445.701 143.966 434.956 133.221 434.956 119.966V59.2206H451.696C455.687 59.2206 459.068 62.1629 459.619 66.1162L460.69 73.7969H461.367C464.527 68.0342 468.252 63.8534 472.541 61.2545C476.943 58.5427 481.232 57.1867 485.408 57.1867C488.004 57.1867 490.092 57.3562 491.672 57.6952C493.252 57.9212 494.663 58.3167 495.905 58.8816L491.164 83.9664C489.584 83.6274 488.06 83.3449 486.593 83.1189C485.238 82.7799 483.602 82.6104 481.683 82.6104C478.636 82.6104 475.419 83.6839 472.033 85.8308C468.76 87.8647 466.107 91.537 464.076 96.8477V143.966H458.956Z" fill="#335BF1"/>
        <path d="M526.333 143.966C513.078 143.966 502.333 133.221 502.333 119.966V26.0001H530.776V88.7121H531.453L547.61 68.3173C552.162 62.5711 559.091 59.2206 566.422 59.2206H586.307L556.171 94.4748L588 143.966H570.562C561.883 143.966 553.88 139.28 549.633 131.712L539.579 113.797L530.776 123.627V143.966H526.333Z" fill="#335BF1"/>
    </g>
    <defs>
        <clipPath id="clip0">
            <rect width="602" height="172" fill="white"/>
        </clipPath>
    </defs>
</svg>
