<svg width="41" height="24" viewBox="0 0 41 24" fill="none"
  xmlns="http://www.w3.org/2000/svg">
  <g clip-path="url(#clip0)">
    <path d="M9.9375 6.31603H17.4779V6.91247H10.6287V11.4015H17.0695V11.998H10.6287V16.9265H17.5565V17.5229H9.9375V6.31603ZM18.1534 6.31603H18.9546L22.5049 11.2446L26.1337 6.31603L31.0696 0.0556641L22.9605 11.7625L27.1391 17.5229H26.3065L22.5049 12.2805L18.6876 17.5229H17.8707L22.0808 11.7625L18.1534 6.31603ZM27.4376 6.91247V6.31603H36.0306V6.91247H32.0718V17.5229H31.3806V6.91247H27.4376Z" fill="black"/>
    <path d="M0.505859 6.31592H1.36987L13.2841 24.0587L8.36049 17.5228L1.22849 7.1635L1.19707 17.5228H0.505859V6.31592Z" fill="black"/>
    <path d="M35.9639 16.7462C36.1068 16.7462 36.2111 16.6374 36.2111 16.4966C36.2111 16.3559 36.1068 16.247 35.9639 16.247C35.8227 16.247 35.7168 16.3559 35.7168 16.4966C35.7168 16.6374 35.8227 16.7462 35.9639 16.7462ZM36.6431 16.0895C36.6431 16.505 36.9441 16.7764 37.3828 16.7764C37.8502 16.7764 38.1326 16.4966 38.1326 16.0108V14.3003H37.7561V16.0091C37.7561 16.2788 37.6199 16.4229 37.3795 16.4229C37.1643 16.4229 37.018 16.2889 37.013 16.0895H36.6431ZM38.6252 16.0678C38.6521 16.5 39.0136 16.7764 39.5516 16.7764C40.1265 16.7764 40.4863 16.4866 40.4863 16.0242C40.4863 15.6607 40.2812 15.4596 39.7836 15.344L39.5163 15.2787C39.2002 15.205 39.0724 15.1061 39.0724 14.9336C39.0724 14.7158 39.2708 14.5734 39.5684 14.5734C39.8508 14.5734 40.0458 14.7125 40.0811 14.9353H40.4476C40.4258 14.5282 40.066 14.2417 39.5734 14.2417C39.0438 14.2417 38.6908 14.5282 38.6908 14.9587C38.6908 15.3139 38.8909 15.525 39.3296 15.6272L39.6423 15.7025C39.9634 15.7779 40.1047 15.8885 40.1047 16.0728C40.1047 16.2872 39.8827 16.443 39.5801 16.443C39.2557 16.443 39.0304 16.2973 38.9984 16.0678H38.6252Z" fill="black"/>
  </g>
  <defs>
    <clipPath id="clip0">
      <rect width="40.0645" height="24" fill="white" transform="translate(0.466797)"/>
    </clipPath>
  </defs>
</svg>
