<?xml version="1.0" encoding="UTF-8"?>
<svg width="112px" height="59px" viewBox="0 0 112 59" version="1.1" xmlns="http://www.w3.org/2000/svg"
     xmlns:xlink="http://www.w3.org/1999/xlink">
    <!-- Generator: Sketch 51.2 (57519) - http://www.bohemiancoding.com/sketch -->
    <title>Artboard</title>
    <desc>Created with Sketch.</desc>
    <defs></defs>
    <g id="Artboard" stroke="none" stroke-width="1" fill="none" fill-rule="evenodd">
        <g id="Group-4" fill="#442AB9">
            <path
                d="M10.4577027,49.14 C10.4577027,49.8600036 10.2777045,50.5233303 9.91770272,51.13 C9.55770092,51.7366697 9.02437292,52.2233315 8.31770272,52.59 C7.61103252,52.9566685 6.75104112,53.14 5.73770272,53.14 C4.73769772,53.14 3.84437332,52.9700017 3.05770272,52.63 C2.27103212,52.2899983 1.64103842,51.8000032 1.16770272,51.16 C0.694367021,50.5199968 0.424369721,49.7733376 0.357702721,48.92 L3.35770272,48.92 C3.42436972,49.4933362 3.65436742,49.9699981 4.04770272,50.35 C4.44103802,50.7300019 4.96436612,50.92 5.61770272,50.92 C6.20437232,50.92 6.65436782,50.7633349 6.96770272,50.45 C7.28103762,50.1366651 7.43770272,49.7333358 7.43770272,49.24 C7.43770272,48.7999978 7.31103732,48.4366681 7.05770272,48.15 C6.80436812,47.8633319 6.48437132,47.6333342 6.09770272,47.46 C5.71103412,47.2866658 5.17770612,47.0866678 4.49770272,46.86 C3.61769832,46.5666652 2.89770552,46.2766681 2.33770272,45.99 C1.77769992,45.7033319 1.30103802,45.2866694 0.907702721,44.74 C0.514367421,44.1933306 0.317702721,43.4800044 0.317702721,42.6 C0.317702721,41.3866606 0.754365021,40.4300035 1.62770272,39.73 C2.50104042,39.0299965 3.65769552,38.68 5.09770272,38.68 C6.59104352,38.68 7.78103162,39.0399964 8.66770272,39.76 C9.55437382,40.4800036 10.0577021,41.439994 10.1777027,42.64 L7.13770272,42.64 C7.05770232,42.1333308 6.84437112,41.7166683 6.49770272,41.39 C6.15103432,41.0633317 5.67770572,40.9 5.07770272,40.9 C4.55770012,40.9 4.13770432,41.0366653 3.81770272,41.31 C3.49770112,41.5833347 3.33770272,41.9799974 3.33770272,42.5 C3.33770272,42.9133354 3.46103482,43.2566653 3.70770272,43.53 C3.95437062,43.8033347 4.26770082,44.0266658 4.64770272,44.2 C5.02770462,44.3733342 5.54436612,44.5666656 6.19770272,44.78 C7.10437392,45.1000016 7.84103322,45.3999986 8.40770272,45.68 C8.97437222,45.9600014 9.45770072,46.3799972 9.85770272,46.94 C10.2577047,47.5000028 10.4577027,48.2333288 10.4577027,49.14 Z M19.1377027,41.76 C20.4177091,41.76 21.4376989,42.1799958 22.1977027,43.02 C22.9577065,43.8600042 23.3377027,45.0399924 23.3377027,46.56 L23.3377027,53 L20.5377027,53 L20.5377027,46.88 C20.5377027,45.9999956 20.3110383,45.3166691 19.8577027,44.83 C19.4043671,44.3433309 18.7843733,44.1 17.9977027,44.1 C17.1976987,44.1 16.5577051,44.3599974 16.0777027,44.88 C15.5977003,45.4000026 15.3577027,46.1466618 15.3577027,47.12 L15.3577027,53 L12.5377027,53 L12.5377027,38.2 L15.3577027,38.2 L15.3577027,44.14 C15.6510375,43.3933296 16.134366,42.8100021 16.8077027,42.39 C17.4810394,41.9699979 18.2576983,41.76 19.1377027,41.76 Z M30.1577027,41.78 C31.0910407,41.78 31.8910327,41.9999978 32.5577027,42.44 C33.2243727,42.8800022 33.6977013,43.4733296 33.9777027,44.22 L33.9777027,41.92 L36.7777027,41.92 L36.7777027,53 L33.9777027,53 L33.9777027,50.68 C33.6977013,51.4266704 33.2243727,52.0233311 32.5577027,52.47 C31.8910327,52.9166689 31.0910407,53.14 30.1577027,53.14 C29.2243647,53.14 28.3843731,52.9133356 27.6377027,52.46 C26.8910323,52.0066644 26.3077048,51.3500043 25.8877027,50.49 C25.4677006,49.6299957 25.2577027,48.6200058 25.2577027,47.46 C25.2577027,46.2999942 25.4677006,45.2900043 25.8877027,44.43 C26.3077048,43.5699957 26.8910323,42.9133356 27.6377027,42.46 C28.3843731,42.0066644 29.2243647,41.78 30.1577027,41.78 Z M31.0377027,44.24 C30.1576983,44.24 29.4510387,44.5266638 28.9177027,45.1 C28.3843667,45.6733362 28.1177027,46.459995 28.1177027,47.46 C28.1177027,48.460005 28.3843667,49.2433305 28.9177027,49.81 C29.4510387,50.3766695 30.1576983,50.66 31.0377027,50.66 C31.8910403,50.66 32.5943666,50.3700029 33.1477027,49.79 C33.7010388,49.2099971 33.9777027,48.4333382 33.9777027,47.46 C33.9777027,46.4733284 33.7010388,45.6900029 33.1477027,45.11 C32.5943666,44.5299971 31.8910403,44.24 31.0377027,44.24 Z M45.9577027,41.78 C46.8910407,41.78 47.7310323,42.0066644 48.4777027,42.46 C49.2243731,42.9133356 49.8077006,43.5699957 50.2277027,44.43 C50.6477048,45.2900043 50.8577027,46.2999942 50.8577027,47.46 C50.8577027,48.6200058 50.6477048,49.6299957 50.2277027,50.49 C49.8077006,51.3500043 49.2243731,52.0066644 48.4777027,52.46 C47.7310323,52.9133356 46.8910407,53.14 45.9577027,53.14 C45.0243647,53.14 44.227706,52.9166689 43.5677027,52.47 C42.9076994,52.0233311 42.4377041,51.4266704 42.1577027,50.68 L42.1577027,58.28 L39.3377027,58.28 L39.3377027,41.92 L42.1577027,41.92 L42.1577027,44.22 C42.4377041,43.4733296 42.9076994,42.8800022 43.5677027,42.44 C44.227706,41.9999978 45.0243647,41.78 45.9577027,41.78 Z M45.0777027,44.24 C44.2243651,44.24 43.5210388,44.5299971 42.9677027,45.11 C42.4143666,45.6900029 42.1377027,46.4733284 42.1377027,47.46 C42.1377027,48.4333382 42.4143666,49.2099971 42.9677027,49.79 C43.5210388,50.3700029 44.2243651,50.66 45.0777027,50.66 C45.9577071,50.66 46.6643667,50.3766695 47.1977027,49.81 C47.7310387,49.2433305 47.9977027,48.460005 47.9977027,47.46 C47.9977027,46.459995 47.7310387,45.6733362 47.1977027,45.1 C46.6643667,44.5266638 45.9577071,44.24 45.0777027,44.24 Z M63.2777027,47.04 C63.2777027,47.3200014 63.2443697,47.6399982 63.1777027,48 L55.0577027,48 C55.0977029,48.9866716 55.3643669,49.713331 55.8577027,50.18 C56.3510385,50.646669 56.9643657,50.88 57.6977027,50.88 C58.3510393,50.88 58.8943672,50.7200016 59.3277027,50.4 C59.7610382,50.0799984 60.0377021,49.6466694 60.1577027,49.1 L63.1377027,49.1 C62.9910353,49.8733372 62.6777051,50.5666636 62.1977027,51.18 C61.7177003,51.7933364 61.1010398,52.2733316 60.3477027,52.62 C59.5943656,52.9666684 58.7577073,53.14 57.8377027,53.14 C56.7576973,53.14 55.7977069,52.9100023 54.9577027,52.45 C54.1176985,51.9899977 53.4643717,51.3333376 52.9977027,50.48 C52.5310337,49.6266624 52.2977027,48.6200058 52.2977027,47.46 C52.2977027,46.2999942 52.5310337,45.2900043 52.9977027,44.43 C53.4643717,43.5699957 54.1176985,42.9133356 54.9577027,42.46 C55.7977069,42.0066644 56.7576973,41.78 57.8377027,41.78 C58.9310415,41.78 59.8876986,42.0066644 60.7077027,42.46 C61.5277068,42.9133356 62.1610338,43.5366627 62.6077027,44.33 C63.0543716,45.1233373 63.2777027,46.0266616 63.2777027,47.04 Z M60.4377027,46.76 C60.4777029,45.8533288 60.2410386,45.166669 59.7277027,44.7 C59.2143668,44.233331 58.5843731,44 57.8377027,44 C57.0776989,44 56.4377053,44.233331 55.9177027,44.7 C55.3977001,45.166669 55.1110363,45.8533288 55.0577027,46.76 L60.4377027,46.76 Z M77.5177027,45.72 C78.3710403,45.8933342 79.0543668,46.2966635 79.5677027,46.93 C80.0810386,47.5633365 80.3377027,48.3066624 80.3377027,49.16 C80.3377027,50.3466726 79.94104,51.2833299 79.1477027,51.97 C78.3543654,52.6566701 77.2043769,53 75.6977027,53 L69.6377027,53 L69.6377027,38.88 L75.5777027,38.88 C77.0043765,38.88 78.1010322,39.1933302 78.8677027,39.82 C79.6343732,40.4466698 80.0177027,41.326661 80.0177027,42.46 C80.0177027,43.3400044 79.787705,44.0599972 79.3277027,44.62 C78.8677004,45.1800028 78.2643731,45.5466658 77.5177027,45.72 Z M72.4577027,44.8 L74.9977027,44.8 C75.7043729,44.8 76.2410342,44.6433349 76.6077027,44.33 C76.9743712,44.0166651 77.1577027,43.5666696 77.1577027,42.98 C77.1577027,42.3933304 76.9777045,41.9400016 76.6177027,41.62 C76.2577009,41.2999984 75.7043731,41.14 74.9577027,41.14 L72.4577027,41.14 L72.4577027,44.8 Z M75.1377027,50.7 C75.8843731,50.7 76.4577007,50.5366683 76.8577027,50.21 C77.2577047,49.8833317 77.4577027,49.4066698 77.4577027,48.78 C77.4577027,48.1533302 77.2543714,47.6700017 76.8477027,47.33 C76.441034,46.9899983 75.8643731,46.82 75.1177027,46.82 L72.4577027,46.82 L72.4577027,50.7 L75.1377027,50.7 Z M85.1377027,38.2 L85.1377027,53 L82.3177027,53 L82.3177027,38.2 L85.1377027,38.2 Z M92.8177027,41.78 C93.8977081,41.78 94.8676984,42.0066644 95.7277027,42.46 C96.587707,42.9133356 97.2643669,43.5699957 97.7577027,44.43 C98.2510385,45.2900043 98.4977027,46.2999942 98.4977027,47.46 C98.4977027,48.6200058 98.2510385,49.6266624 97.7577027,50.48 C97.2643669,51.3333376 96.587707,51.9899977 95.7277027,52.45 C94.8676984,52.9100023 93.8977081,53.14 92.8177027,53.14 C91.7376973,53.14 90.767707,52.9100023 89.9077027,52.45 C89.0476984,51.9899977 88.3710385,51.3333376 87.8777027,50.48 C87.3843669,49.6266624 87.1377027,48.6200058 87.1377027,47.46 C87.1377027,46.2999942 87.3843669,45.2900043 87.8777027,44.43 C88.3710385,43.5699957 89.0476984,42.9133356 89.9077027,42.46 C90.767707,42.0066644 91.7376973,41.78 92.8177027,41.78 Z M92.8177027,44.22 C92.0310321,44.22 91.3643721,44.4966639 90.8177027,45.05 C90.2710333,45.6033361 89.9977027,46.4066614 89.9977027,47.46 C89.9977027,48.5133386 90.2710333,49.3166639 90.8177027,49.87 C91.3643721,50.4233361 92.0310321,50.7 92.8177027,50.7 C93.6043733,50.7 94.2710333,50.4233361 94.8177027,49.87 C95.3643721,49.3166639 95.6377027,48.5133386 95.6377027,47.46 C95.6377027,46.4066614 95.3643721,45.6033361 94.8177027,45.05 C94.2710333,44.4966639 93.6043733,44.22 92.8177027,44.22 Z M104.837703,41.78 C105.771041,41.78 106.571033,41.9999978 107.237703,42.44 C107.904373,42.8800022 108.377701,43.4733296 108.657703,44.22 L108.657703,41.92 L111.457703,41.92 L111.457703,53.04 C111.457703,54.0666718 111.254371,54.9899959 110.847703,55.81 C110.441034,56.6300041 109.834373,57.273331 109.027703,57.74 C108.221032,58.206669 107.244375,58.44 106.097703,58.44 C104.497695,58.44 103.204374,58.0600038 102.217703,57.3 C101.231031,56.5399962 100.631037,55.5066732 100.417703,54.2 L103.197703,54.2 C103.357704,54.7600028 103.6677,55.1966651 104.127703,55.51 C104.587705,55.8233349 105.177699,55.98 105.897703,55.98 C106.724374,55.98 107.391034,55.7366691 107.897703,55.25 C108.404372,54.7633309 108.657703,54.0266716 108.657703,53.04 L108.657703,50.68 C108.377701,51.4266704 107.904373,52.0233311 107.237703,52.47 C106.571033,52.9166689 105.771041,53.14 104.837703,53.14 C103.904365,53.14 103.064373,52.9133356 102.317703,52.46 C101.571032,52.0066644 100.987705,51.3500043 100.567703,50.49 C100.147701,49.6299957 99.9377027,48.6200058 99.9377027,47.46 C99.9377027,46.2999942 100.147701,45.2900043 100.567703,44.43 C100.987705,43.5699957 101.571032,42.9133356 102.317703,42.46 C103.064373,42.0066644 103.904365,41.78 104.837703,41.78 Z M105.717703,44.24 C104.837698,44.24 104.131039,44.5266638 103.597703,45.1 C103.064367,45.6733362 102.797703,46.459995 102.797703,47.46 C102.797703,48.460005 103.064367,49.2433305 103.597703,49.81 C104.131039,50.3766695 104.837698,50.66 105.717703,50.66 C106.57104,50.66 107.274367,50.3700029 107.827703,49.79 C108.381039,49.2099971 108.657703,48.4333382 108.657703,47.46 C108.657703,46.4733284 108.381039,45.6900029 107.827703,45.11 C107.274367,44.5299971 106.57104,44.24 105.717703,44.24 Z"
                id="Shape-Blog"></path>
            <path
                d="M68.3592726,28.44 L48.2094499,28.44 C45.8855105,28.44 44,26.5132435 44,24.1379877 L44,6.5803269 C44,6.52387515 44.0030473,6.46781273 44.0076182,6.40707844 C44.0106655,6.375154 44.0137128,6.34322957 44.0179028,6.31130513 C44.0179028,6.30663326 44.0194265,6.30351869 44.0194265,6.29884682 L44.0224738,6.2793807 C44.0567558,6.03877947 44.1295098,5.80946858 44.2411168,5.60079179 C44.2620669,5.56147023 44.283017,5.52331663 44.3066335,5.48516304 C44.32606,5.45479589 44.3454865,5.42442875 44.3660557,5.39561889 L44.3736739,5.38510719 C44.3854822,5.36836632 44.3972904,5.35318275 44.4064323,5.33955647 C44.4913755,5.22548501 44.587746,5.12348255 44.6921157,5.03199179 C44.8094363,4.91792033 45.4611754,4.26269076 48.7869113,0.859234497 L48.8775682,0.766186448 C49.1423015,0.421246817 49.5190227,0.17169117 49.9384059,0.0638488706 C49.9563088,0.0591770021 49.9757352,0.0545051335 49.9936381,0.0502225873 C49.9966854,0.0502225873 49.9993517,0.0486652977 50.0008754,0.0486652977 C50.0305865,0.0424361396 50.0591548,0.0362069815 50.0888659,0.0303671458 C50.1231479,0.0241379877 50.1600963,0.018298152 50.1989492,0.0136262834 C50.2183757,0.0105117043 50.2404685,0.00895441478 50.2629423,0.00739712526 C50.3223644,0.00272525667 50.380263,0 50.4370187,0 L65.3877842,0 C66.4829039,0 67.3696652,0.906342505 67.3696652,2.02564435 L67.3696652,24.5347072 C67.3696652,24.6807031 67.3742362,24.8282563 67.3814735,24.9742522 L67.3814735,24.9758094 C67.4069945,25.4336526 67.7372446,25.8031195 68.1836725,25.8774801 C68.2179545,25.8837092 68.2518556,25.8899384 68.2861376,25.8988928 C68.3009932,25.9020074 68.3158487,25.9066793 68.3455598,25.9066793 C68.9184503,25.9187483 69.4319186,26.3002842 69.5614284,26.8706415 C69.7503604,27.7026234 69.1389979,28.44 68.3592726,28.44 Z M46.4789702,6.79017166 L46.4789702,24.1379877 C46.4789702,25.1140189 47.2556482,25.9066793 48.2094499,25.9066793 L65.0396313,25.9066793 C64.9859228,25.7194152 64.9489744,25.5263113 64.9265007,25.3285355 C64.9040269,25.2327622 64.8922187,25.132317 64.8922187,25.0322612 L64.8922187,2.53487803 L50.6541381,2.53487803 L50.5410075,2.65050678 C47.7096944,5.54784394 46.797412,6.47404189 46.4789702,6.79017166 Z M46.2930856,6.96809199 C46.2915619,6.96964928 46.2900383,6.96964928 46.2900383,6.97120657 C46.2900383,6.96964928 46.2915619,6.96964928 46.2930856,6.96809199 Z M44.7263977,5.00629651 C44.7218268,5.00941109 44.7172558,5.01408296 44.7115422,5.0183655 C44.7172558,5.01408296 44.7218268,5.00941109 44.7263977,5.00629651 Z"
                id="Fill-1"></path>
            <path
                d="M58.1461164,13.272 L63.0338836,13.272 C63.6077248,13.272 63.908,12.795386 63.908,12.324 C63.908,11.852614 63.6077248,11.376 63.0338836,11.376 L58.1461164,11.376 C57.5722752,11.376 57.272,11.852614 57.272,12.324 C57.2736187,12.795386 57.5722752,13.272 58.1461164,13.272 Z"
                id="Fill-3"></path>
            <path
                d="M58.1461164,9.48 L63.0338836,9.48 C63.6077248,9.48 63.908,9.00338603 63.908,8.532 C63.908,8.06061397 63.6077248,7.584 63.0338836,7.584 L58.1461164,7.584 C57.5722752,7.584 57.272,8.06061397 57.272,8.532 C57.2736187,9.00338603 57.5722752,9.48 58.1461164,9.48 Z"
                id="Fill-4"></path>
            <path
                d="M49.6364033,15.168 L55.4280087,15.168 C55.9219368,15.168 56.324,14.7991078 56.324,14.3463937 L56.324,8.40560629 C56.324,7.95289216 55.9219368,7.584 55.4280087,7.584 L49.6364033,7.584 C49.1424752,7.584 48.74,7.95289216 48.74,8.40560629 L48.74,14.3463937 C48.74,14.7991078 49.1424752,15.168 49.6364033,15.168 Z"
                id="Fill-5"></path>
            <path
                d="M62.1348608,18.012 L49.559072,18.012 C49.0213664,18.012 48.74,18.488614 48.74,18.96 C48.74,19.431386 49.0213664,19.908 49.559072,19.908 L62.1348608,19.908 C62.5971056,19.908 62.96,19.490636 62.96,18.96 C62.96,18.4271857 62.5971056,18.012 62.1348608,18.012 Z"
                id="Fill-7"></path>
            <path
                d="M62.1348608,21.804 L49.559072,21.804 C49.0213664,21.804 48.74,22.280614 48.74,22.752 C48.74,23.223386 49.0213664,23.7 49.559072,23.7 L62.1348608,23.7 C62.5971056,23.7 62.96,23.2830717 62.96,22.752 C62.96,22.2209283 62.5971056,21.804 62.1348608,21.804 Z"
                id="Fill-8"></path>
        </g>
    </g>
</svg>