<svg width="16" height="16" viewBox="0 0 16 16" fill="none" xmlns="http://www.w3.org/2000/svg">
<path fill-rule="evenodd" clip-rule="evenodd" d="M1.5 2.5H14.5V12.5C14.5 13.0523 14.0523 13.5 13.5 13.5H2.5C1.94772 13.5 1.5 13.0523 1.5 12.5V2.5ZM0 1H1.5H14.5H16V2.5V12.5C16 13.8807 14.8807 15 13.5 15H2.5C1.11929 15 0 13.8807 0 12.5V2.5V1ZM3.75 5.5C4.16421 5.5 4.5 5.16421 4.5 4.75C4.5 4.33579 4.16421 4 3.75 4C3.33579 4 3 4.33579 3 4.75C3 5.16421 3.33579 5.5 3.75 5.5ZM7 4.75C7 5.16421 6.66421 5.5 6.25 5.5C5.83579 5.5 5.5 5.16421 5.5 4.75C5.5 4.33579 5.83579 4 6.25 4C6.66421 4 7 4.33579 7 4.75ZM8.75 5.5C9.16421 5.5 9.5 5.16421 9.5 4.75C9.5 4.33579 9.16421 4 8.75 4C8.33579 4 8 4.33579 8 4.75C8 5.16421 8.33579 5.5 8.75 5.5Z" fill="#666666"/>
</svg>
