<?xml version="1.0" encoding="UTF-8"?>
<svg width="74px" height="80px" viewBox="0 0 74 80" version="1.1" xmlns="http://www.w3.org/2000/svg" xmlns:xlink="http://www.w3.org/1999/xlink">
    <!-- Generator: Sketch 50 (54983) - http://www.bohemiancoding.com/sketch -->
    <title>group</title>
    <desc>Created with Sketch.</desc>
    <defs></defs>
    <g id="Page-3" stroke="none" stroke-width="1" fill="none" fill-rule="evenodd">
        <g id="Blue" transform="translate(-983.000000, -5875.000000)" fill="#3661FD" fill-rule="nonzero">
            <g id="Group-52" transform="translate(735.000000, 5842.000000)">
                <g id="Group-56" transform="translate(200.000000, 0.000000)">
                    <g id="group" transform="translate(48.000000, 33.000000)">
                        <path d="M62.5087966,56.4094488 L53.0011748,56.4094488 C51.0362521,56.408189 49.1046189,56.911706 47.3949857,57.8708661 C45.9397937,58.688294 44.6809456,59.8087139 43.7055874,61.1548556 C43.055914,61.0425197 42.3975473,60.9864567 41.7379083,60.9868766 L32.2218052,60.9868766 C31.5621662,60.9862467 30.9037994,61.0425197 30.2541261,61.1548556 C29.2789799,59.8085039 28.0201318,58.688084 26.5647278,57.8708661 C24.8550946,56.911706 22.9234613,56.408189 20.9585387,56.4094488 L11.4509169,56.4094488 C5.1331404,56.4233071 0.0150544413,61.4916535 0.00106017192,67.7480315 L0.00106017192,74.1396325 C0.00572492837,74.8090289 0.554893983,75.3490814 1.2308596,75.3490814 L20.7380229,75.3490814 L20.7380229,78.7086614 C20.7380229,79.3812073 21.2886762,79.9265092 21.9678223,79.9265092 L51.9579656,79.9265092 C52.6371117,79.9265092 53.187765,79.3812073 53.187765,78.7086614 L53.187765,75.3490814 L72.6949284,75.3490814 C73.3740745,75.3490814 73.9247278,74.8037795 73.9247278,74.1312336 L73.9247278,67.7480315 C73.9107335,61.5046719 68.8132149,56.4417848 62.5087966,56.4094488 Z M20.8652436,71.2335958 L20.8652436,71.4939633 C20.8652436,71.6115486 20.8652436,71.7207349 20.8652436,71.8383202 L20.8652436,72.3254593 L20.8652436,72.9133858 L2.46065903,72.9133858 L2.46065903,67.7480315 C2.4746533,62.8367454 6.49143266,58.8590026 11.4509169,58.8451444 L20.9585387,58.8451444 C22.4981203,58.8434646 24.0118338,59.2369554 25.3518911,59.9874016 C26.2502808,60.4904987 27.0562235,61.1409974 27.7351576,61.9107612 C23.908149,63.5556955 21.2797708,67.1227297 20.8652436,71.2335958 Z M50.7027221,72.3254593 L50.7027221,77.4992126 L23.2315473,77.4992126 L23.2315473,72.2330709 C23.2315473,72.1379528 23.2315473,72.0455643 23.2315473,71.9559055 C23.2315473,71.8103937 23.2315473,71.6646719 23.2315473,71.5191601 L23.2315473,71.3007874 C23.2315473,71.2167979 23.2315473,71.1328084 23.2315473,71.0488189 L23.2315473,70.7800525 L23.2315473,70.696063 L23.2315473,70.6036745 L23.2315473,70.4188976 L23.2824355,70.2173228 L23.3672493,69.9149606 L23.4266189,69.7133858 C24.6449685,66.0566929 28.0875587,63.5808924 31.9758453,63.5653543 L32.2218052,63.4309711 L41.7379083,63.4309711 C46.2536046,63.4473491 50.0619542,66.7664042 50.6518338,71.2 C50.6518338,71.3847769 50.6518338,71.5695538 50.7027221,71.7543307 C50.7027221,71.9447769 50.7027221,72.1350131 50.7027221,72.3254593 Z M71.4990544,72.9217848 L53.1792837,72.9217848 L53.1792837,72.1910761 C53.1792837,72.0986877 53.1792837,72.0062992 53.1792837,71.9139108 C53.1792837,71.8187927 53.1792837,71.7234646 53.1792837,71.6283465 C53.1792837,71.4939633 53.1792837,71.3511811 53.1792837,71.2167979 L53.1792837,71.0908136 L53.1792837,70.9480315 L53.1792837,70.687664 L53.1792837,70.6456693 L53.1792837,70.5448819 L53.1792837,70.4524934 L53.1792837,70.3937008 L53.1792837,70.2845144 L53.1792837,70.1669291 L53.1792837,70.1081365 L53.1792837,70.0325459 L53.1792837,69.9569554 L53.1792837,69.8813648 L53.1792837,69.6965879 L53.1792837,69.6125984 L53.1792837,69.5034121 L53.1792837,69.3942257 L53.119914,69.184252 L53.119914,69.1002625 L53.119914,69.0246719 L53.119914,68.9658793 L53.119914,68.8818898 L53.119914,68.7727034 L53.0011748,68.4451444 C51.8960516,65.535958 49.6421261,63.1979003 46.7588825,61.9695538 C47.2690372,61.2216273 47.8894499,60.5534908 48.599341,59.9874016 C49.9393983,59.2369554 51.4531117,58.8434646 52.9926934,58.8451444 L62.5087966,58.8451444 C67.4680688,58.8590026 71.4850602,62.8367454 71.4990544,67.7480315 L71.4990544,72.9217848 Z" id="Shape"></path>
                        <ellipse id="Oval" cx="37.030745" cy="16.3464567" rx="1.39094556" ry="1.37742782"></ellipse>
                        <path d="M22.3240401,39.7207349 C20.7034613,38.1064567 18.4991519,37.1993701 16.2004871,37.2010499 C11.4180516,37.1968504 7.53761032,41.0326509 7.53336963,45.7688189 C7.52912894,50.5047769 11.4025731,54.3475066 16.1852206,54.351706 C20.9678682,54.3559055 24.8480974,50.520105 24.8523381,45.783937 C24.8542464,43.5109711 23.945043,41.3301837 22.3240401,39.7207349 Z M20.5853582,50.1102362 C18.1645616,52.5083465 14.2391691,52.5091864 11.8173123,50.111916 C9.39566762,47.7146457 9.39481948,43.8274016 11.815616,41.4290814 C14.2364126,39.0309711 18.1618052,39.0301312 20.5836619,41.4274016 C21.7464585,42.5784777 22.3999484,44.1398425 22.4003725,45.767979 C22.4027049,47.3969554 21.749639,48.9595801 20.5853582,50.1102362 Z" id="Shape"></path>
                        <ellipse id="Oval" cx="46.0210029" cy="16.3464567" rx="1.39094556" ry="1.37742782"></ellipse>
                        <path d="M51.4660458,4.77270341 C47.3173811,1.61301837 42.2132894,-0.0678215223 36.9798567,0.00209973753 C31.7464241,-0.0678215223 26.6425444,1.61301837 22.4936676,4.77270341 C18.6940115,7.77952756 16.3446705,11.9622047 16.3446705,16.5900262 C16.3493352,18.9404724 16.9532092,21.2516535 18.1003152,23.3091864 C19.1918682,25.2529134 20.6587221,26.9652493 22.4173352,28.3485564 L21.4419771,34.7737533 C21.3404126,35.4341207 21.7988309,36.0508136 22.4656791,36.1513911 C22.7419599,36.1929659 23.0241777,36.1396325 23.2654728,36 L29.8979083,32.1700787 C30.9489628,32.4795801 32.0201605,32.7181102 33.1038682,32.8839895 C34.3892206,33.080105 35.6879312,33.1783727 36.9883381,33.1779528 C42.2217708,33.247874 47.3258625,31.5670341 51.4745272,28.4073491 C55.265702,25.392126 57.615043,21.2178478 57.615043,16.5900262 C57.615043,11.9622047 55.265702,7.77952756 51.4660458,4.77270341 Z M49.9393983,26.5259843 C46.219255,29.3289239 41.6537307,30.808399 36.9798567,30.7254593 C35.8073066,30.7271391 34.6362407,30.64021 33.4770487,30.4650919 C32.3269742,30.2948031 31.1925903,30.0335958 30.0844986,29.6839895 C29.7556332,29.5813123 29.3983553,29.6207874 29.100659,29.7931759 L24.2577937,32.623622 L24.9617479,28.0041995 C25.0289628,27.5529659 24.8357994,27.1023622 24.4613467,26.8367454 C22.7218166,25.5901312 21.275106,23.9857218 20.220659,22.1333333 C19.2775301,20.4348556 18.7817937,18.528294 18.7788252,16.5900262 C18.7788252,12.7265092 20.7719484,9.21574803 23.9948711,6.66246719 C27.7150143,3.85952756 32.2805387,2.38005249 36.9544126,2.46299213 C41.6282865,2.38005249 46.1938109,3.85952756 49.9139542,6.66246719 C53.1368768,9.18215223 55.13,12.7265092 55.13,16.5900262 C55.13,20.4535433 53.1623209,23.9643045 49.9393983,26.5259843 Z" id="Shape"></path>
                        <path d="M57.7662235,37.1926509 C52.983788,37.1884514 49.1033467,41.024252 49.099106,45.7604199 C49.0969857,48.0333858 50.0064011,50.2143832 51.627404,51.823622 C53.2479828,53.4379003 55.4522923,54.3449869 57.750957,54.3433071 C62.5333926,54.3475066 66.4138338,50.511706 66.4180745,45.7755381 C66.4223152,41.0393701 62.548659,37.1968504 57.7662235,37.1926509 Z M62.1440974,50.1066667 C59.7233009,52.5047769 55.7979083,52.5056168 53.3760516,50.1083465 C52.213255,48.9572703 51.559765,47.3959055 51.559341,45.767769 C51.5570086,44.1387927 52.2100745,42.576168 53.3743553,41.4255118 C55.7951519,39.0274016 59.7205444,39.0265617 62.1424011,41.423832 C64.5640458,43.8211024 64.564894,47.7085564 62.1440974,50.1066667 Z" id="Shape"></path>
                        <ellipse id="Oval" cx="28.0404871" cy="16.3464567" rx="1.39094556" ry="1.37742782"></ellipse>
                        <path d="M43.0906877,44.2687664 C41.4682006,42.6675066 39.2704642,41.7690289 36.9798567,41.7700787 C34.681192,41.768399 32.4768825,42.6754856 30.8563037,44.2897638 C27.4836848,47.6411549 27.4932264,53.0654068 30.8775072,56.4052493 C34.261788,59.7450919 39.7392722,59.735643 43.1118911,56.384252 C46.48451,53.0328609 46.4749685,47.6086089 43.0906877,44.2687664 Z M36.9781605,56.4917585 C33.5540172,56.4907087 30.7791232,53.7411024 30.7799713,50.3504462 C30.7808195,46.95979 33.5576218,44.2116535 36.981553,44.2124934 C38.6256676,44.2129134 40.2023553,44.8600525 41.3647278,46.0115486 C42.5290086,47.1622047 43.1820745,48.7248294 43.1797421,50.3538058 C43.1786819,53.7446719 40.4020917,56.4925984 36.9781605,56.4917585 Z" id="Shape"></path>
                    </g>
                </g>
            </g>
        </g>
    </g>
</svg>