<svg width="80" height="80" viewBox="0 0 80 80" fill="none" xmlns="http://www.w3.org/2000/svg">
<g clip-path="url(#clip0)">
<path d="M74.1168 24.9499H74.0662C74.0582 21.7383 72.2534 21.2262 69.5239 20.4523L69.469 20.4364C68.5986 20.1874 67.7228 19.978 66.8164 19.7998C66.8286 19.5782 66.8353 19.3512 66.8353 19.118C66.8311 16.0211 65.7782 13.3508 63.7915 11.3959C61.7181 9.35545 58.7073 8.21532 55.5096 8.25438C52.3224 8.20738 49.3054 9.35484 47.2327 11.3946C45.2454 13.3502 44.1925 16.0211 44.1882 19.118C44.1882 19.5032 44.2059 19.8712 44.2389 20.2252C42.5171 20.6158 41.0962 21.0846 39.9976 21.6247C37.2144 20.2569 32.4188 19.3542 26.0468 19.0076C25.3986 18.974 24.8389 19.4708 24.8035 20.1221C24.7681 20.7733 25.2673 21.3299 25.9186 21.3653C33.4924 21.7779 37.1368 22.8882 38.8171 23.6774V67.3999C35.6573 66.1877 30.73 65.3399 25.5261 65.1599C21.601 65.0232 14.4342 65.1764 8.29529 67.4792V24.9713C8.29529 23.9075 8.52173 23.7286 8.65723 23.6212C9.04907 23.3111 9.91577 23.0652 11.1151 22.7246L11.1743 22.7075C13.7744 21.9696 16.4001 21.5832 20.2374 21.3745C20.8887 21.3391 21.3873 20.7825 21.3519 20.1312C21.3165 19.48 20.7562 18.9783 20.1086 19.0161C16.0846 19.2352 13.3093 19.6466 10.5292 20.4358L10.47 20.4529C7.74414 21.2268 5.94177 21.7395 5.93384 24.9499H5.87891C2.63733 24.9499 0 27.5885 0 30.8313V71.933C0 75.6854 2.7002 79.4867 7.86133 79.4916L39.9963 79.5318H39.9976H39.9988L52.934 79.5184C53.5858 79.5178 54.1138 78.9886 54.1132 78.3362C54.1125 77.6843 53.584 77.157 52.9327 77.157C52.9321 77.157 52.9315 77.157 52.9315 77.157L41.1786 77.1686V73.5693H70.4498C72.4438 73.5693 74.0662 71.9195 74.0662 69.8919V27.3114H74.1162C76.0583 27.3114 77.6385 28.8904 77.6385 30.8313V71.933C77.6385 74.433 75.9161 77.1264 72.1356 77.1301L58.4039 77.1478C57.7515 77.1484 57.2235 77.6782 57.2247 78.3301C57.2253 78.9819 57.7539 79.5093 58.4058 79.5093H58.407L72.1381 79.4916C77.2998 79.4867 80 75.6854 80 71.933V30.8313C80 27.5885 77.3608 24.9499 74.1168 24.9499ZM48.8885 13.0786C50.5182 11.4752 52.9291 10.5731 55.4919 10.6158H55.5273C58.0914 10.5719 60.5054 11.4758 62.135 13.0792C63.6615 14.5813 64.4702 16.6705 64.4739 19.1211C64.4775 22.1905 63.1329 23.8104 61.5765 25.686C60.2191 27.3211 58.7018 29.1498 58.3679 32.0099H56.6901V23.8281H58.5431C59.1949 23.8281 59.7235 23.2995 59.7235 22.6477C59.7235 21.9952 59.1949 21.4667 58.5431 21.4667H52.3566C51.7041 21.4667 51.1755 21.9952 51.1755 22.6477C51.1755 23.2995 51.7041 23.8281 52.3566 23.8281H54.3286V32.0099H52.6556C52.3218 29.1498 50.8044 27.3211 49.447 25.686C47.89 23.8104 46.546 22.1905 46.5497 19.1211C46.5533 16.6699 47.3621 14.5807 48.8885 13.0786ZM51.8256 34.3713H59.198C60.1465 34.3713 60.918 35.1422 60.918 36.0895C60.918 37.0343 60.1465 37.8033 59.198 37.8033H51.8256C50.8771 37.8033 50.1056 37.0343 50.1056 36.0895C50.1056 35.1422 50.8771 34.3713 51.8256 34.3713ZM47.63 27.1942C48.927 28.7567 50.0653 30.1318 50.3107 32.3022C48.8086 32.9046 47.7441 34.375 47.7441 36.0895C47.7441 38.3368 49.5752 40.1648 51.8256 40.1648H59.198C61.4484 40.1648 63.2794 38.3368 63.2794 36.0895C63.2794 34.375 62.215 32.9046 60.7129 32.3022C60.9583 30.1318 62.0966 28.7561 63.3936 27.1936C64.541 25.8118 65.7965 24.2975 66.4264 22.1307C67.243 22.2931 68.0353 22.4823 68.8214 22.7075L68.8794 22.724C70.0812 23.0646 70.9491 23.3111 71.3428 23.6218C71.4783 23.7286 71.7047 23.9075 71.7047 24.9713V67.4792C65.5634 65.1764 58.3972 65.0238 54.4708 65.1599C49.2676 65.3399 44.339 66.1883 41.1786 67.3999V23.678C41.9177 23.3301 43.042 22.9211 44.7247 22.536C45.3864 24.4891 46.5552 25.8996 47.63 27.1942ZM38.8171 69.9621V71.2079H9.54529C8.89587 71.2079 8.36121 70.6836 8.30139 70.0165C18.0737 65.9302 33.5712 67.4841 38.8171 69.9621ZM2.36145 71.933V30.8313C2.36145 28.8904 3.93982 27.3114 5.87891 27.3114H5.93384V69.8926C5.93384 71.9201 7.55432 73.5693 9.5459 73.5693H38.8171V77.1686L7.86377 77.1301C4.08386 77.1264 2.36145 74.433 2.36145 71.933ZM70.4498 71.2079H41.1786V69.9627C46.4264 67.4853 61.9269 65.932 71.6986 70.0165C71.6364 70.6738 71.0901 71.2079 70.4498 71.2079Z" fill="#EB4552"/>
<path d="M34.2542 47.9529C32.3999 46.8768 28.7231 46.1206 24.6576 45.9796C21.947 45.8862 16.7853 46.0107 12.6746 47.9016C12.0819 48.1738 11.8225 48.8751 12.0947 49.4678C12.2937 49.9005 12.7216 50.155 13.1683 50.155C13.3337 50.155 13.501 50.1202 13.6609 50.047C19.8364 47.207 30.2234 48.3441 33.0682 49.9951C33.6322 50.3229 34.3549 50.1312 34.6826 49.5666C35.0098 49.0033 34.8181 48.2806 34.2542 47.9529Z" fill="#EB4552"/>
<path d="M34.2542 56.6192C32.3999 55.5432 28.7231 54.7869 24.6576 54.646C21.947 54.552 16.7853 54.6771 12.6746 56.568C12.0819 56.8402 11.8225 57.5415 12.0947 58.1341C12.2937 58.5669 12.7216 58.8214 13.1683 58.8214C13.3337 58.8214 13.501 58.7866 13.6609 58.7133C19.8364 55.8734 30.2234 57.0105 33.0682 58.6615C33.6322 58.9886 34.3549 58.7976 34.6826 58.233C35.0098 57.6696 34.8181 56.947 34.2542 56.6192Z" fill="#EB4552"/>
<path d="M34.2542 39.2865C32.3993 38.2098 28.7219 37.453 24.6576 37.312C21.9458 37.2174 16.7835 37.3419 12.674 39.2352C12.0813 39.5081 11.8225 40.2094 12.0953 40.802C12.2943 41.2341 12.7222 41.4886 13.1683 41.4886C13.3337 41.4886 13.5016 41.4539 13.6621 41.3806C19.8334 38.5376 30.2216 39.6759 33.0683 41.3287C33.6322 41.6559 34.3549 41.4642 34.6826 40.9003C35.0098 40.3363 34.8181 39.6136 34.2542 39.2865Z" fill="#EB4552"/>
<path d="M46.9324 49.9951C49.7748 48.3423 60.1587 47.2046 66.3342 50.047C66.4941 50.1209 66.662 50.155 66.8274 50.155C67.2742 50.155 67.7014 49.9005 67.901 49.4678C68.1732 48.8757 67.9138 48.1744 67.3218 47.9016C63.2135 46.0107 58.0511 45.8856 55.3406 45.9802C51.2738 46.1206 47.597 46.8768 45.7458 47.9535C45.1819 48.2813 44.9902 49.0039 45.318 49.5679C45.6457 50.1318 46.3684 50.3229 46.9324 49.9951Z" fill="#EB4552"/>
<path d="M67.3212 56.568C63.2129 54.6771 58.0505 54.552 55.34 54.646C51.2732 54.7869 47.597 55.5432 45.7452 56.6198C45.1813 56.9476 44.9902 57.6702 45.318 58.2342C45.6458 58.7982 46.3684 58.9892 46.9324 58.6615C49.7748 57.0086 60.1581 55.8709 66.3342 58.7133C66.4941 58.7872 66.662 58.822 66.8268 58.822C67.2742 58.822 67.7014 58.5669 67.9004 58.1341C68.1732 57.5421 67.9138 56.8408 67.3212 56.568Z" fill="#EB4552"/>
<path d="M55.5182 5.92834C56.1707 5.92834 56.6992 5.39978 56.6992 4.74792V1.64978C56.6992 0.997314 56.1707 0.46875 55.5182 0.46875C54.8663 0.46875 54.3378 0.997314 54.3378 1.64978V4.74792C54.3378 5.39978 54.8663 5.92834 55.5182 5.92834Z" fill="#EB4552"/>
<path d="M44.6362 8.34535C44.8669 8.57545 45.1691 8.69081 45.4712 8.69081C45.7733 8.69081 46.0754 8.57545 46.3062 8.34474C46.7676 7.88332 46.767 7.13564 46.3055 6.67482L44.1095 4.47939C43.6481 4.01857 42.9004 4.01857 42.4396 4.48C41.9781 4.94081 41.9781 5.68849 42.4396 6.14992L44.6362 8.34535Z" fill="#EB4552"/>
<path d="M65.5658 8.69078C65.8685 8.69078 66.1707 8.57543 66.4014 8.3441L68.5932 6.14867C69.054 5.68724 69.0534 4.93956 68.5919 4.47874C68.1305 4.01854 67.3828 4.01854 66.922 4.48058L64.7302 6.6754C64.2694 7.13683 64.27 7.88451 64.7315 8.34532C64.9622 8.57543 65.2643 8.69078 65.5658 8.69078Z" fill="#EB4552"/>
<path d="M12.0947 32.1301C12.2937 32.5629 12.7216 32.818 13.1683 32.818C13.3337 32.818 13.501 32.7832 13.6609 32.71C19.8303 29.8724 30.2203 31.0089 33.0695 32.6587C33.6334 32.9858 34.3561 32.793 34.6832 32.229C35.0098 31.6644 34.8175 30.9418 34.2529 30.6152C32.3981 29.541 28.7213 28.7854 24.6576 28.6444C21.9464 28.5504 16.7841 28.6743 12.6746 30.564C12.0819 30.8368 11.8225 31.5381 12.0947 32.1301Z" fill="#EB4552"/>
</g>
<defs>
<clipPath id="clip0">
<rect width="80" height="80" fill="white"/>
</clipPath>
</defs>
</svg>
