<svg width="70" height="70" viewBox="0 0 70 70" fill="none" xmlns="http://www.w3.org/2000/svg">
<path d="M33.9062 61.25H36.0938V63.4375H33.9062V61.25Z" fill="#EB4552"/>
<path d="M52.7775 54.3352L54.324 52.7887L55.8706 54.3352L54.324 55.8818L52.7775 54.3352Z" fill="#EB4552"/>
<path d="M61.25 33.9062H63.4375V36.0938H61.25V33.9062Z" fill="#EB4552"/>
<path d="M66.7188 27.3438H58.9641C58.5409 26.0093 58.0048 24.7133 57.3617 23.4698L62.8425 17.9879C63.0476 17.7828 63.1627 17.5046 63.1627 17.2146C63.1627 16.9246 63.0476 16.6464 62.8425 16.4413L58.2017 11.8016C55.1656 8.70718 51.5464 6.24503 47.5532 4.55745C43.5599 2.86987 39.2719 1.99032 34.9367 1.96961C30.6016 1.94891 26.3054 2.78746 22.2962 4.43682C18.287 6.08618 14.6445 8.51365 11.5789 11.579C8.51337 14.6443 6.08564 18.2867 4.436 22.2958C2.78635 26.3048 1.94749 30.601 1.96789 34.9361C1.98829 39.2712 2.86754 43.5594 4.55484 47.5527C6.24213 51.5461 8.70403 55.1655 11.7983 58.2018L16.438 62.8426C16.6431 63.0476 16.9212 63.1628 17.2112 63.1628C17.5013 63.1628 17.7794 63.0476 17.9845 62.8426L23.4664 57.3618C24.7111 58.0046 26.0082 58.5403 27.3438 58.963V66.7188C27.3438 67.0089 27.459 67.2871 27.6641 67.4922C27.8692 67.6973 28.1474 67.8126 28.4375 67.8126H41.5625C41.8526 67.8126 42.1308 67.6973 42.3359 67.4922C42.541 67.2871 42.6563 67.0089 42.6563 66.7188V58.9641C43.9907 58.5412 45.2867 58.0056 46.5303 57.3629L52.0122 62.8437C52.2173 63.0487 52.4955 63.1639 52.7855 63.1639C53.0755 63.1639 53.3536 63.0487 53.5588 62.8437L62.8392 53.5632C63.0443 53.3581 63.1595 53.0799 63.1595 52.7899C63.1595 52.4999 63.0443 52.2217 62.8392 52.0166L57.3584 46.5348C58.0025 45.2899 58.5393 43.9924 58.963 42.6563H66.7188C67.0088 42.6563 67.287 42.5411 67.4922 42.336C67.6973 42.1309 67.8125 41.8527 67.8125 41.5626V28.4376C67.8125 28.1475 67.6973 27.8693 67.4922 27.6642C67.287 27.4591 67.0088 27.3438 66.7188 27.3438ZM13.3437 13.3438C18.9521 7.73372 26.5192 4.51966 34.4505 4.37888C42.3819 4.2381 50.0583 7.18159 55.8622 12.5891L54.3178 14.1335C48.9203 9.15236 41.8049 6.45273 34.4616 6.59996C27.1183 6.7472 20.1168 9.72989 14.9233 14.9234C9.72981 20.1169 6.74712 27.1184 6.59988 34.4617C6.45264 41.8049 9.15228 48.9204 14.1334 54.3179L12.5891 55.8623C7.18151 50.0584 4.23802 42.382 4.3788 34.4506C4.51958 26.5192 7.73363 18.9522 13.3437 13.3438ZM44.2805 25.7196C46.7088 28.1878 48.0634 31.5155 48.0493 34.9779C48.0352 38.4404 46.6535 41.757 44.2052 44.2053C41.7569 46.6536 38.4403 48.0353 34.9779 48.0494C31.5154 48.0635 28.1877 46.7088 25.7195 44.2805C25.5144 44.0755 25.2363 43.9603 24.9463 43.9603C24.6562 43.9603 24.3781 44.0755 24.173 44.2805L15.6811 52.7724C11.0939 47.7884 8.61083 41.2241 8.75114 34.4519C8.89145 27.6796 11.6442 21.2238 16.434 16.434C21.2237 11.6443 27.6795 8.89153 34.4518 8.75122C41.224 8.61092 47.7884 11.0939 52.7724 15.6812L44.2805 24.172C44.1788 24.2735 44.0981 24.3942 44.0431 24.5269C43.988 24.6597 43.9597 24.802 43.9597 24.9458C43.9597 25.0895 43.988 25.2318 44.0431 25.3646C44.0981 25.4974 44.1788 25.618 44.2805 25.7196ZM65.625 40.4688H58.1481C57.909 40.4687 57.6765 40.5469 57.4861 40.6915C57.2956 40.8361 57.1578 41.0391 57.0938 41.2695C56.6133 42.9852 55.93 44.6374 55.0583 46.1913C54.9408 46.3998 54.8949 46.6411 54.9277 46.8782C54.9605 47.1153 55.0702 47.3351 55.2399 47.5038L60.5216 52.7866L52.7888 60.5195L47.5059 55.2377C47.3372 55.068 47.1174 54.9584 46.8803 54.9256C46.6432 54.8928 46.402 54.9387 46.1934 55.0562C44.6396 55.9279 42.9873 56.6112 41.2716 57.0916C41.0412 57.1557 40.8382 57.2935 40.6936 57.4839C40.549 57.6744 40.4708 57.9069 40.4709 58.146V65.6251H29.5313V58.1482C29.5314 57.9091 29.4532 57.6765 29.3086 57.4861C29.164 57.2957 28.961 57.1579 28.7306 57.0938C27.0149 56.6134 25.3626 55.9301 23.8088 55.0584C23.6002 54.9408 23.359 54.895 23.1219 54.9278C22.8848 54.9606 22.665 55.0702 22.4963 55.2399L17.2134 60.5216L14.1203 57.4285L24.9758 46.5741C27.9024 49.1078 31.68 50.4391 35.5486 50.3C39.4171 50.1609 43.0894 48.5617 45.8264 45.8244C48.5635 43.087 50.1623 39.4146 50.301 35.5461C50.4397 31.6775 49.1081 27.9 46.5741 24.9737L57.4284 14.1182L60.5216 17.2113L55.2399 22.4941C55.0702 22.6629 54.9605 22.8827 54.9277 23.1198C54.8949 23.3568 54.9408 23.5981 55.0583 23.8066C55.9302 25.3604 56.6135 27.0128 57.0938 28.7285C57.1578 28.9589 57.2956 29.1619 57.4861 29.3065C57.6765 29.4511 57.909 29.5293 58.1481 29.5291H65.625V40.4688Z" fill="#EB4552"/>
<path d="M36.0938 30.7803V18.5938C36.0938 18.3037 35.9785 18.0255 35.7734 17.8204C35.5683 17.6152 35.2901 17.5 35 17.5C34.7099 17.5 34.4317 17.6152 34.2266 17.8204C34.0215 18.0255 33.9062 18.3037 33.9062 18.5938V30.7803C33.1546 30.9769 32.4688 31.37 31.9194 31.9194C31.37 32.4688 30.9769 33.1546 30.7803 33.9062H22.9688C22.6787 33.9062 22.4005 34.0215 22.1954 34.2266C21.9902 34.4317 21.875 34.7099 21.875 35C21.875 35.2901 21.9902 35.5683 22.1954 35.7734C22.4005 35.9785 22.6787 36.0938 22.9688 36.0938H30.7803C30.9716 36.8401 31.3569 37.5226 31.8973 38.0719C32.4376 38.6211 33.1136 39.0176 33.8568 39.2211C34.5999 39.4246 35.3836 39.4278 36.1284 39.2304C36.8732 39.0331 37.5525 38.6421 38.0973 38.0973C38.6421 37.5525 39.0331 36.8732 39.2304 36.1284C39.4278 35.3836 39.4246 34.5999 39.2211 33.8568C39.0176 33.1136 38.6211 32.4376 38.0719 31.8973C37.5226 31.3569 36.8401 30.9716 36.0938 30.7803ZM35 37.1875C34.5674 37.1875 34.1444 37.0592 33.7847 36.8188C33.425 36.5785 33.1446 36.2368 32.979 35.8371C32.8134 35.4374 32.7701 34.9976 32.8545 34.5732C32.9389 34.1489 33.1473 33.7591 33.4532 33.4532C33.7591 33.1473 34.1489 32.9389 34.5732 32.8545C34.9976 32.7701 35.4374 32.8134 35.8371 32.979C36.2368 33.1446 36.5785 33.425 36.8188 33.7847C37.0592 34.1444 37.1875 34.5674 37.1875 35C37.1875 35.5802 36.957 36.1366 36.5468 36.5468C36.1366 36.957 35.5802 37.1875 35 37.1875Z" fill="#EB4552"/>
<path d="M35 14.2188C34.7099 14.2188 34.4317 14.1035 34.2266 13.8984C34.0215 13.6933 33.9062 13.4151 33.9062 13.125V10.9375C33.9062 10.6474 34.0215 10.3692 34.2266 10.1641C34.4317 9.95898 34.7099 9.84375 35 9.84375C35.2901 9.84375 35.5683 9.95898 35.7734 10.1641C35.9785 10.3692 36.0938 10.6474 36.0938 10.9375V13.125C36.0938 13.4151 35.9785 13.6933 35.7734 13.8984C35.5683 14.1035 35.2901 14.2188 35 14.2188Z" fill="#EB4552"/>
<path d="M45.9375 17.1499C45.7456 17.1497 45.5571 17.0991 45.391 17.003C45.2249 16.9069 45.087 16.7688 44.9911 16.6026C44.8953 16.4363 44.8448 16.2478 44.8449 16.0559C44.8449 15.864 44.8955 15.6755 44.9914 15.5093L46.0852 13.6138C46.2312 13.3647 46.4699 13.1834 46.7491 13.1096C47.0284 13.0358 47.3255 13.0754 47.5756 13.2198C47.8257 13.3642 48.0086 13.6017 48.0843 13.8804C48.1599 14.1592 48.1223 14.4565 47.9795 14.7076L46.8858 16.6031C46.7897 16.7695 46.6515 16.9077 46.485 17.0037C46.3185 17.0997 46.1297 17.1501 45.9375 17.1499Z" fill="#EB4552"/>
<path d="M24.0625 17.1499C23.8703 17.1501 23.6815 17.0997 23.515 17.0037C23.3485 16.9077 23.2103 16.7695 23.1142 16.6031L22.0205 14.7076C21.8777 14.4565 21.8401 14.1592 21.9157 13.8804C21.9914 13.6017 22.1743 13.3642 22.4244 13.2198C22.6745 13.0754 22.9716 13.0358 23.2509 13.1096C23.5301 13.1834 23.7688 13.3647 23.9148 13.6138L25.0086 15.5093C25.1045 15.6755 25.1551 15.864 25.1551 16.0559C25.1552 16.2478 25.1047 16.4363 25.0089 16.6026C24.913 16.7688 24.7751 16.9069 24.609 17.003C24.4429 17.0991 24.2544 17.1497 24.0625 17.1499Z" fill="#EB4552"/>
<path d="M16.0552 25.1563C15.8631 25.1567 15.6744 25.1061 15.5083 25.0097L13.6128 23.916C13.3637 23.7699 13.1824 23.5312 13.1086 23.252C13.0347 22.9727 13.0743 22.6757 13.2188 22.4255C13.3632 22.1754 13.6007 21.9925 13.8794 21.9169C14.1581 21.8412 14.4555 21.8788 14.7066 22.0216L16.602 23.1154C16.8105 23.2357 16.9735 23.4216 17.0656 23.644C17.1577 23.8664 17.1739 24.1131 17.1116 24.3456C17.0493 24.5782 16.912 24.7837 16.721 24.9303C16.53 25.0768 16.2959 25.1563 16.0552 25.1563Z" fill="#EB4552"/>
<path d="M13.125 36.0938H10.9375C10.6474 36.0938 10.3692 35.9785 10.1641 35.7734C9.95898 35.5683 9.84375 35.2901 9.84375 35C9.84375 34.7099 9.95898 34.4317 10.1641 34.2266C10.3692 34.0215 10.6474 33.9062 10.9375 33.9062H13.125C13.4151 33.9062 13.6933 34.0215 13.8984 34.2266C14.1035 34.4317 14.2188 34.7099 14.2188 35C14.2188 35.2901 14.1035 35.5683 13.8984 35.7734C13.6933 35.9785 13.4151 36.0938 13.125 36.0938Z" fill="#EB4552"/>
<path d="M14.1619 48.1251C13.9211 48.1251 13.6871 48.0456 13.4961 47.8991C13.3051 47.7525 13.1678 47.547 13.1054 47.3144C13.0431 47.0819 13.0593 46.8352 13.1514 46.6128C13.2436 46.3904 13.4065 46.2045 13.615 46.0842L15.5105 44.9904C15.6349 44.9174 15.7725 44.8698 15.9155 44.8503C16.0584 44.8308 16.2037 44.8397 16.3432 44.8765C16.4826 44.9134 16.6134 44.9775 16.728 45.0651C16.8426 45.1527 16.9387 45.2622 17.0108 45.3871C17.083 45.512 17.1297 45.6499 17.1483 45.793C17.1668 45.936 17.157 46.0813 17.1192 46.2205C17.0814 46.3597 17.0164 46.4901 16.928 46.6041C16.8397 46.7181 16.7296 46.8135 16.6042 46.8848L14.7088 47.9785C14.5426 48.0749 14.3539 48.1255 14.1619 48.1251Z" fill="#EB4552"/>
<path d="M35 45.9374C33.5631 45.9414 32.1397 45.6598 30.8126 45.1089C29.4854 44.558 28.281 43.7488 27.2694 42.7283C27.1651 42.6273 27.0819 42.5065 27.0248 42.373C26.9677 42.2394 26.9377 42.0959 26.9366 41.9507C26.9356 41.8054 26.9635 41.6615 27.0187 41.5271C27.0738 41.3928 27.1552 41.2708 27.2581 41.1682C27.3609 41.0657 27.4831 40.9847 27.6176 40.9299C27.7521 40.8751 27.8962 40.8476 28.0414 40.849C28.1866 40.8505 28.3301 40.8809 28.4634 40.9384C28.5968 40.9959 28.7174 41.0794 28.8181 41.184C29.6269 42.0101 30.5915 42.6677 31.6561 43.1186C32.7207 43.5696 33.8642 43.8049 35.0203 43.8111C36.1765 43.8172 37.3223 43.594 38.3917 43.1544C39.461 42.7148 40.4325 42.0675 41.25 41.25C42.0676 40.4324 42.7149 39.4609 43.1545 38.3916C43.5941 37.3223 43.8173 36.1764 43.8111 35.0202C43.805 33.8641 43.5697 32.7206 43.1187 31.656C42.6678 30.5914 42.0102 29.6268 41.184 28.818C41.0794 28.7173 40.996 28.5967 40.9385 28.4633C40.881 28.33 40.8506 28.1865 40.8491 28.0413C40.8477 27.8961 40.8751 27.752 40.9299 27.6175C40.9847 27.483 41.0658 27.3608 41.1683 27.258C41.2709 27.1551 41.3929 27.0737 41.5272 27.0186C41.6615 26.9634 41.8055 26.9355 41.9507 26.9366C42.096 26.9376 42.2395 26.9676 42.373 27.0247C42.5066 27.0818 42.6274 27.165 42.7284 27.2693C44.2566 28.7988 45.2971 30.7468 45.7187 32.8674C46.1402 34.988 45.9238 37.1859 45.0968 39.1836C44.2698 41.1812 42.8693 42.889 41.0722 44.0911C39.2751 45.2931 37.1621 45.9356 35 45.9374Z" fill="#EB4552"/>
</svg>
