<svg width="80" height="80" viewBox="0 0 80 80" fill="none" xmlns="http://www.w3.org/2000/svg">
<g clip-path="url(#clip0)">
<path d="M79.8458 43.6953C79.1275 36.4705 75.8998 29.6593 70.7569 24.5163C66.3618 20.1214 60.9824 17.2971 55.322 16.0413V12.0712C57.6339 11.4961 59.3523 9.40339 59.3523 6.91601C59.3523 3.98659 56.9692 1.60342 54.0398 1.60342H42.7896C39.8602 1.60342 37.477 3.98659 37.477 6.91601C37.477 9.40323 39.1955 11.4959 41.5072 12.0712V16.0524C35.8642 17.3135 30.5025 20.1339 26.1199 24.5164C25.1609 25.4755 24.2765 26.4816 23.4669 27.5273C23.4277 27.5243 23.3885 27.5213 23.3485 27.5213H12.2138C11.351 27.5213 10.6513 28.2209 10.6513 29.0839C10.6513 29.9468 11.351 30.6464 12.2138 30.6464H21.3408C20.1952 32.5644 19.2714 34.5786 18.5683 36.6521H1.56252C0.699698 36.6521 0 37.3516 0 38.2146C0 39.0776 0.699698 39.7771 1.56252 39.7771H17.6853C17.235 41.7539 16.9765 43.7656 16.9098 45.783H10.0002C9.13733 45.783 8.43763 46.4826 8.43763 47.3455C8.43763 48.2085 9.13733 48.9081 10.0002 48.9081H16.9596C17.0915 50.9306 17.4167 52.9425 17.9353 54.9139H7.81262C6.9498 54.9139 6.2501 55.6135 6.2501 56.4765C6.2501 57.3395 6.9498 58.039 7.81262 58.039H18.9325C20.4653 62.0939 22.8608 65.8944 26.1199 69.1535C31.2678 74.3014 38.0861 77.5299 45.3184 78.2445C46.3506 78.3463 47.3836 78.3968 48.4151 78.3968C54.5124 78.3968 60.5322 76.6323 65.6401 73.306C66.3632 72.835 66.5678 71.867 66.0968 71.1439C65.6259 70.4208 64.6579 70.2162 63.9347 70.6872C52.7538 77.9681 37.7797 76.3938 28.3297 66.9438C17.2417 55.8558 17.2417 37.8145 28.3297 26.7263C39.4175 15.6385 57.4589 15.6385 68.547 26.7263C77.9845 36.164 79.5673 51.1253 72.3105 62.3008C71.8405 63.0245 72.0463 63.9924 72.7699 64.4622C73.494 64.9322 74.4615 64.7264 74.9313 64.0027C78.8086 58.0315 80.5539 50.8197 79.8458 43.6953ZM40.602 6.91616C40.602 5.70989 41.5833 4.72863 42.7896 4.72863H54.0398C55.246 4.72863 56.2273 5.70989 56.2273 6.91616C56.2273 8.12243 55.246 9.1037 54.0398 9.1037H53.7594H43.0697H42.7896C41.5833 9.1037 40.602 8.12228 40.602 6.91616ZM44.6323 15.5152V12.2287H52.1969V15.5096C49.685 15.2108 47.1437 15.2127 44.6323 15.5152Z" fill="#EB4552"/>
<path d="M69.6526 66.4854C69.2401 66.4854 68.8386 66.6526 68.5481 66.9432C68.2559 67.2338 68.0901 67.637 68.0901 68.0479C68.0901 68.4589 68.2559 68.862 68.5481 69.1526C68.8386 69.4448 69.2403 69.6104 69.6526 69.6104C70.0636 69.6104 70.4652 69.4448 70.7573 69.1526C71.048 68.862 71.2151 68.4589 71.2151 68.0479C71.2151 67.637 71.0481 67.2338 70.7573 66.9432C70.4652 66.6526 70.0634 66.4854 69.6526 66.4854Z" fill="#EB4552"/>
<path d="M48.4384 22.5955C35.0729 22.5955 24.1991 33.4691 24.1991 46.8348C24.1991 60.2005 35.0729 71.0741 48.4384 71.0741C61.8039 71.0741 72.6777 60.2005 72.6777 46.8348C72.6777 33.4691 61.8039 22.5955 48.4384 22.5955ZM48.4384 67.949C36.7959 67.949 27.3242 58.4771 27.3242 46.8348C27.3242 35.1924 36.7959 25.7205 48.4384 25.7205C60.0809 25.7205 69.5527 35.1924 69.5527 46.8348C69.5527 58.4771 60.0809 67.949 48.4384 67.949Z" fill="#EB4552"/>
<path d="M58.3223 34.7412L50.5831 42.4802C49.9359 42.1602 49.2079 41.9794 48.4384 41.9794C47.6687 41.9794 46.9409 42.1602 46.2937 42.4802L42.83 39.0165C42.2197 38.4064 41.2306 38.4064 40.6202 39.0165C40.01 39.6267 40.01 40.6161 40.6202 41.2263L44.0838 44.6899C43.7636 45.3371 43.583 46.0651 43.583 46.8346C43.583 49.5119 45.761 51.69 48.4384 51.69C51.1158 51.69 53.2938 49.5119 53.2938 46.8346C53.2938 46.0651 53.113 45.3371 52.793 44.6899L60.305 37.1779L60.532 36.9509C61.1422 36.3407 61.1422 35.3513 60.532 34.7412C59.9219 34.131 58.9328 34.131 58.3223 34.7412ZM48.4384 48.5651C47.4843 48.5651 46.7081 47.7889 46.7081 46.8348C46.7081 45.8807 47.4843 45.1045 48.4384 45.1045C49.3925 45.1045 50.1687 45.8807 50.1687 46.8348C50.1687 47.7889 49.3925 48.5651 48.4384 48.5651Z" fill="#EB4552"/>
<path d="M65.1447 45.2913H63.6971C62.8343 45.2913 62.1346 45.9909 62.1346 46.8538C62.1346 47.7168 62.8343 48.4163 63.6971 48.4163H65.1447C66.0076 48.4163 66.7072 47.7168 66.7072 46.8538C66.7072 45.9909 66.0076 45.2913 65.1447 45.2913Z" fill="#EB4552"/>
<path d="M33.1795 45.2532H31.732C30.8692 45.2532 30.1695 45.9527 30.1695 46.8157C30.1695 47.6787 30.8692 48.3782 31.732 48.3782H33.1795C34.0423 48.3782 34.742 47.6787 34.742 46.8157C34.742 45.9527 34.0423 45.2532 33.1795 45.2532Z" fill="#EB4552"/>
<path d="M48.4575 33.1384C49.3203 33.1384 50.02 32.4389 50.02 31.5759V30.1284C50.02 29.2654 49.3203 28.5659 48.4575 28.5659C47.5946 28.5659 46.895 29.2654 46.895 30.1284V31.5759C46.895 32.4389 47.5946 33.1384 48.4575 33.1384Z" fill="#EB4552"/>
<path d="M48.4193 60.5311C47.5565 60.5311 46.8568 61.2306 46.8568 62.0936V63.5411C46.8568 64.404 47.5565 65.1036 48.4193 65.1036C49.2821 65.1036 49.9818 64.404 49.9818 63.5411V62.0936C49.9818 61.2306 49.2821 60.5311 48.4193 60.5311Z" fill="#EB4552"/>
<path d="M1.5625 54.9134C1.15156 54.9134 0.748438 55.0805 0.457813 55.3712C0.167188 55.6618 0 56.0649 0 56.4759C0 56.8884 0.167031 57.2899 0.457813 57.5805C0.748594 57.8712 1.15156 58.0384 1.5625 58.0384C1.97344 58.0384 2.37656 57.8712 2.66703 57.5805C2.95766 57.2899 3.125 56.8868 3.125 56.4759C3.125 56.0649 2.95781 55.6618 2.66703 55.3712C2.37656 55.0805 1.97344 54.9134 1.5625 54.9134Z" fill="#EB4552"/>
</g>
<defs>
<clipPath id="clip0">
<rect width="80" height="80" fill="white"/>
</clipPath>
</defs>
</svg>
