<svg width="70" height="70" viewBox="0 0 70 70" fill="none" xmlns="http://www.w3.org/2000/svg">
<path d="M38.2812 8.75C38.2812 6.94094 36.809 5.46875 35 5.46875C33.1909 5.46875 31.7187 6.94094 31.7187 8.75C31.7187 10.5591 33.1909 12.0312 35 12.0312C36.809 12.0312 38.2812 10.5591 38.2812 8.75ZM33.9062 8.75C33.9062 8.14625 34.3973 7.65625 35 7.65625C35.6026 7.65625 36.0937 8.14625 36.0937 8.75C36.0937 9.35375 35.6026 9.84375 35 9.84375C34.3973 9.84375 33.9062 9.35375 33.9062 8.75Z" fill="#EB4552"/>
<path d="M7.10935 45.2813C5.54201 46.1869 5.00389 48.1972 5.90732 49.7646C6.51435 50.8157 7.61904 51.4041 8.75545 51.4041C9.31107 51.4041 9.87435 51.263 10.3906 50.9666C11.9569 50.061 12.495 48.0507 11.5915 46.4833C10.6859 44.9171 8.67451 44.3779 7.10935 45.2813ZM9.29685 49.0711C8.77295 49.3741 8.10357 49.1925 7.80279 48.6708C7.50092 48.148 7.68139 47.4775 8.2031 47.1768C8.72482 46.8749 9.39529 47.0564 9.69607 47.5771C9.99795 48.0999 9.81748 48.7704 9.29685 49.0711Z" fill="#EB4552"/>
<path d="M62.8906 45.2812C61.3244 44.3788 59.313 44.9181 58.4084 46.4832C57.5039 48.0506 58.0431 50.0609 59.6094 50.9665H59.6105C60.1256 51.2629 60.6889 51.404 61.2445 51.404C62.3798 51.404 63.4856 50.8156 64.0926 49.7645C64.9972 48.1971 64.458 46.1879 62.8906 45.2812ZM62.1983 48.6707C61.8975 49.1935 61.2259 49.374 60.7053 49.071C60.1825 48.7702 60.0031 48.0987 60.305 47.577C60.6058 47.0541 61.2762 46.8726 61.798 47.1766C62.3197 47.4774 62.5001 48.1479 62.1983 48.6707Z" fill="#EB4552"/>
<path d="M65.0792 41.4936C63.3084 40.4709 61.2467 40.1964 59.2692 40.7291C57.5006 41.2027 55.9967 42.2712 54.9653 43.7598L47.0312 39.7917V30.2072L59.1522 24.1456C59.8784 25.0731 60.8639 25.7523 62.0222 26.063C62.4936 26.1898 62.9716 26.2522 63.4462 26.2522C64.3934 26.2522 65.3286 26.0028 66.1719 25.5172C67.4373 24.7866 68.3419 23.6075 68.7203 22.1966C69.0987 20.7856 68.9041 19.3113 68.1734 18.0469C67.4428 16.7825 66.2637 15.878 64.8528 15.4995C63.443 15.1178 61.9686 15.3158 60.7031 16.0453C59.4377 16.7759 58.5331 17.955 58.1547 19.3659C57.902 20.3077 57.9272 21.2723 58.1744 22.1889L47.0312 27.7616V20.7812H36.0938V16.3188C39.7983 15.785 42.6562 12.5989 42.6562 8.75C42.6562 4.52922 39.2219 1.09375 35 1.09375C30.7781 1.09375 27.3437 4.52922 27.3437 8.75C27.3437 12.5989 30.2017 15.785 33.9062 16.3188V20.7812H22.9687V27.7605L11.8256 22.1889C12.0728 21.2723 12.098 20.3077 11.8453 19.3659C11.4669 17.955 10.5623 16.7759 9.29687 16.0453C8.0314 15.3158 6.55703 15.1178 5.14718 15.4995C3.73625 15.878 2.55719 16.7825 1.82656 18.0469C1.09594 19.3113 0.901248 20.7856 1.27969 22.1966C1.65812 23.6075 2.56265 24.7866 3.82812 25.5172C4.6714 26.0028 5.60547 26.2522 6.55375 26.2522C7.02953 26.2522 7.5075 26.1898 7.97781 26.063C9.13609 25.7523 10.1216 25.0731 10.8467 24.1456L22.9687 30.2061V39.7906L15.0336 43.7577C14.0033 42.2691 12.4983 41.2005 10.7297 40.7269C8.75437 40.1964 6.69156 40.4688 4.91969 41.4914C1.26437 43.6034 0.00656033 48.2945 2.1164 51.9509C3.53281 54.4042 6.11078 55.778 8.75984 55.778C10.0581 55.778 11.3728 55.4477 12.5748 54.7531C15.7719 52.9069 17.1347 49.0864 16.0147 45.7122L22.9687 42.2373V49.2188H33.9062V58.0792C31.4136 58.5878 29.5312 60.7961 29.5312 63.4375C29.5312 66.453 31.9845 68.9062 35 68.9062C38.0155 68.9062 40.4688 66.453 40.4688 63.4375C40.4688 60.7972 38.5864 58.5878 36.0938 58.0792V49.2188H47.0312V42.2373L53.9831 45.7133C52.8631 49.0886 54.2259 52.908 57.423 54.7542C58.6261 55.4487 59.9408 55.7791 61.238 55.7791C63.8859 55.7791 66.465 54.4053 67.8814 51.952C69.9923 48.2956 68.7345 43.6045 65.0792 41.4936ZM60.2678 19.9325C60.4953 19.087 61.0378 18.3783 61.7969 17.9408C62.312 17.6433 62.8753 17.5022 63.432 17.5022C64.5673 17.5022 65.672 18.0906 66.2791 19.1417C66.7166 19.9008 66.8336 20.7845 66.6072 21.6311C66.3797 22.4766 65.8372 23.1853 65.0781 23.6228C63.5119 24.5284 61.5005 23.9892 60.5959 22.4219C60.1573 21.6628 60.0414 20.7791 60.2678 19.9325ZM29.5312 8.75C29.5312 5.73453 31.9845 3.28125 35 3.28125C38.0155 3.28125 40.4688 5.73453 40.4688 8.75C40.4688 11.7655 38.0155 14.2188 35 14.2188C31.9845 14.2188 29.5312 11.7655 29.5312 8.75ZM9.40406 22.4219C8.49953 23.9892 6.48812 24.5284 4.92187 23.6228C4.16281 23.1853 3.62031 22.4766 3.39281 21.6311C3.1664 20.7845 3.28234 19.9008 3.72094 19.1417C4.32797 18.0906 5.43265 17.5022 6.56797 17.5022C7.12469 17.5022 7.68797 17.6433 8.20312 17.9408C8.96219 18.3783 9.50469 19.087 9.73219 19.9325C9.95859 20.7791 9.84265 21.6628 9.40406 22.4219ZM11.4833 52.8598C8.87031 54.367 5.52015 53.4702 4.01297 50.8583C2.50578 48.2464 3.40375 44.8962 6.01453 43.388C6.85781 42.9012 7.79187 42.6519 8.74015 42.6519C9.21594 42.6519 9.6939 42.7153 10.1642 42.8411C11.5752 43.2195 12.7542 44.1241 13.4848 45.3895C14.9931 48.0014 14.0941 51.3516 11.4833 52.8598ZM38.2812 63.4375C38.2812 65.2466 36.8091 66.7188 35 66.7188C33.1909 66.7188 31.7187 65.2466 31.7187 63.4375C31.7187 61.6284 33.1909 60.1562 35 60.1562C36.8091 60.1562 38.2812 61.6284 38.2812 63.4375ZM44.8438 47.0312H25.1562V22.9688H44.8438V47.0312ZM65.987 50.8583C64.4809 53.4713 61.1275 54.3681 58.5167 52.8598C55.9059 51.3516 55.008 48.0014 56.5152 45.3895C57.2458 44.1241 58.4248 43.2195 59.8358 42.8411C61.2456 42.4637 62.72 42.6562 63.9855 43.388C66.5962 44.8962 67.4942 48.2464 65.987 50.8583Z" fill="#EB4552"/>
<path d="M42.6562 33.9062H36.0937V36.0938H31.7187V38.2812H27.3437V44.8438H42.6562V33.9062ZM29.5312 40.4688H31.7187V42.6562H29.5312V40.4688ZM33.9062 42.6562V38.2812H36.0937V42.6562H33.9062ZM40.4687 42.6562H38.2812V36.0938H40.4687V42.6562Z" fill="#EB4552"/>
<path d="M27.3437 25.1562H29.5312V27.3438H27.3437V25.1562Z" fill="#EB4552"/>
<path d="M31.7187 25.1562H42.6562V27.3438H31.7187V25.1562Z" fill="#EB4552"/>
<path d="M27.3437 29.5312H42.6562V31.7188H27.3437V29.5312Z" fill="#EB4552"/>
</svg>
