<svg width="70" height="70" viewBox="0 0 70 70" fill="none" xmlns="http://www.w3.org/2000/svg">
<path d="M62.3438 43.9688C62.0537 43.9688 61.7755 43.8535 61.5704 43.6484C61.3652 43.4433 61.25 43.1651 61.25 42.875V9.84375C61.25 9.55367 61.1348 9.27547 60.9296 9.07035C60.7245 8.86523 60.4463 8.75 60.1562 8.75C59.8662 8.75 59.588 8.63477 59.3829 8.42965C59.1777 8.22453 59.0625 7.94633 59.0625 7.65625C59.0625 7.36617 59.1777 7.08797 59.3829 6.88285C59.588 6.67773 59.8662 6.5625 60.1562 6.5625C61.0265 6.5625 61.8611 6.9082 62.4764 7.52356C63.0918 8.13891 63.4375 8.97351 63.4375 9.84375V42.875C63.4375 43.1651 63.3223 43.4433 63.1171 43.6484C62.912 43.8535 62.6338 43.9688 62.3438 43.9688Z" fill="#EB4552"/>
<path d="M9.84375 63.4375C8.97351 63.4375 8.13891 63.0918 7.52356 62.4764C6.9082 61.8611 6.5625 61.0265 6.5625 60.1562V27.125C6.5625 26.8349 6.67773 26.5567 6.88285 26.3516C7.08797 26.1465 7.36617 26.0312 7.65625 26.0312C7.94633 26.0312 8.22453 26.1465 8.42965 26.3516C8.63477 26.5567 8.75 26.8349 8.75 27.125V60.1562C8.75 60.4463 8.86523 60.7245 9.07035 60.9296C9.27547 61.1348 9.55367 61.25 9.84375 61.25C10.1338 61.25 10.412 61.3652 10.6171 61.5704C10.8223 61.7755 10.9375 62.0537 10.9375 62.3438C10.9375 62.6338 10.8223 62.912 10.6171 63.1171C10.412 63.3223 10.1338 63.4375 9.84375 63.4375Z" fill="#EB4552"/>
<path d="M47.0312 38.2812H44.2837C44.1687 37.9536 44.0355 37.6326 43.8845 37.3198L45.8281 35.3795C46.0332 35.1744 46.1484 34.8963 46.1484 34.6063C46.1484 34.3162 46.0332 34.0381 45.8281 33.833L42.7328 30.7377C42.5277 30.5326 42.2496 30.4174 41.9595 30.4174C41.6695 30.4174 41.3914 30.5326 41.1862 30.7377L39.375 32.5445V6.5625C39.375 5.40218 38.9141 4.28938 38.0936 3.46891C37.2731 2.64844 36.1603 2.1875 35 2.1875C33.8397 2.1875 32.7269 2.64844 31.9064 3.46891C31.0859 4.28938 30.625 5.40218 30.625 6.5625V32.5445L28.817 30.7344C28.6119 30.5293 28.3338 30.4141 28.0437 30.4141C27.7537 30.4141 27.4756 30.5293 27.2705 30.7344L24.1752 33.8297C23.9701 34.0348 23.8549 34.3129 23.8549 34.603C23.8549 34.893 23.9701 35.1711 24.1752 35.3763L26.1155 37.3166C25.9645 37.6293 25.8313 37.9503 25.7162 38.278H22.9688C22.6787 38.278 22.4005 38.3932 22.1954 38.5983C21.9902 38.8034 21.875 39.0816 21.875 39.3717V43.7467C21.875 44.0368 21.9902 44.315 22.1954 44.5201C22.4005 44.7252 22.6787 44.8405 22.9688 44.8405H25.7162C25.8313 45.1681 25.9645 45.4891 26.1155 45.8019L24.1719 47.7455C23.9668 47.9506 23.8516 48.2287 23.8516 48.5187C23.8516 48.8088 23.9668 49.0869 24.1719 49.292L27.2672 52.3873C27.4723 52.5924 27.7504 52.7076 28.0405 52.7076C28.3305 52.7076 28.6086 52.5924 28.8137 52.3873L30.7541 50.4481C31.0672 50.5981 31.3882 50.7314 31.7155 50.8473V53.5938C31.7155 53.8838 31.8307 54.162 32.0358 54.3671C32.2409 54.5723 32.5191 54.6875 32.8092 54.6875H37.1842C37.4743 54.6875 37.7525 54.5723 37.9576 54.3671C38.1627 54.162 38.278 53.8838 38.278 53.5938V50.8473C38.6053 50.7314 38.9262 50.5981 39.2394 50.4481L41.183 52.3906C41.3881 52.5957 41.6662 52.7109 41.9563 52.7109C42.2463 52.7109 42.5244 52.5957 42.7295 52.3906L45.8248 49.2953C46.0299 49.0902 46.1451 48.8121 46.1451 48.522C46.1451 48.232 46.0299 47.9539 45.8248 47.7487L43.8845 45.8084C44.0356 45.4946 44.1688 45.1725 44.2837 44.8438H47.0312C47.3213 44.8438 47.5995 44.7285 47.8046 44.5234C48.0098 44.3183 48.125 44.0401 48.125 43.75V39.375C48.125 39.0849 48.0098 38.8067 47.8046 38.6016C47.5995 38.3965 47.3213 38.2812 47.0312 38.2812ZM37.1875 34.0506L36.0938 33.3211V15.3125H37.1875V34.0506ZM35 35.2188L36.8714 36.4656L35 40.2106L33.1286 36.4678L35 35.2188ZM31.7647 38.6302L34.0211 43.143C34.1118 43.325 34.2515 43.4781 34.4244 43.5851C34.5973 43.6921 34.7966 43.7488 35 43.7488C35.2034 43.7488 35.4027 43.6921 35.5756 43.5851C35.7485 43.4781 35.8882 43.325 35.9789 43.143L38.2353 38.6302C38.806 39.2571 39.1823 40.0364 39.3183 40.8732C39.4544 41.71 39.3443 42.5684 39.0016 43.3438C38.6588 44.1193 38.0982 44.7784 37.3878 45.2412C36.6774 45.7039 35.8478 45.9502 35 45.9502C34.1522 45.9502 33.3226 45.7039 32.6122 45.2412C31.9018 44.7784 31.3412 44.1193 30.9984 43.3438C30.6557 42.5684 30.5457 41.71 30.6817 40.8732C30.8177 40.0364 31.194 39.2571 31.7647 38.6302ZM32.8125 6.5625C32.8125 5.98234 33.043 5.42594 33.4532 5.0157C33.8634 4.60547 34.4198 4.375 35 4.375C35.5802 4.375 36.1366 4.60547 36.5468 5.0157C36.957 5.42594 37.1875 5.98234 37.1875 6.5625V8.75H32.8125V6.5625ZM32.8125 10.9375H37.1875V13.125H32.8125V10.9375ZM32.8125 15.3125H33.9062V33.3211L32.8125 34.0506V15.3125ZM45.9375 42.6562H43.4766C43.2344 42.6562 42.9991 42.7365 42.8075 42.8845C42.6159 43.0326 42.4788 43.24 42.4178 43.4744C42.2411 44.1667 41.9652 44.8298 41.5986 45.4431C41.4724 45.6525 41.42 45.8981 41.4497 46.1408C41.4794 46.3835 41.5896 46.6092 41.7627 46.7819L43.505 48.5242L41.9563 50.0675L40.2139 48.3252C40.0411 48.1523 39.8153 48.0423 39.5726 48.0128C39.33 47.9832 39.0844 48.0358 38.8752 48.1622C38.2618 48.5283 37.5987 48.8039 36.9064 48.9803C36.6731 49.0424 36.4669 49.1799 36.3199 49.3714C36.1729 49.5629 36.0934 49.7976 36.0938 50.0391V52.5H33.9062V50.0391C33.9063 49.7969 33.826 49.5616 33.678 49.37C33.5299 49.1784 33.3225 49.0413 33.0881 48.9803C32.3978 48.8034 31.7365 48.5279 31.1248 48.1622C30.9156 48.0358 30.67 47.9832 30.4274 48.0128C30.1847 48.0423 29.9589 48.1523 29.7861 48.3252L28.0437 50.0675L26.495 48.5187L28.2373 46.7764C28.4104 46.6037 28.5206 46.378 28.5503 46.1353C28.58 45.8927 28.5276 45.647 28.4014 45.4377C28.0348 44.8244 27.7589 44.1612 27.5822 43.4689C27.5201 43.2356 27.3826 43.0294 27.1911 42.8824C26.9996 42.7354 26.7649 42.6559 26.5234 42.6562H24.0625V40.4688H26.5234C26.7656 40.4688 27.0009 40.3885 27.1925 40.2405C27.3841 40.0924 27.5212 39.885 27.5822 39.6506C27.7589 38.9583 28.0348 38.2952 28.4014 37.6819C28.5276 37.4725 28.58 37.2269 28.5503 36.9842C28.5206 36.7415 28.4104 36.5158 28.2373 36.3431L26.495 34.6063L28.0437 33.0575L29.7861 34.7998C29.8958 34.9083 30.0274 34.992 30.1721 35.0453C30.3168 35.0987 30.4712 35.1206 30.625 35.1094V36.0938C30.6248 36.2634 30.6642 36.4308 30.7398 36.5827C29.719 37.4539 28.9898 38.6172 28.6506 39.9157C28.3114 41.2142 28.3784 42.5854 28.8427 43.8447C29.307 45.1039 30.1462 46.1904 31.2471 46.9579C32.3481 47.7254 33.6579 48.1369 35 48.1369C36.3421 48.1369 37.6519 47.7254 38.7529 46.9579C39.8538 46.1904 40.693 45.1039 41.1573 43.8447C41.6216 42.5854 41.6886 41.2142 41.3494 39.9157C41.0102 38.6172 40.281 37.4539 39.2602 36.5827C39.3358 36.4308 39.3752 36.2634 39.375 36.0938V35.1094C39.5284 35.1216 39.6827 35.1008 39.8275 35.0484C39.9722 34.9959 40.104 34.913 40.2139 34.8053L41.9563 33.063L43.505 34.6117L41.7627 36.3541C41.5896 36.5268 41.4794 36.7525 41.4497 36.9951C41.42 37.2378 41.4724 37.4834 41.5986 37.6928C41.9652 38.3061 42.2411 38.9692 42.4178 39.6616C42.4809 39.8939 42.6188 40.0989 42.8102 40.2448C43.0016 40.3907 43.2359 40.4695 43.4766 40.4688H45.9375V42.6562Z" fill="#EB4552"/>
<path d="M60.1562 2.1875C58.3167 2.18966 56.5395 2.85404 55.1496 4.0591C53.7598 5.26417 52.8503 6.92935 52.5875 8.75H41.5625V10.9375H52.5V53.5938C52.5 53.8838 52.6152 54.162 52.8204 54.3671C53.0255 54.5723 53.3037 54.6875 53.5938 54.6875C53.8838 54.6875 54.162 54.5723 54.3671 54.3671C54.5723 54.162 54.6875 53.8838 54.6875 53.5938C54.6875 52.1433 55.2637 50.7523 56.2893 49.7268C57.3148 48.7012 58.7058 48.125 60.1562 48.125C61.6067 48.125 62.9977 48.7012 64.0232 49.7268C65.0488 50.7523 65.625 52.1433 65.625 53.5938V53.8234C65.6221 55.212 65.0692 56.5429 64.0873 57.5248C63.1054 58.5067 61.7745 59.0596 60.3859 59.0625H17.5V16.4062C17.5 16.1162 17.3848 15.838 17.1796 15.6329C16.9745 15.4277 16.6963 15.3125 16.4062 15.3125C16.1162 15.3125 15.838 15.4277 15.6329 15.6329C15.4277 15.838 15.3125 16.1162 15.3125 16.4062C15.3125 17.4879 14.9918 18.5452 14.3908 19.4445C13.7899 20.3439 12.9358 21.0448 11.9366 21.4587C10.9373 21.8726 9.83768 21.9809 8.77685 21.7699C7.71602 21.5589 6.74158 21.0381 5.97676 20.2732C5.21194 19.5084 4.69109 18.534 4.48008 17.4732C4.26907 16.4123 4.37737 15.3127 4.79128 14.3134C5.2052 13.3142 5.90614 12.4601 6.80548 11.8592C7.70481 11.2582 8.76213 10.9375 9.84375 10.9375H28.4375V8.75H9.84375C7.8139 8.75232 5.86785 9.5597 4.43252 10.995C2.9972 12.4303 2.18982 14.3764 2.1875 16.4062V60.1562C2.20233 62.0816 2.94205 63.9307 4.25926 65.335C5.57647 66.7394 7.37445 67.5959 9.29492 67.7339C11.2154 67.8718 13.1173 67.2811 14.6218 66.0795C16.1262 64.8778 17.1226 63.1535 17.4125 61.25H60.3859C62.3547 61.2471 64.242 60.4637 65.6341 59.0716C67.0262 57.6795 67.8096 55.7922 67.8125 53.8234V9.84375C67.8102 7.8139 67.0028 5.86785 65.5675 4.43252C64.1322 2.9972 62.1861 2.18982 60.1562 2.1875ZM15.3125 60.1562C15.3125 61.6067 14.7363 62.9977 13.7107 64.0232C12.6852 65.0488 11.2942 65.625 9.84375 65.625C8.39335 65.625 7.00235 65.0488 5.97676 64.0232C4.95117 62.9977 4.375 61.6067 4.375 60.1562V21.7656C5.08717 22.4944 5.93782 23.0735 6.87696 23.4688C7.8161 23.8642 8.82478 24.0678 9.84375 24.0678C10.8627 24.0678 11.8714 23.8642 12.8105 23.4688C13.7497 23.0735 14.6003 22.4944 15.3125 21.7656V60.1562ZM65.625 48.2344C64.9128 47.5056 64.0622 46.9265 63.123 46.5312C62.1839 46.1358 61.1752 45.9322 60.1562 45.9322C59.1373 45.9322 58.1286 46.1358 57.1895 46.5312C56.2503 46.9265 55.3997 47.5056 54.6875 48.2344V9.84375C54.6875 8.39335 55.2637 7.00235 56.2893 5.97676C57.3148 4.95117 58.7058 4.375 60.1562 4.375C61.6067 4.375 62.9977 4.95117 64.0232 5.97676C65.0488 7.00235 65.625 8.39335 65.625 9.84375V48.2344Z" fill="#EB4552"/>
</svg>
