<?xml version="1.0" encoding="UTF-8"?>
<svg width="73px" height="62px" viewBox="0 0 73 62" version="1.1" xmlns="http://www.w3.org/2000/svg" xmlns:xlink="http://www.w3.org/1999/xlink">
    <!-- Generator: Sketch 50 (54983) - http://www.bohemiancoding.com/sketch -->
    <title>shiny-diamond</title>
    <desc>Created with Sketch.</desc>
    <defs></defs>
    <g id="Page-3" stroke="none" stroke-width="1" fill="none" fill-rule="evenodd">
        <g id="Blue" transform="translate(-1185.000000, -5881.000000)" fill="#3661FD" fill-rule="nonzero">
            <g id="shiny-diamond" transform="translate(1185.000000, 5881.000000)">
                <path d="M36.598884,59.032139 L70.6173611,17.1815405 L60.0315261,2.31087645 L13.1661225,2.31087645 L2.57790196,17.1815405 L36.598884,59.032139 Z M72.9357075,17.949 L37.4900327,61.5542703 C37.4399346,61.6189035 37.3829183,61.6763552 37.3160016,61.7288996 C36.8275458,62.125556 36.1081618,62.0515869 35.7126258,61.5615714 L0.259674837,17.949 C-0.054869281,17.5592857 -0.0882679739,16.992668 0.21446732,16.5647722 L11.6007974,0.570447876 C11.8033366,0.238185328 12.1654739,0.0134054054 12.5823611,0.0134054054 L60.6177925,0.0134054054 L60.6177925,0.0181930502 C60.9750392,0.0205868726 61.3254869,0.185521236 61.5469918,0.498752896 L72.9666013,16.5432278 L72.9357075,17.949 Z" id="Shape"></path>
                <path d="M44.6020458,16.0794247 C45.2334003,16.0794247 45.7455931,16.5934981 45.7455931,17.2270232 C45.7455931,17.8605483 45.2334003,18.3746216 44.6020458,18.3746216 L1.14366667,18.3746216 C0.512312092,18.3746216 0,17.860668 0,17.2270232 C0,16.5934981 0.51219281,16.0794247 1.14366667,16.0794247 L44.6020458,16.0794247 Z" id="Shape"></path>
                <path d="M71.8563333,16.0794247 C72.4876879,16.0794247 73,16.5934981 73,17.2270232 C73,17.8605483 72.4876879,18.3746216 71.8563333,18.3746216 L67.4771683,18.3746216 C66.8458137,18.3746216 66.3335016,17.860668 66.3335016,17.2270232 C66.3335016,16.5934981 66.8458137,16.0794247 67.4771683,16.0794247 L71.8563333,16.0794247 Z" id="Shape"></path>
                <path d="M11.5221912,1.58650579 C11.2886389,1.00073745 11.5745556,0.333698842 12.158317,0.0994633205 C12.7420784,-0.134891892 13.4068317,0.152007722 13.6402647,0.735382239 L37.6566683,60.4138533 C37.8902206,60.9997413 37.6043039,61.6666602 37.0229281,61.9008958 C36.4391667,62.135251 35.7744134,61.8507452 35.5385948,61.2650965 L11.5221912,1.58650579 Z" id="Shape"></path>
                <path d="M48.9334984,27.1319421 C49.1669314,26.5461737 49.8340703,26.2592741 50.4154461,26.4936293 C50.9992075,26.7279846 51.2851242,27.3972973 51.049067,27.9830656 L37.6566683,61.2674903 C37.4232353,61.8533784 36.7560964,62.1401583 36.1747206,61.9034093 C35.5909592,61.6690541 35.3050425,60.9996216 35.5385948,60.4162471 L48.9334984,27.1319421 Z" id="Shape"></path>
                <path d="M59.5549984,0.735501931 C59.7885507,0.149733591 60.4556895,-0.134772201 61.0392124,0.0995830116 C61.6229739,0.333938224 61.9088905,1.00337066 61.6729526,1.58901931 L59.826482,6.17929344 C59.593049,6.76506178 58.9259101,7.05196139 58.3445343,6.81521236 C57.7607729,6.58097683 57.4748562,5.9115444 57.7109134,5.32816988 L59.5549984,0.735501931 Z" id="Shape"></path>
                <path d="M20.221,18.0637838 C19.7587859,18.4940734 19.0368971,18.4677413 18.6079624,18.0064517 C18.1791471,17.5450425 18.2053889,16.818278 18.6676029,16.3902625 L35.8246307,0.324243243 C36.2844592,-0.106166023 37.0087337,-0.0798339768 37.4351634,0.38157529 C37.864098,0.842984556 37.8378562,1.56974903 37.3780278,1.99764479 L20.221,18.0637838 Z" id="Shape"></path>
                <path d="M48.807299,11.0300154 C49.2670082,11.460305 49.29325,12.1847954 48.8644346,12.6462046 C48.4353807,13.1076139 47.7136111,13.1339459 47.2537827,12.7035367 L35.8221258,1.99764479 C35.3622974,1.56735521 35.3360556,0.842984556 35.7649902,0.381455598 C36.1938056,-0.079953668 36.9156944,-0.106285714 37.3756422,0.324123552 L48.807299,11.0300154 Z" id="Shape"></path>
                <path d="M57.0604739,9.82747876 L59.1903562,14.0687336 L63.4171993,16.2060579 C63.9794902,16.4881699 64.2035,17.179027 63.9222353,17.743251 C63.8078448,17.9704247 63.6266569,18.1425405 63.4171993,18.2501429 L59.1903562,20.3874672 L57.0604739,24.628722 C56.7794477,25.1929459 56.090719,25.4201197 55.5284281,25.1356139 C55.302152,25.0208301 55.1306258,24.839139 55.0233922,24.628722 L52.8957761,20.3874672 L48.6688137,18.2501429 C48.1065229,17.9656371 47.8826324,17.2770541 48.1638971,16.7128301 C48.2782876,16.4857761 48.4594755,16.3136602 48.6688137,16.2060579 L52.8957761,14.0687336 L55.0233922,9.82747876 C55.3069232,9.26325483 55.9931471,9.03859459 56.5554379,9.32070656 C56.7817141,9.43309653 56.9533595,9.61478764 57.0604739,9.82747876 Z M57.3225343,15.4362046 L56.0428873,12.8876216 L54.7634788,15.4362046 C54.6562451,15.6466216 54.4845997,15.8283127 54.2583235,15.9430965 L51.7162059,17.2269035 L54.2583235,18.5132239 C54.4680196,18.6208263 54.6490882,18.7929421 54.7634788,19.0199961 L56.0428873,21.570973 L57.3225343,19.0199961 C57.4296487,18.8095792 57.6012941,18.627888 57.827451,18.5132239 L60.3696879,17.2269035 L57.827451,15.9430965 C57.6179935,15.8354942 57.4369248,15.6633784 57.3225343,15.4362046 Z" id="Shape"></path>
            </g>
        </g>
    </g>
</svg>