<svg width="80" height="80" viewBox="0 0 80 80" fill="none" xmlns="http://www.w3.org/2000/svg">
<g clip-path="url(#clip0)">
<path d="M72.8741 13.8142C61.8671 10.7983 50.7954 6.10218 40.8559 0.233758C40.3279 -0.0779601 39.6727 -0.0779601 39.1449 0.233758C28.9187 6.27078 18.4453 10.7128 7.12576 13.8142C6.39452 14.0144 5.88764 14.679 5.88764 15.4373V32.632C5.88764 50.3387 14.0562 62.0593 20.909 68.7735C28.2865 76.0024 36.8802 80 40.0004 80C43.1202 80 51.714 76.0024 59.0914 68.7735C65.9441 62.0594 74.1122 50.3388 74.1122 32.632V15.4372C74.1122 14.679 73.6053 14.0144 72.8741 13.8142ZM70.7466 32.6318C70.7466 49.1698 63.1277 60.1065 56.7358 66.3693C49.481 73.4778 41.7243 76.6341 40.0004 76.6341C38.2765 76.6341 30.5193 73.4778 23.2643 66.3693C16.8726 60.1063 9.25342 49.1698 9.25342 32.6318V16.7147C20.0781 13.6412 30.159 9.35202 40.0007 3.63281C49.5966 9.2003 60.1805 13.7028 70.7466 16.714V32.6318Z" fill="#EB4552"/>
<path d="M25.084 16.5264C24.7434 15.6615 23.7664 15.2367 22.9014 15.5775C19.8951 16.762 16.8095 17.8523 13.7303 18.8182C13.0286 19.0386 12.5511 19.6886 12.5511 20.4239V26.9225C12.5511 27.8518 13.3047 28.6053 14.2339 28.6053C15.1631 28.6053 15.9167 27.8518 15.9167 26.9225V21.6537C18.679 20.76 21.4384 19.7714 24.1351 18.7087C25 18.3682 25.4248 17.3912 25.084 16.5264Z" fill="#EB4552"/>
<path d="M28.2807 16.8456C28.5065 16.8456 28.7357 16.8001 28.9556 16.7042L28.9865 16.6908C29.8379 16.3177 30.2213 15.3266 29.8482 14.4755C29.4748 13.6241 28.4781 13.2389 27.6276 13.6117L27.6004 13.6234C26.7485 13.9955 26.3639 14.9858 26.7359 15.8373C27.012 16.4695 27.6315 16.8456 28.2807 16.8456Z" fill="#EB4552"/>
<path d="M60.0502 54.2629C59.2725 53.7546 58.2297 53.9732 57.7208 54.7512C56.3341 56.8737 54.7072 58.9062 52.8847 60.7916C51.386 62.342 49.7619 63.787 48.0577 65.0862C47.3188 65.6496 47.1766 66.7055 47.7399 67.4448C48.0713 67.879 48.5724 68.1074 49.0793 68.1074C49.4352 68.1074 49.7938 67.9951 50.0985 67.7626C51.9368 66.3609 53.6883 64.8026 55.3043 63.131C57.2747 61.0929 59.0357 58.8929 60.5385 56.5921C61.0471 55.814 60.8282 54.7712 60.0502 54.2629Z" fill="#EB4552"/>
<path d="M44.1496 67.7253L44.053 67.7822C43.2488 68.248 42.974 69.2774 43.4396 70.0816C43.7516 70.6207 44.3165 70.9216 44.8976 70.9216C45.1835 70.9216 45.4738 70.8486 45.739 70.6947L45.8504 70.6293C46.6524 70.1596 46.9218 69.1288 46.4521 68.3268C45.9821 67.525 44.9512 67.2561 44.1496 67.7253Z" fill="#EB4552"/>
<path d="M28.5295 36.5654C27.4962 35.532 26.122 34.9632 24.6604 34.9632C23.1989 34.9632 21.8245 35.5321 20.7907 36.5654C18.6575 38.6992 18.6575 42.171 20.7907 44.3046L30.7276 54.2412C31.761 55.2743 33.1352 55.8432 34.597 55.8432C36.0587 55.8432 37.4329 55.2743 38.4665 54.2409L59.2104 33.4968C61.3435 31.3626 61.3435 27.8912 59.21 25.7583C58.1766 24.7248 56.8024 24.1561 55.3405 24.1561C53.8788 24.1561 52.5046 24.725 51.471 25.7583L34.5968 42.6324L28.5295 36.5654ZM53.851 28.1382C54.2486 27.7406 54.7779 27.5217 55.3407 27.5217C55.9038 27.5217 56.4325 27.7406 56.8305 28.1382C57.6516 28.9593 57.6516 30.2959 56.8302 31.1173L36.0866 51.861C35.689 52.2587 35.1598 52.4776 34.597 52.4776C34.0342 52.4776 33.5049 52.2587 33.1071 51.861L23.1706 41.9248C22.3492 41.1034 22.3492 39.7668 23.1703 38.9457C23.5681 38.5481 24.0973 38.3289 24.6603 38.3289C25.2232 38.3289 25.7521 38.5478 26.1498 38.9454L33.4068 46.2026C33.7226 46.5181 34.1504 46.6954 34.5968 46.6954C35.0432 46.6954 35.471 46.5182 35.7865 46.2026L53.851 28.1382Z" fill="#EB4552"/>
</g>
<defs>
<clipPath id="clip0">
<rect width="80" height="80" fill="white"/>
</clipPath>
</defs>
</svg>
