<?xml version="1.0" encoding="UTF-8"?>
<svg width="75px" height="75px" viewBox="0 0 75 75" version="1.1" xmlns="http://www.w3.org/2000/svg" xmlns:xlink="http://www.w3.org/1999/xlink">
    <!-- Generator: Sketch 50 (54983) - http://www.bohemiancoding.com/sketch -->
    <title>group (1)</title>
    <desc>Created with Sketch.</desc>
    <defs></defs>
    <g id="Page-3" stroke="none" stroke-width="1" fill="none" fill-rule="evenodd">
        <g id="Blue" transform="translate(-983.000000, -6085.000000)" fill="#3661FD" fill-rule="nonzero">
            <g id="group-(1)" transform="translate(983.000000, 6085.000000)">
                <path d="M37.5,0 C32.6675,0 28.75,3.9175 28.75,8.75 C28.7554687,13.5801562 32.6698437,17.4945313 37.5,17.5 C42.3325,17.5 46.25,13.5825 46.25,8.75 C46.25,3.9175 42.3325,0 37.5,0 Z M37.5,15 C34.0482813,15 31.25,12.2017188 31.25,8.75 C31.2540625,5.3 34.05,2.5040625 37.5,2.5 C40.9517187,2.5 43.75,5.29828125 43.75,8.75 C43.75,12.2017188 40.9517187,15 37.5,15 Z" id="Shape"></path>
                <path d="M41.25,18.75 L33.75,18.75 C27.5396875,18.756875 22.506875,23.7896875 22.5,30 L22.5,51.25 L27.5,51.25 L27.5,75 L30,75 L30,46.25 L27.5,46.25 L27.5,48.75 L25,48.75 L25,30 C25.0054687,25.1698437 28.9198437,21.2554687 33.75,21.25 L41.25,21.25 C46.0801563,21.2554687 49.9945313,25.1698437 50,30 L50,48.75 L47.5,48.75 L47.5,46.25 L45,46.25 L45,75 L47.5,75 L47.5,51.25 L52.5,51.25 L52.5,30 C52.493125,23.7896875 47.4603125,18.756875 41.25,18.75 Z" id="Shape"></path>
                <rect id="Rectangle-path" x="36.25" y="51.25" width="2.5" height="23.75"></rect>
                <path d="M62.5,12.5 C58.3578125,12.5 55,15.8578125 55,20 C55.0040625,24.1404688 58.3595313,27.4959375 62.5,27.5 C66.6421875,27.5 70,24.1421875 70,20 C70,15.8578125 66.6421875,12.5 62.5,12.5 Z M62.5,25 C59.7385938,25 57.5,22.7614063 57.5,20 C57.5,17.2385937 59.7385938,15 62.5,15 C65.2614063,15 67.5,17.2385937 67.5,20 C67.5,22.7614063 65.2614063,25 62.5,25 Z" id="Shape"></path>
                <path d="M66.25,28.75 L55,28.75 L55,31.25 L66.25,31.25 C69.7,31.2540625 72.4959375,34.05 72.5,37.5 L72.5,53.75 L70,53.75 L70,51.25 L67.5,51.25 L67.5,75 L70,75 L70,56.25 L75,56.25 L75,37.5 C74.9945312,32.6698437 71.0801563,28.7554687 66.25,28.75 Z" id="Shape"></path>
                <polygon id="Shape" points="55 51.25 55 53.75 50 53.75 50 56.25 55 56.25 55 75 57.5 75 57.5 51.25"></polygon>
                <rect id="Rectangle-path" x="61.25" y="56.25" width="2.5" height="18.75"></rect>
                <path d="M12.5,12.5 C8.3578125,12.5 5,15.8578125 5,20 C5.0040625,24.1404688 8.35953125,27.4959375 12.5,27.5 C16.6421875,27.5 20,24.1421875 20,20 C20,15.8578125 16.6421875,12.5 12.5,12.5 Z M12.5,25 C9.73859375,25 7.5,22.7614063 7.5,20 C7.5,17.2385937 9.73859375,15 12.5,15 C15.2614063,15 17.5,17.2385937 17.5,20 C17.5,22.7614063 15.2614063,25 12.5,25 Z" id="Shape"></path>
                <path d="M8.75,28.75 C3.91984375,28.7554687 0.00546875,32.6698437 0,37.5 L0,56.25 L5,56.25 L5,75 L7.5,75 L7.5,51.25 L5,51.25 L5,53.75 L2.5,53.75 L2.5,37.5 C2.5040625,34.05 5.3,31.2540625 8.75,31.25 L20,31.25 L20,28.75 L8.75,28.75 Z" id="Shape"></path>
                <polygon id="Shape" points="20 53.75 20 51.25 17.5 51.25 17.5 75 20 75 20 56.25 25 56.25 25 53.75"></polygon>
                <rect id="Rectangle-path" x="11.25" y="56.25" width="2.5" height="18.75"></rect>
            </g>
        </g>
    </g>
</svg>