<?xml version="1.0" encoding="UTF-8"?>
<svg width="54px" height="71px" viewBox="0 0 54 71" version="1.1" xmlns="http://www.w3.org/2000/svg" xmlns:xlink="http://www.w3.org/1999/xlink">
    <!-- Generator: Sketch 50 (54983) - http://www.bohemiancoding.com/sketch -->
    <title>interactivity</title>
    <desc>Created with Sketch.</desc>
    <defs></defs>
    <g id="Page-3" stroke="none" stroke-width="1" fill="none" fill-rule="evenodd">
        <g id="Blue" transform="translate(-793.000000, -6087.000000)" fill="#3661FD" fill-rule="nonzero">
            <g id="interactivity" transform="translate(793.000000, 6087.000000)">
                <path d="M47.9954413,34.1538581 C46.0464637,34.1538581 44.3158994,35.1039343 43.2451006,36.5642479 C42.1743017,35.1039343 40.4438883,34.1538581 38.4949106,34.1538581 C36.545933,34.1538581 34.8153687,35.1039343 33.7445698,36.5642479 C32.6737709,35.1039343 30.9433575,34.1538581 28.9943799,34.1538581 C27.6306536,34.1538581 26.3740223,34.6189682 25.375324,35.3986144 L25.375324,19.4036081 C25.375324,16.1694979 22.7368659,13.5381356 19.4938492,13.5381356 C16.2508324,13.5381356 13.6122235,16.1693475 13.6122235,19.4036081 L13.6122235,60.7605064 C13.6122235,66.3592775 18.1795978,70.9141081 23.7937877,70.9141081 L43.6952011,70.9141081 C49.3093911,70.9141081 53.8767654,66.3592775 53.8767654,60.7605064 L53.8767654,40.0191801 C53.8769162,36.7849195 51.2384581,34.1538581 47.9954413,34.1538581 Z M51.6143464,60.7605064 C51.6143464,65.1151229 48.0619609,68.6577521 43.695352,68.6577521 L23.7939385,68.6577521 C19.4273296,68.6577521 15.8749441,65.1151229 15.8749441,60.7605064 L15.8749441,19.4036081 C15.8749441,17.4136525 17.4984134,15.7944915 19.494,15.7944915 C21.4895866,15.7944915 23.112905,17.4135021 23.112905,19.4036081 L23.112905,42.275536 C23.112905,42.8985911 23.619419,43.403714 24.2441899,43.403714 C24.8689609,43.403714 25.3754749,42.8985911 25.3754749,42.275536 L25.3754749,40.0191801 C25.3754749,38.0292246 26.9989441,36.410214 28.9945307,36.410214 C30.9901173,36.410214 32.6134358,38.0292246 32.6134358,40.0191801 L32.6134358,42.275536 C32.6134358,42.8985911 33.1199497,43.403714 33.7447207,43.403714 C34.3694916,43.403714 34.8760056,42.8985911 34.8760056,42.275536 L34.8760056,40.0191801 C34.8760056,38.0292246 36.4994749,36.410214 38.4950615,36.410214 C40.490648,36.410214 42.1139665,38.0292246 42.1139665,40.0191801 L42.1139665,42.275536 C42.1139665,42.8985911 42.6204804,43.403714 43.2452514,43.403714 C43.8700223,43.403714 44.3765363,42.8985911 44.3765363,42.275536 L44.3765363,40.0191801 C44.3765363,38.0292246 46.0000056,36.410214 47.9955922,36.410214 C49.9911788,36.410214 51.6144972,38.0292246 51.6144972,40.0191801 L51.6144972,60.7605064 L51.6143464,60.7605064 Z" id="Shape"></path>
                <path d="M29.9004637,19.4036081 C29.9004637,21.6444703 29.1949944,23.7783814 27.8603799,25.5745911 C27.4884134,26.0752013 27.5936983,26.7817415 28.095838,27.1526864 C28.597676,27.5234809 29.3063128,27.4184852 29.6782793,26.917875 C31.3038603,24.7301123 32.1631844,22.1316928 32.1631844,19.4034576 C32.1631844,12.4368835 26.4797598,6.76891737 19.494,6.76891737 C12.5082402,6.76891737 6.8246648,12.4367331 6.8246648,19.4034576 C6.8246648,22.1316928 7.68398883,24.7301123 9.30956983,26.9180254 C9.53160335,27.2167669 9.87310056,27.3745614 10.2194246,27.3745614 C10.4535251,27.3745614 10.6895866,27.3023581 10.8920112,27.1526864 C11.394,26.7817415 11.4994358,26.0752013 11.1274693,25.5745911 C9.79270391,23.7783814 9.08723464,21.6444703 9.08723464,19.4034576 C9.08723464,13.6810381 13.7556704,9.02527331 19.494,9.02527331 C25.2323296,9.02527331 29.9004637,13.6810381 29.9004637,19.4036081 Z" id="Shape"></path>
                <path d="M10.7918547,34.1946229 C5.55355307,31.1225191 2.2993743,25.4548538 2.2993743,19.4036081 C2.2993743,15.5465932 3.55374302,11.9037818 5.92672626,8.86898305 C6.31091061,8.37769915 6.22297207,7.66875212 5.7303352,7.28562288 C5.23769832,6.90234322 4.52679888,6.99004025 4.14261453,7.48147458 C1.45664246,10.9164004 0.0368044693,15.0390636 0.0368044693,19.4036081 C0.0368044693,22.8457542 0.952843575,26.2274301 2.68597207,29.1831059 C4.36721229,32.0501822 6.77353073,34.4556081 9.64488268,36.1396017 C9.82498324,36.2453496 10.0224302,36.2954407 10.2173128,36.2954407 C10.6051173,36.2954407 10.9826648,36.0964301 11.1935363,35.7390233 C11.5102961,35.2018602 11.3304972,34.5103623 10.7918547,34.1946229 Z" id="Shape"></path>
                <path d="M8.93021229,5.87374576 C11.9733687,3.50727966 15.6262123,2.25635593 19.4938492,2.25635593 C28.9747709,2.25635593 36.6881732,9.94857415 36.6881732,19.4036081 C36.6881732,23.6828623 35.0986425,27.7807055 32.2123575,30.9426123 C31.7918212,31.4033602 31.8254581,32.1169703 32.2874749,32.5363517 C32.5043799,32.7332564 32.7769441,32.8302797 33.0487542,32.8302797 C33.356162,32.8302797 33.6623631,32.7060297 33.8856034,32.4615911 C37.1518492,28.8833114 38.950743,24.2458983 38.950743,19.4036081 C38.950743,8.70441949 30.2225028,0 19.4938492,0 C15.1172849,0 10.983419,1.41593856 7.53888268,4.0945339 C7.04609497,4.47766314 6.95815642,5.18661017 7.34234078,5.67789407 C7.72667598,6.16932839 8.43757542,6.25717585 8.93021229,5.87374576 Z" id="Shape"></path>
            </g>
        </g>
    </g>
</svg>