<svg width="70" height="70" viewBox="0 0 70 70" fill="none" xmlns="http://www.w3.org/2000/svg">
<path d="M45.9375 19.6875C46.2273 19.6875 46.5063 19.5727 46.7108 19.367L59.5153 6.5625H61.4512C61.9041 7.83234 63.1072 8.75 64.5312 8.75C66.3403 8.75 67.8125 7.27781 67.8125 5.46875C67.8125 3.65969 66.3403 2.1875 64.5312 2.1875C63.1072 2.1875 61.9041 3.10516 61.4512 4.375H59.0625C58.7727 4.375 58.4937 4.48984 58.2892 4.69547L45.4847 17.5H43.75V16.4062C43.75 14.5972 42.2778 13.125 40.4688 13.125C38.6597 13.125 37.1875 14.5972 37.1875 16.4062V19.6875H31.6083C31.0997 17.1948 28.8914 15.3125 26.25 15.3125C24.8806 15.3125 23.6425 15.8364 22.6822 16.6709L12.5584 8.94031C12.9106 8.21734 13.125 7.41781 13.125 6.5625C13.125 3.54703 10.6717 1.09375 7.65625 1.09375C4.64078 1.09375 2.1875 3.54703 2.1875 6.5625C2.1875 9.57797 4.64078 12.0312 7.65625 12.0312C9.02562 12.0312 10.2638 11.5073 11.2241 10.6728L21.3478 18.4034C21.1498 18.8092 20.9847 19.2325 20.8917 19.6864H13.0145C12.5059 17.1948 10.2966 15.3125 7.65625 15.3125C4.64078 15.3125 2.1875 17.7658 2.1875 20.7812C2.1875 23.7967 4.64078 26.25 7.65625 26.25C9.02562 26.25 10.2638 25.7261 11.2241 24.8916L15.1506 27.8906L11.2241 30.8897C10.2638 30.0552 9.02562 29.5312 7.65625 29.5312C4.64078 29.5312 2.1875 31.9845 2.1875 35C2.1875 38.0155 4.64078 40.4688 7.65625 40.4688C9.02562 40.4688 10.2638 39.9448 11.2241 39.1103L15.1506 42.1094L11.2241 45.1084C10.2638 44.2739 9.02562 43.75 7.65625 43.75C4.64078 43.75 2.1875 46.2033 2.1875 49.2188C2.1875 52.2342 4.64078 54.6875 7.65625 54.6875C10.2966 54.6875 12.5059 52.8052 13.0145 50.3125H20.8917C20.9847 50.7664 21.1498 51.1897 21.3478 51.5955L11.2241 59.3261C10.2638 58.4927 9.02562 57.9688 7.65625 57.9688C4.64078 57.9688 2.1875 60.422 2.1875 63.4375C2.1875 66.453 4.64078 68.9062 7.65625 68.9062C10.6717 68.9062 13.125 66.453 13.125 63.4375C13.125 62.5822 12.9106 61.7827 12.5584 61.0608L22.6822 53.3302C23.6425 54.1636 24.8806 54.6875 26.25 54.6875C28.8903 54.6875 31.0997 52.8052 31.6083 50.3125H37.1875V52.5C37.1875 54.3091 38.6597 55.7812 40.4688 55.7812C42.2778 55.7812 43.75 54.3091 43.75 52.5H45.4847L58.2892 65.3045C58.4937 65.5102 58.7727 65.625 59.0625 65.625H61.4512C61.9041 66.8948 63.1072 67.8125 64.5312 67.8125C66.3403 67.8125 67.8125 66.3403 67.8125 64.5312C67.8125 62.7222 66.3403 61.25 64.5312 61.25C63.1072 61.25 61.9041 62.1677 61.4512 63.4375H59.5153L46.7108 50.633C46.5063 50.4273 46.2273 50.3125 45.9375 50.3125H43.75V47.0312H48.7659L57.1955 55.4608C57.4 55.6664 57.6789 55.7812 57.9688 55.7812H61.4512C61.9041 57.0511 63.1072 57.9688 64.5312 57.9688C66.3403 57.9688 67.8125 56.4966 67.8125 54.6875C67.8125 52.8784 66.3403 51.4062 64.5312 51.4062C63.1072 51.4062 61.9041 52.3239 61.4512 53.5938H58.4216L49.992 45.1642C49.7875 44.9586 49.5086 44.8438 49.2188 44.8438H43.75V41.5625H53.1409L57.1955 45.617C57.4 45.8227 57.6789 45.9375 57.9688 45.9375H61.4512C61.9041 47.2073 63.1072 48.125 64.5312 48.125C66.3403 48.125 67.8125 46.6528 67.8125 44.8438C67.8125 43.0347 66.3403 41.5625 64.5312 41.5625C63.1072 41.5625 61.9041 42.4802 61.4512 43.75H58.4216L54.367 39.6955C54.1625 39.4898 53.8836 39.375 53.5938 39.375H43.75V36.0938H61.4512C61.9041 37.3636 63.1072 38.2812 64.5312 38.2812C66.3403 38.2812 67.8125 36.8091 67.8125 35C67.8125 33.1909 66.3403 31.7188 64.5312 31.7188C63.1072 31.7188 61.9041 32.6364 61.4512 33.9062H43.75V30.625H53.5938C53.8836 30.625 54.1625 30.5102 54.367 30.3045L58.4216 26.25H61.4512C61.9041 27.5198 63.1072 28.4375 64.5312 28.4375C66.3403 28.4375 67.8125 26.9653 67.8125 25.1562C67.8125 23.3472 66.3403 21.875 64.5312 21.875C63.1072 21.875 61.9041 22.7927 61.4512 24.0625H57.9688C57.6789 24.0625 57.4 24.1773 57.1955 24.383L53.1409 28.4375H43.75V25.1562H49.2188C49.5086 25.1562 49.7875 25.0414 49.992 24.8358L58.4216 16.4062H61.4512C61.9041 17.6761 63.1072 18.5938 64.5312 18.5938C66.3403 18.5938 67.8125 17.1216 67.8125 15.3125C67.8125 13.5034 66.3403 12.0312 64.5312 12.0312C63.1072 12.0312 61.9041 12.9489 61.4512 14.2188H57.9688C57.6789 14.2188 57.4 14.3336 57.1955 14.5392L48.7659 22.9688H43.75V19.6875H45.9375ZM64.5312 4.375C65.1339 4.375 65.625 4.865 65.625 5.46875C65.625 6.0725 65.1339 6.5625 64.5312 6.5625C63.9286 6.5625 63.4375 6.0725 63.4375 5.46875C63.4375 4.865 63.9286 4.375 64.5312 4.375ZM64.5312 63.4375C65.1339 63.4375 65.625 63.9275 65.625 64.5312C65.625 65.135 65.1339 65.625 64.5312 65.625C63.9286 65.625 63.4375 65.135 63.4375 64.5312C63.4375 63.9275 63.9286 63.4375 64.5312 63.4375ZM64.5312 53.5938C65.1339 53.5938 65.625 54.0838 65.625 54.6875C65.625 55.2912 65.1339 55.7812 64.5312 55.7812C63.9286 55.7812 63.4375 55.2912 63.4375 54.6875C63.4375 54.0838 63.9286 53.5938 64.5312 53.5938ZM64.5312 43.75C65.1339 43.75 65.625 44.24 65.625 44.8438C65.625 45.4475 65.1339 45.9375 64.5312 45.9375C63.9286 45.9375 63.4375 45.4475 63.4375 44.8438C63.4375 44.24 63.9286 43.75 64.5312 43.75ZM64.5312 33.9062C65.1339 33.9062 65.625 34.3963 65.625 35C65.625 35.6037 65.1339 36.0938 64.5312 36.0938C63.9286 36.0938 63.4375 35.6037 63.4375 35C63.4375 34.3963 63.9286 33.9062 64.5312 33.9062ZM64.5312 24.0625C65.1339 24.0625 65.625 24.5525 65.625 25.1562C65.625 25.76 65.1339 26.25 64.5312 26.25C63.9286 26.25 63.4375 25.76 63.4375 25.1562C63.4375 24.5525 63.9286 24.0625 64.5312 24.0625ZM64.5312 14.2188C65.1339 14.2188 65.625 14.7087 65.625 15.3125C65.625 15.9163 65.1339 16.4062 64.5312 16.4062C63.9286 16.4062 63.4375 15.9163 63.4375 15.3125C63.4375 14.7087 63.9286 14.2188 64.5312 14.2188ZM31.6083 21.875H37.1875V33.9062H31.6083C31.0997 31.4136 28.8914 29.5312 26.25 29.5312C24.8806 29.5312 23.6425 30.0552 22.6822 30.8897L18.7556 27.8906L22.6822 24.8916C23.6425 25.7261 24.8806 26.25 26.25 26.25C28.8903 26.25 31.0997 24.3677 31.6083 21.875ZM22.9688 35C22.9688 33.1909 24.4409 31.7188 26.25 31.7188C28.0591 31.7188 29.5312 33.1909 29.5312 35C29.5312 36.8091 28.0591 38.2812 26.25 38.2812C24.4409 38.2812 22.9688 36.8091 22.9688 35ZM26.25 17.5C28.0591 17.5 29.5312 18.9722 29.5312 20.7812C29.5312 22.5903 28.0591 24.0625 26.25 24.0625C24.4409 24.0625 22.9688 22.5903 22.9688 20.7812C22.9688 18.9722 24.4409 17.5 26.25 17.5ZM7.65625 9.84375C5.84719 9.84375 4.375 8.37156 4.375 6.5625C4.375 4.75344 5.84719 3.28125 7.65625 3.28125C9.46531 3.28125 10.9375 4.75344 10.9375 6.5625C10.9375 8.37156 9.46531 9.84375 7.65625 9.84375ZM7.65625 24.0625C5.84719 24.0625 4.375 22.5903 4.375 20.7812C4.375 18.9722 5.84719 17.5 7.65625 17.5C9.46531 17.5 10.9375 18.9722 10.9375 20.7812C10.9375 22.5903 9.46531 24.0625 7.65625 24.0625ZM12.5584 23.158C12.7564 22.7522 12.9216 22.3289 13.0145 21.875H20.8917C20.9847 22.3289 21.1498 22.7522 21.3478 23.158L16.9531 26.5147L12.5584 23.158ZM21.3478 32.6233C21.1498 33.0291 20.9847 33.4523 20.8917 33.9062H13.0145C12.9216 33.4523 12.7564 33.0291 12.5584 32.6233L16.9531 29.2677L21.3478 32.6233ZM7.65625 38.2812C5.84719 38.2812 4.375 36.8091 4.375 35C4.375 33.1909 5.84719 31.7188 7.65625 31.7188C9.46531 31.7188 10.9375 33.1909 10.9375 35C10.9375 36.8091 9.46531 38.2812 7.65625 38.2812ZM12.5584 37.3767C12.7564 36.9709 12.9216 36.5477 13.0145 36.0938H20.8917C20.9847 36.5477 21.1498 36.9709 21.3478 37.3767L16.9531 40.7334L12.5584 37.3767ZM20.8917 48.125H13.0145C12.9216 47.6711 12.7564 47.2478 12.5584 46.842L16.9531 43.4864L21.3478 46.842C21.1498 47.2478 20.9847 47.6711 20.8917 48.125ZM7.65625 52.5C5.84719 52.5 4.375 51.0278 4.375 49.2188C4.375 47.4097 5.84719 45.9375 7.65625 45.9375C9.46531 45.9375 10.9375 47.4097 10.9375 49.2188C10.9375 51.0278 9.46531 52.5 7.65625 52.5ZM7.65625 66.7188C5.84719 66.7188 4.375 65.2466 4.375 63.4375C4.375 61.6284 5.84719 60.1562 7.65625 60.1562C9.46531 60.1562 10.9375 61.6284 10.9375 63.4375C10.9375 65.2466 9.46531 66.7188 7.65625 66.7188ZM26.25 52.5C24.4409 52.5 22.9688 51.0278 22.9688 49.2188C22.9688 47.4097 24.4409 45.9375 26.25 45.9375C28.0591 45.9375 29.5312 47.4097 29.5312 49.2188C29.5312 51.0278 28.0591 52.5 26.25 52.5ZM31.6083 48.125C31.0997 45.6323 28.8914 43.75 26.25 43.75C24.8806 43.75 23.6425 44.2739 22.6822 45.1084L18.7556 42.1094L22.6822 39.1103C23.6425 39.9448 24.8806 40.4688 26.25 40.4688C28.8903 40.4688 31.0997 38.5864 31.6083 36.0938H37.1875V48.125H31.6083ZM41.5625 52.5C41.5625 53.1037 41.0714 53.5938 40.4688 53.5938C39.8661 53.5938 39.375 53.1037 39.375 52.5V16.4062C39.375 15.8025 39.8661 15.3125 40.4688 15.3125C41.0714 15.3125 41.5625 15.8025 41.5625 16.4062V52.5Z" fill="#EB4552"/>
<path d="M32.8125 25.1562H35V27.3438H32.8125V25.1562Z" fill="#EB4552"/>
<path d="M32.8125 29.5312H35V31.7188H32.8125V29.5312Z" fill="#EB4552"/>
<path d="M32.8125 38.2812H35V40.4688H32.8125V38.2812Z" fill="#EB4552"/>
<path d="M32.8125 42.6562H35V44.8438H32.8125V42.6562Z" fill="#EB4552"/>
</svg>
