<svg xmlns="http://www.w3.org/2000/svg" xmlns:xlink="http://www.w3.org/1999/xlink" width="221" height="48" version="1.1" viewBox="0 0 221 48"><title>Logo</title><desc>Created with Sketch.</desc><g id="Symbols" fill="none" fill-rule="evenodd" stroke="none" stroke-width="1"><g id="05.-Components-/-Header" transform="translate(-59.000000, -59.000000)"><g id="01-Branding-/-Sitecore-Logo" transform="translate(59.000000, 59.000000)"><g id="Group"><path id="Fill-1" fill="#000" d="M76.0591981,14.82 C75.1909157,14.01984 74.1797455,13.41504 73.0256873,13.0056 C71.8716291,12.59616 70.740433,12.3912 69.6325752,12.3912 C68.7085666,12.3912 67.7945601,12.50784 66.8900795,12.74016 C65.9846463,12.97296 65.1725666,13.34016 64.4524114,13.84272 C63.73178,14.34528 63.1502261,14.98752 62.7067972,15.76896 C62.2638446,16.55088 62.0423683,17.49072 62.0423683,18.58896 C62.0423683,19.48224 62.18478,20.24064 62.4715084,20.86416 C62.7577606,21.48768 63.1364136,22.01808 63.6074675,22.45536 C64.078045,22.89312 64.6138748,23.2512 65.2140041,23.53008 C65.8141334,23.80944 66.4280752,24.05136 67.0563058,24.25584 C67.7021593,24.46128 68.2794265,24.65184 68.7876312,24.82848 C69.2953597,25.0056 69.7197369,25.20096 70.0617153,25.41456 C70.4032175,25.62864 70.6666075,25.86624 70.8514093,26.1264 C71.0357347,26.38752 71.1281356,26.70384 71.1281356,27.07584 C71.1281356,27.46656 71.0543101,27.8016 70.9066593,28.08048 C70.7585321,28.35984 70.5603942,28.58304 70.3112929,28.75056 C70.0617153,28.91808 69.7707002,29.03952 69.4387239,29.11344 C69.1062713,29.18832 68.7642929,29.22528 68.4137412,29.22528 C67.6378597,29.22528 66.8576916,29.0256 66.0727606,28.62528 C65.2873532,28.22496 64.6553123,27.7272 64.1752088,27.13152 L61.0726356,30.31392 C61.9404416,31.2264 63.0297239,31.92912 64.3414351,32.42208 C65.65267,32.91456 67.0096291,33.16176 68.4137412,33.16176 C69.3734718,33.16176 70.30653,33.0312 71.2114869,32.77104 C72.1159675,32.5104 72.9194739,32.11056 73.62153,31.57056 C74.3231097,31.03056 74.8818015,30.34704 75.2976054,29.51856 C75.712933,28.69056 75.9205968,27.70848 75.9205968,26.57328 C75.9205968,25.58688 75.7267455,24.7632 75.3390429,24.10272 C74.9513403,23.44224 74.461711,22.88832 73.8706312,22.44144 C73.2795515,21.99456 72.6241722,21.63648 71.904017,21.36672 C71.1838619,21.09696 70.4913317,20.85024 69.8264265,20.62656 C69.3644222,20.47824 68.9490946,20.33376 68.5799675,20.19408 C68.2098877,20.0544 67.8917239,19.9008 67.6240472,19.73328 C67.3558942,19.56576 67.1529933,19.3704 67.014392,19.1472 C66.876267,18.924 66.8067282,18.64464 66.8067282,18.3096 C66.8067282,17.91888 66.8943662,17.59776 67.0701183,17.34672 C67.2453942,17.0952 67.4621075,16.89072 67.721211,16.73232 C67.9793619,16.5744 68.2703769,16.46688 68.59378,16.4112 C68.9167067,16.35552 69.2348705,16.32768 69.5492239,16.32768 C70.1588791,16.32768 70.79092,16.48128 71.4467756,16.788 C72.102155,17.0952 72.6332218,17.50944 73.0394998,18.03072 L76.0591981,14.82 Z M81.8204394,32.6592 L86.5852756,32.6592 L86.5852756,12.89376 L81.8204394,12.89376 L81.8204394,32.6592 Z M107.610758,16.96944 L107.610758,12.89376 L91.7930644,12.89376 L91.7930644,16.96944 L97.3337821,16.96944 L97.3337821,32.6592 L102.070517,32.6592 L102.070517,16.96944 L107.610758,16.96944 Z M126.503401,32.6592 L126.503401,28.58304 L117.389532,28.58304 L117.389532,24.47952 L125.533668,24.47952 L125.533668,20.65488 L117.389532,20.65488 L117.389532,16.91376 L126.004722,16.91376 L126.004722,12.89376 L112.818547,12.89376 L112.818547,32.6592 L126.503401,32.6592 Z M149.107795,29.9232 L145.81137,26.79648 C145.386041,27.39216 144.823062,27.876 144.121483,28.248 C143.419427,28.62096 142.597821,28.80672 141.655713,28.80672 C140.843157,28.80672 140.094901,28.65792 139.411896,28.35984 C138.728416,28.06224 138.142099,27.648 137.652946,27.1176 C137.163317,26.5872 136.780377,25.94976 136.503651,25.20528 C136.226448,24.46128 136.087847,23.64192 136.087847,22.74864 C136.087847,21.87408 136.226448,21.06912 136.503651,20.33376 C136.780377,19.59888 137.16808,18.96144 137.666758,18.42144 C138.165437,17.88192 138.76128,17.45808 139.45381,17.15088 C140.14634,16.84416 140.907933,16.69056 141.739064,16.69056 C142.495894,16.69056 143.235101,16.83984 143.955256,17.13696 C144.675411,17.43504 145.256965,17.89104 145.699918,18.50496 L148.913467,15.26688 C148.082812,14.31744 146.997817,13.59648 145.658004,13.10304 C144.31962,12.61008 142.957898,12.36336 141.572362,12.36336 C140.076802,12.36336 138.682215,12.60528 137.390032,13.08912 C136.096896,13.57344 134.970463,14.26656 134.00978,15.16896 C133.049573,16.07184 132.29703,17.16528 131.752627,18.44928 C131.207748,19.73328 130.934832,21.16704 130.934832,22.74864 C130.934832,24.29376 131.202985,25.70784 131.738814,26.99184 C132.274168,28.27632 133.012898,29.37888 133.955006,30.3 C134.896638,31.2216 136.009258,31.93344 137.292868,32.436 C138.576478,32.93808 139.975351,33.1896 141.489963,33.1896 C143.15175,33.1896 144.620161,32.89632 145.894245,32.31024 C147.167853,31.72368 148.239036,30.92832 149.107795,29.9232 L149.107795,29.9232 Z M172.515696,18.40752 C171.979866,17.13264 171.236849,16.04832 170.285692,15.15504 C169.334058,14.26176 168.202862,13.57344 166.892103,13.08912 C165.580868,12.60528 164.159133,12.36336 162.625946,12.36336 C161.093235,12.36336 159.676263,12.60528 158.374077,13.08912 C157.071416,13.57344 155.945459,14.26176 154.994302,15.15504 C154.043144,16.04832 153.299174,17.13264 152.763821,18.40752 C152.227991,19.6824 151.961267,21.11088 151.961267,22.69248 C151.961267,24.25584 152.227991,25.6848 152.763821,26.97792 C153.299174,28.272 154.043144,29.37888 154.994302,30.3 C155.945459,31.2216 157.071416,31.93344 158.374077,32.436 C159.676263,32.93808 161.093235,33.1896 162.625946,33.1896 C164.159133,33.1896 165.580868,32.93808 166.892103,32.436 C168.202862,31.93344 169.334058,31.2216 170.285692,30.3 C171.236849,29.37888 171.979866,28.272 172.515696,26.97792 C173.051049,25.6848 173.319202,24.25584 173.319202,22.69248 C173.319202,21.11088 173.051049,19.6824 172.515696,18.40752 L172.515696,18.40752 Z M167.834211,25.16352 C167.557008,25.91712 167.169306,26.56416 166.670627,27.10368 C166.171948,27.64368 165.580868,28.06656 164.897864,28.37376 C164.213907,28.68096 163.457077,28.83456 162.625946,28.83456 C161.795291,28.83456 161.037985,28.68096 160.354504,28.37376 C159.6715,28.06656 159.084707,27.64368 158.595554,27.10368 C158.105924,26.56416 157.722985,25.91712 157.445782,25.16352 C157.168103,24.40944 157.029502,23.58624 157.029502,22.69248 C157.029502,21.83664 157.164293,21.03648 157.43197,20.292 C157.699646,19.54752 158.082586,18.91008 158.581741,18.37968 C159.08042,17.8488 159.6715,17.43024 160.354504,17.12304 C161.037985,16.81632 161.795291,16.66272 162.625946,16.66272 C163.457077,16.66272 164.219146,16.81632 164.911677,17.12304 C165.60373,17.43024 166.19481,17.8488 166.684439,18.37968 C167.173116,18.91008 167.557008,19.54752 167.834211,20.292 C168.111414,21.03648 168.249539,21.83664 168.249539,22.69248 C168.249539,23.58624 168.111414,24.40944 167.834211,25.16352 L167.834211,25.16352 Z M194.566161,32.6592 L189.441248,24.20016 C190.715808,23.80944 191.713166,23.15808 192.433321,22.24608 C193.153476,21.33456 193.513554,20.208 193.513554,18.86784 C193.513554,17.73312 193.301127,16.78368 192.876273,16.02048 C192.45142,15.25728 191.883679,14.64336 191.172573,14.17776 C190.461467,13.71312 189.658437,13.3824 188.762054,13.18704 C187.866623,12.9912 186.94833,12.89376 186.005745,12.89376 L178.526991,12.89376 L178.526991,32.6592 L183.153226,32.6592 L183.153226,24.81456 L184.76786,24.81456 L189.02592,32.6592 L194.566161,32.6592 Z M188.511523,20.18016 C188.298144,20.49696 188.024752,20.7384 187.690394,20.90592 C187.356036,21.07344 186.98548,21.19008 186.577297,21.25488 C186.168638,21.32016 185.769028,21.3528 185.379896,21.3528 L183.125601,21.3528 L183.125601,16.74624 L185.658528,16.74624 C186.010985,16.74624 186.377254,16.77408 186.757812,16.83024 C187.13837,16.88592 187.481778,16.99296 187.788034,17.15088 C188.093814,17.30928 188.344821,17.53296 188.539625,17.82096 C188.733952,18.10992 188.832069,18.48672 188.832069,18.95184 C188.832069,19.4544 188.724427,19.86384 188.511523,20.18016 L188.511523,20.18016 Z M213.209226,32.6592 L213.209226,28.58304 L204.095358,28.58304 L204.095358,24.47952 L212.239493,24.47952 L212.239493,20.65488 L204.095358,20.65488 L204.095358,16.91376 L212.710547,16.91376 L212.710547,12.89376 L199.524849,12.89376 L199.524849,32.6592 L213.209226,32.6592 Z"/><path id="Fill-3" fill="#EE3524" d="M22.6136821,34.883664 C24.4712252,34.642224 26.2639925,34.074864 27.8891045,33.163344 C31.9028265,30.912624 34.2214213,27.043824 34.4176541,22.268784 L34.4348006,21.855504 L39.9898071,21.855504 C39.6397317,19.023984 38.5747403,16.413744 36.9853502,14.211024 L31.3022209,17.886864 C33.0311649,20.618064 33.25407,23.645424 31.9414062,26.669424 C30.3863093,30.251184 26.7207575,33.389904 22.6136821,34.883664"/><path id="Fill-5" fill="#EE3524" d="M40.07373,22.717728 L35.2498334,22.717728 C34.9250015,27.548928 32.4101739,31.614528 28.3050037,33.916608 C25.9621179,35.230368 23.2953528,35.884128 20.5723851,35.884128 C18.4624067,35.884128 16.3186114,35.490048 14.2648356,34.708608 C16.7334627,36.260928 19.5073938,37.110048 22.38087,37.118688 L22.424689,37.118688 C27.6139024,37.118688 32.2720489,34.352448 34.8921373,29.712288 L35.1140899,29.319648 L38.3419282,31.381728 C39.4769347,29.136288 40.120883,26.598528 40.120883,23.910528 C40.120883,23.508768 40.1018313,23.112288 40.07373,22.717728"/><path id="Fill-7" fill="#EE3524" d="M22.4248319,37.98072 L22.3786315,37.98072 C17.2084698,37.96536 12.3507565,35.38584 8.89382112,30.94536 C11.5205776,36.54744 17.1803685,40.434 23.7255884,40.434 C29.7935625,40.434 35.0980388,37.09224 37.9329353,32.14104 L35.4090582,30.52872 C32.5970237,35.20584 27.7783664,37.98072 22.4248319,37.98072"/><path id="Fill-9" fill="#EE3524" d="M23.7255884,0 C10.6222888,0 -1.42108547e-14,10.70496 -1.42108547e-14,23.91024 C-1.42108547e-14,37.11552 10.6222888,47.82048 23.7255884,47.82048 C36.8288879,47.82048 47.4511767,37.11552 47.4511767,23.91024 C47.4511767,10.70496 36.8288879,0 23.7255884,0 M23.7255884,41.29584 C14.1978211,41.29584 6.47425216,33.51216 6.47425216,23.91024 C6.47425216,14.3088 14.1978211,6.52512 23.7255884,6.52512 C33.2533556,6.52512 40.9769246,14.3088 40.9769246,23.91024 C40.9769246,33.51216 33.2533556,41.29584 23.7255884,41.29584"/><path id="Fill-11" fill="#231F20" d="M216.877064,15.656016 C216.979943,15.890736 217.119021,16.095696 217.294773,16.270416 C217.471002,16.445136 217.677236,16.582416 217.913478,16.682736 C218.148767,16.783056 218.400249,16.832976 218.667926,16.832976 C218.93465,16.832976 219.186609,16.783056 219.422374,16.682736 C219.657663,16.582416 219.863898,16.445136 220.040603,16.270416 C220.216355,16.095696 220.355909,15.890736 220.458788,15.656016 C220.559762,15.421296 220.611678,15.169296 220.611678,14.900016 C220.611678,14.630736 220.559762,14.377296 220.458788,14.139696 C220.355909,13.902096 220.216355,13.695696 220.040603,13.520976 C219.863898,13.346256 219.657663,13.207536 219.422374,13.104336 C219.186609,13.001136 218.93465,12.949776 218.667926,12.949776 C218.400249,12.949776 218.148767,13.001136 217.913478,13.104336 C217.677236,13.207536 217.471002,13.346256 217.294773,13.520976 C217.119021,13.695696 216.979943,13.902096 216.877064,14.139696 C216.774661,14.377296 216.724174,14.630736 216.724174,14.900016 C216.724174,15.169296 216.774661,15.421296 216.877064,15.656016 L216.877064,15.656016 Z M217.15903,14.255376 C217.244286,14.055216 217.360502,13.880496 217.508152,13.731696 C217.65628,13.582416 217.829174,13.465296 218.027788,13.379376 C218.226879,13.293456 218.439782,13.250256 218.667926,13.250256 C218.894642,13.250256 219.108021,13.293456 219.307111,13.379376 C219.506202,13.465296 219.679573,13.582416 219.826747,13.731696 C219.974874,13.880496 220.09109,14.055216 220.176823,14.255376 C220.261603,14.456016 220.303993,14.671056 220.303993,14.900016 C220.303993,15.123216 220.261603,15.335376 220.176823,15.535536 C220.09109,15.736176 219.974874,15.912336 219.826747,16.064016 C219.679573,16.216176 219.506202,16.334736 219.307111,16.420656 C219.108021,16.506576 218.894642,16.549776 218.667926,16.549776 C218.439782,16.549776 218.226879,16.506576 218.027788,16.420656 C217.829174,16.334736 217.65628,16.216176 217.508152,16.064016 C217.360502,15.912336 217.244286,15.736176 217.15903,15.535536 C217.073297,15.335376 217.03043,15.123216 217.03043,14.900016 C217.03043,14.671056 217.073297,14.456016 217.15903,14.255376 L217.15903,14.255376 Z M217.908715,15.991056 L218.300704,15.991056 L218.300704,15.071856 L218.582193,15.071856 L219.093732,15.991056 L219.570978,15.991056 L218.983232,15.028656 C219.136122,14.994576 219.25853,14.927376 219.349502,14.827056 C219.44095,14.726736 219.486674,14.596656 219.486674,14.435856 C219.486674,14.315856 219.463336,14.215536 219.417611,14.135376 C219.371887,14.055216 219.310922,13.989456 219.234239,13.937616 C219.157555,13.886256 219.07087,13.848816 218.974183,13.825776 C218.877495,13.803216 218.778426,13.791696 218.676023,13.791696 L217.908715,13.791696 L217.908715,15.991056 Z M218.300704,14.754096 L218.300704,14.126736 L218.658877,14.126736 C218.76128,14.126736 218.859396,14.146896 218.952749,14.186736 C219.047055,14.227056 219.093732,14.307216 219.093732,14.427216 C219.093732,14.559216 219.042769,14.646576 218.940366,14.689296 C218.837963,14.732496 218.73032,14.754096 218.61601,14.754096 L218.300704,14.754096 Z"/></g></g></g></g></svg>