<svg xmlns="http://www.w3.org/2000/svg" width="16" height="14" fill="none" viewBox="0 0 16 14"><path fill="#212D4F" fill-rule="evenodd" d="M1.34272 0.0267221C0.710774 0.121007 0.1734 0.636512 0.0398429 1.27659C0.0170474 1.38568 4.32967e-06 1.82922 4.32967e-06 2.31199V3.15656H7.3467H14.6934L14.676 2.2292C14.6608 1.4129 14.6499 1.27745 14.5856 1.09832C14.4153 0.624123 14.0643 0.263154 13.6055 0.0903228L13.3808 0.00568978L7.4675 0.000431738C4.21521 -0.00244938 1.45906 0.00939935 1.34272 0.0267221ZM2.48986 1.21C2.63421 1.2987 2.69163 1.40714 2.69163 1.59088C2.69163 2.09198 2.00379 2.2091 1.826 1.73829C1.67873 1.34826 2.13021 0.988981 2.48986 1.21ZM4.07175 1.19869C4.20817 1.2799 4.28756 1.4294 4.28756 1.60504C4.28756 1.72183 4.26305 1.78003 4.1714 1.8808C3.96214 2.11096 3.62788 2.07916 3.46224 1.81327C3.28874 1.53481 3.50208 1.13977 3.82597 1.13977C3.90675 1.13977 4.01734 1.16628 4.07175 1.19869ZM5.75855 1.27893C5.89057 1.42785 5.91765 1.55303 5.85627 1.73051C5.69074 2.20928 4.9988 2.09072 5.0034 1.5844C5.00601 1.29913 5.19699 1.12645 5.4824 1.15122C5.62453 1.16354 5.6783 1.18843 5.75855 1.27893ZM4.32967e-06 7.63267C4.32967e-06 11.5161 -0.00342567 11.4373 0.182797 11.81C0.364983 12.1746 0.689158 12.4502 1.10005 12.5896C1.31829 12.6638 1.35927 12.6645 4.66901 12.6554L8.01716 12.6463L8.09999 12.1637C8.23997 11.3484 8.02109 11.6174 10.8909 8.73304C13.2137 6.39832 13.4356 6.18527 13.6543 6.07949C13.8927 5.96421 14.1971 5.87907 14.5158 5.83863L14.6861 5.81699L14.6766 4.92794L14.667 4.0389L7.33351 4.02983L4.32967e-06 4.02071V7.63267ZM14.4223 6.72371C14.1115 6.77629 13.9052 6.91088 13.4884 7.33303L13.0958 7.7307L14.0418 8.68471L14.9878 9.63876L15.3738 9.25175C15.8333 8.79117 15.9626 8.56748 15.9951 8.17659C16.0545 7.462 15.5678 6.83964 14.8589 6.72371C14.7337 6.70322 14.6233 6.68827 14.6134 6.69043C14.6036 6.69263 14.5176 6.70758 14.4223 6.72371ZM10.7681 10.0802C9.82255 11.036 9.03878 11.8476 9.02642 11.8838C8.96561 12.062 8.75041 13.4915 8.76602 13.6137C8.77688 13.6988 8.82219 13.7931 8.88286 13.857C9.05847 14.0417 9.13779 14.0436 10.0484 13.885C10.5017 13.806 10.8984 13.7269 10.9298 13.7092C10.9612 13.6916 11.7506 12.9063 12.6839 11.9642L14.381 10.2512L13.4341 9.29688L12.4873 8.3425L10.7681 10.0802Z" clip-rule="evenodd"/></svg>