<svg width="13" height="14" viewBox="0 0 13 14" fill="none" xmlns="http://www.w3.org/2000/svg">
<path fill-rule="evenodd" clip-rule="evenodd" d="M1.85572 0.029056C0.990534 0.169641 0.278576 0.818617 0.0594541 1.6664C0.00119265 1.89188 0 1.99774 0 7.00566C0 12.0136 0.00119265 12.1194 0.0594541 12.3449C0.260268 13.1218 0.869688 13.7282 1.66972 13.947C1.85396 13.9974 2.12723 14 7.20069 14C12.1136 14 12.545 13.9962 12.6279 13.9518C12.8578 13.8288 12.9983 13.602 12.9993 13.352C13.0004 13.0979 12.8691 12.8809 12.65 12.7747C12.5421 12.7224 12.339 12.7198 7.27523 12.7058L2.01261 12.6913L1.86353 12.6193C1.4467 12.4181 1.24302 11.9518 1.38921 11.5333C1.44667 11.3688 1.66284 11.1268 1.83035 11.0394L1.95298 10.9754L7.2156 10.9609C12.2043 10.9471 12.4844 10.9436 12.5975 10.8939C12.755 10.8246 12.8757 10.7111 12.9435 10.5683C12.9965 10.4565 12.9987 10.2573 12.9993 5.47726L13 0.502606L12.9245 0.354751C12.8438 0.196862 12.6923 0.0732324 12.5206 0.0251881C12.3918 -0.0108161 2.07812 -0.00706442 1.85572 0.029056ZM6.92972 2.01798C7.92323 2.22327 8.63441 3.19061 8.50125 4.1556C8.41473 4.78279 8.08877 5.28453 7.54921 5.62104C7.36507 5.73589 7.31998 5.78056 7.2588 5.90875C7.2147 6.00109 7.18626 6.11399 7.18608 6.19719C7.1853 6.56404 7.04934 6.81656 6.78892 6.93481C6.5825 7.02855 6.40614 7.0268 6.20497 6.92903C5.89365 6.77771 5.78721 6.51536 5.84213 6.03485C5.91971 5.35619 6.23085 4.88019 6.84527 4.50011C7.28832 4.22607 7.26432 3.60007 6.80171 3.36432C6.58832 3.25559 6.41168 3.25559 6.19829 3.36432C5.94186 3.49499 5.87612 3.61653 5.79967 4.10125C5.77412 4.26341 5.62602 4.43974 5.44718 4.52096C5.09609 4.68042 4.73641 4.56284 4.55197 4.22828C4.50065 4.13521 4.48837 4.06539 4.49052 3.87929C4.49904 3.14708 4.94313 2.48932 5.65238 2.15845C6.03131 1.98168 6.50301 1.9298 6.92972 2.01798ZM6.71698 7.70538C6.77893 7.72216 6.877 7.77646 6.9349 7.82608C7.3354 8.16905 7.19323 8.79929 6.68275 8.94404C6.12264 9.10286 5.64173 8.53351 5.90525 8.02355C6.05096 7.74153 6.37769 7.61348 6.71698 7.70538Z" fill="#212D4F"/>
</svg>
