<svg xmlns="http://www.w3.org/2000/svg" width="15" height="15" fill="none" viewBox="0 0 15 15"><path fill="#212D4F" fill-rule="evenodd" d="M0.952012 0.0390744C0.51903 0.146482 0.157855 0.50616 0.0407246 0.946584C0.00735517 1.07209 0.000499641 2.07489 0.000206669 6.87688C-0.000174194 13.2011 -0.00998874 12.8335 0.167464 13.1368C0.273959 13.3187 0.492574 13.53 0.662527 13.6151C0.74119 13.6546 1.68884 13.9823 2.76844 14.3434L4.73134 15L4.99502 14.9999C5.3179 14.9999 5.49858 14.9427 5.74139 14.7638C5.93903 14.6181 6.09518 14.4027 6.18161 14.1565C6.2298 14.0193 6.24015 13.9145 6.24015 13.5638V13.1377L7.27287 13.1372C8.45281 13.1366 8.57006 13.1222 8.96478 12.9288C9.43884 12.6964 9.82421 12.2134 9.94456 11.7005C10.0116 11.4151 10.0118 8.67078 9.94483 8.51034C9.74871 8.04041 9.07069 8.00974 8.82284 8.45954C8.78018 8.53695 8.77259 8.72038 8.7597 9.98472L8.74505 11.4219L8.67181 11.5526C8.63153 11.6245 8.54141 11.7235 8.47156 11.7726L8.34459 11.8619L7.2927 11.8702L6.24082 11.8786L6.23317 7.03075L6.2255 2.18286L6.13277 1.98693C5.98002 1.66412 5.77456 1.47327 5.42299 1.32758L5.25869 1.25951L6.80163 1.26658L8.34456 1.27362L8.47156 1.3629C8.54141 1.41203 8.63153 1.51102 8.67181 1.58288L8.74505 1.71357L8.7597 2.84769L8.77435 3.98177L8.86224 4.10663C8.99411 4.29394 9.16711 4.37498 9.40781 4.36213C9.631 4.35025 9.77868 4.26736 9.90229 4.08466L9.97553 3.97638L9.98382 2.8097C9.99314 1.49782 9.98435 1.41625 9.7919 1.02431C9.63372 0.702204 9.2973 0.369686 8.96478 0.206726C8.51943 -0.0115204 8.72768 -0.00146014 4.70205 0.000739632C1.94032 0.00226481 1.06428 0.0112399 0.952012 0.0390744ZM11.6159 3.19079C11.4682 3.25796 11.321 3.42373 11.281 3.56792C11.2624 3.63494 11.2502 4.06393 11.2501 4.65394L11.25 5.62917H9.93733H8.62473L8.47051 5.7061C8.20678 5.83768 8.07816 6.11511 8.14724 6.40343C8.19459 6.60094 8.39642 6.80702 8.59039 6.85591C8.68452 6.87964 9.11956 6.89037 9.98851 6.89037H11.25V7.8622C11.25 8.54619 11.2606 8.86979 11.286 8.95476C11.3571 9.19289 11.631 9.38453 11.8979 9.3828C12.1309 9.38128 12.2108 9.31314 13.5579 7.96682C14.9082 6.61737 15 6.50993 15 6.27942C15 6.00272 15.0163 6.02234 13.5962 4.59442C12.7161 3.70956 12.2201 3.232 12.1416 3.1939C11.992 3.12131 11.7716 3.11999 11.6159 3.19079Z" clip-rule="evenodd"/></svg>