<svg width="64" height="64" viewBox="0 0 64 64" xmlns="http://www.w3.org/2000/svg"><title>Share Icons Copy</title><path d="M59.177 29.5s-1.25 0-1.25 2.5c0 14.471-11.786 26.244-26.253 26.244C17.206 58.244 5.417 46.47 5.417 32c0-13.837 11.414-25.29 25.005-26.26v6.252c0 .622-.318 1.635.198 1.985a1.88 1.88 0 0 0 1.75.19l21.37-8.545c.837-.334 1.687-1.133 1.687-2.384C55.425 1.99 53.944 2 53.044 2h-21.37C15.134 2 1.667 15.46 1.667 32c0 16.543 13.467 30 30.007 30 16.538 0 29.918-13.458 29.993-30 .01-2.5-1.24-2.5-1.24-2.5h-1.25" fill-rule="evenodd"/></svg>